<svg width="221" height="234" viewBox="0 0 221 234" fill="none" xmlns="http://www.w3.org/2000/svg">
<path fill-rule="evenodd" clip-rule="evenodd" d="M165.748 23.3993C221 54.5966 221 54.5966 221 116.998C221 179.4 221 179.4 165.748 210.601C110.496 241.802 110.5 241.798 55.2517 210.601C0.00354746 179.403 7.41697e-06 179.4 1.01446e-05 116.998C1.28723e-05 54.5966 -1.76453e-05 54.5966 55.2518 23.3993C110.504 -7.79802 110.5 -7.80152 165.748 23.3993Z" fill="url(#paint0_linear_25_486)"/>
<circle cx="110" cy="117" r="83" transform="rotate(-180 110 117)" fill="url(#paint1_linear_25_486)"/>
<path d="M108.739 155H82.0554V72.0908H109.584C117.66 72.0908 124.596 73.7506 130.391 77.0702C136.187 80.3628 140.627 85.0993 143.713 91.2797C146.825 97.4332 148.381 104.815 148.381 113.424C148.381 122.06 146.812 129.482 143.672 135.69C140.56 141.897 136.052 146.674 130.15 150.021C124.247 153.34 117.11 155 108.739 155ZM94.4915 144.07H108.054C114.333 144.07 119.551 142.882 123.71 140.507C127.869 138.105 130.981 134.637 133.047 130.103C135.113 125.542 136.146 119.982 136.146 113.424C136.146 106.92 135.113 101.4 133.047 96.8664C131.008 92.3323 127.963 88.8912 123.911 86.5432C119.86 84.1952 114.829 83.0212 108.819 83.0212H94.4915V144.07Z" fill="#58C9FF"/>
<rect x="108" y="61" width="8" height="105" fill="#58C9FF"/>
<defs>
<linearGradient id="paint0_linear_25_486" x1="231.929" y1="225.513" x2="5.65443" y2="5.88558" gradientUnits="userSpaceOnUse">
<stop stop-color="#892DFF"/>
<stop offset="1" stop-color="#52E0FF"/>
</linearGradient>
<linearGradient id="paint1_linear_25_486" x1="228" y1="237.5" x2="-37.5501" y2="6.87492" gradientUnits="userSpaceOnUse">
<stop stop-color="#892DFF"/>
<stop offset="1" stop-color="#52E0FF"/>
</linearGradient>
</defs>
</svg>
