<?xml version="1.0" encoding="UTF-8"?>
<svg xmlns:xodm="http://www.corel.com/coreldraw/odm/2003" xmlns="http://www.w3.org/2000/svg" xmlns:xlink="http://www.w3.org/1999/xlink" version="1.1" id="Layer_1" x="0px" y="0px" viewBox="0 0 2500 2500" style="enable-background:new 0 0 2500 2500;" xml:space="preserve">
<style type="text/css">
	.st0{fill-rule:evenodd;clip-rule:evenodd;fill:#FFFFFF;}
	.st1{fill-rule:evenodd;clip-rule:evenodd;fill:#2775CA;}
</style>
<g id="Layer_x0020_1">
	<g id="_2085564238576">
		<circle id="Oval" class="st0" cx="1250" cy="1250" r="1053.9"></circle>
		<path id="Logo" class="st1" d="M1250,0c690.3,0,1250,559.6,1250,1250c0,690.3-559.7,1250-1250,1250C559.6,2500,0,1940.3,0,1250    C0,559.6,559.6,0,1250,0z M1535.6,369.8c-28.2-9-51.2,7.7-51.2,37.3l0,0v72.8c0,19.9,15,42.4,33.6,49.2    c299.2,109.6,513.3,397.2,513.3,733.9s-214.1,624.3-513.3,733.8c-20.4,7.5-33.6,27.5-33.6,49.2l0,0v72.8    c0,29.6,23.1,46.3,51.2,37.3c378.1-120.8,651.9-475,651.9-893.2S1913.7,490.6,1535.6,369.8L1535.6,369.8z M1015.6,407.1    c0-29.6-23-46.3-51.2-37.3c-378.1,120.8-651.9,475-651.9,893.2s273.8,772.4,651.9,893.2c28.2,9,51.2-7.7,51.2-37.3l0,0v-72.8    c0-19.8-15-42.4-33.6-49.2c-299.2-109.6-513.3-397.2-513.3-733.8S682.8,638.8,982,529.2c18.6-6.8,33.6-29.4,33.6-49.2l0,0V407.1    L1015.6,407.1z M1289.1,638h-78.1c-21.6,0-39.1,17.5-39.1,39.1l0,0v121c-154.9,22-255,125.1-255,257.3    c0,171.2,103.5,237.6,321.9,267c148.2,24.3,190.3,56.2,190.3,140.5c0,84.3-71.6,140.5-172.4,140.5    c-136.4,0-181.3-59.7-197.8-136.9c-3.9-18.3-19.6-31.7-38.3-31.7l0,0h-89.1c-22.5,0-40,20.2-36.1,42.3    c22.7,130,106.2,225.4,276.6,248.5l0,0V1849c0,21.6,17.5,39.1,39.1,39.1l0,0h78.1c21.6,0,39.1-17.5,39.1-39.1l0,0v-123.4    c161.3-25.6,264.4-137.9,264.4-276.8c0-182.6-111.1-243.9-325.7-273.3c-158.4-23-189-60-189-134.1c0-70.2,53.6-120,157.1-120    c93.6,0,147.4,32.7,169.6,108c5,16.8,20,28.7,37.5,28.7l0,0h82.2c22.9,0,40.7-21.1,35.8-43.4c-26-119-106.2-190.5-232-213l0,0    V677.1C1328.1,655.5,1310.6,638,1289.1,638L1289.1,638L1289.1,638z"></path>
	</g>
</g>
</svg>
