<svg viewBox="0 0 18 30" fill="white" xmlns="http://www.w3.org/2000/svg">
<path d="M7.70455 24H1.51705V6.54545H7.75568C9.51136 6.54545 11.0227 6.89489 12.2898 7.59375C13.5568 8.28693 14.5313 9.28409 15.2131 10.5852C15.9006 11.8864 16.2443 13.4432 16.2443 15.2557C16.2443 17.0739 15.9006 18.6364 15.2131 19.9432C14.5313 21.25 13.5511 22.2528 12.2727 22.9517C11 23.6506 9.47727 24 7.70455 24ZM5.20739 20.8381H7.55114C8.64205 20.8381 9.55966 20.6449 10.304 20.2585C11.054 19.8665 11.6165 19.2614 11.9915 18.4432C12.3722 17.6193 12.5625 16.5568 12.5625 15.2557C12.5625 13.9659 12.3722 12.9119 11.9915 12.0938C11.6165 11.2756 11.0568 10.6733 10.3125 10.2869C9.56818 9.90057 8.65057 9.70739 7.55966 9.70739H5.20739V20.8381Z"/>
<path d="M9.375 2.76705V26.6875H7.47159V2.76705H9.375Z"/>
</svg>
