<svg width="1733" height="1737" viewBox="0 0 1733 1737" fill="none" xmlns="http://www.w3.org/2000/svg">
<g opacity="0.33" clip-path="url(#clip0_0_3892)">
<path opacity="0.05" d="M1520 572.974C1559.95 648.615 1482.64 709.465 1486.31 867.248C1489.75 1017.05 1561.08 1070.21 1519.29 1149.29C1490.74 1202.62 1420.72 1215.54 1358.39 1279.61C1255.84 1384.38 1309.53 1426.48 1228.23 1481.51C1169.07 1521.89 1157.32 1491.81 1010.55 1498.42C809.359 1507.07 753.55 1602.98 654.21 1559.73C581.035 1528.25 591.12 1502.44 488.239 1404.39C366.348 1288.58 328.448 1279.22 289.989 1192.1C257.973 1119.38 238.922 1092.89 249.305 971.343C265.573 786.436 157.507 743.225 198.571 652.072C236.176 567.911 305.071 544.4 409.498 438.549C516.395 329.399 515.493 249.967 599.238 215.389C679.631 181.496 735.276 239.961 882.23 244.494C1041.06 249.042 1098.87 178.212 1180.41 219.86C1250.72 256.121 1261.04 338.868 1349.87 433.151C1439.1 525.956 1478.23 495.261 1520 572.974Z" fill="url(#paint0_linear_0_3892)"/>
<path opacity="0.1" d="M607.438 246.887C688.768 212.453 738.882 279.731 880.463 283.616C885.097 284.065 889.928 283.776 894.76 283.487C1036.79 282.74 1086.66 208.993 1167.12 248.766C1225.85 277.966 1236.18 348.837 1295.46 423.322C1305.65 435.556 1316.78 447.249 1329.19 460.077C1415.96 544.305 1457.7 512.726 1496.86 591.322C1532.97 663.558 1460.39 718.551 1460.78 861.991C1460.93 997.448 1520.83 1045.97 1484.27 1123.28C1460.6 1173.16 1430.07 1189.53 1381.71 1228.05C1366.67 1239.85 1352.01 1250.18 1337.7 1262.19C1304.94 1289.84 1285.3 1309.91 1271.17 1333.05C1241.2 1382.83 1254.66 1421.28 1199.31 1456.34C1143.03 1491.94 1131.42 1464.28 998.263 1467.41C816.988 1472.68 764.399 1553.62 670.775 1512.7C603.317 1483.54 607.777 1460.97 511.194 1374.91C396.684 1272.95 356.315 1266.89 319.77 1187.41C288.784 1119.71 281.324 1088.41 293.278 972.831C294.875 955.045 296.075 938.736 294.464 924.05C285.638 785.477 196.002 750.372 231.733 667.293C264.203 590.467 327.369 576.508 414.175 492.068C421.725 484.588 429.474 476.369 437.42 467.412C535.34 362.193 525.171 281.861 607.438 246.887Z" fill="url(#paint1_linear_0_3892)"/>
<path opacity="0.2" d="M615.44 279.123C697.165 243.212 742.488 319.501 876.822 323.819C881.456 324.269 886.287 323.98 890.181 324.231C1026.1 322.639 1068.48 241.342 1150.08 279.836C1206.99 306.964 1211.84 383.495 1270.63 453.889C1281.76 465.582 1293.08 476.536 1305.15 487.688C1389.67 562.6 1435.5 530.534 1472.24 609.275C1504.31 678.845 1436.47 727.98 1432.84 856.879C1429.9 977.254 1478.7 1022.8 1446.83 1097.41C1421.72 1155.62 1408.1 1170.97 1361.37 1212.3C1345.93 1225.59 1330.53 1235.72 1315.14 1245.85C1281.35 1268.47 1258.86 1281.45 1241.18 1306.01C1205.09 1354.94 1223.83 1400.35 1168.13 1433.73C1115.25 1465.49 1102.51 1439.12 983.504 1439.7C821.805 1439.92 772.238 1506.63 684.872 1468.96C622.39 1441.92 621.228 1422.61 531.681 1348.72C423.812 1260.43 381.172 1256.92 346.344 1185.82C316.19 1123.89 320.518 1087.04 334.585 978.355C336.722 961.506 337.184 945 336.312 930.512C323.737 794.102 228.768 767.071 263.02 683.595C295.147 605.094 361.258 603.802 443.773 520.588C451.324 513.109 458.333 504.692 466.082 496.473C554.286 394.986 533.714 315.034 615.44 279.123Z" fill="url(#paint2_linear_0_3892)"/>
<path opacity="0.3" d="M624.181 311.558C706.302 274.169 746.095 359.271 874.857 363.68C879.491 364.13 883.583 363.643 888.217 364.092C1018.76 361.852 1053.12 272.069 1136.59 309.482C1191.68 334.538 1191.05 416.728 1248.41 483.572C1258.6 495.805 1270.33 505.282 1283.33 515.893C1365.59 581.49 1415.71 548.197 1449.1 627.624C1477.13 694.527 1414.03 737.805 1407.11 852.36C1400.88 958.392 1439.34 1001.16 1411.8 1071.39C1385.26 1137.93 1388.35 1153.01 1342.7 1196.21C1326.67 1211.71 1310.19 1219.97 1294.46 1228.42C1259.63 1246.02 1235.03 1252.1 1213.26 1277.15C1170.86 1325.97 1195.26 1376.86 1139.22 1408.56C1089.94 1435.75 1076.61 1411.59 971.212 1408.69C828.892 1404.6 783.087 1457.27 701.437 1421.93C643.932 1397.01 637.146 1380.94 553.897 1319.04C453.408 1244.6 408.3 1244.39 375.584 1180.19C346.46 1123.29 363.118 1081.82 378.756 979.104C381.633 962.453 381.896 946.685 380.284 931.999C362.575 802.924 262.471 783.229 295.245 699.357C325.894 620.459 395.147 631.097 473.174 549.848C479.985 542.17 486.994 533.753 493.806 526.075C573.97 427.977 543.195 347.667 624.181 311.558Z" fill="url(#paint3_linear_0_3892)"/>
<path opacity="0.4" d="M641.12 375.49C723.835 335.885 754.045 439.008 869.646 442.267C873.54 442.518 878.372 442.229 882.266 442.481C1001.52 438.008 1020.37 332.19 1107.39 368.179C1158.84 389.09 1147.45 481.86 1202.7 541.803C1213.09 553.298 1225.95 561.495 1238.07 569.493C1314.87 616.998 1373.38 581.993 1401.74 662.447C1422.82 722.739 1368.26 754.842 1354.57 841.45C1341.96 918.055 1361.4 954.939 1340.48 1018.23C1312.53 1101.81 1347.77 1115.21 1303.89 1163.64C1286.12 1182.64 1269.3 1189.22 1250.86 1192.99C1214.72 1200.72 1184.21 1193.34 1155 1219.57C1100.92 1267.64 1135.11 1332.23 1078.24 1358.17C1035.78 1377.68 1020.91 1356.27 944.014 1347.55C840.993 1335.78 800.889 1358.3 731.411 1327.8C683.86 1307.14 665.827 1297.56 596.651 1260.02C510.182 1213.09 460.138 1219.48 431.251 1170.56C403.448 1123.51 444.962 1072.08 463.347 982.765C466.765 967.05 467.767 951.481 465.021 938.074C441.385 819.29 329.876 815.544 359.891 730.141C387.582 650.451 462.381 684.748 532.369 606.888C539.18 599.21 545.054 592.073 550.387 583.999C612.599 493.761 562.153 412.932 641.12 375.49Z" fill="url(#paint4_linear_0_3892)"/>
<path opacity="0.5" d="M658.061 439.423C741.371 397.601 761.257 518.548 864.978 521.791C868.872 522.042 872.965 521.555 876.859 521.806C983.892 515.642 987.767 394.726 1077.8 428.353C1124.66 445.662 1103.26 549.21 1156.39 602.251C1166.98 613.007 1180.04 620.465 1192.95 625.508C1263.91 656.4 1333.06 617.121 1355.26 699.884C1369.4 753.563 1324.32 773.952 1302.17 832.954C1284.13 879.593 1284.14 912.066 1268.56 967.282C1240.69 1068.31 1307.87 1080.77 1265.42 1132.74C1246.66 1155.43 1227.83 1160.68 1208.16 1160.16C1171.23 1158.98 1135.02 1137.4 1097.63 1164.6C1031.66 1212.65 1075.85 1290.22 1018.89 1310.59C983.775 1323.36 967.379 1304.71 918.442 1289.22C854.917 1269.03 821.057 1262.34 763.552 1237.42C726.694 1221.21 696.476 1218.66 641.031 1203.8C567.646 1184.93 513.061 1196.44 487.805 1163.54C460.385 1126.89 528.433 1065.14 548.825 989.038C552.982 973.522 554.328 959.628 550.103 945.826C519.062 836.936 396.887 849.338 423.403 762.206C448.336 680.985 528.68 738.941 590.431 665.209C596.305 658.072 601.44 650.737 606.033 642.465C651.771 560.483 580.177 478.739 658.061 439.423Z" fill="url(#paint5_linear_0_3892)"/>
<path opacity="0.6" d="M488.392 794.666C510.566 711.914 596.258 794.268 650.906 723.385C711.825 643.887 591.638 548.33 675.739 503.553C762.652 457.153 770.33 608.881 871.449 601.132C966.998 593.474 955.361 456.523 1048.4 487.789C1091.43 501.693 1059.66 614.342 1110.48 661.221C1175.4 720.586 1290.45 634.212 1308.44 735.644C1321.61 813.615 1222.84 791.901 1197.77 915.055C1173.14 1033.58 1268.37 1044.84 1227.89 1101.31C1173.53 1177.02 1111.53 1065.38 1041.39 1108.35C963.541 1156.39 1018.81 1248.8 959.732 1262.27C898.981 1276.09 878.475 1181.11 794.608 1145.17C728.43 1117.15 578.193 1186.97 544.753 1155.04C512.052 1123.31 662.076 1021.76 636.12 953.036C598.413 854.238 464.833 882.591 488.392 794.666Z" fill="url(#paint6_linear_0_3892)"/>
</g>
<defs>
<linearGradient id="paint0_linear_0_3892" x1="412.926" y1="1342.74" x2="1362.79" y2="392.433" gradientUnits="userSpaceOnUse">
<stop stop-color="#90FFFF"/>
<stop offset="0.3827" stop-color="#5AA2FA"/>
<stop offset="1" stop-color="#0005F1"/>
</linearGradient>
<linearGradient id="paint1_linear_0_3892" x1="348.395" y1="1238.1" x2="1423.84" y2="484.641" gradientUnits="userSpaceOnUse">
<stop stop-color="#47FFFF"/>
<stop offset="0.3827" stop-color="#2DA2EE"/>
<stop offset="1" stop-color="#0005D0"/>
</linearGradient>
<linearGradient id="paint2_linear_0_3892" x1="318.564" y1="1123.46" x2="1463.21" y2="589.321" gradientUnits="userSpaceOnUse">
<stop stop-color="#00FFFF"/>
<stop offset="0.3827" stop-color="#00A2E6"/>
<stop offset="1" stop-color="#0005BC"/>
</linearGradient>
<linearGradient id="paint3_linear_0_3892" x1="325.716" y1="1009.44" x2="1470.17" y2="702.493" gradientUnits="userSpaceOnUse">
<stop stop-color="#12FFE2"/>
<stop offset="0.398" stop-color="#0BA2D3"/>
<stop offset="1" stop-color="#000FBC"/>
</linearGradient>
<linearGradient id="paint4_linear_0_3892" x1="367.811" y1="909.913" x2="1418.23" y2="817.822" gradientUnits="userSpaceOnUse">
<stop stop-color="#29E5E2"/>
<stop offset="0.5331" stop-color="#1489CE"/>
<stop offset="1" stop-color="#0036BC"/>
</linearGradient>
<linearGradient id="paint5_linear_0_3892" x1="417.507" y1="815.291" x2="1342.44" y2="896.117" gradientUnits="userSpaceOnUse">
<stop stop-color="#29CCE2"/>
<stop offset="0.8031" stop-color="#0870C4"/>
<stop offset="1" stop-color="#0059BC"/>
</linearGradient>
<linearGradient id="paint6_linear_0_3892" x1="489.746" y1="785.415" x2="1279" y2="924.547" gradientUnits="userSpaceOnUse">
<stop stop-color="#29CFE2"/>
<stop offset="0.9776" stop-color="#0173BD"/>
<stop offset="1" stop-color="#0071BC"/>
</linearGradient>
<clipPath id="clip0_0_3892">
<rect width="1409" height="1435" fill="white" transform="translate(371.708) rotate(15)"/>
</clipPath>
</defs>
</svg>
