<svg width="839" height="853" viewBox="0 0 839 853" fill="none" xmlns="http://www.w3.org/2000/svg">
<path opacity="0.05" d="M731.473 151.1C766.099 186.362 733.35 232.819 761.472 319.539C788.143 401.88 836.427 419.516 826.362 470.191C819.369 504.424 782.736 523.144 758.816 568.908C719.353 643.843 756.043 658.272 720.124 702.167C694.047 734.29 682.569 719.587 602.395 747.499C492.422 785.539 477.378 847.847 415.224 840.329C369.501 834.997 370.818 819.047 297.643 781.785C211.006 737.833 188.472 738.914 152.774 697.052C123.023 662.094 108.096 650.583 93.7498 581.595C72.1867 476.566 5.20675 470.511 12.8735 413.274C19.7814 360.479 54.0416 336.08 94.363 260.236C135.506 182.159 121.874 138.345 162.527 105.366C201.437 73.3211 241.914 96.4829 324.032 74.7039C412.731 50.97 433.026 2.21495 485.063 11.7883C529.989 20.2375 549.381 64.3302 614.156 101.831C678.906 138.448 695.495 114.993 731.473 151.1Z" fill="url(#paint0_linear_0_4155)"/>
<path opacity="0.1" d="M172.275 121.444C211.614 88.9446 250.486 117.898 329.521 96.6485C332.161 96.1316 334.789 95.173 337.416 94.2144C415.935 70.3275 431.355 21.2688 482.483 29.984C519.831 36.4382 537.266 73.9562 582.401 105.384C590.067 110.471 598.162 115.103 607.154 120.152C669.127 152.428 687.017 128.051 721.694 165.08C753.629 199.093 722.536 241.524 746.467 320.849C768.946 395.794 810.131 412.748 802.668 461.581C797.811 493.101 783.611 507.207 763.206 536.516C756.825 545.538 750.42 553.676 744.481 562.684C730.911 583.402 723.355 597.761 719.36 612.903C710.992 645.407 724.805 664.463 699.954 693.015C674.674 722.021 663.675 708.631 590.462 732.367C490.962 765.248 475.225 818.736 416.619 811.559C374.446 806.568 373.186 793.343 305.479 761.672C225.218 724.169 201.863 727.484 168.488 689.534C140.139 657.188 130.834 641.098 118.344 575.151C116.287 565.043 114.255 555.818 110.935 547.956C83.1385 472.719 27.7028 468.105 33.7517 416.218C39.0292 368.331 71.6964 350.165 105.8 289.084C108.744 283.696 111.676 277.867 114.595 271.596C151.418 197.177 132.506 154.397 172.275 121.444Z" fill="url(#paint1_linear_0_4155)"/>
<path opacity="0.2" d="M182.035 137.963C221.35 104.581 259.058 139.313 334.152 119.502C336.792 118.985 339.42 118.026 341.618 117.522C416.612 94.177 426.64 42.1772 478.184 49.9965C514.181 55.6051 529.518 97.1608 573.707 126.405C581.802 131.038 589.885 135.228 598.41 139.407C657.592 166.9 677.668 141.577 711.03 179.085C740.289 212.29 710.851 250.696 730.148 322.638C748.422 389.747 782.977 406.889 777.661 453.45C773.384 489.817 768.38 500.567 749.339 531.164C742.983 541.069 736.136 549.219 729.288 557.37C714.317 575.475 704.007 586.376 698.282 602.893C686.389 635.939 704.27 657.974 678.951 685.655C654.922 711.974 643.506 699.479 577.708 719.469C488.213 746.32 471.796 791.429 417.194 785.022C378.128 780.385 374.29 769.885 312.493 743.793C238.168 712.751 213.979 717.858 182.939 684.262C156.004 654.97 152.308 633.858 142.129 571.382C140.527 561.703 138.053 552.491 135.175 544.616C105.66 471.196 48.6063 471.932 53.771 420.07C58.5814 371.312 94.9733 359.671 126.904 299.978C129.849 294.59 132.338 288.773 135.27 282.944C167.33 212.196 142.721 171.346 182.035 137.963Z" fill="url(#paint2_linear_0_4155)"/>
<path opacity="0.3" d="M192.237 154.47C231.526 120.204 267.629 160.729 339.654 141.888C342.294 141.371 344.479 140.425 347.119 139.908C419.031 117.093 423.211 61.723 475.615 68.6339C510.261 73.3968 523.5 118.99 566.313 146.506C573.979 151.592 582.036 154.9 590.991 158.624C647.383 181.334 669.631 154.624 701.25 193.065C727.831 225.462 700.049 259.843 715.154 324.39C729.237 384.103 757.602 401.421 753.967 444.841C750.27 486.053 754.474 493.889 736.342 525.345C730.024 536.574 722.267 543.867 714.953 551.146C698.58 566.639 685.96 574.07 678.049 591.533C662.645 625.562 684.567 649.693 658.781 676.503C635.99 699.693 624.612 688.523 565.774 704.337C486.297 725.6 469.641 762.317 418.589 756.252C382.63 751.968 376.215 744.194 319.886 723.692C251.938 699.1 226.927 706.44 198.198 676.315C172.665 649.635 175.032 623.931 166.709 564.496C165.549 554.805 163.088 546.034 159.768 538.172C128.622 469.661 69.9383 475.304 74.2188 423.468C78.145 374.735 118.249 369.177 148.02 311.313C150.522 305.937 153.011 300.121 155.514 294.746C183.682 227.203 153.364 187.84 192.237 154.47Z" fill="url(#paint3_linear_0_4155)"/>
<path opacity="0.4" d="M212.187 187.055C251.438 151.464 285.214 203.546 349.762 186.244C351.96 185.74 354.587 184.781 356.785 184.277C422.078 162.091 415.019 100.41 469.153 105.946C501.096 109.018 510.128 162.244 550.63 186.289C558.283 190.934 566.758 193.346 574.79 195.77C625.172 209.368 651.779 180.325 680.783 220.166C702.426 250.051 677.524 276.836 684.258 327.034C689.945 371.516 706.804 388.718 705.684 427.204C704.03 478.082 725.755 479.676 709.467 513.731C702.769 527.181 694.545 533.603 684.957 538.737C666.224 548.993 648.111 549.949 636.272 569.292C614.274 604.835 643.886 634.935 616.687 658.691C596.398 676.506 584.628 667.115 540.608 674.995C481.62 685.509 463.137 704.598 419.625 699.203C389.88 695.627 378.311 693.303 333.802 683.958C278.165 672.277 251.512 684.084 227.43 661.783C204.257 640.34 218.739 605.01 214.153 552.541C213.448 543.279 211.429 534.496 207.692 527.53C174.966 465.693 112.604 482.049 115.104 429.821C117.262 381.139 164.348 387.759 190.228 333.099C192.73 327.724 194.802 322.803 196.42 317.453C215.948 257.227 174.653 220.829 212.187 187.055Z" fill="url(#paint4_linear_0_4155)"/>
<path opacity="0.5" d="M232.136 219.639C271.35 182.723 302.358 246.377 360.324 231.029C362.522 230.525 364.707 229.579 366.905 229.075C425.151 207.973 407.305 140.41 462.716 144.141C491.526 145.976 496.793 206.824 534.984 227.398C542.625 231.602 551.087 233.571 559.069 234.229C603.466 239.599 635.265 206.43 661.237 248.568C677.942 275.94 656.351 294.675 653.843 330.991C651.563 359.787 656.94 377.757 657.438 410.893C658.713 471.412 697.97 467.204 683.058 502.988C676.423 518.647 666.861 524.664 655.884 527.628C635.244 533.076 611.626 527.116 595.416 548.351C566.836 585.848 604.128 621.477 575.956 642.167C558.624 655.035 546.462 647.424 516.805 646.94C478.294 646.265 458.438 648.154 422.479 643.871C399.39 640.99 382.237 644.571 349.081 645.512C305.327 647.195 277.006 662.586 257.582 648.551C236.341 632.799 263.81 587.376 262.519 541.886C262.256 532.611 260.704 524.699 256.083 517.758C220.892 462.622 155.295 489.678 155.571 437.071C155.948 387.997 210.017 406.795 232.018 355.781C234.091 350.861 235.721 345.952 236.897 340.615C248.668 287.681 195.512 254.271 232.136 219.639Z" fill="url(#paint5_linear_0_4155)"/>
<path opacity="0.6" d="M196.923 444.296C195.52 394.83 256.583 426.248 275.123 377.985C295.71 323.917 213.364 290.894 252.528 252.211C292.981 212.166 322.317 294.874 377.026 273.873C428.665 253.843 399.579 179.968 456.266 181.896C482.386 182.48 483.42 250.078 519.313 267.624C565.07 289.752 614.496 222.932 641.224 276.099C661.412 317.075 603.132 321.381 609.609 393.686C615.568 463.355 670.16 453.849 657.079 491.791C639.499 542.68 586.713 491.136 554.977 526.514C519.816 565.967 565.695 607.982 535.213 625.201C503.86 642.887 476.802 593.708 424.424 587.68C383.147 583.106 311.504 646.578 287.71 634.435C264.358 622.28 330.637 541.279 304.903 507.533C267.691 459.084 198.415 496.853 196.923 444.296Z" fill="url(#paint6_linear_0_4155)"/>
<defs>
<linearGradient id="paint0_linear_0_4155" x1="245.75" y1="760.109" x2="614.327" y2="77.0269" gradientUnits="userSpaceOnUse">
<stop stop-color="#90FF9B"/>
<stop offset="0.3827" stop-color="#5DFA5A"/>
<stop offset="1" stop-color="#13F100"/>
</linearGradient>
<linearGradient id="paint1_linear_0_4155" x1="192.719" y1="712.861" x2="663.377" y2="117.911" gradientUnits="userSpaceOnUse">
<stop stop-color="#47FF7B"/>
<stop offset="0.3827" stop-color="#2DEE57"/>
<stop offset="1" stop-color="#00D015"/>
</linearGradient>
<linearGradient id="paint2_linear_0_4155" x1="157.247" y1="654.338" x2="702.532" y2="169.309" gradientUnits="userSpaceOnUse">
<stop stop-color="#00FFFF"/>
<stop offset="0.3827" stop-color="#57E600"/>
<stop offset="1" stop-color="#04BC00"/>
</linearGradient>
<linearGradient id="paint3_linear_0_4155" x1="142.357" y1="590.055" x2="725.165" y2="230.809" gradientUnits="userSpaceOnUse">
<stop stop-color="#12FFE2"/>
<stop offset="0.398" stop-color="#0BD34F"/>
<stop offset="1" stop-color="#000FBC"/>
<stop offset="1.0001" stop-color="#00BC1E"/>
</linearGradient>
<linearGradient id="paint4_linear_0_4155" x1="149.211" y1="528.009" x2="715.54" y2="303.283" gradientUnits="userSpaceOnUse">
<stop stop-color="#29E574"/>
<stop offset="0.5331" stop-color="#14CE48"/>
<stop offset="1" stop-color="#00BC1E"/>
</linearGradient>
<linearGradient id="paint5_linear_0_4155" x1="161.083" y1="467.426" x2="686.566" y2="359.22" gradientUnits="userSpaceOnUse">
<stop stop-color="#29E252"/>
<stop offset="0.8031" stop-color="#08C410"/>
<stop offset="1" stop-color="#00BC13"/>
</linearGradient>
<linearGradient id="paint6_linear_0_4155" x1="196.143" y1="438.952" x2="656.152" y2="385.481" gradientUnits="userSpaceOnUse">
<stop stop-color="#29E230"/>
<stop offset="0.9776" stop-color="#01BD1F"/>
<stop offset="1" stop-color="#00BC29"/>
</linearGradient>
</defs>
</svg>
