<svg width="1866" height="2193" viewBox="0 0 1866 2193" fill="none" xmlns="http://www.w3.org/2000/svg">
<g opacity="0.13" clip-path="url(#clip0_4018_1054)">
<path opacity="0.05" d="M1730.16 1145.61C1729.21 1238.87 1623.5 1257.05 1545.13 1410.22C1470.68 1555.61 1511.48 1643.62 1430.36 1697.73C1375.31 1734.02 1301.47 1710.04 1208.45 1739.1C1055.74 1786.28 1085.37 1854.52 978.853 1865.05C901.18 1873.04 905.522 1838.11 761.369 1768.22C563.966 1672.03 460.674 1734.99 387.87 1641.94C334.05 1573.76 357.113 1554.26 309.356 1406.84C252.592 1232.52 221.111 1203.86 229.453 1100.37C236.499 1014.02 231.98 978.74 305.021 867.611C416.59 698.797 335.4 601.253 422.083 535.194C501.822 474.043 580.083 487.283 735.15 440.039C894.296 390.917 934.659 314.3 1032.9 324.643C1127.58 333.901 1150.59 418.846 1289.14 499.506C1439.07 586.352 1531.26 548.47 1587.83 630.743C1636.43 702.018 1603.37 786.699 1639.61 923.217C1677 1058.52 1730.45 1049.42 1730.16 1145.61Z" fill="url(#paint0_linear_4018_1054)"/>
<path opacity="0.1" d="M1024.42 359.096C1120.27 368.323 1133.4 458.844 1267.14 536.093C1271.35 538.93 1276.13 541.162 1280.91 543.394C1417.48 616.437 1503.58 571.637 1560.08 651.551C1601.24 710.045 1574.36 783.348 1592.54 885.536C1595.96 902.556 1600.56 919.545 1605.8 938.287C1645.29 1064.1 1701.7 1055.5 1698.45 1151.18C1695.58 1239.18 1597.45 1254.21 1523.38 1391.92C1453.22 1521.86 1485.47 1599.47 1410.28 1654.6C1361.7 1690.13 1323.93 1689.97 1257.57 1701.78C1237.02 1705.28 1217.61 1707.57 1197.66 1711.65C1151.89 1721.14 1122.64 1730.19 1097.09 1745.04C1042.51 1777.19 1035.46 1821.05 964.194 1825.91C891.747 1830.81 894.975 1798.27 765.678 1732.11C589.126 1643.03 496.694 1693.31 428.165 1605.46C378.619 1542.47 394.607 1523.16 346.669 1390.49C289.789 1233.29 254.23 1206.51 260.442 1111.34C265.867 1030.35 274.959 996.468 346.411 891.872C357.173 875.651 366.789 860.64 372.866 845.725C436.326 708.299 368.6 628.096 445.98 567.007C516.987 510.221 584.798 529.642 711.856 493.774C722.978 490.524 734.673 486.67 746.942 482.209C895.441 432.192 927.385 349.901 1024.42 359.096Z" fill="url(#paint1_linear_4018_1054)"/>
<path opacity="0.2" d="M1015.36 394.155C1112.36 402.171 1116.22 498.842 1242.78 572.743C1246.99 575.581 1251.77 577.813 1255.38 580.076C1386.53 649.134 1469.36 593.21 1527.62 672.487C1568.11 728.048 1533.04 803.932 1552.87 901.944C1557.47 918.933 1562.64 935.317 1568.43 952.274C1610.58 1067.98 1671.17 1061.04 1665.53 1155.61C1660.17 1238.95 1569.63 1250.83 1499.24 1372.51C1433.94 1486.38 1457.1 1555.39 1387.81 1610.36C1333.53 1653.12 1312.5 1660.77 1246.24 1676.12C1224.54 1680.83 1204.52 1682.55 1184.51 1684.27C1140.36 1688.41 1112.06 1689.17 1082.36 1703.54C1022.36 1731.7 1016.76 1784.96 946.032 1788.04C878.843 1791.03 880.318 1759.12 765.91 1697.88C610.749 1614.12 528.604 1652.33 464.383 1570.85C418.506 1512.48 427.417 1493.36 379.905 1376.03C322.304 1235.36 283.239 1209.86 286.748 1123.61C289.978 1048.58 313.255 1015.5 383.151 918.62C393.945 903.578 402.955 887.993 409.638 873.652C468.381 736.352 391.351 661.12 467.519 598.884C539.067 540.313 603.126 573.407 725.434 536.486C736.556 533.237 747.645 528.808 759.34 524.953C896.587 473.468 918.359 386.14 1015.36 394.155Z" fill="url(#paint2_linear_4018_1054)"/>
<path opacity="0.3" d="M1006.9 429.788C1105.05 436.592 1099.03 538.84 1220.21 609.935C1224.42 612.773 1228.59 614.431 1232.8 617.268C1359.14 682.914 1438.68 614.687 1499.3 693.901C1539.11 746.529 1495.85 824.994 1516.16 918.863C1519.58 935.883 1525.9 951.056 1532.86 967.982C1577.69 1073.58 1643.03 1067.7 1633.82 1161.18C1625.97 1239.87 1543.01 1248.59 1476.91 1354.81C1415.91 1453.23 1430.58 1514.2 1367.73 1567.23C1307.75 1617.23 1302.88 1633.29 1236.69 1651C1213.27 1657.53 1193.19 1656.89 1173.71 1656.83C1131.19 1655.61 1104.44 1648.66 1070.57 1661.37C1004.58 1686.15 1001.56 1747.61 931.373 1748.9C870.015 1749.37 869.771 1719.28 770.218 1661.77C635.876 1583.94 564.623 1610.64 504.677 1534.36C462.469 1480.62 464.304 1461.68 416.611 1359.11C358.895 1235.56 315.752 1211.94 317.704 1133.4C319.312 1063.73 356.806 1032.63 425.113 942.276C436.514 927.808 444.95 912.829 451.027 897.913C501.04 764.979 415.279 694.112 490.235 630.729C560.571 571.01 621.452 617.171 738.437 579.803C748.953 575.98 760.042 571.551 770.557 567.728C898.337 515.317 910.511 422.346 1006.9 429.788Z" fill="url(#paint3_linear_4018_1054)"/>
<path opacity="0.4" d="M989.967 499.874C1089.83 504.862 1065.28 619.41 1174.43 682.567C1178.03 684.831 1182.81 687.063 1186.42 689.326C1303.09 746.971 1376.08 655.316 1440.84 735.008C1479.31 781.772 1420.24 864.792 1442.11 950.948C1446.1 967.363 1454.18 981.898 1461.65 995.86C1510.63 1081.29 1584.9 1078.11 1570.33 1169.97C1559.26 1238.72 1490.28 1241.16 1432.2 1317.07C1380.35 1383.96 1379.84 1429.41 1326.94 1479.22C1256.76 1544.84 1283.59 1575.98 1216.39 1599.62C1189.49 1608.61 1169.95 1606.18 1150.31 1600.22C1111.64 1588.86 1086.22 1565.94 1044.6 1575.91C967.793 1593.91 967.053 1673.59 899.061 1668.93C848.219 1665.57 845.075 1637.33 775.874 1589.03C683.201 1524.25 633.063 1525.01 582.272 1459.7C547.402 1415.19 535.085 1396.64 488.243 1324.73C429.689 1234.84 378.389 1214.97 376.082 1153.08C373.841 1093.54 440.343 1065.79 504.325 989.716C515.758 976.427 524.8 962.022 529.125 947.744C568.114 821.597 463.14 760.097 536.244 693.813C604.157 631.799 658.075 703.522 765.592 665.227C776.108 661.404 785.445 657.613 794.749 652.642C901.235 598.443 894.818 494.76 989.967 499.874Z" fill="url(#paint4_linear_4018_1054)"/>
<path opacity="0.5" d="M973.026 569.959C1074.61 573.131 1030.91 699.405 1128.67 756.377C1132.28 758.64 1136.45 760.299 1140.06 762.562C1245.88 812.237 1312.36 698.333 1381.23 777.325C1417.18 818.256 1342.91 906.405 1366.33 984.848C1370.9 1000.66 1379.55 1014.59 1389.31 1026.13C1441.31 1092.59 1528.01 1090.85 1506.34 1181.72C1492.03 1240.52 1438.23 1236.66 1386.37 1281.72C1344.86 1317.06 1328.02 1348.19 1284.42 1393.03C1205.27 1475.41 1263.22 1522.24 1195.54 1550.02C1165.77 1562.03 1144.99 1557.28 1126.4 1546.57C1091.61 1526.26 1068.09 1486.77 1018.11 1493.42C929.926 1505.23 932.034 1602.54 866.844 1592.49C826.551 1586.49 820.508 1560.1 781.624 1519.84C731.194 1467.49 702.203 1443.49 659.995 1389.75C633.068 1355.06 605.42 1336.92 559.968 1293.89C499.399 1237.69 441.089 1220.37 433.949 1175.71C426.678 1126.34 523.974 1102.49 583.025 1040.12C595.065 1027.4 603.566 1014.78 606.679 999.357C633.432 878.85 509.85 827.292 580.498 757.533C646.559 692.619 693.516 789.902 790.992 751.288C800.329 747.496 809.059 743.131 817.757 737.587C904.162 682.747 877.943 567.203 973.026 569.959Z" fill="url(#paint5_linear_4018_1054)"/>
<path opacity="0.6" d="M625.964 822.402C690.175 754.586 729.596 878.036 818.784 838.464C918.456 793.89 852.813 639.869 956.692 640.619C1064.11 641.273 992.721 790.714 1093.7 835.799C1189.29 878.077 1249.21 740.746 1322.2 819.038C1356.23 854.709 1267.3 946.202 1291.7 1017.54C1323.13 1108.16 1478.28 1085.11 1442.88 1191.68C1415.05 1273.27 1331.61 1201.16 1243.65 1306.2C1158.52 1407.04 1243.99 1467.29 1175.86 1500.39C1084.45 1544.75 1082.95 1405.53 993.383 1410.29C893.811 1415.92 898.835 1533.21 835.201 1515.45C769.782 1497.14 799.417 1395.44 737.653 1317.44C688.746 1256.2 508.456 1245.11 492.963 1197.14C478.076 1149.75 674.632 1130.3 685.413 1050.94C700.536 936.646 557.74 894.456 625.964 822.402Z" fill="url(#paint6_linear_4018_1054)"/>
</g>
<defs>
<linearGradient id="paint0_linear_4018_1054" x1="269.142" y1="1308.62" x2="1673.01" y2="890.499" gradientUnits="userSpaceOnUse">
<stop stop-color="#90FFFF"/>
<stop offset="0.3827" stop-color="#5AA2FA"/>
<stop offset="1" stop-color="#0005F1"/>
</linearGradient>
<linearGradient id="paint1_linear_4018_1054" x1="261.577" y1="1174.8" x2="1683.75" y2="1010.54" gradientUnits="userSpaceOnUse">
<stop stop-color="#47FFFF"/>
<stop offset="0.3827" stop-color="#2DA2EE"/>
<stop offset="1" stop-color="#0005D0"/>
</linearGradient>
<linearGradient id="paint2_linear_4018_1054" x1="292.479" y1="1049.4" x2="1667.26" y2="1131.36" gradientUnits="userSpaceOnUse">
<stop stop-color="#00FFFF"/>
<stop offset="0.3827" stop-color="#00A2E6"/>
<stop offset="1" stop-color="#0005BC"/>
</linearGradient>
<linearGradient id="paint3_linear_4018_1054" x1="358.509" y1="943.818" x2="1615.25" y2="1243.55" gradientUnits="userSpaceOnUse">
<stop stop-color="#12FFE2"/>
<stop offset="0.398" stop-color="#0BA2D3"/>
<stop offset="1" stop-color="#000FBC"/>
</linearGradient>
<linearGradient id="paint4_linear_4018_1054" x1="450.534" y1="870.264" x2="1505.6" y2="1327.26" gradientUnits="userSpaceOnUse">
<stop stop-color="#29E5E2"/>
<stop offset="0.5331" stop-color="#1489CE"/>
<stop offset="1" stop-color="#0036BC"/>
</linearGradient>
<linearGradient id="paint5_linear_4018_1054" x1="547.291" y1="805.361" x2="1392.26" y2="1363.09" gradientUnits="userSpaceOnUse">
<stop stop-color="#29CCE2"/>
<stop offset="0.8031" stop-color="#0870C4"/>
<stop offset="1" stop-color="#0059BC"/>
</linearGradient>
<linearGradient id="paint6_linear_4018_1054" x1="632.064" y1="814.236" x2="1316.64" y2="1357.45" gradientUnits="userSpaceOnUse">
<stop stop-color="#29CFE2"/>
<stop offset="0.9776" stop-color="#0173BD"/>
<stop offset="1" stop-color="#0071BC"/>
</linearGradient>
<clipPath id="clip0_4018_1054">
<rect width="1536.46" height="1564.31" fill="white" transform="translate(926.53) rotate(43.4361)"/>
</clipPath>
</defs>
</svg>
