<svg width="686" height="1751" viewBox="0 0 686 1751" fill="none" xmlns="http://www.w3.org/2000/svg">
<path opacity="0.05" d="M463.068 663.882C492.225 739.224 413.002 787.775 399.097 936.158C385.847 1077.03 446.911 1134.75 399.009 1204.31C366.36 1251.18 299.256 1255.57 233.735 1308.8C126.005 1395.76 171.741 1441.16 89.4186 1483.81C29.4873 1515.16 21.7722 1485.66 -116.638 1475.69C-306.331 1461.63 -369.235 1545.44 -457.669 1493.93C-522.851 1456.34 -510.552 1433.25 -596.279 1329.96C-697.886 1207.92 -732.411 1194.96 -758.906 1109.01C-780.941 1037.28 -795.899 1010.34 -772.789 897.494C-737.189 725.87 -833.812 673.438 -785.264 592.474C-740.729 517.686 -673.513 503.227 -563.906 415.459C-451.621 324.87 -443.73 250.275 -361.365 227.072C-282.221 204.143 -236.451 265.106 -99.0921 285.547C49.4103 307.313 111.427 247.253 183.343 295.297C245.312 337.052 245.886 415.793 318.851 514.004C392.349 610.873 432.43 586.396 463.068 663.882Z" fill="url(#paint0_linear_0_3944)"/>
<path opacity="0.1" d="M-357.137 257.516C-277.055 234.183 -237.443 302.802 -105.053 322.044C-100.756 322.976 -96.1914 323.237 -91.6271 323.498C41.6928 338.446 96.5874 274.776 167.694 320.943C219.579 354.799 221.471 422.404 268.885 498.791C277.1 511.387 286.254 523.58 296.485 536.978C368.623 625.532 411.253 600.515 439.342 678.541C465.269 750.267 391.137 793.846 375.725 928.415C360.968 1055.47 411.819 1107.57 369.015 1176.05C341.326 1220.23 310.883 1232.22 261.286 1263.01C245.87 1272.43 230.988 1280.5 216.244 1290.18C182.468 1312.5 161.833 1329.17 146.038 1349.31C112.442 1392.69 120.845 1430.24 65.0651 1457.02C8.34621 1484.21 0.501898 1456.99 -124.757 1445.25C-295.393 1430.23 -353.629 1500.34 -436.956 1451.64C-497.031 1416.86 -490.364 1396.19 -571.502 1304.84C-667.71 1196.6 -704.913 1186.46 -730.452 1107.9C-752.074 1040.99 -755.63 1010.82 -731.702 903.734C-728.248 887.229 -725.328 872.067 -725.224 858.116C-718.26 727.182 -798.487 684.382 -755.83 610.403C-716.918 541.929 -656.127 535.796 -565.407 466.168C-557.501 459.985 -549.328 453.13 -540.888 445.605C-437.456 357.713 -438.159 281.253 -357.137 257.516Z" fill="url(#paint1_linear_0_3944)"/>
<path opacity="0.2" d="M-353.176 288.631C-272.559 263.956 -238.433 340.497 -112.89 359.348C-108.593 360.28 -104.028 360.541 -100.403 361.206C27.2763 374.687 75.9793 303.113 148.292 348.205C198.696 379.917 194.826 452.226 242.232 524.722C251.386 536.915 260.807 548.436 270.899 560.225C341.944 639.793 388.467 614.77 414.273 692.666C436.705 761.445 367.662 800.053 350.072 920.541C334.075 1033.11 374.85 1081.2 336.74 1147.67C306.786 1199.49 292.318 1212.39 243.935 1246C227.985 1256.76 212.432 1264.57 196.878 1272.37C162.689 1289.86 140.16 1299.56 120.877 1320.65C81.6394 1362.56 94.2196 1407.21 38.3016 1432.38C-14.8001 1456.34 -23.8502 1430.2 -135.554 1417.63C-287.269 1400.03 -341.104 1457.13 -418.92 1412.18C-474.56 1379.94 -473.526 1361.69 -549.402 1282.53C-640.882 1187.84 -680.496 1179.85 -705.348 1109.33C-726.823 1047.93 -718.709 1013.84 -693.559 913.466C-689.7 897.9 -687.452 882.47 -686.676 868.786C-683.468 739.468 -769.585 703.653 -728.271 629.139C-689.498 559.056 -627.337 565.128 -540.777 496.177C-532.871 489.994 -525.369 482.872 -517.197 476.018C-423.289 390.556 -433.793 313.306 -353.176 288.631Z" fill="url(#paint2_linear_0_3944)"/>
<path opacity="0.3" d="M-348.545 320.013C-267.394 293.996 -239.426 378.193 -119.119 396.515C-114.822 397.447 -110.929 397.441 -106.632 398.373C16.0785 410.655 58.1851 330.237 132.375 374.522C181.298 404.09 171.667 481.103 218.125 550.113C226.34 562.71 236.295 572.889 247.327 584.273C317.278 654.856 367.96 629.155 390.546 707.325C409.481 773.159 345.528 806.795 326.431 913.469C308.928 1012.23 340.299 1056.58 306.745 1119.41C274.526 1178.88 275.765 1193.37 228.192 1228.86C211.441 1241.63 195.079 1247.56 179.387 1253.75C144.784 1266.42 121.033 1269.4 97.8574 1290.5C52.7123 1331.62 70.003 1382.03 13.9474 1405.59C-35.2703 1425.66 -45.1214 1401.53 -143.675 1387.2C-276.737 1367.69 -325.499 1412.03 -398.207 1369.89C-449.412 1340.19 -454.011 1324.37 -525.297 1257.14C-611.378 1176.26 -653.671 1171.09 -677.3 1107.28C-698.362 1050.7 -678.174 1013.65 -652.206 919.035C-647.675 903.736 -645.694 888.977 -645.59 875.026C-648.005 752.021 -739.747 722.52 -699.776 647.472C-662.346 576.854 -598.55 594.46 -516.416 526.857C-509.182 520.407 -501.68 513.285 -494.446 506.835C-408.453 423.665 -428.49 344.955 -348.545 320.013Z" fill="url(#paint3_linear_0_3944)"/>
<path opacity="0.4" d="M-339.684 381.839C-257.733 353.808 -240.737 453.851 -132.649 469.644C-129.024 470.309 -124.46 470.57 -120.834 471.235C-8.46657 480.18 20.852 383.014 98.5294 426.354C144.49 451.634 123.603 537.384 168.839 599.689C177.321 611.615 188.482 620.719 198.971 629.556C265.797 682.571 324.531 656.186 342.285 734.766C355.433 793.634 300.721 817.731 278.345 897.447C258.095 967.904 272.269 1004.64 245.682 1061.69C210.276 1137 241.855 1153.45 195.366 1194.03C176.609 1209.89 160.108 1214.21 142.394 1215.71C107.636 1218.99 79.8286 1208.7 49.5398 1230.08C-6.48195 1269.2 18.49 1333.55 -37.7118 1351.62C-79.6953 1365.23 -91.286 1343.52 -162.463 1326.86C-257.812 1304.48 -297.91 1321.17 -359.733 1284.92C-402.068 1260.3 -417.931 1249.33 -478.695 1206.5C-554.649 1152.96 -602.299 1153.44 -624.016 1104.38C-644.924 1057.19 -600.321 1013.52 -573.251 931.789C-568.316 917.428 -565.663 902.936 -566.765 890.06C-575.872 776.053 -680.066 760.255 -642.516 683.466C-607.772 611.779 -541.376 652.185 -467.157 586.875C-459.922 580.425 -453.627 574.379 -447.736 567.394C-379.45 489.618 -417.881 408.254 -339.684 381.839Z" fill="url(#paint4_linear_0_3944)"/>
<path opacity="0.5" d="M-330.826 443.664C-248.073 413.62 -242.721 529.242 -145.778 543.711C-142.152 544.376 -138.26 544.37 -134.634 545.035C-33.548 551.046 -16.6127 438.071 64.1479 479.528C106.208 500.925 74.736 595.679 118.749 651.279C127.498 662.533 138.926 670.966 150.483 677.118C213.65 713.908 282.847 684.69 294.565 764.755C301.926 816.656 257.394 830.811 230.126 883.706C208.07 925.459 204.512 955.915 183.815 1005.98C146.566 1097.66 208.217 1116.75 162.676 1160.82C142.584 1180.03 124.335 1182.88 105.94 1180.22C71.4325 1175.05 39.8364 1150.82 1.7625 1172.2C-65.403 1210 -32.4828 1287.62 -88.1591 1300.45C-122.504 1308.55 -135.834 1289.26 -180.038 1269.34C-237.409 1243.41 -268.438 1233.4 -319.643 1203.7C-352.436 1184.43 -380.502 1178.71 -430.881 1158.67C-497.648 1132.88 -550.12 1137.66 -570.193 1104.02C-591.885 1066.63 -521.257 1016.22 -493.756 947.089C-488.15 932.996 -485.359 920.114 -487.804 906.703C-504.946 801.16 -620.922 799.331 -586.463 720.535C-554.14 647.108 -485.144 710.314 -419.106 647.968C-412.81 641.922 -407.186 635.608 -401.967 628.356C-350.043 556.508 -408.213 471.956 -330.826 443.664Z" fill="url(#paint5_linear_0_3944)"/>
<path opacity="0.6" d="M-529.068 758.139C-499.164 682.972 -427.835 769.649 -368.773 709.192C-302.881 641.346 -405.117 538.486 -321.296 505.757C-234.659 471.817 -244.147 614.962 -148.434 618.835C-57.958 622.18 -53.8107 492.458 30.033 532.032C68.8633 549.812 26.6698 651.961 69.1934 701.526C123.558 764.354 240.992 696.024 246.706 793.134C250.493 867.711 160.224 836.464 123.154 949.203C87.0147 1057.65 175.113 1078.7 130.924 1127.2C71.6028 1192.22 25.7231 1080.68 -44.8095 1113.26C-123.119 1149.73 -81.4408 1242.49 -138.34 1248.62C-196.849 1254.88 -205.638 1163.54 -280.362 1120.6C-339.361 1087.03 -487.978 1135.95 -515.836 1102.33C-543.022 1068.97 -391.114 990.256 -407.905 922.943C-432.41 826.131 -560.84 838.003 -529.068 758.139Z" fill="url(#paint6_linear_0_3944)"/>
<defs>
<linearGradient id="paint0_linear_0_3944" x1="-660.149" y1="1263.84" x2="335.225" y2="476.963" gradientUnits="userSpaceOnUse">
<stop stop-color="#90FFFF"/>
<stop offset="0.3827" stop-color="#5AA2FA"/>
<stop offset="1" stop-color="#0005F1"/>
</linearGradient>
<linearGradient id="paint1_linear_0_3944" x1="-709.176" y1="1158.59" x2="382.386" y2="570.1" gradientUnits="userSpaceOnUse">
<stop stop-color="#47FFFF"/>
<stop offset="0.3827" stop-color="#2DA2EE"/>
<stop offset="1" stop-color="#0005D0"/>
</linearGradient>
<linearGradient id="paint2_linear_0_3944" x1="-724.548" y1="1047.79" x2="407.88" y2="672.6" gradientUnits="userSpaceOnUse">
<stop stop-color="#00FFFF"/>
<stop offset="0.3827" stop-color="#00A2E6"/>
<stop offset="1" stop-color="#0005BC"/>
</linearGradient>
<linearGradient id="paint3_linear_0_3944" x1="-705.3" y1="941.647" x2="402.033" y2="779.556" gradientUnits="userSpaceOnUse">
<stop stop-color="#12FFE2"/>
<stop offset="0.398" stop-color="#0BA2D3"/>
<stop offset="1" stop-color="#000FBC"/>
</linearGradient>
<linearGradient id="paint4_linear_0_3944" x1="-654.86" y1="852.938" x2="340.669" y2="882.097" gradientUnits="userSpaceOnUse">
<stop stop-color="#29E5E2"/>
<stop offset="0.5331" stop-color="#1489CE"/>
<stop offset="1" stop-color="#0036BC"/>
</linearGradient>
<linearGradient id="paint5_linear_0_3944" x1="-597.834" y1="769.672" x2="260.973" y2="947.287" gradientUnits="userSpaceOnUse">
<stop stop-color="#29CCE2"/>
<stop offset="0.8031" stop-color="#0870C4"/>
<stop offset="1" stop-color="#0059BC"/>
</linearGradient>
<linearGradient id="paint6_linear_0_3944" x1="-526.78" y1="749.612" x2="198.326" y2="967.014" gradientUnits="userSpaceOnUse">
<stop stop-color="#29CFE2"/>
<stop offset="0.9776" stop-color="#0173BD"/>
<stop offset="1" stop-color="#0071BC"/>
</linearGradient>
</defs>
</svg>
