<svg width="50" height="50" viewBox="0 0 50 50" fill="none" xmlns="http://www.w3.org/2000/svg">
<g clip-path="url(#clip0_23_35)">
<path d="M44.4931 24.3206C44.4931 28.2458 44.4931 30.893 44.4018 32.3535C44.2192 35.9136 43.2151 38.6521 41.2069 40.569C39.1987 42.486 36.5515 43.5814 32.9914 43.7639C31.5309 43.8552 28.7924 43.8552 24.9585 43.8552C21.0333 43.8552 18.3861 43.8552 16.9256 43.7639C13.3655 43.5814 10.627 42.5773 8.71008 40.569C6.79314 38.6521 5.69774 35.9136 5.51517 32.3535C5.42389 30.893 5.42389 28.1545 5.42389 24.3206C5.42389 20.4867 5.42389 17.7482 5.51517 16.2877C5.69774 12.7276 6.70185 9.98915 8.71008 8.07221C10.627 6.15526 13.3655 5.05986 16.9256 4.87729C18.3861 4.78601 21.1246 4.78601 24.9585 4.78601C28.8837 4.78601 31.5309 4.78601 32.9914 4.87729C36.5515 5.05986 39.29 6.06398 41.2069 8.07221C43.1239 10.0804 44.2192 12.7276 44.4018 16.2877C44.4018 17.7482 44.4931 20.3954 44.4931 24.3206ZM26.8754 8.25477C25.6888 8.25477 25.0498 8.25477 24.9585 8.25477C24.8672 8.25477 24.2282 8.25477 23.0415 8.25477C21.8549 8.25477 20.942 8.25477 20.3943 8.25477C19.7554 8.25477 18.9338 8.25477 17.9297 8.34606C16.9256 8.34606 16.0127 8.43734 15.2825 8.61991C14.5522 8.71119 13.9132 8.89375 13.4568 9.07632C12.6353 9.44145 11.905 9.89787 11.1747 10.5369C10.5357 11.1758 10.0793 11.9061 9.7142 12.8189C9.53163 13.2753 9.34907 13.9143 9.25778 14.6446C9.1665 15.3749 9.07522 16.1964 8.98393 17.2918C8.98393 18.2959 8.89265 19.1175 8.89265 19.7565C8.89265 20.3954 8.89265 21.3083 8.89265 22.4037C8.89265 23.5904 8.89265 24.2293 8.89265 24.3206C8.89265 24.4119 8.89265 25.0509 8.89265 26.2376C8.89265 27.4242 8.89265 28.3371 8.89265 28.8848C8.89265 29.5238 8.89265 30.3453 8.98393 31.3494C8.98393 32.3535 9.07522 33.2664 9.25778 33.9966C9.44035 34.7269 9.53163 35.3659 9.7142 35.8223C10.0793 36.6438 10.5357 37.3741 11.1747 38.1044C11.8137 38.7434 12.544 39.1998 13.4568 39.5649C13.9132 39.7475 14.5522 39.93 15.2825 40.0213C16.0127 40.1126 16.8343 40.2039 17.9297 40.2952C19.0251 40.3865 19.7554 40.3865 20.3943 40.3865C21.0333 40.3865 21.9461 40.3865 23.0415 40.3865C24.2282 40.3865 24.8672 40.3865 24.9585 40.3865C25.0498 40.3865 25.6888 40.3865 26.8754 40.3865C28.0621 40.3865 28.975 40.3865 29.5227 40.3865C30.1616 40.3865 30.9832 40.3865 31.9873 40.2952C32.9914 40.2952 33.9042 40.2039 34.6345 40.0213C35.3648 39.93 36.0038 39.7475 36.4602 39.5649C37.2817 39.1998 38.012 38.7434 38.7423 38.1044C39.3812 37.4654 39.8377 36.7351 40.2028 35.8223C40.3854 35.3659 40.5679 34.7269 40.6592 33.9966C40.7505 33.2664 40.8418 32.4448 40.9331 31.3494C40.9331 30.3453 41.0243 29.5238 41.0243 28.8848C41.0243 28.2458 41.0243 27.333 41.0243 26.2376C41.0243 25.0509 41.0243 24.4119 41.0243 24.3206C41.0243 24.2293 41.0243 23.5904 41.0243 22.4037C41.0243 21.217 41.0243 20.3042 41.0243 19.7565C41.0243 19.1175 41.0243 18.2959 40.9331 17.2918C40.9331 16.2877 40.8418 15.3749 40.6592 14.6446C40.5679 13.9143 40.3854 13.2753 40.2028 12.8189C39.8377 11.9974 39.3812 11.2671 38.7423 10.5369C38.1033 9.89787 37.373 9.44145 36.4602 9.07632C36.0038 8.89375 35.3648 8.71119 34.6345 8.61991C33.9042 8.52862 33.0827 8.43734 31.9873 8.34606C30.9832 8.34606 30.1616 8.25477 29.5227 8.25477C28.975 8.25477 28.0621 8.25477 26.8754 8.25477ZM31.9873 17.2005C33.9043 19.1175 34.9084 21.4908 34.9084 24.3206C34.9084 27.1504 33.9043 29.4325 31.9873 31.4407C30.0704 33.3577 27.697 34.3618 24.8672 34.3618C22.0374 34.3618 19.7554 33.3577 17.7471 31.4407C15.8302 29.5238 14.8261 27.1504 14.8261 24.3206C14.8261 21.4908 15.8302 19.2088 17.7471 17.2005C19.6641 15.2836 22.0374 14.2795 24.8672 14.2795C27.697 14.2795 30.0704 15.1923 31.9873 17.2005ZM29.5227 28.8848C30.8006 27.6068 31.4396 26.055 31.4396 24.3206C31.4396 22.5862 30.8006 20.9431 29.5227 19.6652C28.2447 18.3872 26.6929 17.7482 24.8672 17.7482C23.0415 17.7482 21.4897 18.3872 20.2118 19.6652C18.9338 20.9431 18.2948 22.495 18.2948 24.3206C18.2948 26.1463 18.9338 27.6981 20.2118 28.8848C21.4897 30.1627 23.0415 30.8017 24.8672 30.8017C26.6929 30.8017 28.2447 30.1627 29.5227 28.8848ZM37.0079 12.18C37.4643 12.6364 37.7381 13.1841 37.7381 13.823C37.7381 14.462 37.4643 15.0097 37.0079 15.4661C36.5515 15.9226 36.0038 16.1964 35.3648 16.1964C34.7258 16.1964 34.1781 15.9226 33.7217 15.4661C33.2653 15.0097 32.9914 14.462 32.9914 13.823C32.9914 13.1841 33.2653 12.6364 33.7217 12.18C34.1781 11.7235 34.7258 11.4497 35.3648 11.4497C36.0038 11.4497 36.5515 11.7235 37.0079 12.18Z" fill="#00AEEF"/>
</g>
<defs>
<clipPath id="clip0_23_35">
<rect width="49.2929" height="49.2929" fill="white" transform="translate(0.585876 0.31311)"/>
</clipPath>
</defs>
</svg>
