<svg width="336" height="394" viewBox="0 0 336 394" fill="none" xmlns="http://www.w3.org/2000/svg">
<path d="M188.254 359.984C188.254 359.984 230.764 382.001 234.719 384.193C238.675 386.433 259.262 392.676 267.221 382.907C275.179 373.137 274.703 361.557 274.989 354.789C275.322 348.022 286.712 342.78 287.284 341.303C287.856 339.778 282.375 332.486 282.661 331.2C282.947 329.913 296.958 325.91 297.53 324.766C298.102 323.622 292.765 319.524 295.052 308.229C297.34 296.935 300.675 296.315 300.675 296.315C300.675 296.315 329.698 286.355 330.079 285.354C330.461 284.354 300.628 221.495 301.247 218.636C301.867 215.776 308.015 205.387 311.303 195.904C312.065 193.664 317.832 176.841 319.023 159.589C321.263 127.946 307.872 101.449 303.249 92.3465C278.086 42.5934 231.908 21.8152 224.997 18.8605C161.948 -8.35118 91.7505 10.6637 55.0552 44.023C44.5708 53.5543 8.68563 83.7207 6.11219 147.914C3.58641 212.107 40.4247 247.372 47.0966 258.476C53.7684 269.58 64.5864 289.596 58.2005 310.898C51.8622 332.2 45.1903 346.497 45.1903 346.497C44.3325 348.261 43.427 350.024 42.5692 351.835" stroke="white" stroke-width="10.4844" stroke-miterlimit="10" stroke-linecap="round"/>
<path d="M125.586 32.9194C125.586 32.9194 194.831 15.5726 247.586 60.0358C300.342 104.499 297.768 150.249 284.663 164.451C271.51 178.652 257.547 176.746 248.635 173.553C239.723 170.36 208.604 139.241 194.402 126.516C180.2 113.792 175.53 110.837 165.189 109.36C154.8 107.883 149.319 108.073 149.319 108.073" stroke="white" stroke-width="10.4844" stroke-miterlimit="10" stroke-linecap="round"/>
<path d="M243.156 123.991C243.156 123.991 218.184 85.0077 176.247 77.3827C134.309 69.7577 115.676 71.8546 87.2726 93.9194C58.8695 115.984 57.3922 151.965 57.3922 151.965C57.3922 151.965 55.9148 178.652 61.3953 195.38C66.9234 212.107 69.6398 213.823 69.6398 213.823" stroke="white" stroke-width="10.4844" stroke-miterlimit="10" stroke-linecap="round"/>
<path d="M91.8931 45.8347C81.0274 51.7917 60.3923 65.1354 45.5235 90.2979C42.4735 95.4925 33.8478 110.933 30.2735 133.093C26.747 154.872 29.8446 172.41 31.7509 180.749C37.9938 207.914 51.9571 226.357 59.9157 235.411" stroke="white" stroke-width="10.4844" stroke-miterlimit="10" stroke-linecap="round"/>
<path d="M265.6 243.656L157.802 147.914C157.802 147.914 132.592 129.471 115.435 147.914C98.279 166.357 106.333 180.13 106.333 180.13C110.765 187.707 117.341 197.286 127.063 206.722C129.256 208.867 130.971 210.344 131.734 211.011C149.224 226.357 210.128 279.493 213.702 282.591C213.702 282.591 226.856 292.98 225.569 307.182C224.282 321.383 223.234 325.196 223.234 325.196" stroke="white" stroke-width="10.4844" stroke-miterlimit="10" stroke-linecap="round"/>
<path d="M78.9327 323.766C78.9327 323.766 83.7936 303.416 86.5577 299.175C89.3218 294.934 141.648 245.371 141.648 245.371C142.744 242.702 144.222 238.08 144.126 232.17C144.031 226.976 142.697 222.877 141.648 220.352" stroke="white" stroke-width="10.4844" stroke-miterlimit="10" stroke-linecap="round"/>
<path d="M172.053 246.467C161.33 241.368 154.277 241.94 149.797 243.465C149.797 243.465 147.986 244.085 135.977 250.852" stroke="white" stroke-width="10.4844" stroke-miterlimit="10" stroke-linecap="round"/>
<path d="M146.65 232.266H155.991V240.415H146.65V232.266Z" fill="white" stroke="white" stroke-width="7.14844" stroke-miterlimit="10" stroke-linecap="round"/>
</svg>
