<svg width="291" height="83" viewBox="0 0 291 83" fill="none" xmlns="http://www.w3.org/2000/svg">
<g clip-path="url(#clip0_0_453)">
<path d="M0 18.3131H21.8215C25.8619 18.1693 29.7963 19.6247 32.7728 22.3642C34.1973 23.7042 35.3193 25.3336 36.0636 27.1432C36.8079 28.9527 37.1574 30.9007 37.0885 32.8565C37.1576 34.7844 36.8074 36.7043 36.0622 38.4833C35.3171 40.2623 34.1947 41.858 32.7728 43.1598C29.7797 45.872 25.8568 47.3231 21.8215 47.2109H8.3348V55.4616H0V18.3131ZM8.37526 25.9561V39.4598H21.4979C23.397 39.5644 25.267 38.9579 26.7442 37.7583C27.4118 37.1391 27.9345 36.3798 28.2749 35.5347C28.6153 34.6896 28.765 33.7797 28.7133 32.87C28.7568 31.9411 28.604 31.0134 28.2646 30.1477C27.9253 29.2821 27.4072 28.4979 26.7442 27.8466C25.3073 26.55 23.4164 25.8752 21.4844 25.9696L8.37526 25.9561Z" fill="white"/>
<path d="M42.793 18.3131H64.6145C68.6549 18.1693 72.5893 19.6247 75.5657 22.3642C76.9902 23.7042 78.1122 25.3336 78.8565 27.1432C79.6009 28.9527 79.9503 30.9007 79.8815 32.8565C80.0147 35.388 79.4083 37.9035 78.1364 40.0954C76.8646 42.2874 74.9824 44.0608 72.72 45.1988L78.371 55.3941H69.3079L64.9517 47.2109H51.1547V55.4616H42.793V18.3131ZM51.1682 25.9561V39.4598H64.2908C66.1899 39.5644 68.06 38.9579 69.5372 37.7583C70.2048 37.1391 70.7274 36.3798 71.0678 35.5347C71.4082 34.6896 71.5579 33.7797 71.5062 32.87C71.5498 31.9411 71.3969 31.0134 71.0576 30.1477C70.7183 29.2821 70.2002 28.4979 69.5372 27.8466C68.1003 26.55 66.2094 25.8752 64.2773 25.9696L51.1682 25.9561Z" fill="white"/>
<path d="M179.198 55.3941V18.3131H213.158V25.8887H187.614V33.5992H210.245V41.1748H187.614V55.3941H179.198Z" fill="white"/>
<path d="M222.06 18.3131H230.435V55.3941H222.06V18.3131Z" fill="white"/>
<path d="M115.339 59.7962C124.307 63.7123 132.709 63.6718 140.721 58.6079C146.128 55.1952 149.997 49.8101 151.51 43.5919C146.884 43.5919 142.541 43.5244 138.212 43.6594C137.565 43.6594 136.863 44.6452 136.337 45.2528C131.334 50.5462 123.727 50.8838 118.805 46.0225C117.641 44.897 116.716 43.548 116.085 42.0563C115.454 40.5645 115.13 38.9607 115.133 37.3407C115.135 35.7207 115.464 34.1179 116.1 32.6281C116.735 31.1384 117.665 29.7923 118.832 28.6704C123.889 23.8496 131.307 24.3087 136.364 29.5751C137.415 30.5382 138.772 31.0979 140.195 31.155C147.086 31.3036 153.978 31.155 160.856 31.236C162.016 31.236 163.176 31.3306 164.268 31.3846C167.586 58.6214 143.836 80.2813 118.13 73.84C116.04 73.3134 115.001 72.5572 115.15 70.194C115.487 66.8992 115.339 63.5638 115.339 59.7962Z" fill="white"/>
<path d="M157.714 15.9364L148.664 22.3237C144.524 19.4339 141.085 16.139 136.985 14.316C120.585 7.06455 102.243 19.2313 102.041 37.2722C101.946 46.2116 102.041 55.1645 102.041 64.1714C95.2973 61.3897 89.0394 46.3466 89.8352 34.8955C90.3998 27.0924 93.375 19.6584 98.3482 13.624C103.321 7.58965 110.046 3.25379 117.591 1.21747C132.79 -2.7526 149.406 3.20251 157.714 15.9364Z" fill="white"/>
<path d="M183.42 70.9638H191.889V82.4689H189.947L189.462 80.2273C187.179 82.0781 184.304 83.0376 181.37 82.928C178.348 83.0499 175.397 81.9893 173.143 79.9707C172.072 78.9571 171.233 77.7244 170.681 76.3565C170.129 74.9886 169.879 73.5177 169.946 72.0441C169.881 70.5783 170.136 69.116 170.693 67.7587C171.249 66.4015 172.095 65.182 173.17 64.185C175.82 62.013 179.222 60.9798 182.631 61.3113C186.04 61.6428 189.18 63.3119 191.363 65.954L188.963 67.4664C188.039 66.3234 186.855 65.4183 185.511 64.8263C184.167 64.2344 182.701 63.9728 181.235 64.0635C180.117 64.0072 179 64.1754 177.948 64.5581C176.897 64.9407 175.932 65.5301 175.112 66.2916C173.635 67.8971 172.821 70.0032 172.834 72.1857C172.846 74.3681 173.685 76.4647 175.179 78.0532C175.982 78.8212 176.93 79.4201 177.968 79.8145C179.006 80.2088 180.112 80.3905 181.221 80.3488C182.661 80.431 184.102 80.2035 185.446 79.6818C186.791 79.16 188.008 78.3561 189.017 77.324V73.624L183.339 73.3945L183.42 70.9638Z" fill="white"/>
<path d="M196.151 61.8218H208.168C210.354 61.7552 212.481 62.5392 214.102 64.0094C214.885 64.723 215.505 65.5986 215.917 66.5755C216.329 67.5525 216.524 68.6075 216.489 69.6674C216.538 71.1642 216.127 72.64 215.312 73.8957C214.497 75.1514 213.317 76.1264 211.931 76.6893L215.208 82.4824H211.998L209.193 77.4725H199.037V82.4824H196.124L196.151 61.8218ZM199.064 64.5225V74.7988H208.127C209.569 74.8717 210.983 74.3884 212.079 73.4484C213.051 72.4412 213.595 71.0952 213.595 69.6944C213.595 68.2936 213.051 66.9476 212.079 65.9404C210.99 64.9976 209.578 64.5137 208.141 64.59L199.064 64.5225Z" fill="white"/>
<path d="M239.12 64.3335C240.154 65.357 240.974 66.5756 241.534 67.9189C242.094 69.2621 242.383 70.7033 242.383 72.1588C242.383 73.6144 242.094 75.0556 241.534 76.3988C240.974 77.7421 240.154 78.9607 239.12 79.9842C236.817 81.9258 233.903 82.9905 230.893 82.9905C227.882 82.9905 224.969 81.9258 222.666 79.9842C221.632 78.9607 220.812 77.7421 220.252 76.3988C219.692 75.0556 219.403 73.6144 219.403 72.1588C219.403 70.7033 219.692 69.2621 220.252 67.9189C220.812 66.5756 221.632 65.357 222.666 64.3335C224.969 62.3919 227.882 61.3271 230.893 61.3271C233.903 61.3271 236.817 62.3919 239.12 64.3335ZM222.315 72.1656C222.272 73.2835 222.467 74.3978 222.888 75.4341C223.309 76.4704 223.946 77.4048 224.756 78.1747C226.48 79.6054 228.648 80.3885 230.886 80.3885C233.125 80.3885 235.293 79.6054 237.016 78.1747C238.572 76.5675 239.441 74.4172 239.441 72.1791C239.441 69.941 238.572 67.7907 237.016 66.1835C235.293 64.7528 233.125 63.9697 230.886 63.9697C228.648 63.9697 226.48 64.7528 224.756 66.1835C223.947 66.9492 223.309 67.8786 222.886 68.91C222.463 69.9414 222.264 71.0512 222.302 72.1656H222.315Z" fill="white"/>
<path d="M245.809 61.8218H248.722V72.4356C248.6 74.5356 249.263 76.606 250.584 78.2422C252.134 79.5996 254.123 80.35 256.182 80.3549C258.242 80.3599 260.234 79.6191 261.791 78.2692C263.111 76.633 263.775 74.5626 263.652 72.4626V61.8218H266.606V72.3951C266.693 73.8229 266.489 75.2534 266.007 76.5999C265.525 77.9463 264.774 79.1805 263.801 80.2272C261.664 82.0184 258.967 83 256.181 83C253.394 83 250.697 82.0184 248.561 80.2272C247.591 79.1758 246.845 77.9383 246.368 76.5897C245.89 75.2411 245.691 73.8095 245.782 72.3816L245.809 61.8218Z" fill="white"/>
<path d="M270.665 61.8218H282.682C284.868 61.7552 286.995 62.5392 288.616 64.0094C289.37 64.7454 289.97 65.6252 290.379 66.597C290.789 67.5687 291 68.6127 291 69.6674C291 70.7221 290.789 71.7661 290.379 72.7378C289.97 73.7096 289.37 74.5894 288.616 75.3254C286.984 76.7724 284.861 77.5405 282.682 77.4725H273.578V82.4824H270.665V61.8218ZM273.578 64.5225V74.7988H282.641C284.083 74.8717 285.497 74.3884 286.593 73.4484C287.565 72.4412 288.109 71.0952 288.109 69.6944C288.109 68.2936 287.565 66.9476 286.593 65.9404C285.504 64.9976 284.092 64.5137 282.655 64.59L273.578 64.5225Z" fill="white"/>
</g>
<defs>
<clipPath id="clip0_0_453">
<rect width="291" height="83" fill="white"/>
</clipPath>
</defs>
</svg>
