<svg width="1866" height="1277" viewBox="0 0 1866 1277" fill="none" xmlns="http://www.w3.org/2000/svg">
<g opacity="0.11" clip-path="url(#clip0_0_13)">
<g opacity="0.3">
<mask id="mask0_0_13" style="mask-type:luminance" maskUnits="userSpaceOnUse" x="-27" y="0" width="1916" height="1277">
<path d="M1889 0H-26.001V1277H1889V0Z" fill="white"/>
</mask>
<g mask="url(#mask0_0_13)">
<path d="M284.153 487.329V400.544C284.153 393.52 278.408 387.774 271.386 387.774H-547.596" stroke="#FFBAE8" stroke-miterlimit="10"/>
<path d="M345.637 483.549V441.484C345.637 434.461 351.382 428.714 358.403 428.714H1179.35" stroke="#FFBAE8" stroke-miterlimit="10"/>
<path d="M584.833 483.549V349.183C584.833 342.159 590.578 336.413 597.6 336.413H980.217" stroke="#FFBAE8" stroke-miterlimit="10"/>
<path d="M736.015 483.549V299.508C736.015 292.484 730.27 286.738 723.249 286.738H444.118" stroke="#FFBAE8" stroke-miterlimit="10"/>
<path d="M-23.4735 487.329V244.75C-23.4735 237.726 -17.7285 231.98 -10.7068 231.98H980.216" stroke="#FFBAE8" stroke-miterlimit="10"/>
<path d="M141.498 483.549V338.047C141.498 331.024 135.753 325.277 128.731 325.277H-352.547" stroke="#FFBAE8" stroke-miterlimit="10"/>
<path d="M385.928 483.549V-151.35" stroke="#FFBAE8" stroke-miterlimit="10"/>
<path d="M918.937 473.869V125.58C918.937 118.557 924.682 112.81 931.703 112.81H994.26C1001.28 112.81 1007.03 107.064 1007.03 100.04V-25.9487" stroke="#FFBAE8" stroke-miterlimit="10"/>
<path d="M170.401 -25.9487V84.7161C170.401 91.7396 164.656 97.4861 157.635 97.4861H77.2814C70.2597 97.4861 64.5147 103.233 64.5147 110.256V473.895" stroke="#FFBAE8" stroke-miterlimit="10"/>
<path d="M505.118 -53.5063H652.011C659.033 -53.5063 664.778 -47.7598 664.778 -40.7363V473.895" stroke="#FFBAE8" stroke-miterlimit="10"/>
<path d="M804.037 27.6853H589.965C582.943 27.6853 577.198 21.9388 577.198 14.9153V-117.867" stroke="#FFBAE8" stroke-miterlimit="10"/>
<path d="M-23.4735 27.6854H247.895C254.916 27.6854 260.661 33.4319 260.661 40.4554V334.14" stroke="#FFBAE8" stroke-miterlimit="10"/>
<path d="M1095.65 11.493V372.373C1095.65 379.397 1101.4 385.143 1108.42 385.143H1148.71" stroke="#FFBAE8" stroke-miterlimit="10"/>
<path d="M762.494 146.268H533.868C526.847 146.268 521.102 152.014 521.102 159.038V372.016" stroke="#FFBAE8" stroke-miterlimit="10"/>
<path d="M820.852 38.2925C826.705 35.8411 829.463 29.1076 827.013 23.2528C824.562 17.3979 817.83 14.6388 811.977 17.0902C806.123 19.5416 803.365 26.2751 805.816 32.13C808.267 37.9848 814.998 40.7439 820.852 38.2925Z" stroke="#FFBAE8" stroke-miterlimit="10"/>
<path d="M1095.65 11.493C1102 11.493 1107.14 6.3474 1107.14 -1.14441e-05C1107.14 -6.34742 1102 -11.493 1095.65 -11.493C1089.31 -11.493 1084.16 -6.34742 1084.16 -1.14441e-05C1084.16 6.3474 1089.31 11.493 1095.65 11.493Z" stroke="#FFBAE8" stroke-miterlimit="10"/>
<path d="M1160.23 399.267C1166.57 399.267 1171.72 394.121 1171.72 387.774C1171.72 381.426 1166.57 376.281 1160.23 376.281C1153.88 376.281 1148.74 381.426 1148.74 387.774C1148.74 394.121 1153.88 399.267 1160.23 399.267Z" stroke="#FFBAE8" stroke-miterlimit="10"/>
<path d="M260.662 357.126C267.008 357.126 272.152 351.98 272.152 345.633C272.152 339.285 267.008 334.14 260.662 334.14C254.316 334.14 249.172 339.285 249.172 345.633C249.172 351.98 254.316 357.126 260.662 357.126Z" stroke="#FFBAE8" stroke-miterlimit="10"/>
<path d="M445.013 286.738C445.013 290.415 442.051 293.378 438.374 293.378C434.697 293.378 431.735 290.415 431.735 286.738C431.735 283.06 434.697 280.097 438.374 280.097C442.051 280.072 445.013 283.06 445.013 286.738Z" fill="#FFBAE8"/>
<path d="M527.766 605.656C527.766 609.333 524.804 612.296 521.127 612.296C517.45 612.296 514.489 609.333 514.489 605.656C514.489 601.978 517.476 599.015 521.127 599.015C524.778 599.015 527.766 601.978 527.766 605.656Z" fill="#FFBAE8"/>
<path d="M742.655 556.389C742.655 560.067 739.693 563.029 736.016 563.029C732.339 563.029 729.377 560.067 729.377 556.389C729.377 552.711 732.365 549.748 736.016 549.748C739.693 549.748 742.655 552.711 742.655 556.389Z" fill="#FFBAE8"/>
<path d="M762.493 635.282C762.493 638.96 759.506 641.922 755.855 641.922C752.203 641.922 749.216 638.96 749.216 635.282C749.216 631.604 752.203 628.641 755.855 628.641C759.506 628.641 762.493 631.604 762.493 635.282Z" fill="#FFBAE8"/>
<path d="M925.575 489.551C925.575 493.228 922.588 496.191 918.937 496.191C915.26 496.191 912.298 493.228 912.298 489.551C912.298 485.873 915.285 482.91 918.937 482.91C922.613 482.91 925.575 485.873 925.575 489.551Z" fill="#FFBAE8"/>
<path d="M986.855 464.215C986.855 467.893 983.893 470.855 980.217 470.855C976.54 470.855 973.578 467.893 973.578 464.215C973.578 460.537 976.565 457.575 980.217 457.575C983.893 457.575 986.855 460.563 986.855 464.215Z" fill="#FFBAE8"/>
<path d="M1186.02 496.012C1186.02 499.69 1183.05 502.653 1179.38 502.653C1175.7 502.653 1172.74 499.69 1172.74 496.012C1172.74 492.335 1175.73 489.372 1179.38 489.372C1183.03 489.346 1186.02 492.335 1186.02 496.012Z" fill="#FFBAE8"/>
<path d="M671.417 500.584C671.417 504.262 668.429 507.224 664.778 507.224C661.101 507.224 658.139 504.262 658.139 500.584C658.139 496.906 661.101 493.944 664.778 493.944C668.429 493.918 671.417 496.906 671.417 500.584Z" fill="#FFBAE8"/>
<path d="M290.791 512.613C290.791 516.291 287.804 519.254 284.152 519.254C280.476 519.254 277.514 516.291 277.514 512.613C277.514 508.936 280.501 505.973 284.152 505.973C287.804 505.973 290.791 508.936 290.791 512.613Z" fill="#FFBAE8"/>
<path d="M148.136 512.613C148.136 516.291 145.148 519.254 141.497 519.254C137.82 519.254 134.859 516.291 134.859 512.613C134.859 508.936 137.846 505.973 141.497 505.973C145.148 505.973 148.136 508.936 148.136 512.613Z" fill="#FFBAE8"/>
<path d="M71.1533 505.973C71.1533 509.651 68.1914 512.613 64.5146 512.613C60.8378 512.613 57.876 509.651 57.876 505.973C57.876 502.295 60.8634 499.333 64.5146 499.333C68.1659 499.333 71.1533 502.295 71.1533 505.973Z" fill="#FFBAE8"/>
<path d="M352.275 512.613C352.275 516.291 349.313 519.254 345.637 519.254C341.96 519.254 338.998 516.291 338.998 512.613C338.998 508.936 341.96 505.973 345.637 505.973C349.313 505.973 352.275 508.936 352.275 512.613Z" fill="#FFBAE8"/>
<path d="M591.472 497.187C591.472 500.865 588.51 503.828 584.833 503.828C581.156 503.828 578.194 500.865 578.194 497.187C578.194 493.509 581.156 490.547 584.833 490.547C588.484 490.547 591.472 493.535 591.472 497.187Z" fill="#FFBAE8"/>
<path d="M527.766 378.656C527.766 382.334 524.804 385.296 521.127 385.296C517.45 385.296 514.489 382.334 514.489 378.656C514.489 374.978 517.476 372.016 521.127 372.016C524.778 372.016 527.766 374.978 527.766 378.656Z" fill="#FFBAE8"/>
<path d="M769.158 146.268C769.158 149.945 766.196 152.908 762.52 152.908C758.843 152.908 755.881 149.945 755.881 146.268C755.881 142.59 758.868 139.627 762.52 139.627C766.171 139.602 769.158 142.59 769.158 146.268Z" fill="#FFBAE8"/>
<path d="M993.494 231.98C993.494 235.658 990.507 238.62 986.855 238.62C983.179 238.62 980.217 235.658 980.217 231.98C980.217 228.302 983.204 225.339 986.855 225.339C990.532 225.314 993.494 228.302 993.494 231.98Z" fill="#FFBAE8"/>
<path d="M-409.435 500.584V517.798C-409.435 524.821 -403.69 530.568 -396.669 530.568H906.17C913.191 530.568 918.936 524.821 918.936 517.798V494.659" stroke="#FFBAE8" stroke-miterlimit="10"/>
<path d="M584.935 500.584V548.446C584.935 555.469 579.19 561.216 572.169 561.216H-240.225C-247.247 561.216 -252.992 555.469 -252.992 548.446V502.014" stroke="#FFBAE8" stroke-miterlimit="10"/>
<path d="M141.497 512.281V579.094C141.497 586.117 147.242 591.864 154.264 591.864H1166.61C1173.63 591.864 1179.38 586.117 1179.38 579.094V494.659" stroke="#FFBAE8" stroke-miterlimit="10"/>
<path d="M664.778 500.584V612.296C664.778 619.319 670.523 625.066 677.544 625.066H723.249C730.271 625.066 736.016 619.319 736.016 612.296V562.825" stroke="#FFBAE8" stroke-miterlimit="10"/>
<path d="M345.637 512.613V612.296C345.637 619.319 339.892 625.066 332.87 625.066H296.894C289.872 625.066 284.127 619.319 284.127 612.296V512.613" stroke="#FFBAE8" stroke-miterlimit="10"/>
<path d="M64.5147 512.613V635.282C64.5147 642.305 70.2597 648.052 77.2814 648.052H508.361C515.382 648.052 521.127 642.305 521.127 635.282V612.296" stroke="#FFBAE8" stroke-miterlimit="10"/>
<path d="M980.217 464.215V622.512C980.217 629.535 974.472 635.282 967.45 635.282H762.494" stroke="#FFBAE8" stroke-miterlimit="10"/>
<path d="M284.153 1228.93V1142.15C284.153 1135.13 278.408 1129.38 271.386 1129.38H-547.596" stroke="#FFBAE8" stroke-miterlimit="10"/>
<path d="M345.637 1225.15V1183.09C345.637 1176.07 351.382 1170.32 358.403 1170.32H1179.35" stroke="#FFBAE8" stroke-miterlimit="10"/>
<path d="M584.833 1225.15V1090.79C584.833 1083.76 590.578 1078.02 597.6 1078.02H980.217" stroke="#FFBAE8" stroke-miterlimit="10"/>
<path d="M736.015 1225.15V1041.11C736.015 1034.09 730.27 1028.34 723.249 1028.34H444.118" stroke="#FFBAE8" stroke-miterlimit="10"/>
<path d="M-23.4735 1228.93V986.355C-23.4735 979.331 -17.7285 973.585 -10.7068 973.585H980.216" stroke="#FFBAE8" stroke-miterlimit="10"/>
<path d="M141.498 1225.15V1079.65C141.498 1072.63 135.753 1066.88 128.731 1066.88H-352.547" stroke="#FFBAE8" stroke-miterlimit="10"/>
<path d="M385.928 1225.15V590.281" stroke="#FFBAE8" stroke-miterlimit="10"/>
<path d="M918.937 1215.5V867.185C918.937 860.162 924.682 854.415 931.703 854.415H994.26C1001.28 854.415 1007.03 848.669 1007.03 841.645V715.656" stroke="#FFBAE8" stroke-miterlimit="10"/>
<path d="M170.401 715.656V826.321C170.401 833.345 164.656 839.091 157.635 839.091H77.2813C70.2596 839.091 64.5146 844.838 64.5146 851.861V1215.5" stroke="#FFBAE8" stroke-miterlimit="10"/>
<path d="M505.118 688.099H652.011C659.033 688.099 664.778 693.845 664.778 700.869V1215.5" stroke="#FFBAE8" stroke-miterlimit="10"/>
<path d="M804.037 769.29H589.965C582.943 769.29 577.198 763.544 577.198 756.52V623.738" stroke="#FFBAE8" stroke-miterlimit="10"/>
<path d="M-23.4735 769.29H247.895C254.916 769.29 260.661 775.037 260.661 782.06V1075.74" stroke="#FFBAE8" stroke-miterlimit="10"/>
<path d="M1095.65 753.124V1114C1095.65 1121.03 1101.4 1126.77 1108.42 1126.77H1148.71" stroke="#FFBAE8" stroke-miterlimit="10"/>
<path d="M762.494 887.873H533.868C526.847 887.873 521.102 893.619 521.102 900.643V1113.62" stroke="#FFBAE8" stroke-miterlimit="10"/>
<path d="M385.929 590.28C392.274 590.28 397.419 585.135 397.419 578.787C397.419 572.44 392.274 567.294 385.929 567.294C379.583 567.294 374.439 572.44 374.439 578.787C374.439 585.135 379.583 590.28 385.929 590.28Z" stroke="#FFBAE8" stroke-miterlimit="10"/>
<path d="M816.42 780.783C822.766 780.783 827.91 775.638 827.91 769.29C827.91 762.943 822.766 757.797 816.42 757.797C810.074 757.797 804.93 762.943 804.93 769.29C804.93 775.638 810.074 780.783 816.42 780.783Z" stroke="#FFBAE8" stroke-miterlimit="10"/>
<path d="M1095.65 753.124C1102 753.124 1107.14 747.978 1107.14 741.631C1107.14 735.283 1102 730.138 1095.65 730.138C1089.31 730.138 1084.16 735.283 1084.16 741.631C1084.16 747.978 1089.31 753.124 1095.65 753.124Z" stroke="#FFBAE8" stroke-miterlimit="10"/>
<path d="M1160.23 1140.87C1166.57 1140.87 1171.72 1135.73 1171.72 1129.38C1171.72 1123.03 1166.57 1117.89 1160.23 1117.89C1153.88 1117.89 1148.74 1123.03 1148.74 1129.38C1148.74 1135.73 1153.88 1140.87 1160.23 1140.87Z" stroke="#FFBAE8" stroke-miterlimit="10"/>
<path d="M260.662 1098.76C267.008 1098.76 272.152 1093.61 272.152 1087.26C272.152 1080.92 267.008 1075.77 260.662 1075.77C254.316 1075.77 249.172 1080.92 249.172 1087.26C249.172 1093.61 254.316 1098.76 260.662 1098.76Z" stroke="#FFBAE8" stroke-miterlimit="10"/>
<path d="M445.013 1028.34C445.013 1032.02 442.051 1034.98 438.374 1034.98C434.697 1034.98 431.735 1032.02 431.735 1028.34C431.735 1024.66 434.697 1021.7 438.374 1021.7C442.051 1021.7 445.013 1024.69 445.013 1028.34Z" fill="#FFBAE8"/>
<path d="M925.575 1231.18C925.575 1234.86 922.588 1237.82 918.937 1237.82C915.26 1237.82 912.298 1234.86 912.298 1231.18C912.298 1227.5 915.285 1224.54 918.937 1224.54C922.613 1224.54 925.575 1227.5 925.575 1231.18Z" fill="#FFBAE8"/>
<path d="M986.855 1205.85C986.855 1209.52 983.893 1212.49 980.217 1212.49C976.54 1212.49 973.578 1209.52 973.578 1205.85C973.578 1202.17 976.565 1199.21 980.217 1199.21C983.893 1199.21 986.855 1202.17 986.855 1205.85Z" fill="#FFBAE8"/>
<path d="M1186.02 1237.62C1186.02 1241.3 1183.05 1244.26 1179.38 1244.26C1175.7 1244.26 1172.74 1241.3 1172.74 1237.62C1172.74 1233.94 1175.73 1230.98 1179.38 1230.98C1183.03 1230.98 1186.02 1233.94 1186.02 1237.62Z" fill="#FFBAE8"/>
<path d="M671.417 1242.19C671.417 1245.87 668.429 1248.83 664.778 1248.83C661.101 1248.83 658.139 1245.87 658.139 1242.19C658.139 1238.51 661.101 1235.55 664.778 1235.55C668.429 1235.55 671.417 1238.51 671.417 1242.19Z" fill="#FFBAE8"/>
<path d="M290.791 1254.24C290.791 1257.92 287.804 1260.88 284.152 1260.88C280.476 1260.88 277.514 1257.92 277.514 1254.24C277.514 1250.57 280.501 1247.6 284.152 1247.6C287.804 1247.58 290.791 1250.57 290.791 1254.24Z" fill="#FFBAE8"/>
<path d="M148.136 1254.24C148.136 1257.92 145.148 1260.88 141.497 1260.88C137.82 1260.88 134.859 1257.92 134.859 1254.24C134.859 1250.57 137.846 1247.6 141.497 1247.6C145.148 1247.58 148.136 1250.57 148.136 1254.24Z" fill="#FFBAE8"/>
<path d="M71.1533 1247.58C71.1533 1251.26 68.1914 1254.22 64.5146 1254.22C60.8378 1254.22 57.876 1251.26 57.876 1247.58C57.876 1243.9 60.8634 1240.94 64.5146 1240.94C68.1659 1240.94 71.1533 1243.93 71.1533 1247.58Z" fill="#FFBAE8"/>
<path d="M352.275 1254.24C352.275 1257.92 349.313 1260.88 345.637 1260.88C341.96 1260.88 338.998 1257.92 338.998 1254.24C338.998 1250.57 341.96 1247.6 345.637 1247.6C349.313 1247.58 352.275 1250.57 352.275 1254.24Z" fill="#FFBAE8"/>
<path d="M591.472 1238.82C591.472 1242.5 588.51 1245.46 584.833 1245.46C581.156 1245.46 578.194 1242.5 578.194 1238.82C578.194 1235.14 581.156 1232.18 584.833 1232.18C588.484 1232.18 591.472 1235.14 591.472 1238.82Z" fill="#FFBAE8"/>
<path d="M527.766 1120.26C527.766 1123.94 524.804 1126.9 521.127 1126.9C517.45 1126.9 514.489 1123.94 514.489 1120.26C514.489 1116.58 517.476 1113.62 521.127 1113.62C524.778 1113.62 527.766 1116.61 527.766 1120.26Z" fill="#FFBAE8"/>
<path d="M511.757 688.099C511.757 691.776 508.769 694.739 505.118 694.739C501.441 694.739 498.479 691.751 498.479 688.099C498.479 684.421 501.467 681.458 505.118 681.458C508.795 681.458 511.757 684.421 511.757 688.099Z" fill="#FFBAE8"/>
<path d="M769.158 887.873C769.158 891.55 766.196 894.513 762.519 894.513C758.843 894.513 755.881 891.55 755.881 887.873C755.881 884.195 758.868 881.232 762.519 881.232C766.171 881.232 769.158 884.22 769.158 887.873Z" fill="#FFBAE8"/>
<path d="M583.837 623.738C583.837 627.416 580.875 630.378 577.198 630.378C573.522 630.378 570.56 627.416 570.56 623.738C570.56 620.06 573.547 617.097 577.198 617.097C580.875 617.097 583.837 620.06 583.837 623.738Z" fill="#FFBAE8"/>
<path d="M1013.67 715.656C1013.67 719.334 1010.7 722.297 1007.03 722.297C1003.35 722.297 1000.39 719.334 1000.39 715.656C1000.39 711.979 1003.38 709.016 1007.03 709.016C1010.7 709.016 1013.67 712.004 1013.67 715.656Z" fill="#FFBAE8"/>
<path d="M993.494 973.585C993.494 977.263 990.507 980.225 986.855 980.225C983.179 980.225 980.217 977.263 980.217 973.585C980.217 969.907 983.204 966.944 986.855 966.944C990.532 966.944 993.494 969.907 993.494 973.585Z" fill="#FFBAE8"/>
<path d="M170.401 714.379C176.747 714.379 181.891 709.234 181.891 702.886C181.891 696.539 176.747 691.393 170.401 691.393C164.056 691.393 158.911 696.539 158.911 702.886C158.911 709.234 164.056 714.379 170.401 714.379Z" stroke="#FFBAE8" stroke-miterlimit="10"/>
<path d="M-409.435 1242.19V1259.4C-409.435 1266.43 -403.69 1272.17 -396.669 1272.17H906.17C913.191 1272.17 918.936 1266.43 918.936 1259.4V1236.26" stroke="#FFBAE8" stroke-miterlimit="10"/>
<path d="M584.935 1242.19V1290.05C584.935 1297.07 579.19 1302.82 572.169 1302.82H-240.225C-247.247 1302.82 -252.992 1297.07 -252.992 1290.05V1243.62" stroke="#FFBAE8" stroke-miterlimit="10"/>
<path d="M141.497 1253.89V1320.7C141.497 1327.72 147.242 1333.47 154.264 1333.47H1166.61C1173.63 1333.47 1179.38 1327.72 1179.38 1320.7V1236.26" stroke="#FFBAE8" stroke-miterlimit="10"/>
<path d="M664.778 1242.19V1353.9C664.778 1360.92 670.523 1366.67 677.544 1366.67H723.249C730.271 1366.67 736.016 1360.92 736.016 1353.9V1304.43" stroke="#FFBAE8" stroke-miterlimit="10"/>
<path d="M345.637 1254.24V1353.93C345.637 1360.95 339.892 1366.7 332.87 1366.7H296.894C289.872 1366.7 284.127 1360.95 284.127 1353.93V1254.24" stroke="#FFBAE8" stroke-miterlimit="10"/>
<path d="M64.5146 1254.24V1376.91C64.5146 1383.94 70.2596 1389.68 77.2813 1389.68H508.361C515.382 1389.68 521.127 1383.94 521.127 1376.91V1353.93" stroke="#FFBAE8" stroke-miterlimit="10"/>
<path d="M980.216 1205.85V1364.14C980.216 1371.17 974.471 1376.91 967.449 1376.91H762.493" stroke="#FFBAE8" stroke-miterlimit="10"/>
<path d="M1981.79 793.247V835.311C1981.79 842.335 1976.04 848.081 1969.02 848.081H1148.07" stroke="#FFBAE8" stroke-miterlimit="10"/>
<path d="M1742.62 793.247V927.613C1742.62 934.636 1736.87 940.383 1729.85 940.383H1347.23" stroke="#FFBAE8" stroke-miterlimit="10"/>
<path d="M1591.43 793.247V977.288C1591.43 984.311 1597.18 990.058 1604.2 990.058H1883.33" stroke="#FFBAE8" stroke-miterlimit="10"/>
<path d="M2350.9 789.467V1032.05C2350.9 1039.07 2345.15 1044.82 2338.13 1044.82H1347.23" stroke="#FFBAE8" stroke-miterlimit="10"/>
<path d="M1408.49 802.901V1151.22C1408.49 1158.24 1402.74 1163.99 1395.72 1163.99H1333.16C1326.14 1163.99 1320.4 1169.73 1320.4 1176.76V1302.74" stroke="#FFBAE8" stroke-miterlimit="10"/>
<path d="M1822.33 1330.3H1675.44C1668.42 1330.3 1662.67 1324.56 1662.67 1317.53V802.901" stroke="#FFBAE8" stroke-miterlimit="10"/>
<path d="M1523.39 1249.11H1737.46C1744.48 1249.11 1750.23 1254.86 1750.23 1261.88V1394.66" stroke="#FFBAE8" stroke-miterlimit="10"/>
<path d="M1231.77 1265.28V904.397C1231.77 897.373 1226.03 891.627 1219 891.627H1178.71" stroke="#FFBAE8" stroke-miterlimit="10"/>
<path d="M1564.93 1130.53H1793.56C1800.58 1130.53 1806.32 1124.78 1806.32 1117.76V904.78" stroke="#FFBAE8" stroke-miterlimit="10"/>
<path d="M1511 1260.6C1517.35 1260.6 1522.49 1255.46 1522.49 1249.11C1522.49 1242.76 1517.35 1237.62 1511 1237.62C1504.66 1237.62 1499.51 1242.76 1499.51 1249.11C1499.51 1255.46 1504.66 1260.6 1511 1260.6Z" stroke="#FFBAE8" stroke-miterlimit="10"/>
<path d="M1231.77 1288.26C1238.12 1288.26 1243.26 1283.12 1243.26 1276.77C1243.26 1270.42 1238.12 1265.28 1231.77 1265.28C1225.43 1265.28 1220.28 1270.42 1220.28 1276.77C1220.28 1283.12 1225.43 1288.26 1231.77 1288.26Z" stroke="#FFBAE8" stroke-miterlimit="10"/>
<path d="M1167.22 900.515C1173.57 900.515 1178.71 895.369 1178.71 889.022C1178.71 882.674 1173.57 877.529 1167.22 877.529C1160.88 877.529 1155.73 882.674 1155.73 889.022C1155.73 895.369 1160.88 900.515 1167.22 900.515Z" stroke="#FFBAE8" stroke-miterlimit="10"/>
<path d="M1799.68 671.14C1799.68 667.462 1802.67 664.5 1806.32 664.5C1810 664.5 1812.96 667.462 1812.96 671.14C1812.96 674.818 1809.97 677.78 1806.32 677.78C1802.64 677.78 1799.68 674.792 1799.68 671.14Z" fill="#FFBAE8"/>
<path d="M1584.77 720.381C1584.77 716.704 1587.76 713.741 1591.41 713.741C1595.08 713.741 1598.05 716.704 1598.05 720.381C1598.05 724.059 1595.08 727.022 1591.41 727.022C1587.76 727.022 1584.77 724.059 1584.77 720.381Z" fill="#FFBAE8"/>
<path d="M1564.93 641.488C1564.93 637.81 1567.92 634.848 1571.57 634.848C1575.22 634.848 1578.21 637.81 1578.21 641.488C1578.21 645.166 1575.22 648.129 1571.57 648.129C1567.92 648.129 1564.93 645.166 1564.93 641.488Z" fill="#FFBAE8"/>
<path d="M1401.85 787.219C1401.85 783.542 1404.84 780.579 1408.49 780.579C1412.16 780.579 1415.13 783.542 1415.13 787.219C1415.13 790.897 1412.16 793.86 1408.49 793.86C1404.84 793.86 1401.85 790.897 1401.85 787.219Z" fill="#FFBAE8"/>
<path d="M1340.57 812.555C1340.57 808.877 1343.53 805.915 1347.21 805.915C1350.88 805.915 1353.85 808.877 1353.85 812.555C1353.85 816.233 1350.86 819.195 1347.21 819.195C1343.56 819.195 1340.57 816.233 1340.57 812.555Z" fill="#FFBAE8"/>
<path d="M1141.43 780.783C1141.43 777.106 1144.42 774.143 1148.07 774.143C1151.75 774.143 1154.71 777.106 1154.71 780.783C1154.71 784.461 1151.72 787.424 1148.07 787.424C1144.4 787.424 1141.43 784.461 1141.43 780.783Z" fill="#FFBAE8"/>
<path d="M1656.03 776.212C1656.03 772.534 1658.99 769.571 1662.67 769.571C1666.35 769.571 1669.31 772.534 1669.31 776.212C1669.31 779.889 1666.32 782.852 1662.67 782.852C1658.99 782.852 1656.03 779.889 1656.03 776.212Z" fill="#FFBAE8"/>
<path d="M1735.98 779.583C1735.98 775.905 1738.94 772.943 1742.62 772.943C1746.29 772.943 1749.26 775.905 1749.26 779.583C1749.26 783.261 1746.29 786.223 1742.62 786.223C1738.94 786.223 1735.98 783.261 1735.98 779.583Z" fill="#FFBAE8"/>
<path d="M1799.68 898.14C1799.68 894.462 1802.67 891.499 1806.32 891.499C1810 891.499 1812.96 894.462 1812.96 898.14C1812.96 901.817 1809.97 904.78 1806.32 904.78C1802.64 904.78 1799.68 901.792 1799.68 898.14Z" fill="#FFBAE8"/>
<path d="M1558.29 1130.53C1558.29 1126.85 1561.28 1123.89 1564.93 1123.89C1568.61 1123.89 1571.57 1126.85 1571.57 1130.53C1571.57 1134.21 1568.61 1137.17 1564.93 1137.17C1561.25 1137.17 1558.29 1134.18 1558.29 1130.53Z" fill="#FFBAE8"/>
<path d="M1333.93 1044.82C1333.93 1041.14 1336.92 1038.18 1340.57 1038.18C1344.25 1038.18 1347.21 1041.14 1347.21 1044.82C1347.21 1048.49 1344.22 1051.46 1340.57 1051.46C1336.92 1051.46 1333.93 1048.49 1333.93 1044.82Z" fill="#FFBAE8"/>
<path d="M2736.88 776.212V758.998C2736.88 751.974 2731.14 746.228 2724.12 746.228H1421.25C1414.23 746.228 1408.49 751.974 1408.49 758.998V782.137" stroke="#FFBAE8" stroke-miterlimit="10"/>
<path d="M1742.49 776.212V728.35C1742.49 721.326 1748.23 715.58 1755.26 715.58H2567.65C2574.67 715.58 2580.42 721.326 2580.42 728.35V774.781" stroke="#FFBAE8" stroke-miterlimit="10"/>
<path d="M2185.95 764.514V697.702C2185.95 690.678 2180.21 684.932 2173.19 684.932H1160.84C1153.82 684.932 1148.07 690.678 1148.07 697.702V782.137" stroke="#FFBAE8" stroke-miterlimit="10"/>
<path d="M1662.67 776.212V664.5C1662.67 657.476 1656.93 651.73 1649.91 651.73H1604.2C1597.18 651.73 1591.43 657.476 1591.43 664.5V713.971" stroke="#FFBAE8" stroke-miterlimit="10"/>
<path d="M2262.93 764.157V641.488C2262.93 634.465 2257.19 628.718 2250.17 628.718H1819.09C1812.07 628.718 1806.32 634.465 1806.32 641.488V664.474" stroke="#FFBAE8" stroke-miterlimit="10"/>
<path d="M1347.23 812.555V654.258C1347.23 647.235 1352.98 641.488 1360 641.488H1564.96" stroke="#FFBAE8" stroke-miterlimit="10"/>
<path d="M1981.79 51.6163V93.6807C1981.79 100.704 1976.04 106.451 1969.02 106.451H1148.07" stroke="#FFBAE8" stroke-miterlimit="10"/>
<path d="M1742.62 51.6163V185.982C1742.62 193.006 1736.87 198.752 1729.85 198.752H1347.23" stroke="#FFBAE8" stroke-miterlimit="10"/>
<path d="M1591.43 51.6164V235.658C1591.43 242.681 1597.18 248.428 1604.2 248.428H1883.33" stroke="#FFBAE8" stroke-miterlimit="10"/>
<path d="M2350.9 47.8364V290.415C2350.9 297.439 2345.15 303.185 2338.13 303.185H1347.23" stroke="#FFBAE8" stroke-miterlimit="10"/>
<path d="M1408.49 61.2704V409.585C1408.49 416.608 1402.74 422.355 1395.72 422.355H1333.16C1326.14 422.355 1320.4 428.101 1320.4 435.125V561.114" stroke="#FFBAE8" stroke-miterlimit="10"/>
<path d="M1822.33 588.671H1675.44C1668.42 588.671 1662.67 582.925 1662.67 575.901V61.2704" stroke="#FFBAE8" stroke-miterlimit="10"/>
<path d="M1523.39 507.48H1737.46C1744.48 507.48 1750.23 513.226 1750.23 520.25V653.032" stroke="#FFBAE8" stroke-miterlimit="10"/>
<path d="M1231.77 523.672V162.792C1231.77 155.768 1226.03 150.022 1219 150.022H1178.71" stroke="#FFBAE8" stroke-miterlimit="10"/>
<path d="M1564.93 388.898H1793.56C1800.58 388.898 1806.32 383.151 1806.32 376.128V163.15" stroke="#FFBAE8" stroke-miterlimit="10"/>
<path d="M1511 518.973C1517.35 518.973 1522.49 513.827 1522.49 507.48C1522.49 501.132 1517.35 495.987 1511 495.987C1504.66 495.987 1499.51 501.132 1499.51 507.48C1499.51 513.827 1504.66 518.973 1511 518.973Z" stroke="#FFBAE8" stroke-miterlimit="10"/>
<path d="M1231.77 546.658C1238.12 546.658 1243.26 541.513 1243.26 535.165C1243.26 528.818 1238.12 523.672 1231.77 523.672C1225.43 523.672 1220.28 528.818 1220.28 535.165C1220.28 541.513 1225.43 546.658 1231.77 546.658Z" stroke="#FFBAE8" stroke-miterlimit="10"/>
<path d="M1167.22 158.884C1173.57 158.884 1178.71 153.739 1178.71 147.391C1178.71 141.044 1173.57 135.898 1167.22 135.898C1160.88 135.898 1155.73 141.044 1155.73 147.391C1155.73 153.739 1160.88 158.884 1167.22 158.884Z" stroke="#FFBAE8" stroke-miterlimit="10"/>
<path d="M1401.85 45.6144C1401.85 41.9367 1404.84 38.974 1408.49 38.974C1412.16 38.974 1415.13 41.9367 1415.13 45.6144C1415.13 49.2922 1412.16 52.2548 1408.49 52.2548C1404.84 52.2548 1401.85 49.2922 1401.85 45.6144Z" fill="#FFBAE8"/>
<path d="M1340.57 70.9501C1340.57 67.2724 1343.53 64.3097 1347.21 64.3097C1350.88 64.3097 1353.85 67.2724 1353.85 70.9501C1353.85 74.6279 1350.86 77.5905 1347.21 77.5905C1343.56 77.5905 1340.57 74.6023 1340.57 70.9501Z" fill="#FFBAE8"/>
<path d="M1141.43 39.1528C1141.43 35.475 1144.42 32.5124 1148.07 32.5124C1151.75 32.5124 1154.71 35.475 1154.71 39.1528C1154.71 42.8306 1151.72 45.7932 1148.07 45.7932C1144.4 45.8187 1141.43 42.8306 1141.43 39.1528Z" fill="#FFBAE8"/>
<path d="M1656.03 34.5812C1656.03 30.9035 1658.99 27.9408 1662.67 27.9408C1666.35 27.9408 1669.31 30.9035 1669.31 34.5812C1669.31 38.259 1666.32 41.2216 1662.67 41.2216C1658.99 41.2216 1656.03 38.259 1656.03 34.5812Z" fill="#FFBAE8"/>
<path d="M1735.98 37.978C1735.98 34.3002 1738.94 31.3376 1742.62 31.3376C1746.29 31.3376 1749.26 34.3002 1749.26 37.978C1749.26 41.6557 1746.29 44.6184 1742.62 44.6184C1738.94 44.6184 1735.98 41.6302 1735.98 37.978Z" fill="#FFBAE8"/>
<path d="M1799.68 156.509C1799.68 152.831 1802.67 149.869 1806.32 149.869C1810 149.869 1812.96 152.831 1812.96 156.509C1812.96 160.187 1809.97 163.15 1806.32 163.15C1802.64 163.15 1799.68 160.187 1799.68 156.509Z" fill="#FFBAE8"/>
<path d="M1815.67 588.671C1815.67 584.994 1818.63 582.031 1822.31 582.031C1825.98 582.031 1828.94 585.019 1828.94 588.671C1828.94 592.349 1825.98 595.312 1822.31 595.312C1818.65 595.312 1815.67 592.349 1815.67 588.671Z" fill="#FFBAE8"/>
<path d="M1558.29 388.898C1558.29 385.22 1561.28 382.257 1564.93 382.257C1568.61 382.257 1571.57 385.22 1571.57 388.898C1571.57 392.575 1568.61 395.538 1564.93 395.538C1561.25 395.564 1558.29 392.575 1558.29 388.898Z" fill="#FFBAE8"/>
<path d="M1743.59 653.058C1743.59 649.38 1746.55 646.417 1750.23 646.417C1753.9 646.417 1756.86 649.38 1756.86 653.058C1756.86 656.736 1753.88 659.698 1750.23 659.698C1746.57 659.698 1743.59 656.71 1743.59 653.058Z" fill="#FFBAE8"/>
<path d="M1313.76 561.114C1313.76 557.436 1316.72 554.474 1320.4 554.474C1324.07 554.474 1327.04 557.462 1327.04 561.114C1327.04 564.792 1324.05 567.754 1320.4 567.754C1316.75 567.754 1313.76 564.792 1313.76 561.114Z" fill="#FFBAE8"/>
<path d="M1333.93 303.185C1333.93 299.507 1336.92 296.545 1340.57 296.545C1344.25 296.545 1347.21 299.507 1347.21 303.185C1347.21 306.863 1344.22 309.826 1340.57 309.826C1336.92 309.826 1333.93 306.863 1333.93 303.185Z" fill="#FFBAE8"/>
<path d="M2736.88 34.581V17.3671C2736.88 10.3436 2731.14 4.59708 2724.12 4.59708H1421.25C1414.23 4.59708 1408.49 10.3436 1408.49 17.3671V40.5063" stroke="#FFBAE8" stroke-miterlimit="10"/>
<path d="M1742.49 34.5811V-13.2808C1742.49 -20.3043 1748.23 -26.0508 1755.26 -26.0508H2567.65C2574.67 -26.0508 2580.42 -20.3043 2580.42 -13.2808V33.1509" stroke="#FFBAE8" stroke-miterlimit="10"/>
<path d="M2185.95 22.8838V-43.9288C2185.95 -50.9523 2180.21 -56.6988 2173.19 -56.6988H1160.84C1153.82 -56.6988 1148.07 -50.9523 1148.07 -43.9288V40.5064" stroke="#FFBAE8" stroke-miterlimit="10"/>
<path d="M1662.67 34.5812V-77.1307C1662.67 -84.1542 1656.93 -89.9007 1649.91 -89.9007H1604.2C1597.18 -89.9007 1591.43 -84.1542 1591.43 -77.1307V-27.6597" stroke="#FFBAE8" stroke-miterlimit="10"/>
<path d="M2262.93 22.5518V-100.117C2262.93 -107.14 2257.19 -112.887 2250.17 -112.887H1819.09C1812.07 -112.887 1806.32 -107.14 1806.32 -100.117V-77.1308" stroke="#FFBAE8" stroke-miterlimit="10"/>
<path d="M1347.23 70.9501V-87.3468C1347.23 -94.3703 1352.98 -100.117 1360 -100.117H1564.96" stroke="#FFBAE8" stroke-miterlimit="10"/>
</g>
</g>
</g>
<defs>
<clipPath id="clip0_0_13">
<rect width="1915" height="1277" fill="white" transform="translate(-26.001)"/>
</clipPath>
</defs>
</svg>
