<svg width="359" height="341" viewBox="0 0 359 341" fill="none" xmlns="http://www.w3.org/2000/svg">
<path d="M-269.581 279.067C-270.807 278.246 -271.415 277.849 -272.633 277.08C-286.398 275.729 -297.216 271.252 -303.599 264.224C-321.746 244.241 -328.534 216.97 -320.929 195.629C-317.28 185.392 -307.45 175.495 -301.692 165.481C-292.879 150.153 -290.564 130.963 -275.542 117.019C-263.74 106.069 -246.459 93.8385 -230.145 86.441C-210.381 77.4771 -189.556 128.199 -180.104 133.524C-171.943 138.121 -155.207 127.57 -149.885 123.658C-130.998 109.786 -120.509 90.4253 -106.985 76.3246C-97.4173 66.3484 -91.7431 69.0536 -83.7329 79.2111C-77.0391 87.703 -69.1685 97.857 -64.3847 106.438C-56.2069 121.103 -39.1075 101.783 -35.6541 96.5574C-25.0389 80.4799 -21.3062 61.8647 -9.18256 46.8235C-3.9169 40.2947 3.25879 34.207 12.767 29.077C26.8914 21.4572 34.0392 9.26482 46.8647 1.85021C61.5792 -6.6588 95.3311 16.5187 106.32 22.7226C124.833 33.1776 143.64 41.9944 153.735 55.5411C164.144 69.5085 182.176 91.0444 203.906 97.5629C217.765 101.722 237.769 100.179 250.347 106.414C261.081 111.735 269.555 120.686 278.289 128.627C292.427 141.483 309.205 152.926 328.476 163.193C348.767 174.007 353.865 192.622 358.314 207.404C361.286 217.288 354.204 226.987 345.464 235.335C331.766 248.417 323.829 263.472 312.47 277.408C311.258 278.031 310.647 278.328 309.418 278.906C320.04 264.915 329.409 250.52 342.374 237.189C346.812 232.623 351.68 229.247 353.918 223.153C358.097 211.768 351.55 199.264 346.55 188.58C337.066 168.313 297.357 150.594 277.89 132.666C269.175 124.639 260.683 115.395 250.183 109.762C237.672 103.052 217.451 103.804 203.455 99.2661C181.471 92.1388 161.148 69.7513 150.868 55.1649C141.455 41.8097 123.765 33.2768 105.415 23.3314C95.5162 17.9688 61.0449 -4.63757 46.5993 4.30921C34.3954 11.8675 27.5199 22.856 14.7434 30.2056C6.02081 35.2228 -0.889496 40.9547 -5.91422 47.2099C-18.5546 62.9455 -22.1721 82.4122 -33.0631 99.1498C-40.5286 110.624 -54.3632 123.435 -65.4428 107.724C-71.2427 99.5021 -78.6803 89.6114 -82.0918 81.5914C-84.0996 76.8684 -87.944 72.3676 -95.9927 70.1515C-98.4474 72.1316 -101.482 74.1939 -103.357 76.092C-118.333 91.2462 -130.226 113.148 -151.555 128.213C-157.382 132.331 -175.746 142.201 -183.833 137.013C-196.075 129.164 -209.924 88.5785 -229.691 92.6723C-239.632 94.7311 -250.202 104.174 -259.818 109.687C-279.062 120.727 -285.172 138.316 -291.559 152.837C-295.355 161.473 -299.248 170.067 -304.528 178.303C-308.243 184.103 -315.583 189.185 -317.524 196.138C-323.799 218.608 -317.625 244.624 -300.351 264.86C-294.209 272.056 -283.647 277.429 -269.581 279.067Z" fill="url(#paint0_linear_0_4076)"/>
<path d="M-266.516 281.464C-267.762 280.592 -268.387 280.165 -269.627 279.337C-284.265 278.359 -292.743 271.987 -299.032 265.893C-317.706 247.794 -321.99 219.685 -315.475 197.845C-312.936 189.339 -302.74 182.362 -297.764 174.517C-288.116 159.311 -284.949 141.849 -273.115 126.691C-265.971 117.539 -242.911 99.037 -224.597 101.923C-201.771 105.518 -201.505 134.916 -177.981 138.251C-167.195 139.78 -155.032 133.87 -148.052 129.961C-126.225 117.741 -110.641 95.6922 -103.273 80.5654C-96.3001 66.2458 -84.0543 78.6776 -80.758 83.7905C-74.2632 93.8693 -67.0351 105.501 -63.0475 115.528C-56.7133 131.459 -39.0622 115.203 -34.2958 108.586C-22.043 91.5813 -19.3439 72.1043 -10.1185 54.3578C-6.23904 46.8953 1.09027 40.3426 10.9407 34.9902C23.9128 27.9382 32.4817 17.8936 45.6354 11.6383C61.7292 3.98434 94.7199 20.6467 106.638 26.3068C129.673 37.2475 142.551 49.2791 156.092 64.1801C168.027 77.313 185.891 95.251 204.272 102.761C216.462 107.741 236.767 107.392 248.283 113.986C258.769 119.991 267.397 129.67 276.326 137.772C290.192 150.354 309.181 159.657 327.094 169.917C343.809 179.493 348.306 197.469 351.641 210.454C353.949 219.442 350.789 228.389 343.121 236.279C330.156 249.617 320.47 264.563 309.163 278.694C307.93 279.265 307.312 279.542 306.066 280.066C317.76 266.126 327.572 251.409 340.251 238.016C347.51 230.349 349.92 221.641 348.006 213.016C345.23 200.506 341.801 183.611 326.496 173.607C309.715 162.639 289.357 155.406 275.799 142.393C267.181 134.12 258.497 124.455 248.035 118.206C235.936 110.976 214.856 111.373 203.549 105.839C185.72 97.1115 165.974 78.5305 153.306 64.3272C140.281 49.7237 129.205 37.1517 105.559 26.8711C93.1381 21.4709 60.8702 6.78876 45.5097 14.9113C33.84 21.0844 25.0302 29.9594 12.9241 36.3925C3.10855 41.608 -2.69485 48.0752 -6.87805 54.8674C-17.5526 72.2172 -17.4373 94.0267 -31.3173 111.185C-41.1817 123.377 -54.269 134.544 -64.0531 116.79C-69.3397 107.197 -73.5194 96.3625 -79.1448 86.7488C-80.6602 84.1565 -93.6253 66.7315 -100.019 81.2597C-107.093 97.3441 -123.913 123.394 -149.91 135.016C-157.994 138.627 -171.566 143.637 -181.794 141.315C-202.287 136.664 -205.535 112.933 -224.436 107.46C-234.056 104.673 -250.562 111.671 -257.535 116.595C-274.173 128.353 -279.656 144.862 -286.035 159.11C-289.705 167.301 -292.718 176.087 -299.004 183.785C-302.901 188.559 -310.335 191.969 -312.07 198.289C-318.139 220.4 -311.372 245.759 -295.683 265.937C-290.131 273.068 -280.455 279.546 -266.516 281.464Z" fill="url(#paint1_linear_0_4076)"/>
<path d="M-263.421 283.988C-264.692 283.075 -265.327 282.624 -266.591 281.745C-312.861 273.331 -315.749 220.872 -309.939 199.832C-308.147 193.344 -298.409 187.937 -293.6 182.509C-282.2 169.636 -278.956 152.482 -270.233 138.377C-265.006 129.927 -241.51 103.565 -220.073 116.975C-210.17 123.172 -192.687 140.864 -175.549 141.425C-168.768 141.647 -157.238 142.8 -146.902 138.511C-121.58 128.008 -112.18 104.742 -101.606 89.3583C-93.8824 78.1235 -84.0669 74.2042 -77.9143 89.7071C-73.3854 101.123 -68.1093 114.437 -62.1069 125.392C-53.9255 140.327 -41.6518 130.768 -32.8594 120.744C-17.9598 103.76 -17.8795 83.3972 -10.5711 64.7273C-7.23294 56.2046 -2.21866 47.7196 9.47543 41.5156C20.7156 35.5546 32.2945 28.7692 44.8406 23.6289C62.7431 16.293 91.2713 24.1796 107.037 29.9491C136.145 40.6059 142.894 58.927 162.033 74.0708C176.562 85.5689 189.203 104.259 204.015 110.668C214.609 115.255 234.638 116.592 246.112 123.442C257.007 129.947 265.132 140.091 274.075 148.189C286.551 159.486 303.305 167.14 320.722 175.676C339.337 184.801 342.312 204.459 345.916 217.329C348.549 226.737 341.792 235.273 333.97 243.321C322.824 254.792 315.404 267.753 305.802 279.836C304.552 280.356 303.927 280.602 302.669 281.071C312.419 269.535 319.703 257.158 330.293 246.029C338.031 237.903 344.568 229.285 342.19 219.856C339.037 207.363 336.795 187.715 318.439 178.867C301.597 170.751 285.577 163.925 273.419 153.128C264.364 145.091 256.33 135.053 245.781 128.299C234.038 120.781 214.288 118.911 202.73 114.095C196.197 111.373 193.498 103.493 188.47 98.2435C180.449 89.8679 169.296 82.3746 159.526 74.6591C140.492 59.6247 134.137 40.8419 105.441 30.6776C88.0728 24.525 62.8165 21.3717 44.8336 27.302C19.5074 35.6537 -1.5238 48.0308 -7.198 65.1959C-13.7312 84.9636 -14.2445 105.272 -29.7901 123.261C-40.7334 135.925 -55.2036 144.677 -63.2138 126.712C-67.9277 116.137 -71.2449 104.04 -76.5316 93.4179C-83.3581 79.7036 -89.3361 78.2775 -99.3297 92.4945C-109.756 107.327 -120.553 136.859 -148.872 143.979C-160.052 146.791 -171.209 145.563 -179.401 144.339C-197.177 141.678 -209.385 128.241 -220.964 120.894C-231.565 114.167 -248.06 119.872 -255.103 126.298C-270.865 140.683 -276.267 158.426 -284.578 174.435C-288.289 181.586 -291.533 187.079 -297.323 191.583C-300.811 194.295 -305.417 195.54 -306.527 200.246C-311.639 221.86 -308.842 274.727 -263.421 283.988Z" fill="url(#paint2_linear_0_4076)"/>
<path d="M-260.3 286.591C-261.592 285.65 -262.238 285.182 -263.527 284.265C-307.649 275.301 -308.658 222.64 -304.343 201.74C-302.991 195.191 -293.609 193.248 -289.324 189.137C-277.571 177.855 -274.089 163.07 -266.935 150.761C-262.119 142.475 -241.706 113.818 -218.245 128.678C-207.074 135.754 -188.879 143.118 -172.998 144.797C-166.433 145.491 -155.661 150.508 -146.39 149.38C-121.071 146.302 -110.711 118.039 -102.983 105.771C-95.3536 93.6573 -84.8572 77.9149 -75.8029 97.5322C-70.2998 109.461 -65.0237 123.637 -61.5179 134.927C-56.8703 149.9 -37.6303 137.906 -32.1168 132.741C-14.3294 116.086 -11.9061 96 -8.9939 75.9963C-7.65305 66.8033 -3.68634 54.5527 8.30804 48.79C18.368 43.9575 31.7103 39.8022 44.4065 36.731C66.8031 31.3103 85.5541 29.313 107.661 34.638C137.17 41.7482 151.145 69.9668 170.538 84.69C179.037 91.1436 186.646 97.6792 192.243 105.302C195.693 110.002 196.098 116.257 202.565 119.112C215.122 124.653 232.441 126.305 243.807 134.116C254.041 141.151 262.23 151.103 271.518 159.134C283.736 169.698 299.505 175.591 316.203 183.019C334.067 190.964 336.393 210.468 339.622 222.548C341.683 230.26 337.541 237.548 331.762 244.364C321.737 256.18 312.156 268.67 302.379 280.828C301.118 281.29 300.483 281.509 299.215 281.919C308.87 270.346 318.382 258.526 327.977 247.144C333.823 240.209 337.786 232.794 335.925 224.996C333.1 213.177 331.294 193.669 313.825 186.224C297.972 179.469 282.591 173.884 270.722 163.939C261.329 156.069 253.221 146.36 243.367 139.191C231.624 130.645 214.483 128.497 200.973 122.584C193.993 119.53 194.101 113.11 190.787 108.121C185.183 99.6834 177.703 92.9014 168.429 85.8357C149.783 71.6255 135.197 42.333 106.921 36.1564C85.1735 31.406 67.3198 35.5272 44.5008 40.6196C13.3503 47.5691 -1.54935 57.022 -4.70596 75.8184C-8.08603 95.9384 -10.5722 118.069 -29.023 134.544C-40.553 144.838 -54.3212 148.99 -62.6213 135.44C-68.6656 125.573 -73.0863 112.358 -74.9754 102.392C-75.6423 98.8797 -79.0678 92.2687 -85.8035 93.5581C-94.4946 95.2202 -99.034 107.207 -101.831 111.606C-108.584 122.225 -122 156.343 -148.314 155.03C-158.996 154.496 -168.528 148.904 -176.835 147.502C-192.206 144.91 -208.311 138.227 -219.449 131.763C-241.008 119.253 -260.119 147.003 -264.169 153.963C-271.052 165.789 -274.557 180.105 -286.37 190.772C-290.445 194.462 -299.751 196.251 -300.955 202.24C-305.233 223.485 -303.477 276.837 -260.3 286.591Z" fill="url(#paint3_linear_0_4076)"/>
<path d="M-257.154 289.214C-258.471 288.27 -259.127 287.795 -260.437 286.854C-302.293 277.011 -302.227 224.593 -298.707 203.782C-297.67 197.653 -289.132 196.234 -284.677 193.18C-272.686 184.955 -269.267 172.355 -263.251 162.516C-257.922 153.798 -241.598 127.105 -216.475 138.542C-203.736 144.339 -183.585 145.525 -170.442 148.98C-163.277 150.861 -155.452 159.575 -146.111 161.952C-125.946 167.075 -111.105 135.18 -106.922 128.466C-103.462 122.916 -97.9587 106.944 -88.3283 104.468C-83.5724 103.244 -76.8751 100.675 -75.4888 109.044C-73.9489 118.35 -66.1133 131.093 -60.9838 140.97C-55.3515 151.818 -37.2918 143.49 -31.45 140.067C-10.0452 127.519 -4.95755 104.653 -4.2627 86.3589C-3.89606 76.7247 -3.7529 64.4537 7.40695 56.7963C15.6721 51.1259 33.3931 52.4118 44.2875 50.3017C62.6685 46.7414 86.4862 35.4109 108.446 41.1634C125.783 45.7052 132.652 57.0938 141.919 65.832C153.068 76.3486 168.593 85.7912 178.66 96.0513C187.239 104.793 187.752 121.801 200.197 127.673C213.114 133.767 229.839 136.315 241.209 144.834C250.937 152.126 259.195 161.63 268.661 169.445C276.137 175.618 283.219 180.714 294.372 185.078C301.746 187.964 310.647 189.144 316.22 193.094C328.738 201.976 330.226 216.186 333.354 227.575C335.54 235.533 330.969 243.016 324.817 249.908C315.752 260.062 307.595 271.098 298.925 281.683C297.654 282.09 297.018 282.278 295.74 282.631C310.665 266.813 330.61 250.301 329.877 231.778C329.395 219.651 326.535 203.105 311.649 194.527C298.146 186.747 280.279 183.392 267.722 173.549C258.113 166.018 249.924 156.736 240.58 149.441C228.855 140.289 213.141 137.44 198.249 131.021C185.057 125.334 184.767 106.226 176.575 97.751C166.84 87.6757 151.85 78.2432 140.753 67.9969C131.621 59.5665 124.589 47.7298 107.741 43.424C85.4805 37.7365 63.4157 51.0028 44.5145 54.1458C13.8249 59.2484 0.922668 64.9667 0.765533 85.415C0.622345 104.42 -5.78864 126.609 -28.667 139.893C-36.9496 144.701 -55.3585 153.012 -62.2479 141.148C-67.0596 132.864 -72.43 123.148 -75.4819 115.138C-81.3935 99.6218 -104.729 133.251 -106.486 136.059C-110.037 141.736 -127.461 176.887 -147.71 167.301C-157.089 162.861 -164.506 154.684 -174.175 151.38C-186.005 147.341 -205.147 145.778 -217.533 140.737C-240.533 131.37 -255.583 157.516 -260.395 165.214C-266.345 174.736 -269.749 186.634 -281.639 194.428C-286.014 197.298 -294.429 198.604 -295.355 204.452C-297.673 219.124 -295.379 234.224 -290.697 248.752C-286.664 261.249 -280.525 283.291 -257.154 289.214Z" fill="url(#paint4_linear_0_4076)"/>
<path d="M-254 291.779C-255.299 290.876 -255.99 290.397 -257.324 289.453C-279.99 283.444 -285.112 261.655 -288.684 249.439C-292.843 235.215 -294.802 220.537 -293.056 206.186C-292.274 199.767 -284.728 199.24 -279.85 196.508C-268.634 190.228 -264.503 180.793 -259.217 172.612C-253.543 163.829 -239.369 138.196 -214.326 145.313C-200.628 149.205 -178.221 148.213 -167.983 154.475C-159.368 159.742 -154.378 168.785 -145.31 174.705C-128.727 185.529 -114.729 158.063 -111.621 153.282C-109.082 149.373 -86.7278 113.158 -77.0171 123.056C-71.0321 129.157 -67.7742 138.562 -60.5881 144.988C-54.6136 150.33 -42.1722 148.33 -31.2568 142.505C-8.95105 130.607 -1.0351 113.247 1.45108 96.424C4.4715 75.986 7.01007 63.243 45.8356 62.1213C65.3479 61.5569 87.1159 43.1983 108.835 50.6779C125.788 56.5158 136.344 68.9716 147.884 77.6516C160.657 87.2584 177.428 96.9644 182.61 108.411C186.538 117.081 186.462 128.521 198.261 135.515C210.821 142.96 227.278 145.471 238.182 154.116C247.443 161.456 255.795 170.515 265.482 177.786C272.455 183.019 280.049 187.845 290.113 191.672C297.187 194.36 305.431 195.728 310.69 199.562C322.744 208.344 324.312 221.409 327.095 232.407C331.599 250.192 308.941 267.415 295.427 282.374C294.149 282.723 293.51 282.887 292.232 283.181C306.332 268.133 326.857 252.404 323.495 234.661C321.427 223.755 319.86 210.718 307.855 201.908C296.831 193.813 276.341 189.124 264.392 180.687C254.566 173.747 246.35 165.074 237.379 157.96C226 148.932 209.595 146.486 195.97 138.928C183.2 131.845 183.406 119.413 179.67 110.32C175.078 99.1498 159.211 89.5396 146.917 80.3226C135.75 71.9504 124.894 60.0932 108.643 54.4775C87.4441 47.1518 66.0253 63.992 46.9425 64.7752C12.789 66.1774 9.36005 76.5264 6.87039 94.8474C4.46103 112.594 -5.72812 130.542 -28.6205 141.661C-36.0127 145.252 -52.2147 152.923 -61.9604 145.276C-67.2645 141.113 -71.9505 131.767 -77.3314 129.085C-89.7343 122.905 -107.668 155.033 -110.856 160.05C-114.167 165.259 -127.893 191.955 -146.26 179.086C-156.26 172.082 -161.945 162.697 -171.527 156.466C-181.398 150.043 -201.256 150.043 -215.258 147.136C-238.72 142.263 -250.843 166.155 -256.287 174.575C-261.445 182.554 -265.698 191.569 -276.725 197.581C-281.571 200.222 -289.121 201.012 -289.739 207.137C-291.195 221.535 -288.838 236.248 -284.766 250.486C-281.215 262.904 -276.69 285.36 -254 291.779Z" fill="url(#paint5_linear_0_4076)"/>
<path d="M-251.047 294.176C-252.245 293.328 -252.873 292.891 -254.197 291.984C-276 285.343 -279.446 263.167 -282.578 250.992C-286.122 237.216 -288.099 223.126 -287.414 209.213C-287.104 202.903 -280.162 201.962 -274.833 199.538C-264.491 194.832 -259.504 187.099 -254.867 180.512C-248.086 170.881 -237.216 148.012 -211.844 150.464C-196.714 151.924 -173.319 152.02 -165.592 161.572C-159.174 169.503 -152.833 178.433 -143.042 185.297C-128.544 195.461 -117.691 178.826 -114.398 173.997C-108.2 164.907 -95.6646 137.119 -79.3089 137.225C-73.7429 137.263 -66.9269 145.153 -60.1074 147.741C-53.0574 150.416 -41.3738 148.48 -31.1323 143.391C-11.9133 133.839 0.514099 121.606 5.40964 107.303C10.9616 91.0752 8.65005 65.7294 49.1517 69.7342C73.3151 72.1214 89.1295 58.1951 110.618 64.3032C138.277 72.1659 177.651 100.125 180.263 120.703C181.464 130.19 182.333 138.429 195.574 145.235C208.302 151.777 224.347 153.884 234.752 161.61C243.817 168.34 252.009 177.044 261.964 183.754C273.903 191.802 294.194 196.644 305.127 204.545C317.121 213.211 318.643 226.228 320.896 237.011C324.415 253.844 305.305 268.68 291.913 282.914C290.632 283.208 289.993 283.349 288.628 283.444C304.631 268.862 318.224 255.192 317.25 238.618C316.618 227.862 314.24 215.588 299.784 206.997C287.458 199.671 272.255 193.922 260.718 186.172C250.919 179.592 241.705 172.284 233.778 165.091C224.123 156.329 206.591 154.588 193.315 148.268C179.152 141.527 178.283 132.266 176.757 122.457C173.628 102.33 139.258 76.5572 110.911 68.5714C89.1575 62.4427 73.989 73.2979 50.283 71.4921C14.67 68.7766 16.0527 90.6545 10.8604 105.306C5.62613 120.07 -9.49344 133.319 -28.5867 142.386C-37.0788 146.418 -49.5097 151.647 -61.5216 148.258C-65.5127 147.133 -70.1289 140.255 -79.48 142.399C-98.0285 146.647 -105.833 168.73 -112.691 178.515C-117.062 184.756 -128.233 198.378 -143.649 188.094C-154.352 180.953 -160.578 170.064 -168.857 163.046C-178.885 154.547 -192.817 152.878 -212.655 151.999C-235.69 150.977 -245.771 172.571 -251.882 181.548C-256.348 188.111 -261.523 195.69 -271.635 200.54C-276.939 203.084 -283.87 204.319 -284.153 210.475C-284.802 224.535 -282.397 238.83 -278.779 252.75C-275.647 264.812 -272.553 287.456 -251.047 294.176Z" fill="url(#paint6_linear_0_4076)"/>
<path d="M-248.346 296.379C-249.453 295.596 -250.029 295.185 -251.255 294.337C-271.794 287.607 -274.119 265.424 -276.923 253.755C-280.178 240.198 -282.377 226.296 -281.805 212.623C-281.536 206.176 -275.132 204.839 -269.5 202.27C-261.144 198.457 -253.965 191.644 -250.232 186.155C-243.224 175.847 -233.492 155.088 -209.06 154.342C-185.214 153.614 -172.668 158.822 -163.024 170.04C-156.759 177.328 -150.443 186.511 -140.557 192.667C-131.293 198.436 -116.799 193.19 -113.754 187.256C-107.814 175.673 -98.0268 159.123 -81.2801 149.944C-74.1777 146.052 -67.0509 149.219 -59.4038 149.838C-51.4704 150.481 -40.6527 148.747 -30.9699 143.897C-16.7896 136.791 -2.01224 127.676 5.46375 117.885C14.5495 105.986 16.3582 70.343 52.3624 75.3054C75.356 78.4724 93.077 72.7507 113.804 79.2932C144.99 89.136 171.786 108.893 175.9 130.433C180.058 152.187 209.033 153.682 230.924 168.771C239.534 174.708 247.848 182.314 258.076 188.087C270.472 195.081 285.302 201.956 296.545 209.575C309.765 218.532 312.416 230.325 314.766 241.368C317.95 256.337 301.748 270.729 288.263 283.15C286.88 283.222 286.164 283.202 284.684 283.051C300.442 272.74 313.414 256.84 311.326 243.321C307.485 218.471 289.227 205.646 256.676 189.493C246.522 184.452 238.166 177.663 229.778 172.075C218.947 164.859 203.516 162.006 190.858 155.748C177.209 148.997 174.332 141.438 172.289 131.801C167.795 110.593 144.25 93.0485 113.49 83.2023C93.9046 76.9334 74.8986 80.2713 53.389 76.8C22.5562 71.8204 18.6558 105.535 10.5094 115.477C2.13254 125.699 -13.9333 135.785 -28.5152 142.936C-38.0548 147.615 -47.2732 150.796 -60.8285 150.72C-65.2875 150.696 -70.0364 146.804 -80.9937 153.897C-95.8514 163.515 -103.705 177.817 -111.139 189.137C-116.135 196.744 -129.911 200.328 -141.224 194.1C-152.499 187.892 -159.165 178.634 -165.953 171.011C-175.336 160.474 -187.962 154.072 -209.758 155.734C-228.132 157.136 -235.919 171.422 -242.515 180.03C-250.56 190.533 -263.089 197.992 -273.871 206.812C-286.442 217.093 -279.193 236.802 -276.19 249.066C-272.936 262.329 -270.135 288.123 -248.346 296.379Z" fill="url(#paint7_linear_0_4076)"/>
<path d="M-245.879 298.363C-246.902 297.655 -247.436 297.278 -248.564 296.495C-267.015 288.745 -268.701 268.766 -271.561 257.114C-274.858 243.676 -278.922 228.854 -276.223 216.036C-274.072 205.83 -252.737 199.551 -245.243 190.153C-237.212 180.078 -228.912 159.448 -205.999 157.553C-180.914 155.478 -169.768 167.742 -160.033 178.963C-154.32 185.55 -148.702 192.602 -137.929 197.188C-127.506 201.624 -117.862 200.936 -111.147 193.932C-100.738 183.07 -94.1244 170.768 -82.1405 160.382C-74.5283 153.785 -66.6997 152.677 -58.459 151.9C-49.8062 151.086 -39.8371 149.233 -30.7863 144.503C-18.4043 138.035 -6.10959 130.511 3.36722 122.895C16.6955 112.183 21.2942 98.7668 32.9743 87.3028C38.1841 82.1899 43.4254 78.3492 55.3359 80.3294C77.2646 83.9752 98.865 87.7645 118.377 94.2079C149.13 104.362 165.807 118.428 171.491 138.241C176.97 157.338 203.791 162.629 226.725 174.992C235.385 179.66 244.027 186.169 253.888 190.758C286.854 206.101 304.558 221.303 308.748 245.39C310.937 257.969 299.777 273.287 284.27 282.689C282.776 282.521 282.004 282.381 280.422 282.011C298.702 274.173 306.492 259.378 305.41 247.141C303.248 222.739 285.981 206.733 252.369 191.774C242.819 187.523 234.058 181.613 225.45 177.28C200.226 164.578 173.663 160.16 167.856 139.342C162.339 119.571 145.61 107.269 116.436 97.2448C98.6031 91.1162 77.0237 85.6647 56.3172 81.8787C45.4017 79.8848 42.4826 83.8452 36.8712 87.8877C24.6079 96.7216 19.8975 111.127 8.08118 120.409C-2.25812 128.528 -15.5864 136.948 -28.4083 143.682C-37.7804 148.603 -47.1978 151.579 -59.8278 153.261C-64.5033 153.884 -69.961 152.594 -81.2396 163.118C-92.0573 173.214 -100.326 185.16 -108.542 195.081C-113.668 201.272 -129.926 202.465 -138.554 198.173C-148.384 193.282 -156.782 186.473 -162.994 179.452C-172.61 168.583 -182.003 157.471 -206.61 158.986C-206.935 159.007 -207.308 159.021 -207.612 159.072C-224.233 161.887 -231.409 176.066 -237.813 184.353C-245.373 194.137 -258.795 201.832 -268.705 210.495C-280.842 221.104 -273.447 240.92 -270.524 253.352C-267.416 266.532 -265.248 289.111 -245.879 298.363Z" fill="url(#paint8_linear_0_4076)"/>
<path d="M-243.668 300.09C-244.59 299.46 -245.058 299.136 -246.102 298.428C-261.899 289.908 -263.547 272.511 -266.386 261.102C-269.742 247.627 -274.449 232.397 -270.451 219.562C-267.312 209.483 -248.452 202.8 -240.264 193.368C-232.306 184.202 -224.09 162.625 -202.566 160.963C-178.654 159.116 -166.939 176.066 -157.794 185.953C-152.769 191.388 -144.089 197.253 -135.066 200.68C-126.567 203.909 -114.639 202.735 -108.465 198.183C-96.7501 189.541 -90.3112 177.65 -81.4874 168.587C-76.3299 163.289 -69.053 156.699 -57.2646 154.698C-48.1964 153.159 -39.2922 150.765 -30.5731 145.648C-19.766 139.304 -9.39874 132.492 0.76944 125.86C15.7389 116.096 26.4238 105.802 38.4915 94.7551C43.2195 90.4288 47.71 84.0505 58.2867 85.9657C78.0225 89.5362 96.7735 100.084 115.221 106.462C144.765 116.677 159.762 126.007 167.308 144.91C174.596 163.162 197.457 169.308 222.259 179.746C231.39 183.587 239.917 188.679 249.474 192.629C282.856 206.429 300.626 226.046 302.836 249.043C303.908 260.185 297.668 274.884 279.979 281.615C278.383 281.228 277.566 280.986 275.9 280.425C296.596 275.158 299.582 261.43 299.414 250.561C299.079 228.676 280.866 206.337 247.861 193.347C239.083 189.893 229.155 184.9 220.883 182.037C192.198 172.119 169.749 164.452 163.684 145.727C158.104 128.5 138.937 117.796 112.399 108.651C94.441 102.464 77.544 91.766 59.2539 87.9117C50.1752 85.9964 45.6568 91.6326 41.2536 95.5007C29.8703 105.497 18.8885 114.831 4.98404 123.682C-6.07455 130.72 -16.99 138.357 -28.2162 145.115C-36.5511 150.132 -47.0022 154.845 -58.5286 156.743C-63.1693 157.506 -69.4615 158.391 -79.9894 170.45C-88.0799 179.715 -94.449 190.625 -105.895 198.765C-114.199 204.671 -124.433 205.304 -135.6 201.429C-145.691 197.927 -155.063 191.555 -160.884 185.782C-169.977 176.76 -180.725 161.473 -203.097 162.622C-203.418 162.639 -203.771 162.66 -204.085 162.704C-221.23 165.208 -227.592 182.335 -234.265 189.886C-241.881 198.508 -254.486 206.364 -262.681 214.514C-274.037 225.803 -267.462 245.267 -264.794 258.112C-262.217 270.5 -260.778 290.75 -243.668 300.09Z" fill="url(#paint9_linear_0_4076)"/>
<path d="M-241.604 301.608C-242.501 301.03 -242.952 300.733 -243.895 300.1C-257.15 291.611 -258.836 275.999 -261.542 265.377C-264.968 251.929 -270.066 236.19 -264.507 223.399C-260.264 213.638 -244.607 205.174 -235.759 196.066C-227.867 187.937 -216.77 165.69 -198.815 165.136C-179.551 164.544 -165.706 182.667 -155.559 190.981C-148.582 196.699 -139.982 200.981 -131.985 203.474C-123.301 206.183 -112.442 205.006 -105.716 201.172C-93.6626 194.305 -87.0351 184.585 -79.6254 176.083C-74.6147 170.334 -67.7951 161.155 -55.881 159.222C-47.3436 157.837 -37.989 153.316 -30.3139 147.988C-20.9384 141.479 -11.8457 134.653 -1.99179 128.412C7.87262 122.163 48.4965 89.9226 61.1473 93.3768C78.4493 98.0964 93.8342 108.469 114.118 114.694C141.854 123.199 157.392 134.229 163.206 151.028C168.982 167.711 190.331 176.661 217.459 184.736C226.31 187.373 236.025 190.7 244.873 193.929C277.951 206.002 292.917 231.026 296.758 252.004C298.724 262.736 295.354 275.548 275.419 279.977C273.74 279.402 272.884 279.074 271.145 278.356C276.443 277.405 285.409 277.121 288.863 273.961C294.719 268.605 294.24 259.634 293.193 253.495C289.652 232.719 275.482 206.207 243.176 194.514C234.761 191.466 224.924 189.363 215.835 186.976C186.902 179.373 165.046 169.031 159.425 151.907C154.232 136.096 137.119 125.139 111.555 117.06C91.8404 110.829 77.3598 100.326 61.9574 96.0957C50.5322 92.9596 10.6416 121.1 1.68161 126.667C-8.96146 133.285 -18.5779 140.833 -27.943 148.097C-34.9581 153.535 -45.9538 160.84 -57.0578 162.673C-67.1212 164.335 -72.9037 172.708 -78.0332 178.44C-85.0343 186.268 -91.7141 195.707 -103.171 201.874C-111.712 206.47 -121.835 207.14 -132.432 204.097C-142.363 201.244 -152.395 195.789 -158.743 190.618C-168.614 182.581 -180.487 168.036 -199.273 167.188C-199.562 167.174 -199.947 167.191 -200.24 167.236C-215.904 169.64 -223.642 186.525 -231.582 194.404C-239.778 202.537 -249.492 210.793 -256.675 218.833C-267.538 230.995 -261.986 249.638 -259.297 263.236C-257.083 274.426 -256.161 292.778 -241.604 301.608Z" fill="url(#paint10_linear_0_4076)"/>
<path d="M-239.576 302.963C-240.481 302.422 -240.928 302.142 -241.843 301.56C-252.304 293.058 -253.701 279.713 -256.264 269.693C-259.592 256.676 -265.074 240.062 -258.415 227.893C-252.961 217.931 -241.951 207.599 -232.226 198.19C-225.382 191.569 -207.92 169.961 -194.79 170.95C-178.924 172.143 -164.604 187.482 -152.927 195.164C-145.168 200.266 -136.473 203.987 -128.771 205.817C-119.978 207.906 -110.086 207.01 -102.872 204.144C-91.1741 199.5 -84.3616 191.371 -77.6747 184.5C-72.5976 179.284 -65.5127 169.729 -54.531 168.559C-43.186 167.348 -34.9872 158.063 -29.7984 152.981C-22.2281 145.566 -14.1062 137.974 -4.65729 131.503C6.43274 123.911 47.9575 98.9515 62.8885 104.557C80.1031 111.017 99.5701 122.686 122.749 131.048C141.203 137.704 156.347 144.643 158.777 157.605C161.745 173.419 186.516 184.055 211.947 189.77C221.676 191.959 231.715 192.585 240.032 195.177C272.37 205.27 286.159 235.222 290.419 254.928C291.669 260.708 292.629 268.913 287.762 274.241C285.356 276.871 274.234 277.265 270.62 277.897C268.875 277.169 267.988 276.769 266.196 275.927C269.73 275.63 281.291 276.988 283.634 275.062C289.469 270.264 287.961 261.416 286.665 255.814C282.412 237.39 269.957 204.61 238.202 196.005C230.07 193.802 220.006 194.049 210.027 192.041C180.664 186.131 159.102 174.613 155.02 158.781C152.223 147.923 138.567 140.3 121.792 134.53C98.6518 126.572 81.4301 116.27 62.9618 108.634C46.0544 101.643 9.33093 123.025 -1.43085 130.378C-11.592 137.321 -20.0073 145.895 -27.2948 154.274C-33.0179 160.85 -40.2285 174.065 -55.6658 174.305C-60.3169 174.377 -65.9667 177.328 -76.079 187.383C-82.3328 193.601 -89.2222 201.272 -100.365 205.249C-109.181 208.396 -118.529 208.707 -129.148 206.429C-137.654 204.603 -149.306 199.233 -156.139 194.757C-166.961 187.67 -181.759 173.812 -195.394 173.744C-203.705 173.703 -213.782 183.546 -219.066 188.067C-234.374 201.162 -247.814 215.434 -254.947 230.451C-260.999 243.184 -255.96 259.398 -252.751 272.75C-250.391 282.535 -249.158 294.491 -239.576 302.963Z" fill="url(#paint11_linear_0_4076)"/>
<path d="M-237.515 304.19C-238.462 303.667 -238.919 303.404 -239.834 302.853C-248.563 294.703 -249.388 282.702 -251.322 273.595C-254.056 260.725 -258.257 245.739 -252.303 233.286C-246.999 222.195 -240.173 210.153 -229.977 199.839C-223.028 192.807 -205.509 176.624 -192.01 177.797C-176.88 179.113 -162.005 192.137 -149.738 198.871C-141.26 203.525 -132.59 206.658 -125.494 207.913C-116.793 209.456 -107.522 209.309 -99.9028 207.688C-91.7808 205.957 -83.6239 201.118 -75.687 194.438C-64.8449 185.314 -57.9066 182.964 -53.1822 183.604C-40.2729 185.348 -32.6398 168.833 -29.0328 163.378C-22.8034 153.952 -16.5949 144.188 -6.87718 136.107C5.7178 125.631 39.0367 105.001 62.61 119.041C81.815 130.474 98.6141 138.692 124.248 145.289C140.743 149.534 151.501 155.019 154.427 165.255C158.537 179.63 177.334 189.893 205.583 194.928C216.222 196.822 226.345 195.957 234.896 197.359C266.539 202.547 279.511 240.13 283.569 256.597C285.154 263.024 287.239 270.989 281.788 275.247C279.983 276.656 267.842 275.301 265.656 275.459C263.858 274.611 262.946 274.163 261.116 273.232C263.023 273.308 275.649 276.03 277.339 275.141C283.583 271.864 280.887 262.948 279.358 256.659C275.723 241.741 262.978 202.031 232.948 198.782C224.487 197.865 214.193 199.062 203.292 197.209C174.003 192.233 157.958 182.804 150.943 166.781C146.55 156.75 140.649 152.895 123.626 149.462C97.1965 144.13 81.169 136.869 62.6135 123.647C39.5081 107.183 9.08392 124.523 -3.83234 135.888C-14.3951 145.183 -20.2159 156.671 -26.5745 167.42C-29.8603 172.974 -39.0892 194.705 -54.2577 191.015C-58.7621 189.921 -64.5621 191.2 -74.0842 198.337C-81.7418 204.076 -89.6228 208.177 -97.4341 209.463C-106.457 210.947 -115.372 210.352 -125.805 208.632C-134.238 207.24 -143.662 203.556 -152.891 198.542C-164.086 192.462 -177.578 180.813 -193.511 179.763C-200.97 179.271 -211.498 186.254 -218.041 190.728C-236.807 203.549 -242.966 220.273 -249.241 235.875C-254.451 248.834 -250.924 263.619 -248.249 276.84C-246.503 285.425 -245.927 296.574 -237.515 304.19Z" fill="url(#paint12_linear_0_4076)"/>
<path d="M-235.364 305.319C-236.373 304.803 -236.859 304.543 -237.808 304.009C-253.696 287.569 -254.461 256.132 -246.999 238.659C-241.813 226.518 -237.857 213.136 -228.796 201.593C-222.385 193.433 -205.739 181.569 -191.444 182.509C-176.118 183.515 -159.55 195.957 -146.047 202.363C-137.055 206.627 -128.504 209.22 -122.233 210.075C-113.908 211.21 -104.592 212.503 -96.8052 212.431C-89.1092 212.359 -81.2352 210.304 -73.6684 206.443C-63.4304 201.22 -56.7924 201.299 -51.834 203.402C-39.473 208.649 -30.2232 186.258 -28.3236 182.362C-22.1431 169.691 -17.6386 155.389 -8.02916 143.737C9.16458 122.885 33.6702 115.713 62.0761 134.756C80.1183 146.849 90.1433 156.671 119.82 158.128C140.419 159.14 148.195 162.253 151.226 173.946C154.896 188.118 175.431 195.502 198.17 200.051C209.26 202.27 221.282 200.765 229.495 201.231C257.335 202.807 271.798 242.623 275.88 256.693C277.525 262.363 281.219 272.117 275.475 274.949C274.267 275.544 261.634 272.805 260.562 272.75C258.728 271.82 257.803 271.338 255.949 270.359C258.641 270.606 269.899 274.857 271.254 274.347C276.956 272.206 272.608 261.406 271.096 256.173C267.095 242.332 252.359 204.309 227.449 203.484C219.791 203.231 206.871 204.551 195.499 202.253C172.669 197.64 150.492 189.938 147.842 175.591C145.691 163.946 137.929 163.922 119.283 163.409C90.0176 162.605 79.0638 151.462 62.1669 139.571C34.9517 120.416 11.8323 122.481 -4.75034 145.002C-14.5868 158.364 -19.3461 174.295 -25.8654 188.631C-27.7963 192.872 -39.2285 219.172 -52.8292 211.696C-57.7527 208.991 -62.9799 208.119 -72.0412 211.463C-80.7428 214.675 -87.8905 215.533 -94.3679 215.123C-103.021 214.576 -113.185 212.359 -122.46 211.032C-129.757 209.989 -139.168 206.891 -149.053 202.212C-161.997 196.09 -177.019 185.239 -193.543 183.771C-200.334 183.169 -212.171 188.231 -218.467 192.622C-237.086 205.612 -238.835 225.427 -244.436 241.276C-250.396 258.157 -252.603 290.014 -235.364 305.319Z" fill="url(#paint13_linear_0_4076)"/>
<path d="M-233.085 306.369C-234.178 305.846 -234.698 305.586 -235.707 305.056C-250.39 289.474 -248.91 260.746 -242.52 244.138C-237.485 231.046 -234.552 217.301 -227.697 204.452C-222.934 195.519 -207.846 183.85 -191.756 185.974C-174.59 188.238 -157.546 199.254 -141.98 205.834C-132.716 209.746 -124.877 212.031 -119.025 212.746C-110.686 213.765 -101.471 217.185 -93.5553 218.953C-87.1129 220.39 -80.0141 221.272 -71.6022 220.468C-61.8566 219.538 -55.5713 222.141 -50.4663 225.841C-38.4893 234.531 -28.6005 209.617 -27.6193 207.376C-20.7928 191.781 -16.0648 174.681 -8.34444 159.144C-4.47202 151.35 2.31261 133.261 19.9463 131.171C37.0981 129.137 53.377 144.198 61.5898 150.46C77.1353 162.321 93.5539 180.775 123.147 175.382C133.298 173.532 151.071 171.757 145.61 181.094C139.747 191.114 178.988 202.39 189.701 204.883C199.237 207.103 214.682 207.407 223.855 207.246C247.32 206.829 262.844 242.572 267.31 255.226C268.843 259.569 274.591 271.981 269.154 273.868C268.18 274.207 257.792 270.052 255.375 269.901C253.521 268.927 252.589 268.427 250.728 267.439C251.485 267.586 262.96 272.022 263.92 271.871C269.482 270.996 263.787 258.153 262.516 254.169C258.961 243.03 247.278 209.897 221.686 210.29C210.68 210.458 196.688 209.333 186.726 206.949C178.038 204.873 132.456 192.178 141.937 182.547C146.553 177.855 134.377 176.473 126.489 180.652C101.456 193.915 72.8963 163.696 61.7678 155.077C54.6689 149.578 37.2832 132.485 21.0043 134.226C4.25404 136.018 -2.11853 156.124 -5.17735 162.632C-12.9816 179.243 -18.0098 197.551 -25.175 214.292C-26.5613 217.534 -38.5487 244.189 -51.3846 233.929C-56.3884 229.931 -61.469 226.809 -69.9541 226.494C-77.9469 226.197 -84.8607 224.907 -91.1564 222.763C-100.288 219.647 -109.457 215.396 -119.175 214.138C-125.935 213.262 -134.577 210.389 -144.777 205.991C-159.893 199.476 -175.676 189.739 -193.931 186.99C-202.011 185.772 -213.279 189.965 -218.961 194.986C-234.998 209.158 -235.135 230.544 -240.344 246.943C-245.547 263.287 -248.47 291.215 -233.085 306.369Z" fill="url(#paint14_linear_0_4076)"/>
<path d="M-230.661 307.347C-231.848 306.813 -232.414 306.547 -233.503 306.01C-245.976 290.794 -244.254 265.821 -238.688 249.966C-233.964 236.501 -229.648 222.619 -225.276 209.22C-222.577 200.94 -211.557 184.852 -190.962 189.626C-171.289 194.189 -154.986 202.804 -137.667 209.579C-128.144 213.303 -121.224 215.153 -115.867 216.799C-107.818 219.271 -98.2125 223.888 -90.1394 227.688C-83.9274 230.615 -77.1324 233.656 -69.4922 235.91C-60.3611 238.601 -54.1038 244.525 -49.086 247.37C-37.8075 253.766 -29.5353 238.553 -26.9269 233.071C-19.4195 217.288 -15.1176 199.692 -8.90567 183.405C-5.74208 175.108 -0.183105 148.374 18.5156 144.287C35.4509 140.583 53.7586 159.588 60.9901 165.228C71.7694 173.634 94.2707 196.248 117.516 192.031C126.511 190.399 129.437 183.6 138.474 182.817C139.553 184.072 138.938 185.194 136.934 186.193C120.945 194.172 174.143 207.896 180.501 209.336C191.797 211.894 204.996 213.642 217.602 214.569C243.717 216.487 253.536 240.681 258.421 253.006C259.217 255.01 265.845 281.119 250.135 266.987C248.274 266.002 247.342 265.51 245.484 264.542C259.842 278.773 254.049 253.41 253.285 251.382C248.934 239.832 239.775 219.959 215 217.65C202.22 216.46 189.007 214.062 177.488 211.371C171.663 210.01 116.262 193.987 133.348 187.691C135.216 187.003 136.172 186.306 135.167 185.457C128.291 188.819 123.836 194.373 114.296 195.584C93.3977 198.241 71.2805 178.163 60.7038 170.03C53.5211 164.506 36.3623 147.02 20.1078 150.648C2.65575 154.544 -2.62039 179.383 -5.86778 187.923C-12.2019 204.589 -15.7496 222.695 -24.5002 238.782C-25.9911 241.522 -36.4701 264.552 -49.9241 254.077C-54.666 250.387 -59.9281 245.595 -67.8266 242.445C-75.0931 239.549 -81.7869 236.125 -87.7929 232.602C-96.0301 227.767 -105.57 222.264 -115.968 218.854C-122.1 216.843 -129.775 214.487 -140.195 210.188C-156.777 203.344 -173.468 194.356 -192.809 190.789C-202.216 189.055 -212.674 192.718 -217.626 198.652C-230.786 214.425 -231.408 235.838 -236.796 253.04C-241.569 268.277 -244.6 293.106 -230.661 307.347Z" fill="url(#paint15_linear_0_4076)"/>
<path d="M-228.087 308.257C-229.375 307.713 -229.99 307.436 -231.17 306.885C-242.679 293.062 -240.616 270.469 -235.28 256.249C-230.259 242.866 -226.764 228.642 -221.767 215.311C-218.666 207.031 -211.473 188.351 -188.186 194.285C-168.817 199.22 -150.596 206.918 -133.169 214.121C-123.765 218.009 -117.697 220.198 -112.574 222.715C-103.087 227.38 -94.4585 233.153 -86.525 238.615C-80.788 242.568 -74.1675 247.394 -67.32 251.348C-58.8174 256.259 -52.6614 261.56 -47.6716 264.005C-35.2652 270.089 -28.917 257.695 -26.2248 253.54C-18.0679 240.961 -14.5901 225.944 -9.72597 212.182C-5.69989 200.793 -2.00206 172.786 17.2204 165.17C33.2618 158.816 49.4639 173.611 58.4308 179.524C69.5942 186.884 92.525 203.512 112.275 200.41C121.573 198.949 126.815 193.556 131.159 189.018C129.524 189.373 128.344 190.129 127.485 191.056C117.079 202.27 160.375 211.443 171.468 213.895C184.007 216.669 197.112 219.562 210.287 221.306C233.912 224.439 243.833 238.211 249.018 249.867C250.47 253.133 263.065 274.248 244.884 264.128C243.026 263.171 242.101 262.699 240.257 261.792C243.682 263.735 246.301 263.714 250.079 266.18C245.421 248.181 241.556 229.644 207.374 223.748C194.692 221.563 181.629 218.659 168.891 216.067C156.163 213.478 110.997 202.787 124.367 192.879C125.121 192.318 126.424 191.73 127.45 191.155C121.116 215.868 71.2319 191.412 57.8896 182.875C48.8144 177.072 34.3757 164.411 18.6451 170.779C0.550461 178.101 -3.01469 205.848 -6.82776 216.292C-11.7477 229.774 -15.2291 244.908 -23.819 256.662C-26.7416 260.664 -36.6793 272.456 -48.4328 268.109C-53.1293 266.372 -58.3391 261.888 -65.644 257.446C-72.1632 253.482 -78.4066 248.636 -84.2379 244.241C-93.0338 237.613 -101.728 230.544 -112.64 224.976C-118.51 221.98 -125.124 220.017 -135.369 215.454C-151.955 208.067 -169.606 200.133 -189.506 195.858C-227.245 187.745 -229.728 248.721 -233.552 259.58C-238.398 273.376 -240.954 295.165 -228.087 308.257Z" fill="url(#paint16_linear_0_4076)"/>
<path d="M-225.382 309.074C-226.765 308.527 -227.432 308.243 -228.706 307.675C-238.707 295.049 -237.764 275.643 -232.069 262.921C-226.272 249.976 -223.189 235.691 -217.483 222.616C-214.11 214.883 -205.964 194.414 -183.312 200.3C-164.268 205.249 -145.632 212.636 -128.529 219.983C-119.503 223.861 -113.755 226.44 -109.136 229.675C-99.7601 236.241 -91.1109 243.454 -82.6642 250.612C-77.0563 255.366 -71.0993 260.445 -65.0654 264.32C-57.1809 269.381 -51.2902 272.158 -46.22 272.569C-39.7392 273.092 -34.725 274.067 -25.5066 264.583C-17.8839 256.741 -14.5353 247.568 -10.8689 238.926C-4.23788 223.3 8.95419 163.494 55.5909 189.462C69.8515 197.404 114.767 217.561 122.924 194.623C120.445 194.168 119.987 195.567 119.774 197.773C118.559 210.359 145.896 216.716 163.757 218.854C176.565 220.386 189.408 223.509 201.877 226.063C237.347 233.334 240.092 245.828 247.812 265.26C243.999 262.295 243.65 263.653 239.659 261.413C237.819 260.52 236.9 260.086 235.088 259.279C238.566 261.187 239.072 260.154 242.473 262.917C233.887 243.745 232.675 234.668 198.221 227.23C186.716 224.747 173.866 222.021 161.816 221.265C142.125 220.034 110.95 213.002 117.243 199.951C117.707 198.99 118.643 197.882 119.341 196.85C121.51 218.806 64.0656 196.484 55.0358 192.085C11.7896 171.015 -1.91582 228.006 -8.1138 241.392C-11.7488 249.241 -15.4292 257.948 -23.1217 265.045C-30.032 271.423 -38.9675 274.026 -46.9009 273.909C-51.7022 273.838 -56.5663 271.919 -63.3055 267.989C-69.0845 264.621 -75.045 259.945 -80.5516 255.318C-89.8224 247.527 -98.9884 239.572 -109.338 232.213C-114.698 228.403 -120.474 226.121 -130.314 221.823C-146.851 214.599 -164.226 206.549 -184.032 202.499C-219.159 195.317 -225.619 255.438 -230.372 266.413C-235.746 278.862 -236.591 297.152 -225.382 309.074Z" fill="url(#paint17_linear_0_4076)"/>
<path d="M-222.566 309.768C-224.036 309.228 -224.749 308.944 -226.121 308.363C-235.29 297.005 -234.742 281.252 -228.817 269.764C-222.388 257.302 -218.767 243.454 -212.129 231.043C-208.484 224.223 -197.624 202.335 -176.554 208.026C-157.681 213.122 -140.669 219.476 -123.845 226.446C-115.486 229.911 -110.681 233.752 -106.425 237.219C-97.3146 244.644 -88.2184 252.162 -78.9825 259.528C-73.7029 263.742 -68.0112 267.853 -62.7421 270.626C-55.3848 274.498 -49.7281 275.144 -44.7487 274.381C-38.2609 273.386 -33.3898 272.825 -24.7546 268.037C-21.0288 265.972 -16.8002 262.623 -12.4319 256.488C-4.31345 245.072 13.7707 184.486 52.7952 197.698C66.7241 202.414 108.689 218.673 115.278 200.851C115.177 203.112 115.397 205.441 115.54 207.633C116.395 220.591 137.706 226.272 157.965 224.976C168.685 224.292 182.247 226.002 192.053 228.266C203.614 230.937 226.786 234.836 229.851 242.962C232.128 248.998 236.811 255.684 240.697 262.018C238.619 260.171 236.549 259.142 234.496 258.947C232.694 258.171 231.8 257.77 230.047 257.295C231.8 257.534 233.595 258.454 235.396 259.997C231.545 253.83 228.13 247.517 224.635 241.453C220.382 234.076 199.434 231.252 188.379 229.128C177.722 227.083 165.466 226.676 156.82 227.996C131.724 231.826 114.506 220.615 113.441 209.972C113.26 208.17 113.598 205.742 112.725 203.696C105.4 218.423 64.8106 203.115 52.2296 200.085C14.8985 191.09 -0.573715 244.805 -9.81656 256.796C-14.1499 262.415 -18.6753 265.524 -22.3801 267.405C-29.3289 270.931 -37.6638 272.88 -45.3528 274.282C-50.0633 275.141 -54.8331 274.867 -61.0939 272.087C-66.1711 269.833 -71.8697 266.18 -77.1249 262.316C-87.4502 254.72 -97.1924 246.761 -107.071 238.936C-111.893 235.116 -116.53 232.13 -125.319 228.598C-141.483 222.1 -158.097 214.107 -176.586 211.043C-209.58 205.571 -220.733 261.597 -227.008 273.249C-233.087 284.539 -232.326 298.893 -222.566 309.768Z" fill="url(#paint18_linear_0_4076)"/>
<path d="M-219.795 310.073C-221.303 309.614 -222.04 309.378 -223.458 308.889C-230.382 299.231 -232.596 285.715 -225.28 276.331C-216.617 265.216 -212.678 251.703 -205.517 240.167C-200.953 232.818 -189.13 212.592 -168.437 217.281C-151.484 221.125 -135.851 226.775 -120.117 232.387C-113.134 234.877 -108.531 239.986 -104.614 243.187C-95.5522 250.592 -85.7437 257.893 -75.2298 264.645C-70.1458 267.911 -65.1105 270.599 -60.6131 272.278C-53.7028 274.86 -48.3777 274.132 -43.2518 272.924C-36.757 271.392 -31.7881 270.548 -23.9699 268.171C-21.2184 267.333 -17.9012 266.047 -14.6573 263.824C2.38283 252.134 16.9996 204.572 49.9484 206.056C68.1059 206.874 94.305 217.913 109.833 208.922C112.155 212.414 113.269 216.391 114.502 219.753C117.941 229.141 133.326 239.497 154.34 232.965C162.109 230.55 172.187 229.237 182.673 230.383C218.649 234.316 217.14 240.752 233.782 259.183C232.291 258.047 230.849 257.357 229.477 257.144C227.727 256.69 226.865 256.502 225.178 256.224C226.303 256.262 227.511 256.782 228.775 257.757C213.984 240.533 213.495 232.941 179.53 231.682C169.987 231.327 161.02 233.693 153.924 236.645C131.549 245.954 115.357 231.306 112.365 221.976C108.311 209.336 109.599 214.856 98.2194 213.697C82.6039 212.103 64.3452 208.081 49.3478 208.772C17.8935 210.222 7.04092 251.088 -12.1641 263.191C-15.4464 265.26 -18.7811 266.447 -21.6025 267.223C-30.7161 269.734 -36.9979 270.589 -43.7511 272.152C-48.5488 273.263 -53.1092 274.029 -58.9265 272.323C-63.2773 271.047 -68.316 268.779 -73.3896 265.92C-85.1012 259.316 -95.6849 251.833 -105.472 244.254C-109.963 240.776 -114.363 236.45 -121.779 233.998C-137.073 228.936 -152.42 223.341 -168.51 220.407C-168.765 220.359 -169.093 220.318 -169.366 220.307C-201.183 219.24 -209.794 259.183 -217.909 271.621C-220.591 275.732 -225.312 279.08 -226.579 283.284C-229.387 292.538 -226.492 301.509 -219.795 310.073Z" fill="url(#paint19_linear_0_4076)"/>
<path d="M-217.033 310.114C-218.618 309.638 -219.39 309.396 -220.888 308.889C-226.052 300.993 -230.56 287.572 -221.216 281.642C-204.078 270.766 -199.347 221.193 -160.793 225.961C-146.089 227.78 -129.915 232.387 -118.033 236.854C-112.341 238.991 -106.831 245.034 -103.091 247.784C-93.6073 254.754 -82.7687 261.474 -70.6486 266.933C-66.2314 268.923 -61.9784 270.363 -58.3818 271.18C-51.9499 272.644 -46.7191 271.327 -41.6979 270.25C-35.4755 268.913 -30.1469 268.154 -23.1458 267.028C-21.6164 266.782 -19.8181 266.467 -18.0513 265.958C14.3913 256.601 15.3794 223.693 46.9874 216.405C59.7814 213.457 79.9153 215.728 94.106 217.462C110.535 219.473 108.587 221.176 114.163 232.377C118.636 241.354 134.789 252.155 152.458 242.695C159.016 239.186 166.998 234.463 174.907 234.066C185.77 233.519 204.689 234.432 211.197 238.119C217.081 241.45 223.017 249.925 224.595 256.16C222.916 255.91 222.092 255.835 220.499 255.8C217.036 249.617 212.178 241.036 206.319 237.886C200.212 234.603 182.414 234.73 172.599 236.262C165.493 237.37 158.6 243.386 152.465 246.799C134.046 257.045 116.471 244.535 111.785 234.511C107.256 224.822 107.518 221.58 91.4872 219.21C77.9284 217.206 57.4943 216.21 46.3554 219.904C19.9258 228.669 15.9975 256.857 -15.6803 265.161C-17.5135 265.643 -19.2629 265.965 -20.7993 266.214C-29.047 267.555 -35.6954 268.239 -42.1099 269.422C-46.8169 270.291 -51.2969 271.358 -56.6114 270.513C-60.0893 269.959 -64.3039 268.841 -68.7106 267.172C-82.011 262.138 -93.7714 255.404 -104.006 248.386C-108.332 245.417 -113.867 239.774 -119.778 237.927C-132.272 234.025 -147.252 230.602 -161.136 228.724C-161.363 228.693 -161.663 228.669 -161.907 228.673C-195.684 229.121 -198.767 266.307 -212.497 278.868C-215.182 281.324 -221.453 283.075 -222.602 285.527C-226.422 293.681 -222.833 302.422 -217.033 310.114Z" fill="url(#paint20_linear_0_4076)"/>
<path d="M-214.245 310.011C-215.901 309.519 -216.711 309.262 -218.279 308.735C-221.453 303.01 -228.258 288.38 -216.368 285.661C-186.311 278.793 -194.855 230.188 -154.026 233.167C-142.303 234.022 -126.196 236.399 -116.743 240.766C-111.013 243.413 -105.018 249.046 -101.348 251.296C-90.8585 257.726 -78.3997 263.8 -64.4603 267.48C-61.3316 268.307 -58.3426 268.82 -55.8914 269.091C-50.0426 269.73 -44.9655 268.663 -40.0595 268.092C-33.851 267.37 -28.2641 266.912 -22.2442 266.115C6.47601 262.298 27.4095 240.393 44.2156 229.87C68.9586 214.377 110.036 227.585 113.699 245.386C116.217 257.62 138.767 259.545 151.355 253.287C157.511 250.226 162.92 242.596 169.38 240.246C178.752 236.836 195.761 235.007 202.475 237.654C208.851 240.168 214.204 249.744 219.956 255.824C218.374 255.824 217.605 255.879 216.132 256.125C209.55 250.677 205.14 242.079 198.648 239.056C191.35 235.66 175.7 239.429 167.938 243.499C162.03 246.597 157.389 254.456 151.282 257.343C133.117 265.927 115.812 259.029 110.979 247.309C103.283 228.659 67.974 219.302 43.7931 233.854C26.8229 244.066 6.62267 261.249 -19.9117 265.794C-27.1013 267.025 -34.0012 267.367 -40.3702 267.781C-44.9794 268.078 -49.3303 268.694 -54.0268 268.427C-56.3837 268.294 -59.3134 267.948 -62.4001 267.295C-77.3451 264.135 -90.8515 258.102 -102.151 251.649C-106.422 249.21 -112.679 243.718 -118.549 241.399C-128.172 237.599 -143.337 235.633 -154.591 235.448C-184.691 234.955 -191.458 271.608 -205.635 283.759C-209.235 286.847 -216.463 285.555 -218.072 287.955C-222.706 294.84 -218.897 303.123 -214.245 310.011Z" fill="url(#paint21_linear_0_4076)"/>
<path d="M-211.436 309.772C-213.158 309.255 -213.999 308.989 -215.64 308.438C-218.015 303.322 -223.298 289.884 -210.186 288.954C-195.946 287.945 -190.59 269.84 -185.761 263.13C-178.962 253.68 -168.141 238.871 -148.269 238.629C-138.743 238.512 -122.946 239.832 -115.593 244.302C-110.041 247.674 -102.617 252.343 -98.9681 254.166C-86.7153 260.298 -71.896 265.879 -55.5473 267.637C-54.5801 267.712 -54.1052 267.74 -53.1729 267.771C-48.0644 267.938 -43.1444 267.825 -38.3606 267.983C-32.1731 268.188 -26.6106 268.075 -21.2891 266.775C2.38545 260.999 23.8322 252.527 42.5274 241.994C74.5404 223.957 100.708 239.23 112.524 258.188C119.924 270.059 131.223 269.792 149.279 263.256C156.354 260.694 160.603 253.379 165.928 249.049C172.577 243.642 186.624 237.011 195.242 239.969C202.397 242.425 206.87 251.717 215.606 256.255C214.147 256.539 213.445 256.748 212.118 257.305C206.392 256.813 195.183 244.155 192.428 242.941C183.325 238.933 170.363 248.088 165.104 253.188C161.207 256.967 156.176 263.413 148.588 266.953C133.493 273.995 111.683 273.335 109.455 259.833C107.985 250.927 95.2853 243.926 83.895 238.28C70.4026 231.59 52.6432 238.758 42.3109 244.463C24.548 254.265 2.37149 260.161 -18.96 267.237C-25.4583 269.392 -32.2499 269.375 -38.5631 268.728C-43.0676 268.266 -47.3311 267.859 -51.2838 267.866C-52.1742 267.87 -52.6317 267.856 -53.5605 267.815C-70.7402 266.43 -86.5023 260.705 -99.5338 254.515C-103.776 252.5 -110.969 248.013 -117.325 244.696C-125.363 240.496 -135.608 239.986 -149.037 240.4C-149.212 240.407 -149.421 240.41 -149.603 240.431C-182.108 244.203 -184.497 272.411 -199.019 285.9C-210.424 296.499 -221.514 293.599 -211.436 309.772Z" fill="url(#paint22_linear_0_4076)"/>
<path d="M-208.596 309.42C-210.377 308.876 -211.253 308.592 -212.954 308.014C-214.976 303.171 -214.892 291.974 -203.051 291.085C-190.701 290.158 -184.527 272.347 -179.289 265.185C-172.536 255.958 -162.867 244.097 -143.572 242.401C-130.767 241.276 -122.834 243.16 -114.034 247.62C-107.281 251.043 -99.1835 255.503 -95.5869 257.062C-82.6078 262.682 -66.3883 268.598 -50.3469 269.063C-46.3138 269.18 -41.2193 270.315 -36.5612 271.279C-30.6845 272.497 -24.8566 272.678 -20.2299 270.212C-2.67656 260.852 22.6741 258.102 41.1318 249.983C71.8249 236.481 103.08 250.366 110.423 270.346C114.666 281.888 134.412 278.701 145.705 272.61C153.212 268.561 160.217 263.762 163.691 259.744C168.946 253.666 180.04 242.873 189.527 244.808C192.066 245.325 206.169 257.042 211.651 257.555C210.338 258.157 209.717 258.526 208.547 259.422C201.546 260.5 190.561 250.178 187.271 249.22C179.118 246.843 167.899 258.543 162.902 264.207C159.571 267.983 151.917 271.909 144.413 275.965C130.721 283.362 111.363 284.228 107.075 271.683C100.353 252.028 71.9261 241.402 40.9293 251.85C20.8618 258.619 -2.19818 262.353 -17.9044 271.645C-23.6519 275.045 -30.4016 275.349 -36.6555 273.561C-41.0377 272.305 -45.392 271.026 -48.5556 270.814C-65.6061 269.672 -80.593 263.848 -94.0435 258.526C-94.6686 258.28 -95.2587 258.013 -95.7999 257.774C-99.9936 255.917 -108.437 251.57 -115.529 247.999C-123.958 243.759 -133.798 242.257 -144.476 243.735C-173.856 247.794 -180.145 272.234 -191.217 285.199C-200.837 296.451 -216.949 293.831 -208.596 309.42Z" fill="url(#paint23_linear_0_4076)"/>
<path d="M-205.712 308.978C-207.552 308.397 -208.456 308.099 -210.213 307.487C-212.521 300.541 -206.197 294.118 -195.893 291.386C-170.326 284.614 -179.202 250.034 -139.888 244.863C-128.724 243.396 -120.7 246.806 -111.59 251.146C-103.869 254.826 -94.3962 259.771 -90.9218 261.272C-78.1627 266.779 -63.2072 273.256 -47.5883 274.908C-44.2432 275.264 -39.393 277.165 -34.6721 278.568C-28.8407 280.298 -23.0059 280.171 -19.0776 277.148C-2.41464 264.327 14.9397 262.165 39.7945 256.098C71.6748 248.314 100.776 263.827 107.375 281.505C111.387 292.251 131.965 286.748 140.788 281.543C148.533 276.977 157.692 273.328 160.908 270.394C165.441 266.262 176.943 251.094 185.379 252.606C189.265 253.304 201.721 260.824 208.111 259.781C206.962 260.718 206.424 261.262 205.429 262.5C198.414 266.167 188.93 260.421 184.492 259.275C176.447 257.196 163.447 271.211 159.292 273.971C156.128 276.071 146.697 279.953 139.413 284.628C128.836 291.417 108.018 293.612 103.848 282.538C97.4689 265.595 70.0965 252.038 39.6059 257.616C13.7141 262.353 -1.10172 265.78 -16.7695 279.193C-21.7384 283.448 -28.4951 283.602 -34.6686 281.649C-38.9251 280.301 -43.2026 278.53 -45.797 278.239C-62.7358 276.338 -77.4364 268.961 -90.6425 263.136C-94.6022 261.389 -104.673 256.108 -112.802 252.001C-121.727 247.493 -129.985 244.446 -140.848 245.937C-140.956 245.951 -141.085 245.971 -141.204 245.992C-168.328 251.224 -172.498 272.644 -184.024 284.966C-192.017 293.516 -212.818 297.094 -205.712 308.978Z" fill="url(#paint24_linear_0_4076)"/>
<path d="M-202.758 308.482C-204.654 307.86 -205.583 307.542 -207.388 306.895C-208.376 299.525 -199.008 293.561 -188.777 290.332C-163.039 282.206 -169.205 250.975 -137.283 247.11C-127.858 245.968 -114.631 252.876 -107.847 256.454C-99.2465 260.992 -87.7863 267.34 -84.7031 268.814C-73.009 274.405 -60.2638 280.664 -44.7741 282.839C-41.8864 283.246 -37.2807 285.178 -32.6994 286.519C-27.1718 288.133 -21.0262 287.822 -17.8731 285.257C-2.01326 272.364 9.7437 262.938 38.5757 261.231C67.9139 259.494 95.5622 276.704 103.569 291.434C108.272 300.086 128.968 293.568 135.886 289.429C143.725 284.741 152.042 279.898 155.974 278.468C157.577 277.883 160.604 276.259 163.38 274.511C172.85 268.547 173.978 263.393 181.667 263.246C185.511 263.171 190.435 266.765 196.263 265.777C198.634 265.377 204.2 263.307 205.055 262.983C204.081 264.262 203.578 264.905 202.838 266.587C203.082 265.931 204.228 275.931 187.984 272.644C176.939 270.411 174.111 271.704 161.711 278.256C158.642 279.877 155.635 280.838 153.914 281.3C150.076 282.33 142.084 287.224 134.625 291.786C126.276 296.892 104.389 302.125 100.018 292.21C93.4636 277.347 65.1693 262.767 38.4325 262.668C12.2229 262.569 -1.9958 275.938 -15.6314 287.015C-19.7133 290.332 -26.4735 290.763 -32.5946 288.958C-36.7429 287.733 -40.8842 286.02 -42.9828 285.76C-58.7169 283.824 -72.0557 278.02 -83.9558 272.381C-87.3568 270.77 -98.2967 263.81 -108.287 258.66C-116.182 254.59 -127.352 248.088 -138.407 248.694C-138.474 248.697 -138.578 248.711 -138.662 248.728C-161.775 253.981 -165.057 273.68 -176.37 284.152C-185.096 292.227 -206.292 296.871 -202.758 308.482Z" fill="url(#paint25_linear_0_4076)"/>
<path d="M-199.703 307.891C-201.613 307.323 -202.595 306.961 -204.445 306.273C-202.881 297.364 -189.081 293.003 -179.154 287.853C-164.474 280.233 -158.559 253.916 -134.675 252.172C-134.564 252.165 -134.417 252.179 -134.319 252.192C-121.794 253.793 -110.823 260.961 -101.587 266.016C-90.8075 271.916 -80.2029 278.359 -77.7516 279.388C-67.3914 283.745 -54.9884 288.291 -41.8731 289.662C-39.586 289.901 -35.2631 291.471 -30.6085 292.593C-25.3813 293.852 -18.9319 293.322 -16.6377 291.82C-3.00568 282.911 13.5036 265.079 37.5204 266.341C50.8347 267.042 62.5254 271.628 70.9441 276.82C81.0948 283.082 91.1687 292.333 99.4723 299.536C106.512 305.644 124.296 299.177 131.195 295.551C139.223 291.331 146.86 286.293 150.387 285.25C152.642 284.583 159.291 283.209 164.811 280.462C174.445 275.664 180.046 277.288 189.736 275.459C202.998 272.959 203.092 265.537 202.537 267.206C201.811 268.916 201.482 269.833 200.878 271.741C200.934 271.355 202.167 279.067 189.348 283.256C179.917 286.338 173.289 282.025 163.404 284.741C157.321 286.413 150.68 287.248 148.358 287.894C145.198 288.773 137.425 293.527 130.057 297.22C122.064 301.229 103.91 307.569 96.0049 300.329C88.5673 293.516 79.0346 286.242 70.2178 280.308C61.9911 274.771 50.3843 269.498 37.3144 268.239C16.8279 266.266 -3.29201 286.355 -14.4344 293.263C-17.5107 295.172 -24.0195 295.739 -30.385 294.337C-34.2435 293.486 -38.4791 292.145 -40.0539 292.042C-53.2285 291.177 -65.9423 287.566 -76.6971 283.499C-79.2566 282.531 -89.2362 276.779 -100.672 270.455C-110.309 265.123 -121.556 257.449 -134.392 255.448C-134.455 255.438 -134.553 255.424 -134.619 255.431C-153.189 257.158 -157.173 276.816 -167.956 283.94C-179.454 291.533 -199.93 295.729 -199.703 307.891Z" fill="url(#paint26_linear_0_4076)"/>
<path d="M-196.679 306.978C-198.533 306.502 -199.462 306.232 -201.326 305.599C-197.003 296.755 -183.486 291.331 -171.192 287.07C-158.387 282.634 -146.704 262.541 -127.575 263.502C-127.474 263.506 -127.345 263.543 -127.254 263.571C-114.712 267.6 -103.856 274.101 -93.1217 279.611C-82.4297 285.1 -72.5548 289.587 -70.7321 290.189C-59.1916 293.999 -48.14 294.833 -38.8518 295.179C-37.0884 295.244 -33.5931 296.085 -28.3763 296.872C-23.4459 297.617 -16.9092 297.542 -15.2785 296.909C-2.18069 291.844 17.8519 272.825 36.1316 274.559C49.9033 275.866 59.9563 283.236 67.9316 288.903C76.3504 294.884 90.5515 300.435 95.695 306.451C95.8696 306.656 96.9765 308.472 106.048 306.855C112.26 305.75 120.131 302.966 126.727 300.076C134.741 296.564 142.119 292.176 144.982 291.447C147.116 290.904 156.69 289.919 164.491 288.65C173.465 287.193 181.587 290.674 189.855 284.754C201.543 276.386 200.883 270.869 200.603 272.425C200.006 274.351 199.737 275.36 199.224 277.422C199.21 277.545 199.217 277.566 199.217 277.566C199.168 277.353 199.615 284.235 189.227 292.593C181.353 298.93 172.096 293.318 163.195 292.976C154.619 292.648 145.324 293.226 143.055 293.711C140.572 294.242 132.817 298.079 125.711 301.259C117.701 304.844 102.281 312.097 92.3324 307.35C83.6133 303.188 74.5835 298.096 67.3449 292.973C59.4814 287.408 48.5415 278.848 35.929 278.075C19.0182 277.039 1.44382 293.8 -13.1241 298.363C-15.4636 299.095 -21.7384 298.862 -28.0481 298.116C-31.6272 297.692 -35.8244 296.984 -37.0221 296.995C-46.7119 297.09 -57.8403 297.48 -69.6357 294.351C-71.4793 293.862 -80.6943 290.332 -91.4107 285.107C-102.134 279.877 -112.903 273.526 -125.075 269.498C-125.121 269.484 -125.187 269.463 -125.229 269.463C-140.349 269.176 -147.615 281.697 -158.482 285.479C-175.529 291.413 -189.255 294.32 -196.679 306.978Z" fill="url(#paint27_linear_0_4076)"/>
<path d="M-193.697 305.767C-195.484 305.36 -196.378 305.134 -198.159 304.611C-190.917 295.596 -176.035 288.947 -159.711 287.552C-144.783 286.276 -131.483 282.569 -114.499 282.032C-112.854 282.733 -112.026 283.075 -110.347 283.783C-95.9711 289.837 -81.2077 297.21 -64.206 299.994C-54.4883 301.588 -44.376 300.298 -35.6953 299.532C-34.3649 299.416 -31.1909 299.649 -25.9811 299.922C-21.6337 300.151 -14.8072 301.283 -13.7667 301.201C4.40825 299.772 18.1136 289.211 34.9547 289.265C46.3555 289.303 57.3966 296.721 65.2672 301.348C73.452 306.16 86.0784 309.132 92.2275 312.597C92.4126 312.737 93.8198 313.9 102.759 311.519C108.751 309.922 116.195 306.701 122.512 303.66C131.821 299.183 137.831 297.07 139.866 296.656C147.856 295.021 156.68 296.14 163.265 296.786C172.225 297.665 182.135 301.512 189.335 293.349C200.411 280.791 199.102 276.765 198.983 278.137C198.473 280.206 198.239 281.269 197.775 283.41C197.761 283.715 197.792 283.698 197.792 283.698C191.978 295.418 186.793 306.588 162.022 300.811C155.262 299.235 146.281 297.248 138.058 298.53C136.287 298.807 128.665 300.999 121.636 304.731C114.027 308.773 101.1 317.166 89.0116 313.657C81.4203 311.967 71.7061 308.924 64.0625 304.645C57.0719 300.733 44.8505 294.238 34.843 294.238C18.9622 294.235 5.70023 303.233 -11.6471 302.952C-13.1975 302.928 -17.8451 301.095 -25.5271 300.945C-28.6523 300.883 -33.038 300.801 -33.8272 300.914C-42.9338 302.217 -53.2068 304.655 -63.1724 303.872C-79.3186 302.603 -93.6176 296.225 -107.141 291.023C-108.765 290.38 -109.561 290.076 -111.185 289.351C-123.515 289.44 -136.951 290.921 -148.23 289.977C-170.94 288.068 -184.373 293.93 -193.697 305.767Z" fill="url(#paint28_linear_0_4076)"/>
<path d="M-190.739 304.31C-192.453 303.948 -193.305 303.756 -194.999 303.322C-184.52 294.83 -172.739 285.155 -152.022 285.876C-134.276 286.495 -115.249 298.958 -100.203 302.412C-98.4851 302.805 -83.4598 306.783 -72.3488 307.744C-63.8567 308.479 -59.0066 308.223 -58.3536 308.175C-49.5368 307.515 -40.9713 304.519 -32.3849 303.161C-31.4875 302.901 -29.1585 302.679 -23.4284 302.535C-19.2732 302.429 -13.131 305.151 -12.0625 305.411C3.4167 311.69 18.002 307.381 34.0784 306.684C42.7974 306.304 53.3183 310.675 62.9836 313.377C70.7111 315.535 81.7557 316.626 89.0431 318.113C100.063 317.306 111.401 311.342 118.521 307.265C127.404 302.183 133.616 301.181 135.037 300.986C143.701 299.806 153.523 301.748 161.296 303.763C184.817 309.861 192.16 293.219 197.527 284.125C197.063 286.263 196.839 287.347 196.382 289.488C196.378 289.949 196.441 289.922 196.469 289.874C191.902 300.189 184.723 317.436 160.112 307.344C152.235 304.112 142.22 301.824 133.354 302.641C132.247 302.744 124.125 304.714 117.802 308.407C110.001 312.963 99.2427 320.801 86.124 319.495C68.0014 318.195 50.9718 311.386 34.0749 311.745C16.284 312.121 6.66408 314.009 -10.0722 307.645C-11.3258 307.381 -14.4579 303.267 -22.8453 303.653C-25.939 303.797 -29.8394 304.18 -30.5517 304.365C-39.5292 306.324 -48.4508 310.09 -57.4038 311.612C-58.0079 311.714 -63.9929 312.402 -70.6344 312.415C-81.1063 312.436 -94.6232 309.878 -97.029 309.166C-97.0325 309.166 -97.036 309.166 -97.0395 309.166C-133.648 310.039 -162.647 269.997 -190.739 304.31ZM-97.0884 309.149C-97.0849 309.149 -97.0814 309.153 -97.0779 309.153C-97.0814 309.153 -97.0849 309.149 -97.0884 309.149ZM-12.0695 305.408C-12.0835 305.404 -12.094 305.404 -12.101 305.404C-12.0905 305.404 -12.08 305.404 -12.0695 305.408Z" fill="url(#paint29_linear_0_4076)"/>
<path d="M-187.777 302.651C-189.408 302.313 -190.215 302.138 -191.811 301.769C-153.956 268.072 -124.827 317.799 -87.7054 319.232C-86.8988 319.262 -74.4051 319.327 -65.5219 317.641C-56.5689 315.941 -53.4227 314.71 -53.0701 314.628C-44.9865 311.605 -37.0706 308.568 -28.8299 306.704C-28.2432 306.489 -26.8849 305.969 -20.6869 305.647C-16.6958 305.439 -11.1508 309.577 -10.0648 310.254C-9.44328 310.545 -6.85583 317.751 9.7408 323.719C17.2691 326.424 25.8346 323.414 33.576 323.383C42.6093 323.349 52.1489 325.644 61.1508 325.333C69.2728 325.052 77.744 323.866 86.0825 323.312C96.8442 321.352 107.442 315.61 114.803 311.242C125.718 304.765 129.535 304.987 130.436 304.919C140.132 303.212 150.053 305.893 158.754 309.231C168.301 312.894 179.489 316.762 186.755 308.086C198.194 294.426 196.117 288.547 196.12 290.161C195.659 292.295 195.429 293.359 194.947 295.438C194.954 296.164 195.101 295.924 195.16 295.777C190.544 306.287 182.08 323.869 157.675 312.361C148.928 308.236 138.746 305.48 129.032 306.612C128.131 306.718 120.882 308.729 114.247 312.566C105.759 317.477 96.2995 323.616 83.722 325.22C67.5548 328.154 49.5091 327.371 33.6842 327.706C14.2068 328.117 2.9003 321.581 -8.4097 312.969C-9.15346 312.566 -9.97054 306.779 -19.9851 307.255C-22.9426 307.395 -26.637 308 -27.2201 308.175C-27.2132 308.171 -27.1293 308.147 -27.0246 308.096C-35.6529 310.439 -43.932 313.917 -52.1832 317.621C-52.6126 317.764 -58.0005 319.823 -63.9192 321.41C-75.5225 324.519 -83.9797 324.358 -85.2786 324.232C-123.339 329.478 -152.664 265.934 -187.777 302.651ZM128.965 306.622C128.983 306.622 129.007 306.622 129.035 306.619C129.007 306.619 128.983 306.622 128.965 306.622ZM130.453 304.922C130.477 304.919 130.498 304.919 130.519 304.919C130.502 304.922 130.481 304.922 130.453 304.922ZM-28.8613 306.718C-28.9067 306.735 -28.9381 306.748 -28.9626 306.759C-28.9311 306.748 -28.8962 306.735 -28.8613 306.718Z" fill="url(#paint30_linear_0_4076)"/>
<path d="M-184.794 300.856C-186.337 300.517 -187.098 300.357 -188.593 300.025C-167.478 284.973 -148.021 292.443 -130.712 304.638C-118.617 313.165 -96.8243 334.622 -72.8494 329.574C-56.7033 326.174 -45.6063 317.436 -30.2737 312.535C-10.7195 306.283 1.34474 330.244 11.2126 334.235C38.0158 345.073 79.3625 331.622 104.392 319.632C117.888 313.168 135.591 303.582 152.827 312.009C176.788 323.726 188.555 307.217 194.146 296.191C194.076 298.192 194.027 299.139 193.887 300.911C187.612 312.768 174.368 324.003 151.95 314.656C135.497 307.795 121.037 312.58 104.081 321.068C79.4951 333.377 37.6597 348.069 11.4675 337.214C1.88596 333.243 -9.91986 308.448 -29.2925 314.816C-44.4714 319.806 -54.8805 328.944 -70.8591 332.645C-113.644 342.553 -141.017 270.253 -184.794 300.856Z" fill="url(#paint31_linear_0_4076)"/>
<defs>
<linearGradient id="paint0_linear_0_4076" x1="215.55" y1="52.4996" x2="-294.549" y2="244.483" gradientUnits="userSpaceOnUse">
<stop stop-color="#FA00FF"/>
<stop offset="1" stop-color="#00FFFF"/>
</linearGradient>
<linearGradient id="paint1_linear_0_4076" x1="211.51" y1="60.7991" x2="-288.38" y2="250.495" gradientUnits="userSpaceOnUse">
<stop stop-color="#FA00FF"/>
<stop offset="1" stop-color="#00FFFF"/>
</linearGradient>
<linearGradient id="paint2_linear_0_4076" x1="208.159" y1="70.2058" x2="-281.045" y2="258.375" gradientUnits="userSpaceOnUse">
<stop stop-color="#FA00FF"/>
<stop offset="1" stop-color="#00FFFF"/>
</linearGradient>
<linearGradient id="paint3_linear_0_4076" x1="204.441" y1="79.5023" x2="-273.918" y2="265.853" gradientUnits="userSpaceOnUse">
<stop stop-color="#FA00FF"/>
<stop offset="1" stop-color="#00FFFF"/>
</linearGradient>
<linearGradient id="paint4_linear_0_4076" x1="200.742" y1="86.5317" x2="-268.311" y2="269.72" gradientUnits="userSpaceOnUse">
<stop stop-color="#FA00FF"/>
<stop offset="1" stop-color="#00FFFF"/>
</linearGradient>
<linearGradient id="paint5_linear_0_4076" x1="197.169" y1="94.586" x2="-261.628" y2="275.08" gradientUnits="userSpaceOnUse">
<stop stop-color="#FA00FF"/>
<stop offset="1" stop-color="#00FFFF"/>
</linearGradient>
<linearGradient id="paint6_linear_0_4076" x1="193.438" y1="106.282" x2="-252.687" y2="286.771" gradientUnits="userSpaceOnUse">
<stop stop-color="#FA00FF"/>
<stop offset="1" stop-color="#00FFFF"/>
</linearGradient>
<linearGradient id="paint7_linear_0_4076" x1="189.768" y1="116.516" x2="-244.691" y2="296.573" gradientUnits="userSpaceOnUse">
<stop stop-color="#FA00FF"/>
<stop offset="1" stop-color="#00FFFF"/>
</linearGradient>
<linearGradient id="paint8_linear_0_4076" x1="185.917" y1="120.919" x2="-241.197" y2="297.059" gradientUnits="userSpaceOnUse">
<stop stop-color="#FA00FF"/>
<stop offset="1" stop-color="#00FFFF"/>
</linearGradient>
<linearGradient id="paint9_linear_0_4076" x1="182.197" y1="125.967" x2="-236.809" y2="298.697" gradientUnits="userSpaceOnUse">
<stop stop-color="#FA00FF"/>
<stop offset="1" stop-color="#00FFFF"/>
</linearGradient>
<linearGradient id="paint10_linear_0_4076" x1="178.741" y1="132.344" x2="-231.315" y2="302.994" gradientUnits="userSpaceOnUse">
<stop stop-color="#FA00FF"/>
<stop offset="1" stop-color="#00FFFF"/>
</linearGradient>
<linearGradient id="paint11_linear_0_4076" x1="175.285" y1="141.225" x2="-223.543" y2="311.47" gradientUnits="userSpaceOnUse">
<stop stop-color="#FA00FF"/>
<stop offset="1" stop-color="#00FFFF"/>
</linearGradient>
<linearGradient id="paint12_linear_0_4076" x1="171.764" y1="150.029" x2="-215.056" y2="319.396" gradientUnits="userSpaceOnUse">
<stop stop-color="#FA00FF"/>
<stop offset="1" stop-color="#00FFFF"/>
</linearGradient>
<linearGradient id="paint13_linear_0_4076" x1="167.226" y1="157.857" x2="-208.997" y2="326.722" gradientUnits="userSpaceOnUse">
<stop stop-color="#FA00FF"/>
<stop offset="1" stop-color="#00FFFF"/>
</linearGradient>
<linearGradient id="paint14_linear_0_4076" x1="162.524" y1="163.981" x2="-203.887" y2="330.59" gradientUnits="userSpaceOnUse">
<stop stop-color="#FA00FF"/>
<stop offset="1" stop-color="#00FFFF"/>
</linearGradient>
<linearGradient id="paint15_linear_0_4076" x1="154.752" y1="174.58" x2="-195.896" y2="340.57" gradientUnits="userSpaceOnUse">
<stop stop-color="#FA00FF"/>
<stop offset="1" stop-color="#00FFFF"/>
</linearGradient>
<linearGradient id="paint16_linear_0_4076" x1="150.822" y1="190.828" x2="-179.383" y2="364.319" gradientUnits="userSpaceOnUse">
<stop stop-color="#FA00FF"/>
<stop offset="1" stop-color="#00FFFF"/>
</linearGradient>
<linearGradient id="paint17_linear_0_4076" x1="146.131" y1="206.73" x2="-159.909" y2="387.469" gradientUnits="userSpaceOnUse">
<stop stop-color="#FA00FF"/>
<stop offset="1" stop-color="#00FFFF"/>
</linearGradient>
<linearGradient id="paint18_linear_0_4076" x1="141.172" y1="217.261" x2="-145.578" y2="400.644" gradientUnits="userSpaceOnUse">
<stop stop-color="#FA00FF"/>
<stop offset="1" stop-color="#00FFFF"/>
</linearGradient>
<linearGradient id="paint19_linear_0_4076" x1="136.412" y1="225.598" x2="-132.586" y2="409.907" gradientUnits="userSpaceOnUse">
<stop stop-color="#FA00FF"/>
<stop offset="1" stop-color="#00FFFF"/>
</linearGradient>
<linearGradient id="paint20_linear_0_4076" x1="129.822" y1="232.879" x2="-121.306" y2="416.054" gradientUnits="userSpaceOnUse">
<stop stop-color="#FA00FF"/>
<stop offset="1" stop-color="#00FFFF"/>
</linearGradient>
<linearGradient id="paint21_linear_0_4076" x1="126.897" y1="239.385" x2="-107.247" y2="422.771" gradientUnits="userSpaceOnUse">
<stop stop-color="#FA00FF"/>
<stop offset="1" stop-color="#00FFFF"/>
</linearGradient>
<linearGradient id="paint22_linear_0_4076" x1="124.384" y1="248.206" x2="-84.1628" y2="431.885" gradientUnits="userSpaceOnUse">
<stop stop-color="#FA00FF"/>
<stop offset="1" stop-color="#00FFFF"/>
</linearGradient>
<linearGradient id="paint23_linear_0_4076" x1="122.262" y1="254.751" x2="-64.3384" y2="436.118" gradientUnits="userSpaceOnUse">
<stop stop-color="#FA00FF"/>
<stop offset="1" stop-color="#00FFFF"/>
</linearGradient>
<linearGradient id="paint24_linear_0_4076" x1="120.149" y1="256.645" x2="-58.5531" y2="435.186" gradientUnits="userSpaceOnUse">
<stop stop-color="#FA00FF"/>
<stop offset="1" stop-color="#00FFFF"/>
</linearGradient>
<linearGradient id="paint25_linear_0_4076" x1="118.414" y1="258.554" x2="-51.9932" y2="434.333" gradientUnits="userSpaceOnUse">
<stop stop-color="#FA00FF"/>
<stop offset="1" stop-color="#00FFFF"/>
</linearGradient>
<linearGradient id="paint26_linear_0_4076" x1="117.188" y1="262.653" x2="-36.2403" y2="435.055" gradientUnits="userSpaceOnUse">
<stop stop-color="#FA00FF"/>
<stop offset="1" stop-color="#00FFFF"/>
</linearGradient>
<linearGradient id="paint27_linear_0_4076" x1="116.275" y1="272.019" x2="-3.96266" y2="435.604" gradientUnits="userSpaceOnUse">
<stop stop-color="#FA00FF"/>
<stop offset="1" stop-color="#00FFFF"/>
</linearGradient>
<linearGradient id="paint28_linear_0_4076" x1="115.654" y1="284.77" x2="26.14" y2="434.124" gradientUnits="userSpaceOnUse">
<stop stop-color="#FA00FF"/>
<stop offset="1" stop-color="#00FFFF"/>
</linearGradient>
<linearGradient id="paint29_linear_0_4076" x1="115.084" y1="290.807" x2="29.0211" y2="437.083" gradientUnits="userSpaceOnUse">
<stop stop-color="#FA00FF"/>
<stop offset="1" stop-color="#00FFFF"/>
</linearGradient>
<linearGradient id="paint30_linear_0_4076" x1="114.757" y1="297.017" x2="19.9322" y2="446.632" gradientUnits="userSpaceOnUse">
<stop stop-color="#FA00FF"/>
<stop offset="1" stop-color="#00FFFF"/>
</linearGradient>
<linearGradient id="paint31_linear_0_4076" x1="113.758" y1="300.922" x2="-21.0192" y2="461.601" gradientUnits="userSpaceOnUse">
<stop stop-color="#FA00FF"/>
<stop offset="1" stop-color="#00FFFF"/>
</linearGradient>
</defs>
</svg>
