<svg width="286" height="831" viewBox="0 0 286 831" fill="none" xmlns="http://www.w3.org/2000/svg">
<g opacity="0.17" clip-path="url(#clip0_0_3953)">
<path d="M175.153 604.78C89.8291 544.311 36.8409 448.588 93.6909 348.183C135.585 274.192 247.912 339.323 267.731 216.368C276.899 159.472 267.302 82.5199 342.052 75.5135C350.047 74.762 357.144 74.7041 365.145 74.6656C477.184 76.4381 575.688 159.439 617.024 260.613C641.267 321.266 647.299 378.593 632.648 442.419C623.47 494.269 681.578 521.555 683.026 561.963C684.74 609.787 605.641 579.615 579.608 577.916C567.654 577.136 558.884 578.242 548.481 584.202C540.336 589.698 530.465 598.972 521.154 605.496C416.891 678.551 279.777 675.761 175.153 604.78ZM475.704 109.705C429.164 86.9136 325.657 50.8409 294.259 112.983C261.084 178.647 303.227 269.812 209.282 303.89C146.847 326.539 111.42 312.329 83.9318 388.754C72.533 420.439 74.2975 446.969 83.2147 478.943C112.252 574.26 217.428 642.373 313.833 653.119C398.137 661.818 475.349 641.102 540.522 586.229C579.867 556.735 624.012 598.154 664.51 586.636C702.392 575.863 670.587 531.374 657.467 513.298C641.262 490.971 624.839 472.647 628.063 443.629C629.465 431.019 632.522 418.573 634.089 405.789C637.239 374.531 635.373 343.164 628.677 312.493L627.671 307.894C607.67 219.876 555.015 152.311 475.704 109.705Z" fill="#00FFFF"/>
<path d="M188.618 593.425C114.068 542.123 61.9778 460.055 117.496 373.239C165.061 298.86 275.333 367.305 293.76 211.341C299.232 165.036 296.088 101.14 354.804 95.3505C362.565 94.5866 369.46 94.6507 377.223 94.7291C482.643 98.2022 574.607 188.908 608.613 284.58C626.83 337.212 629.986 380.601 620.246 435.241C613.077 494.306 694.485 535.824 679.455 572.366C663.077 612.184 582.02 554.398 540.95 574.06L537.51 575.903C529.6 580.877 519.166 590.293 510.02 596.42C412.404 661.786 285.847 657.22 188.618 593.425ZM440.559 114.205C405.428 102.03 341.888 84.7111 318.255 124.945C282.654 185.559 328.7 289.994 220.623 330.631C167.418 350.637 130.964 349.575 107.992 412.369C93.4971 452.003 103.518 485.64 124.219 520.614C184.087 616.806 311.954 657.078 419.888 631.214C465.606 619.812 493.623 605.831 530.743 577.379C576.376 546.572 636.912 603.034 671.047 581.376C701.334 562.156 648.586 510.094 635.495 491.717C624.042 475.641 614.37 457.102 614.769 436.919C615.659 425.674 618.584 413.424 619.519 400.825C628.856 275.011 557.131 162.025 440.559 114.205Z" fill="#00FFFF"/>
<path d="M211.615 588.411C145.333 547.795 85.8846 473.048 141.469 397.851C194.102 326.648 292.852 383.705 314.475 218.955C318.847 185.658 319.361 129.521 358.303 118.878C365.588 116.891 373.069 116.717 380.538 116.375C476.072 114.909 564.833 208.87 595.439 293.843C610.82 337.756 615.633 377.771 608.269 423.851C600.593 491.952 692.636 534.041 677.151 572.236C662.52 608.331 578.873 548.284 535.253 564.46L531.86 565.717C523.784 569.34 506.249 583.83 496.231 590.022C408.709 644.075 299.387 639.326 211.615 588.411ZM486.573 591.321C500.433 583.124 508.285 576.618 520.881 567.84C571.594 537.131 652.269 608.583 675.321 574.547C690.097 552.739 642.554 508.442 629.164 490.858C614.068 471.031 602.004 447.967 603.932 422.426C614.498 338.249 590.148 263.481 533.857 200.068C496.145 159.679 422.003 111.07 364.424 125.831C321.398 136.86 322.779 212.788 315.468 250.957C299.732 333.149 265.446 342.364 196.969 372.372C144.254 395.475 115.953 434.013 133.385 492.261C161.883 576.257 275.123 624.833 358.852 624.552C405.363 624.404 445.69 613.159 486.573 591.321Z" fill="#00FFFF"/>
<path d="M229.298 580.257C173.732 547.893 113.284 482.12 167.057 419.883C218.785 360.007 300.462 394.088 326.846 273.254C334.599 237.739 334.487 165.267 365.08 147.067C404.973 123.336 468.832 160.093 499.739 186.011C524.194 206.528 544.844 230.283 561.608 257.429C590.966 307.636 602.903 356.343 596.659 414.336C593.003 470.099 637.423 498.134 665.771 537.822C689.257 570.699 674.068 587.905 636.452 579.239C599.461 570.718 551.559 541.32 515.072 562.775C504.669 568.888 495.183 576.775 484.159 583.325C404.864 628.204 308.225 623.39 229.298 580.257ZM496.521 189.771C458.156 159.8 373.251 116.332 350.139 186.095C327.7 253.829 348.726 330.546 275.101 372.883C235.253 395.796 152.316 414.596 155.099 477.08C155.857 494.136 163.419 508.589 172.657 522.496C222.877 595.112 337.724 623.931 421.321 604.068C455.157 595.674 479.531 584.228 507.506 563.447C561.913 527.158 632.841 597.506 667.892 578.365C696.372 562.812 638.651 507.527 627.131 493.644C599.862 460.788 591.063 442.623 593.076 399.663C593.669 386.952 593.639 377.185 592.534 364.427C585.352 295.18 549.82 233.883 496.521 189.771Z" fill="#00FFFF"/>
<path d="M255.419 576.732C173.312 534.86 132.955 459.422 237.896 412.066C321.824 374.192 340.746 376.022 351.877 275.396C355.438 243.199 356.554 175.524 395.261 167.97C405.504 165.968 415.926 167.452 426.058 169.213C503.046 185.045 567.258 272.211 581.997 346.765C586.729 372.071 586.376 383.714 585.629 408.876C586.041 465.825 629.414 495.782 660.846 535.556C688.53 570.591 672.877 587.011 632.316 575.691C595.487 565.416 543.533 535.078 507.441 555.318C495.083 562.247 485.273 570.408 471.639 577.477C403.392 611.916 323.847 609.056 255.419 576.732ZM484.556 204.361C448.575 178.71 391.138 153.252 371.668 211.36C354.408 262.873 369.101 340.434 330.792 376.926C283.701 421.786 164.076 425.568 189.652 506.578C214.341 570.055 317.66 600.036 380.395 597.277C424.977 594.855 462.896 583.223 499.137 556.702C550.759 522.511 610.736 581.306 657.112 579.038C690.259 577.416 665.18 542.839 655.169 530.739C618.821 486.821 582.187 462.106 581.539 399.325C581.342 380.046 581.221 367.055 577.441 347.716C565.489 289.21 532.153 239.9 484.556 204.361Z" fill="#00FFFF"/>
<path d="M283.291 573.283C210.237 541.634 163.064 478.505 258.918 434.55C348.619 393.416 374.643 402.527 377.851 291.209C379.078 248.713 378.901 185.665 437.446 197.39L441.411 198.181C510.186 214.006 563.191 296.739 572.976 363.683C579.22 412.408 569.463 429.685 602.503 473.393C619 495.215 663.565 538.03 670.518 557.529C682.541 591.237 629.046 572.644 616.134 567.812C580.032 554.315 532.58 528.433 495.713 551.132C431.389 595.399 355.548 601.808 283.291 573.283ZM479.356 224.17C408.95 181.071 390.393 221.233 388.028 287.244C384.706 379.924 385.15 396.713 292.056 433.312C253.519 448.468 196.132 471.137 225.352 522.043C258.797 575.848 354.158 592.243 412.759 581.913C447.128 575.45 465.958 567.111 494.918 548.135C538.473 523.399 601.025 565.544 642.463 575.182C677.345 583.296 676.077 562.079 658.345 539.306C637.786 512.901 613.701 493.134 594.006 464.046C558.94 409.891 578.698 392.653 562.507 336.925C548.737 289.574 520.472 251.311 479.356 224.17Z" fill="#00FFFF"/>
<path d="M317.261 570.833C254.287 552.408 190.241 494.246 280.999 454.194C374.939 413.384 400.216 421.809 403.021 307.863C404.084 264.61 406.947 208.876 466.052 230.12C527.938 256.021 561.895 328.629 565.206 392.658C570.138 462.632 613.912 488.904 654.34 537.027C688.399 577.566 659.113 580.123 623.496 567.329C583.6 553.003 529.14 520.773 488.237 545.289C438.316 578.639 379.456 588.197 321.655 572.06L317.261 570.833ZM471.683 242.518C394.449 213.159 418.736 329.616 407.368 372.757C386.945 450.23 305.934 435.104 259.2 481.797C223.293 521.147 291.515 557.837 323.766 566.921C381.087 582.276 436.018 574.573 486.192 542.776C545.628 509.567 643.395 593.795 665.448 570.32C678.781 556.123 624.79 506.955 614.856 496.152C581.03 459.379 566.738 435.826 560.473 385.307C557.493 361.301 554.286 345.679 544.896 322.979C530.031 287.847 507.162 258.3 471.683 242.518Z" fill="#00FFFF"/>
<path d="M549.197 352.048C562.597 404.482 549.597 414.085 584.716 464.647C605.808 493.858 628.167 512.412 650.771 538.589C680.373 572.882 657.941 576.101 626.363 565.141C585.353 550.912 524.914 514.919 482.639 538.996C437.914 567.601 392.279 575.375 340.389 563.844C289.162 551.71 226.892 507.58 301.882 470.154C384.967 428.687 419.008 439.076 425 328.031C427.274 288.25 430.579 232.738 484.737 260.829C517.496 279.683 538.083 317.229 549.197 352.048ZM543.285 347.754C532.976 319.749 500.139 260.333 462.693 265.637C413.658 272.578 456.944 382.464 395.946 431.985C366.029 456.273 302.055 471.084 286.143 495.679C261.88 533.179 333.625 558.411 360.643 562.235C406.185 567.996 441.555 559.657 480.553 536.059C541.478 503.981 652.979 594.081 662.309 564.699C666.717 550.828 617.527 505.428 606.95 493.69C599.516 485.449 591.965 476.698 585.317 467.847C558.641 430.733 558.417 419.841 551.052 377.485C549.643 369.381 547.837 362.546 545.489 354.691L543.285 347.754Z" fill="#00FFFF"/>
<path d="M533.937 339.173C545.415 367.362 544.035 378.806 550.276 405.617C565.127 464.619 604.985 493.768 642.995 536.006C698.019 597.153 590.044 546.359 573.383 540.25C564.944 537.156 556.349 534.117 547.719 531.625C524.162 525.34 498.29 520.218 476.455 533.649C438.932 556.733 401.748 563.493 358.403 555.301C308.464 545.03 266.853 511.347 331.761 477.457C400.702 441.464 431.863 437.87 441.72 351.303C445.1 321.611 447.951 252.911 496.081 288.691C513.256 301.467 524.771 320.213 533.937 339.173ZM516.613 319.269C486.092 279.957 459.99 278.052 451.836 331.599C439.652 411.661 440.176 430.166 362.638 470.481C333.707 485.528 284.781 507.704 330.949 538.26C361.955 558.775 416.036 556.011 449.787 542.756C484.142 528.595 483.244 518.125 524.111 524.611C564.341 531.876 589.965 546.723 626.553 559.367C677.427 576.949 642.495 538.241 627.85 523.042C587.279 480.933 557.934 455.143 545.052 395.169C543.992 390.227 543.041 385.289 542.083 380.319C537.642 356.787 529.896 339.124 516.613 319.269Z" fill="#00FFFF"/>
<path d="M641.013 319.188C649.384 367.895 647.586 400.169 637.316 448.042C629.905 495.633 686.631 526.771 684.177 564.873C682.127 596.644 642.222 591.216 620.794 587.216C597.298 582.828 572.549 574.703 551.186 589.022C528.579 606.507 517.311 616.396 490.915 629.746C425.095 663.041 353.383 668.934 281.997 652.147C160.746 620.774 28.9111 497.608 96.7392 365.276C130.543 299.32 195.606 328.066 244.35 287.074C309.013 232.698 244.097 91.8203 340.977 78.8472L348.6 77.8235C447.853 66.5899 552.867 135.15 602.715 218.666C621.892 250.799 633.5 282.628 641.013 319.188ZM414.678 650.82C468.456 639.168 503.493 621.707 546.275 587.759C584.538 561.282 639.477 604.395 671.524 584.916C708.219 562.608 651.008 506.123 639.394 480.867C634.01 469.163 632.284 460.623 633.902 447.887C638.94 421.157 642.684 407.415 643.007 379.151C643.767 312.21 622.026 251.105 582.915 197.175C531.059 129.023 430.523 66.7091 341.924 84.1018C248.859 102.374 322.274 250.154 235.666 302.078C176.485 337.559 122.609 308.74 91.3703 396.927C80.9282 426.4 82.4545 451.171 90.2292 481.005C117.44 575.638 223.6 642.386 318.006 654.125C351.485 658.289 381.572 656.842 414.678 650.82Z" fill="#FF00FF"/>
<path d="M139.919 544.123C99.1299 491.772 86.0428 432.32 129.309 376.258C178.451 312.58 280.742 367.109 299.27 217.756C309.195 137.756 301.891 84.3251 405.374 98.6362C532.438 119.012 626.034 242.082 631.447 368.058C632.445 397.207 630.212 411.988 625.14 440.211C618.488 495.746 697.15 538.026 679.782 573.727C660.665 613.017 582.842 555.509 542.141 578.458L538.72 580.592C515.594 597.309 504.305 606.6 477.444 618.837C361.676 671.575 221.724 643.158 139.919 544.123ZM619.045 312.752C592.834 213.329 513.175 122.263 408.187 104.691C303.498 89.6218 315.416 149.405 304.144 227.537C293.838 298.96 269.166 323.317 204.068 345.163C157.587 360.758 128.446 376.073 114.037 427.236C100.769 474.338 121.18 513.885 151.078 549.142C243.928 652.458 402.699 669.379 516.808 592.644C549.013 570.581 550.357 564.445 592.796 574.703C613.888 579.798 684.985 604.62 681.194 561.297C677.726 521.688 614.769 490.727 621.908 435.674C622.741 430.925 623.672 426.381 624.456 421.571C630.22 383.964 627.742 349.639 619.045 312.752Z" fill="#FF00FF"/>
<path d="M173.77 554.37C129.941 509.319 107.671 452.173 154.828 399.599C204.662 344.035 289.429 375.132 314.358 253.755C321.784 217.602 320.562 141.983 352.725 124.167C366.682 116.433 385.32 117.036 400.751 117.908C496.041 126.122 578.701 215.953 605.664 304.246C619.548 351.201 620.484 383.04 613.131 430.969C607.027 493.637 701.658 542.784 675.75 576.332C650.794 608.645 576.295 543.869 527.581 572.493C506.682 586.66 497.079 594.731 473.023 605.551C372.759 650.654 253.103 631.181 173.77 554.37ZM453.942 138.013C417.207 123.29 358.268 108.428 338.692 155.459C315.265 211.744 336.249 298.798 271.994 345.684C227.32 378.285 155.648 382.543 139.21 447.41C133.857 468.547 138.364 485.776 146.232 505.433C181.606 585.608 292.134 627.495 375.526 624.199C429.175 621.602 476.749 606.501 519.812 573.897C566.541 541.529 610.922 586.792 656.83 584.27C692.066 582.334 677.098 549.816 664.602 532.154C639.294 496.372 603.659 471.371 609.607 423.03C628.225 305.02 563.766 185.974 453.942 138.013Z" fill="#FF00FF"/>
<path d="M206.745 559.384C136.688 500.155 137.234 435.468 223.615 394.403C293.303 361.27 318.002 356.918 332.895 272.74C338.565 240.693 339.96 170.719 362.899 150.754C374.128 140.985 387.815 139.999 402.002 139.81C483.734 140.49 560.771 224.587 587.95 296.988C603.976 340.912 607.559 374.918 601.945 421.135C597.003 491.08 702.681 545.608 673.146 576.431C646.073 604.688 569.242 535.454 517.235 564.784C496.049 578.492 486.633 586.099 462.22 596.067C376.751 630.948 279.05 616.694 206.745 559.384ZM466.238 164.495C428.623 146.244 373.699 130.386 355.42 181.927C334.563 240.74 354.158 324.02 299.972 366.659C250.835 405.328 128.657 422.118 176.907 515.144C215.17 585.019 320.861 616.308 396.478 608.274C443.765 602.79 473.845 590.576 512.685 563.695C566.933 530.705 652.112 608.331 674.612 573.548C687.883 553.032 641.868 510.108 629.156 494.343C612.143 473.245 596.778 447.459 597.361 419.593C599.597 387.802 601.347 371.965 595.166 339.646C580.752 264.31 534.198 200.306 466.238 164.495Z" fill="#FF00FF"/>
<path d="M234.29 557.75C165.315 505.634 170.137 454.099 248.1 417.421C331.845 378.026 349.907 379.367 356.957 277.544C359.298 243.745 357.185 172.982 400.115 164.857C407.76 163.41 415.565 163.733 423.26 164.364C497.139 172.335 562.167 254.9 582.315 322.634C591.426 354.433 593.682 377.576 591.288 410.476C589.209 469.096 633.964 497.141 663.766 537.373C686.103 567.522 676.416 586.951 638.399 578.168C607.793 571.097 578.594 555.076 546.78 550.589C511.82 546.767 503.569 562.883 474.892 577.058C397.264 615.415 304.989 607.463 234.29 557.75ZM475.159 190.611C427.023 163.475 382.509 159.778 370.45 223.865C362.758 264.794 370.628 338.801 348.692 369.544C308.471 425.915 149.206 433.409 210.586 524.865C252.489 583.973 349.755 604.768 418.176 591.859C448.278 585.847 474.145 576.165 499.595 558.756C530.26 539.221 557.578 549.024 589.542 560.543C603.815 565.688 678.04 599.024 674.731 562.839C672.703 540.636 625.418 497.348 610.054 475.929C594.714 454.547 586.429 435.611 586.524 408.973C588.206 362.556 584.062 328.526 563.231 286.116C543.29 245.501 513.977 213.81 475.159 190.611Z" fill="#FF00FF"/>
<path d="M264.105 556.675C198.731 514.796 201.423 470.52 271.464 437.772C368.588 392.366 380.24 400.818 381.075 284.194C381.383 240.896 381.637 177.869 441.569 190.745L445.546 191.6C515.443 208.688 568.78 293.732 578.583 362.112C581.098 381.161 580.054 391.531 580.72 409.568C584.8 466.872 625.947 495.111 658.046 534.411C687.23 570.138 672.776 586.317 630.851 573.556C593.507 562.189 536.187 528.231 499.187 550.271L495.075 552.717C424.641 598.848 336.136 600.252 264.105 556.675ZM490.695 222.08C430.204 179.372 392.577 195.427 390.197 270.57C386.737 379.944 405.178 391.072 293.439 439.25C253.069 456.659 205.218 481.354 243.065 529.53C287.624 582.908 383.818 593.441 447.279 572.208C470.303 564.195 476.929 559.322 497.114 547.551C540.29 525.911 601.356 566.281 642.581 575.957C676.194 583.847 678.487 564.434 660.681 540.513C640.949 514.006 615.734 493.533 596.663 464.531C563.924 412.141 583.136 397.927 570.583 343.805C559.051 294.106 531.532 252.55 490.695 222.08Z" fill="#FF00FF"/>
<path d="M274.796 464.915C305.728 446.387 357.343 431.767 379.266 409.866C430.764 358.412 378.081 237.71 429.635 217.626C440.699 213.315 452.733 216.296 463.518 219.839C529.284 245.278 567.92 324.511 570.18 391.87C573.132 461.976 613.017 486.243 653.988 534.468C689.543 576.314 663.411 582.286 623.6 568.143C584.727 554.333 529.761 522.513 489.734 544.617C432.548 580.386 359.388 586.025 298.211 557.001C256.398 537.17 224.337 498.431 274.796 464.915ZM346.669 440.972C313.206 456.862 224.074 484.774 277.84 534.77C328.287 581.678 422.488 579.529 480.399 545.994C501.647 533.133 513.567 532.624 537.873 537.037C574.331 544.615 603.018 561.209 636.891 571.075C680.64 583.822 671.844 557.944 651.795 534.379C608.097 483.014 571.301 463.125 565.327 388.902C563.21 362.565 560.869 347.506 550.889 322.538C536.006 286.442 493.333 226.196 449.361 227.23C412.726 231.475 412.501 270.539 412.074 300.318C411.046 372.139 422.334 403.557 346.669 440.972Z" fill="#FF00FF"/>
<path d="M316.841 548.589C270.76 526.211 265.053 495.228 312.648 469.491C382.069 431.952 421.988 433.258 423.867 338.646C424.228 298.145 417.605 219.577 481.07 249.56C531.625 277.549 555.055 332.822 559.646 388.246C566.183 460.416 606.334 485.474 649.766 534.915C687.991 578.43 655.022 576.8 619.661 563.337C580.064 548.26 523.524 516.588 482.164 537.855C429.245 568.495 373.172 574.851 316.841 548.589ZM503.527 274.666C467.156 241.584 437.445 247.429 432.864 299.556C425.966 378.068 443.312 413.08 359.509 455.363C328.718 470.9 256.564 500.04 313.464 538.372C363.046 570.237 427.045 564.306 476.995 536.53C499.884 523.803 522.759 527.925 547.193 534.364C572.503 541.699 636.199 571.164 654.08 570.332C687.756 568.762 622.315 509.234 615.644 502.21C598.854 484.522 584.591 467.378 572.385 446.143C548.993 403.819 561.271 377.448 544.139 333.904C534.863 310.315 521.941 291.976 503.527 274.666Z" fill="#FF00FF"/>
<path d="M338.945 542.167C292.89 521.357 305.055 495.597 342.425 474.523C415.601 433.253 435.484 429.114 440.361 337.428C442.063 305.492 445.025 245.521 493.378 278.011C530.99 304.575 545.294 343.241 550.332 387.427C558.044 447.355 588.421 478.52 629.194 519.701C681.89 572.932 664.916 578.067 603.976 552.762C565.625 536.837 514.51 512.141 474.163 532.36C431.142 556.316 384.819 561.833 338.945 542.167ZM437.654 543.469C454.626 538.284 460.367 534.753 475.651 527.268C535.606 502.132 647.606 582.628 654.63 560.22C658.115 549.099 613.892 507.682 605.038 497.864C596.334 488.217 587.437 477.752 579.67 467.375C534.973 405.102 558.366 382.134 529.239 329.122C526.202 323.597 523.161 318.952 519.608 313.768C494.01 277.735 457.169 261.375 449.228 319.718C439.186 393.522 449.815 421.507 375.51 464.358C351.106 478.434 292.133 506.65 341.078 535.069C369.457 551.552 406.731 550.831 437.654 543.469Z" fill="#FF00FF"/>
</g>
<defs>
<clipPath id="clip0_0_3953">
<rect width="586.999" height="614.952" fill="white" transform="translate(0 486.613) rotate(-55.9945)"/>
</clipPath>
</defs>
</svg>
