<svg width="552" height="505" viewBox="0 0 552 505" fill="none" xmlns="http://www.w3.org/2000/svg">
<path d="M-293.398 419.858C-295.116 418.948 -295.966 418.51 -297.669 417.664C-316.167 417.409 -331.047 412.883 -340.268 404.657C-366.481 381.269 -378.274 347.451 -370.27 319.622C-366.429 306.273 -354.31 292.7 -347.633 279.41C-337.414 259.067 -336.251 234.52 -317.611 215.275C-302.965 200.159 -281.139 182.845 -260.119 171.752C-234.653 158.311 -201.782 220.343 -188.638 226.088C-177.29 231.046 -156.022 215.915 -149.316 210.398C-125.512 190.835 -113.462 165.208 -96.8356 145.921C-85.0733 132.276 -77.2323 135.102 -65.5272 147.119C-55.7453 157.165 -44.2268 169.192 -36.984 179.553C-24.6029 197.26 -3.73057 170.986 0.351951 164.003C12.8994 142.521 16.011 118.553 30.6747 98.2232C37.0441 89.3986 46.0057 80.9308 58.1751 73.4291C76.2528 62.2864 84.5646 46.0907 100.93 35.3452C119.706 23.0141 167.057 48.7976 182.339 55.4925C208.086 66.7754 234.06 75.9527 248.886 92.0408C264.174 108.628 290.389 133.995 320.031 139.953C338.937 143.754 365.469 139.686 382.873 146.252C397.727 151.857 409.93 162.295 422.377 171.428C442.528 186.214 466.059 198.932 492.798 209.897C520.952 221.447 529.621 244.482 537.038 262.73C541.994 274.933 533.521 287.964 522.699 299.46C505.738 317.474 496.661 337.379 482.906 356.228C481.352 357.145 480.567 357.586 478.985 358.448C491.751 339.607 502.805 320.387 518.763 302.134C524.225 295.883 530.38 291.094 532.754 283.139C537.188 268.279 527.199 253.137 519.456 240.136C504.771 215.472 450.02 197.231 422.251 176.586C409.819 167.342 397.563 156.533 382.99 150.51C365.627 143.335 338.727 146.425 319.602 142.157C289.558 135.455 260.201 109.253 245.024 91.8674C231.125 75.9499 206.671 67.0139 181.194 56.359C167.45 50.6144 119.196 25.6302 100.823 38.4873C85.3009 49.349 77.2316 63.9914 60.9249 74.6494C49.7923 81.9251 41.149 89.9144 35.0735 98.3671C19.79 119.63 16.9177 144.665 4.06846 167.012C-4.73927 182.332 -21.9093 200.019 -38.2664 181.293C-46.8287 171.495 -57.7431 159.755 -63.0989 149.96C-66.2514 144.191 -71.8317 138.898 -82.7911 136.942C-85.8671 139.709 -89.7081 142.642 -92.0191 145.243C-110.477 166.017 -124.145 195.011 -151.085 216.344C-158.447 222.174 -181.954 236.615 -193.263 230.899C-210.382 222.254 -232.929 172.321 -258.888 179.595C-271.943 183.253 -285.096 196.329 -297.371 204.327C-321.935 220.342 -328.321 243.262 -335.384 262.327C-339.581 273.664 -343.912 284.96 -350.129 295.947C-354.503 303.685 -363.785 310.897 -365.677 319.907C-371.793 349.025 -360.946 381.319 -335.872 405.12C-326.956 413.583 -312.326 419.27 -293.398 419.858Z" fill="url(#paint0_linear_3803_1355)"/>
<path d="M-289.068 422.57C-290.818 421.598 -291.695 421.122 -293.432 420.205C-313.057 420.514 -325.006 413.342 -334.007 406.289C-360.735 385.343 -369.272 350.199 -362.771 321.852C-360.238 310.813 -347.336 300.899 -341.486 290.438C-330.141 270.162 -327.669 247.713 -313.403 227.267C-304.791 214.922 -275.885 189.054 -251.163 190.773C-220.352 192.912 -217.048 230.113 -185.331 231.849C-170.789 232.645 -155.157 223.876 -146.238 218.187C-118.346 200.405 -99.769 170.836 -91.4583 150.901C-83.5929 132.029 -66.0092 146.478 -61.0988 152.605C-51.4231 164.682 -40.6135 178.647 -34.2876 190.924C-24.239 210.429 -2.32322 187.977 3.37108 179.093C18.0102 156.264 19.6565 131.313 30.1825 107.864C34.6089 98.004 43.7288 88.9309 56.3324 81.1116C72.9298 70.8097 83.353 57.1837 100.273 47.8717C120.974 36.4776 166.657 54.0909 183.123 59.9989C214.951 71.4188 233.337 85.294 252.897 102.733C270.137 118.102 295.768 138.93 321.042 146.498C337.804 151.515 364.856 148.927 380.88 156.06C395.471 162.557 407.953 173.902 420.677 183.218C440.437 197.686 466.702 207.459 491.628 218.559C514.888 228.918 522.691 251.207 528.443 267.299C532.424 278.437 529.106 290.101 519.668 300.904C503.711 319.165 492.289 339.116 478.624 358.207C477.037 359.06 476.24 359.477 474.63 360.271C488.831 341.381 500.444 321.708 516.014 303.407C524.929 292.93 527.269 281.648 523.851 270.928C518.892 255.378 512.622 234.345 491.202 223.295C467.714 211.179 439.831 204.171 420.437 189.125C408.111 179.559 395.556 168.238 380.973 161.431C364.107 153.554 336.025 156.285 320.387 150.472C295.726 141.304 267.52 119.861 249.195 103.214C230.354 86.097 214.317 71.347 181.74 60.8276C164.629 55.3019 120.11 40.1198 100.433 52.0298C85.4852 61.0809 74.6233 73.2512 59.119 82.6777C46.5483 90.3201 39.4553 99.1235 34.5564 108.167C22.0575 131.267 24.3998 158.874 7.60536 182.07C-4.33047 198.553 -20.6687 214.077 -35.5025 192.629C-43.5176 181.039 -50.1808 167.76 -58.6498 156.18C-60.9316 153.058 -79.976 132.362 -87.0472 151.436C-94.8706 172.552 -114.695 207.32 -148.209 224.785C-158.63 230.213 -176.234 237.993 -190.11 236.133C-217.916 232.409 -224.629 202.7 -250.393 197.768C-263.506 195.255 -284.823 205.861 -293.631 212.835C-314.648 229.484 -320.304 250.969 -327.385 269.687C-331.459 280.448 -334.597 291.893 -342.209 302.306C-346.929 308.764 -356.504 313.868 -358.185 322.055C-364.062 350.697 -352.49 382.096 -329.535 405.991C-321.413 414.434 -307.856 421.614 -289.068 422.57Z" fill="url(#paint1_linear_3803_1355)"/>
<path d="M-284.687 425.439C-286.475 424.417 -287.368 423.913 -289.142 422.933C-351.712 417.17 -360.829 351.042 -355.189 323.784C-353.45 315.378 -341.001 307.501 -335.131 300.12C-321.214 282.613 -318.608 260.545 -308.388 241.762C-302.262 230.508 -273.563 194.64 -243.621 209.356C-229.788 216.157 -204.689 236.713 -181.771 235.612C-172.702 235.177 -157.205 235.417 -143.847 228.894C-111.12 212.916 -100.915 182.459 -88.3541 161.86C-79.1777 146.816 -66.4768 140.815 -56.7134 159.797C-49.5262 173.775 -41.1516 190.078 -32.0449 203.316C-19.6321 221.365 -4.21783 207.962 6.50554 194.338C24.6776 171.256 22.7413 145.46 30.6174 121.045C34.2153 109.899 40.053 98.6235 55.0307 89.5308C69.4271 80.7937 84.1927 70.9769 100.414 63.1411C123.56 51.9586 162.409 58.9302 184.019 64.57C223.919 74.9885 234.762 97.4762 261.813 114.631C282.35 127.656 301.088 149.989 321.491 156.539C336.084 161.227 362.937 160.803 378.932 168.265C394.118 175.351 405.975 187.338 418.718 196.649C436.495 209.635 459.613 217.557 483.705 226.526C509.453 236.113 515.394 260.693 521.493 276.61C525.949 288.246 517.793 299.771 508.166 310.789C494.448 326.493 485.85 343.692 474.253 360.009C472.637 360.799 471.828 361.177 470.198 361.903C482.046 346.264 490.521 329.82 503.533 314.607C513.04 303.499 520.895 291.894 516.776 280.205C511.316 264.717 506.354 240.072 480.978 230.808C457.698 222.311 435.641 215.36 418.338 202.972C405.452 193.751 393.727 181.889 378.976 174.45C362.557 166.172 336.022 165.891 320.121 161.015C311.132 158.258 306.74 148.564 299.506 142.448C287.966 132.689 272.335 124.379 258.528 115.641C231.627 98.6137 221.264 75.4996 181.964 65.6612C158.176 59.7057 124.167 58.3824 100.773 67.7934C67.8254 81.047 41.0112 98.9442 35.1642 121.281C28.4324 147.005 29.7856 172.777 10.8526 197.202C-2.47522 214.396 -20.9004 227.009 -33.3891 205.105C-40.7388 192.212 -46.378 177.244 -54.4964 164.35C-64.9794 147.704 -73.0973 146.53 -85.0023 165.591C-97.4232 185.477 -108.863 224.016 -145.926 236.027C-160.559 240.769 -175.565 240.394 -186.616 239.709C-210.598 238.219 -228.231 222.493 -244.415 214.414C-259.232 207.015 -280.665 215.983 -289.416 224.866C-308.999 244.748 -314.425 267.788 -323.905 288.94C-328.139 298.389 -331.915 305.687 -339.187 312.003C-343.568 315.807 -349.587 317.87 -350.596 323.947C-355.247 351.859 -346.21 418.513 -284.687 425.439Z" fill="url(#paint2_linear_3803_1355)"/>
<path d="M-280.262 428.403C-282.08 427.349 -282.988 426.824 -284.799 425.799C-344.559 419.112 -351.19 352.53 -347.53 325.607C-346.384 317.17 -334.063 313.718 -328.76 308.059C-314.213 292.529 -311.052 273.438 -302.743 257.094C-297.151 246.091 -272.795 207.643 -240.005 223.982C-224.394 231.762 -199.381 239.163 -178.027 239.611C-169.2 239.796 -154.326 245.011 -142.072 242.601C-108.604 236.027 -97.6198 199.14 -88.5423 182.788C-79.5798 166.641 -67.1571 145.596 -53.1099 169.481C-44.5715 184.006 -36.1105 201.401 -30.3007 215.327C-22.5982 233.797 1.86472 216.574 8.70173 209.451C30.7591 186.479 31.9763 160.786 33.8538 135.146C34.72 123.363 38.7824 107.43 54.2049 98.8642C67.1402 91.681 84.5221 85.0084 101.151 79.777C130.485 70.5448 155.298 66.0333 185.324 70.4398C225.403 76.3245 246.877 110.583 274.226 127.177C286.212 134.452 297.018 141.924 305.25 150.986C310.324 156.572 311.492 164.451 320.405 167.384C337.712 173.072 360.982 173.333 376.929 182.024C391.288 189.851 403.21 201.589 416.406 210.776C433.765 222.863 455.393 228.658 478.414 236.3C503.042 244.473 508.102 268.927 513.623 283.882C517.145 293.431 512.352 303.098 505.327 312.341C493.139 328.364 481.61 345.194 469.787 361.624C468.152 362.342 467.326 362.687 465.676 363.34C477.395 347.664 488.898 331.69 500.556 316.262C507.658 306.861 512.201 297.052 508.936 287.374C503.981 272.705 499.615 248.192 475.563 240.61C453.737 233.732 432.658 228.285 415.826 216.945C402.506 207.973 390.716 196.534 376.851 188.498C360.328 178.916 337.245 178.008 318.629 171.948C309.011 168.818 308.512 160.677 303.59 154.709C295.267 144.617 284.609 136.819 271.528 128.851C245.227 112.827 222.83 77.2737 184.489 72.441C155.001 68.7241 131.597 75.8303 101.667 84.6914C60.8088 96.785 41.881 110.331 39.5562 134.468C37.0661 160.305 35.9704 188.594 13.0098 211.406C-1.3385 225.662 -19.289 232.375 -31.7213 216.093C-40.7747 204.237 -47.9981 187.969 -51.5182 175.548C-52.7604 171.171 -57.9935 163.161 -66.8497 165.506C-78.2771 168.529 -83.1298 184.19 -86.4196 190.055C-94.3629 204.217 -108.836 248.841 -144.072 249.96C-158.374 250.413 -171.652 244.34 -182.875 243.442C-203.64 241.784 -225.794 235.024 -241.303 228.015C-271.318 214.452 -294.027 251.614 -298.732 260.856C-306.727 276.56 -309.967 295.06 -324.655 309.817C-329.721 314.921 -341.955 318.17 -342.961 325.881C-346.536 353.237 -338.839 420.616 -280.262 428.403Z" fill="url(#paint3_linear_3803_1355)"/>
<path d="M-275.801 431.393C-277.652 430.337 -278.576 429.804 -280.417 428.752C-337.242 420.712 -342.414 354.323 -339.807 327.597C-339.038 319.726 -327.791 317.026 -322.154 312.688C-306.983 301.004 -303.687 284.687 -296.649 271.591C-290.415 259.988 -271.317 224.459 -236.654 236.286C-219.079 242.28 -192.077 241.653 -174.197 244.638C-164.45 246.262 -153.137 256.471 -140.437 258.493C-113.022 262.849 -96.4259 220.89 -91.5191 211.946C-87.4598 204.551 -81.7213 183.743 -69.1225 179.589C-62.901 177.536 -54.2243 173.576 -51.5352 184.027C-48.5471 195.649 -36.8154 210.958 -28.9814 222.924C-20.3791 236.066 2.87724 223.611 10.3268 218.658C37.6222 200.505 42.1146 171.01 41.2058 147.77C40.7281 135.531 39.6877 119.976 53.8068 109.099C64.2636 101.045 88.0329 100.8 102.355 96.9759C126.518 90.5242 157.154 73.6578 187.027 78.6211C210.611 82.54 220.916 96.2362 234.156 106.322C250.085 118.462 271.742 128.778 286.201 140.707C298.524 150.87 300.915 172.354 318.106 178.475C335.948 184.827 358.517 186.286 374.539 195.873C388.248 204.078 400.218 215.241 413.631 224.137C424.224 231.164 434.182 236.868 449.498 241.216C459.626 244.092 471.618 244.645 479.448 249.058C497.039 258.982 500.45 276.821 505.766 290.912C509.481 300.759 504.134 310.719 496.618 320.096C485.544 333.913 475.77 348.752 465.266 363.073C463.612 363.722 462.783 364.028 461.113 364.609C479.435 343 504.385 319.982 501.548 296.603C499.689 281.296 494.213 260.645 473.495 251.356C454.701 242.93 430.528 240.57 412.79 229.433C399.215 220.912 387.36 210.023 374.162 201.773C357.602 191.423 336.354 189.476 315.843 182.921C297.674 177.113 295.37 152.946 283.591 143.08C269.593 131.35 248.649 120.99 232.817 109.187C219.79 99.4764 209.221 85.2302 186.313 81.5585C156.046 76.7092 127.943 95.8417 103.043 101.82C62.6146 111.526 45.9765 120.131 47.8188 146.043C49.535 170.126 43.2093 198.903 14.0219 218.143C3.45522 225.108 -20.2687 237.579 -30.6498 223.283C-37.9 213.301 -46.0393 201.565 -50.9143 191.744C-60.3577 172.719 -88.1136 217.773 -90.1749 221.514C-94.3426 229.079 -114.059 275.435 -142.034 265.436C-154.992 260.806 -165.706 251.234 -178.936 248.073C-195.123 244.208 -220.816 244.253 -237.845 239.178C-269.468 229.747 -286.921 264.448 -292.567 274.706C-299.549 287.393 -302.897 302.82 -317.976 313.947C-323.525 318.044 -334.62 320.588 -335.268 328.091C-336.888 346.917 -332.313 365.796 -324.608 383.699C-317.974 399.098 -307.573 426.362 -275.801 431.393Z" fill="url(#paint4_linear_3803_1355)"/>
<path d="M-271.338 434.31C-273.161 433.304 -274.132 432.77 -276.006 431.716C-306.845 426.502 -315.865 399.451 -321.856 384.358C-328.832 366.785 -332.918 348.403 -332.029 330.046C-331.63 321.834 -321.616 320.369 -315.383 316.393C-301.051 307.256 -296.487 294.87 -290.256 283.951C-283.567 272.229 -267.232 238.27 -233.11 244.636C-214.445 248.116 -184.653 244.492 -170.367 251.339C-158.347 257.099 -150.783 268.022 -138.091 274.561C-114.883 286.515 -98.965 250.253 -95.299 243.87C-92.3048 238.651 -66.1173 190.427 -52.1697 201.934C-43.5733 209.028 -38.2834 220.594 -28.0521 227.972C-19.5459 234.106 -3.14956 230.257 10.8274 221.727C39.3898 204.302 48.2079 181.481 49.8363 159.914C51.8146 133.712 53.9224 117.307 105.604 111.782C131.577 109.005 158.774 83.4545 188.498 90.6305C211.7 96.2315 227.031 110.889 243.298 120.661C261.301 131.477 284.648 141.995 292.71 155.944C298.82 166.507 299.866 181.003 316.308 188.612C333.81 196.713 356.016 198.153 371.431 207.949C384.521 216.264 396.573 226.854 410.224 235.038C420.052 240.927 430.667 246.235 444.476 250.018C454.183 252.674 465.319 253.535 472.719 257.834C489.68 267.682 493.083 284.061 497.899 297.695C505.693 319.74 477.194 343.946 460.668 364.319C458.998 364.896 458.162 365.171 456.487 365.679C473.786 345.132 499.589 323.044 493.322 300.93C489.47 287.337 486.071 270.993 469.172 261.105C453.653 252.019 425.849 248.247 409.062 238.826C395.257 231.077 383.426 220.962 370.746 212.902C354.659 202.671 332.529 201.308 313.594 193.177C295.849 185.557 294.876 169.792 288.979 158.671C281.733 145.011 259.602 134.518 242.275 124.146C226.538 114.724 210.866 100.856 188.624 95.4626C159.609 88.4265 132.725 112.017 107.347 115.026C61.9261 120.412 58.3903 133.88 56.9076 157.344C55.4743 180.073 43.6828 203.879 14.2596 220.379C4.75857 225.708 -16.0856 237.135 -29.8539 228.481C-37.3473 223.771 -44.5366 212.43 -51.9839 209.603C-69.1499 203.088 -89.8503 245.669 -93.5997 252.36C-97.493 259.306 -113.125 294.565 -138.919 280.209C-152.963 272.396 -161.488 261.113 -174.895 254.235C-188.708 247.145 -215.199 249.244 -234.17 247.043C-265.958 243.351 -279.733 274.889 -286.15 286.128C-292.23 296.777 -296.999 308.643 -311.106 317.423C-317.307 321.279 -327.298 323.077 -327.508 330.899C-328.006 349.287 -323.385 367.67 -316.525 385.269C-310.541 400.62 -302.251 428.579 -271.338 434.31Z" fill="url(#paint5_linear_3803_1355)"/>
<path d="M-267.156 437.033C-268.839 436.086 -269.722 435.598 -271.578 434.59C-301.33 428.484 -308.153 400.766 -313.553 385.678C-319.664 368.607 -323.714 350.972 -324.197 333.281C-324.416 325.258 -315.25 323.333 -308.385 319.699C-295.06 312.646 -289.184 302.326 -283.659 293.495C-275.579 280.582 -263.373 250.471 -229.281 250.894C-208.95 251.144 -177.731 248.792 -166.464 260.072C-157.106 269.437 -147.751 280.075 -134.001 287.733C-113.64 299.072 -100.832 276.858 -96.9235 270.395C-89.5675 258.228 -75.6332 221.713 -53.8036 220.118C-46.3747 219.577 -36.4902 228.849 -27.133 231.406C-17.4598 234.048 -2.0678 230.362 11.084 222.834C35.764 208.706 51.1148 191.9 56.2103 173.27C61.9883 152.132 56.3611 120.279 110.793 121.07C143.267 121.538 162.967 102.231 192.246 107.694C229.932 114.728 285.264 145.972 290.813 171.755C293.367 183.643 295.354 193.984 313.701 201.203C331.336 208.143 352.952 209.115 367.609 217.799C380.377 225.364 392.178 235.521 406.132 242.966C422.866 251.895 450.421 255.883 465.798 264.732C482.669 274.438 486.006 290.762 490.092 304.179C496.477 325.125 472.472 345.933 456.036 365.374C454.356 365.882 453.518 366.127 451.706 366.393C471.591 346.234 488.353 327.485 485.391 306.6C483.468 293.046 479.064 277.753 458.917 268.402C441.739 260.428 420.88 254.754 404.712 246.16C390.981 238.862 377.954 230.581 366.659 222.311C352.899 212.235 329.336 211.884 310.991 205.284C291.421 198.245 289.332 186.608 286.312 174.348C280.119 149.19 231.682 120.185 193.066 113.068C163.43 107.607 144.284 122.957 112.479 123.176C64.6976 123.502 68.7377 151.062 63.2813 170.165C57.7803 189.415 38.9399 207.792 14.3789 221.292C3.45482 227.296 -12.6035 235.232 -28.9677 232.21C-34.4049 231.207 -41.2532 222.985 -53.5126 226.689C-77.8306 234.029 -86.0256 262.82 -94.1923 275.936C-99.398 284.302 -112.933 302.733 -134.53 291.34C-149.524 283.428 -158.923 270.296 -170.671 262.284C-184.902 252.581 -203.656 251.94 -230.207 252.924C-261.04 254.065 -272.321 282.476 -279.572 294.491C-284.871 303.275 -291.014 313.419 -304.017 320.63C-310.838 324.413 -319.96 326.709 -319.72 334.535C-319.176 352.408 -314.531 370.258 -308.309 387.503C-302.92 402.447 -296.52 430.796 -267.156 437.033Z" fill="url(#paint6_linear_3803_1355)"/>
<path d="M-263.334 439.537C-264.89 438.662 -265.699 438.204 -267.419 437.259C-295.494 430.907 -300.823 403.061 -305.734 388.58C-311.436 371.756 -315.766 354.383 -316.374 337.007C-316.662 328.815 -308.253 326.444 -300.997 322.596C-290.233 316.884 -281.34 307.497 -276.911 300.151C-268.596 286.357 -257.697 259.039 -225.179 255.512C-193.441 252.069 -176.182 257.338 -162.19 270.525C-153.102 279.092 -143.754 290.053 -129.949 296.804C-117.012 303.131 -98.202 294.955 -94.7356 287.119C-87.9744 271.822 -76.5783 249.829 -55.1589 236.434C-46.0747 230.755 -36.2496 234.012 -25.9861 233.988C-15.3382 233.963 -1.08115 230.624 11.3493 223.459C29.553 212.96 48.3518 199.855 57.3423 186.665C68.2689 170.637 67.105 125.308 115.633 127.786C146.625 129.366 169.691 120.247 197.999 126.341C240.589 135.509 278.318 157.697 285.967 184.539C293.698 211.649 332.501 210.479 363.218 227.273C375.301 233.882 387.155 242.635 401.378 248.865C418.616 256.411 439.09 263.549 454.854 272.01C473.388 281.956 478.107 296.609 482.35 310.345C488.101 328.966 467.931 348.903 451.188 366.059C449.35 366.296 448.393 366.346 446.403 366.312C466.391 351.588 482.1 330.082 477.958 313.182C470.34 282.119 444.696 267.807 399.651 250.793C385.599 245.482 373.771 237.769 362.021 231.578C346.848 223.585 325.977 221.604 308.463 215.016C289.577 207.91 284.98 198.642 281.288 186.653C273.164 160.271 239.994 140.542 197.972 131.325C171.215 125.456 146.196 131.693 117.153 129.57C75.5215 126.524 73.7016 169.632 63.8317 183.083C53.6826 196.914 33.2624 211.385 14.5275 221.982C2.27091 228.916 -9.70748 233.918 -27.7981 235.256C-33.7489 235.697 -40.4746 231.27 -54.3802 241.411C-73.2356 255.16 -82.2766 274.103 -91.0578 289.224C-96.9604 299.385 -114.977 305.38 -130.695 298.689C-146.359 292.02 -156.18 281.001 -166.001 272.064C-179.575 259.712 -197.061 252.939 -225.971 257.348C-250.341 261.066 -259.295 279.98 -267.231 291.579C-276.909 305.73 -292.874 316.5 -306.374 328.81C-322.111 343.158 -310.463 367.351 -305.226 382.565C-299.554 399.017 -293.23 431.385 -263.334 439.537Z" fill="url(#paint7_linear_3803_1355)"/>
<path d="M-259.842 441.788C-261.278 441 -262.029 440.58 -263.612 439.708C-289.003 431.844 -293.258 406.72 -298.242 392.267C-303.988 375.599 -310.898 357.258 -308.583 340.74C-306.738 327.588 -278.907 317.381 -269.853 304.688C-260.151 291.079 -251.148 264.077 -220.771 259.256C-187.515 253.975 -171.416 268.328 -157.303 281.509C-149.021 289.246 -140.818 297.583 -125.988 302.252C-111.638 306.768 -98.841 304.878 -90.5862 295.298C-77.7902 280.442 -70.2021 264.164 -55.2575 249.744C-45.7648 240.585 -35.4324 238.354 -24.517 236.5C-13.0557 234.554 0.0573467 231.153 11.6567 224.207C27.5256 214.708 43.172 203.88 55.05 193.233C71.7553 178.259 76.5438 160.782 90.9749 145.03C97.4118 138.004 104.018 132.587 120.106 133.835C149.725 136.134 178.921 138.649 205.597 144.746C247.641 154.354 271.3 170.405 280.872 194.893C290.097 218.499 326.407 222.364 358.243 235.596C370.263 240.592 382.445 247.921 396.061 252.691C441.578 268.635 466.721 286.015 474.728 316.075C478.91 331.773 465.56 352.352 445.817 365.897C443.806 365.843 442.763 365.747 440.615 365.446C464.214 353.587 473.122 334.027 470.45 318.645C465.118 287.972 440.477 269.528 394.136 254.137C380.97 249.763 368.689 243.206 356.772 238.628C321.847 225.209 285.969 222.421 276.133 196.672C266.789 172.218 243.237 158.408 203.312 148.797C178.908 142.921 149.573 138.299 121.571 135.693C106.809 134.322 103.312 139.646 96.2321 145.359C80.7591 157.842 75.9208 176.582 61.089 189.586C48.1109 200.961 31.1756 213.033 14.7466 222.916C2.73789 230.139 -9.52663 234.902 -26.2064 238.368C-32.3812 239.651 -39.7913 238.595 -53.7812 253.114C-67.1991 267.043 -77.0309 283.045 -86.9959 296.478C-93.2129 304.859 -114.782 308.089 -126.723 303.566C-140.326 298.411 -152.212 290.676 -161.204 282.441C-175.123 269.694 -188.769 256.615 -221.443 261.135C-221.874 261.195 -222.371 261.252 -222.771 261.349C-244.662 266.671 -252.811 285.386 -260.523 296.557C-269.626 309.747 -286.76 320.911 -299.11 332.929C-314.237 347.647 -302.383 371.959 -297.236 387.393C-291.768 403.756 -286.609 432.121 -259.842 441.788Z" fill="url(#paint8_linear_3803_1355)"/>
<path d="M-256.72 443.742C-258.013 443.043 -258.67 442.681 -260.134 441.895C-282.062 432.776 -286.007 410.918 -290.939 396.77C-296.767 380.06 -304.575 361.272 -300.529 344.595C-297.353 331.499 -272.865 321.043 -262.888 308.232C-253.192 295.784 -244.396 267.591 -215.85 263.211C-184.136 258.344 -166.807 278.571 -153.615 290.125C-146.367 296.476 -134.198 302.986 -121.817 306.372C-110.155 309.562 -94.3607 306.815 -86.5818 300.398C-71.8209 288.215 -64.4246 272.475 -53.5628 260.065C-47.2143 252.811 -38.1681 243.696 -22.6428 239.916C-10.7 237.009 0.938123 233.036 12.0561 225.635C25.8366 216.459 38.983 206.735 51.8822 197.262C70.8719 183.315 84.0929 169.149 99.083 153.884C104.956 147.906 110.306 139.353 124.608 140.661C151.294 143.096 177.367 154.471 202.616 160.598C243.054 170.412 263.998 180.641 275.961 203.781C287.514 226.126 318.628 231.492 352.762 242.088C365.329 245.987 377.215 251.534 390.361 255.526C436.278 269.473 461.952 292.437 467.208 321.326C469.756 335.323 462.907 354.597 439.984 364.991C437.817 364.67 436.702 364.449 434.424 363.915C461.505 355.057 464.11 337.357 462.795 323.61C460.152 295.932 433.613 269.567 388.281 256.606C376.224 253.16 362.479 247.886 351.157 245.135C311.895 235.608 281.178 228.271 271.208 205.2C262.035 183.974 235.392 172.444 199.072 163.668C174.495 157.732 150.88 145.97 126.094 143.023C113.79 141.557 108.328 149.172 102.842 154.536C88.66 168.399 74.9466 181.379 57.2859 194.058C43.2398 204.14 29.4448 214.965 15.1469 224.71C4.53129 231.945 -8.93767 239.018 -24.1238 242.64C-30.238 244.096 -38.5432 245.883 -51.3774 262.267C-61.2407 274.855 -68.6424 289.345 -83.0951 300.863C-93.5795 309.22 -107.169 311.103 -122.455 307.377C-136.268 304.008 -149.41 296.93 -157.755 290.235C-170.79 279.771 -186.662 261.547 -216.392 265.368C-216.818 265.423 -217.287 265.486 -217.702 265.576C-240.322 270.559 -247.09 292.921 -255.234 303.189C-264.529 314.913 -280.556 326.194 -290.671 337.381C-304.687 352.878 -293.962 376.831 -289.114 392.816C-284.434 408.231 -280.482 433.723 -256.72 443.742Z" fill="url(#paint9_linear_3803_1355)"/>
<path d="M-253.815 445.446C-255.07 444.809 -255.701 444.48 -257.022 443.778C-275.556 434.43 -279.373 414.837 -284.049 401.671C-289.968 385.003 -298.348 365.611 -292.216 348.825C-287.536 336.016 -267.498 323.642 -256.608 311.173C-246.896 300.044 -234.325 270.697 -210.428 268.098C-184.789 265.312 -164.5 286.799 -150.129 296.255C-140.249 302.759 -128.346 307.272 -117.428 309.584C-105.572 312.096 -91.2028 309.458 -82.6159 303.892C-67.225 293.921 -59.3592 280.912 -50.3278 269.362C-44.2202 261.552 -36.0439 249.206 -20.3441 245.5C-9.09392 242.843 2.93166 236.129 12.6356 228.57C24.4897 219.337 35.9345 209.731 48.4536 200.785C60.9859 191.829 111.944 146.707 129.167 149.744C152.722 153.891 174.287 165.401 201.971 171.139C239.824 178.978 261.66 191.303 271.101 211.963C280.48 232.479 309.858 241.556 346.858 248.914C358.931 251.318 372.224 254.505 384.352 257.658C429.69 269.45 452.166 299.558 459.395 325.718C463.095 339.101 459.885 355.681 433.736 363.397C431.438 362.847 430.264 362.522 427.872 361.796C434.843 360.032 446.777 358.725 451.067 354.358C458.341 346.957 456.803 335.647 454.789 327.983C447.981 302.047 426.417 269.971 382.147 258.578C370.615 255.609 357.281 253.985 344.917 251.923C305.556 245.353 275.363 234.567 266.145 213.476C257.631 194.002 233.702 181.935 198.789 174.407C171.864 168.6 151.492 156.83 130.52 153.101C114.964 150.337 64.5731 190.19 53.179 198.188C39.6449 207.693 27.5738 218.269 15.8095 228.458C6.99688 236.086 -6.93863 246.499 -21.5676 249.994C-34.8257 253.163 -41.6995 264.376 -47.9672 272.178C-56.5212 282.831 -64.4851 295.491 -79.1498 304.511C-90.0824 311.235 -103.519 313.154 -117.962 310.419C-131.496 307.857 -145.427 302.01 -154.414 296.132C-168.389 286.998 -185.687 269.833 -210.833 270.745C-211.221 270.758 -211.731 270.82 -212.118 270.908C-232.774 275.608 -241.402 297.809 -251.204 308.627C-261.32 319.792 -273.451 331.274 -282.226 342.216C-295.497 358.765 -286.22 381.786 -281.268 398.722C-277.192 412.659 -274.121 435.802 -253.815 445.446Z" fill="url(#paint10_linear_3803_1355)"/>
<path d="M-250.973 446.947C-252.234 446.359 -252.858 446.051 -254.137 445.411C-268.946 435.75 -272.148 418.998 -276.573 406.579C-282.318 390.447 -291.299 369.986 -283.637 353.873C-277.361 340.68 -263.71 326.432 -251.681 313.489C-243.216 304.381 -222.089 275.172 -204.475 275.035C-183.188 274.87 -162.546 292.78 -146.198 301.274C-135.335 306.915 -123.363 310.708 -112.904 312.211C-100.965 313.928 -87.8579 311.748 -78.5217 307.355C-63.3829 300.237 -55.1106 289.222 -46.8797 279.814C-40.6301 272.673 -32.1376 259.823 -17.605 257.181C-2.59212 254.449 7.41352 241.823 13.8256 234.839C23.1804 224.649 33.2534 214.175 45.2091 204.982C59.2416 194.195 112.132 158.197 132.613 163.718C156.226 170.079 183.366 182.799 215.126 190.938C240.413 197.415 261.311 204.602 265.854 220.76C271.401 240.473 305.513 251.324 340.012 255.872C353.209 257.616 366.664 257.347 378.02 259.751C422.173 269.113 443.573 305.587 451.234 330.092C453.481 337.279 455.586 347.568 449.627 354.83C446.681 358.415 431.885 360.089 427.127 361.272C424.725 360.534 423.501 360.121 421.027 359.245C425.712 358.495 441.271 358.992 444.203 356.306C451.506 349.613 448.606 338.568 446.315 331.61C438.793 308.729 418.887 268.532 375.663 260.992C364.593 259.063 351.192 260.439 337.678 258.951C297.914 254.571 267.994 242.264 260.96 222.647C256.139 209.191 237.156 200.981 214.199 195.448C182.531 187.816 158.523 176.591 133.12 168.872C109.863 161.807 63.019 192.767 49.4004 203.216C36.5418 213.082 26.1759 224.83 17.2952 236.211C10.3204 245.145 2.02741 262.642 -18.5424 264.577C-24.7398 265.16 -31.9806 269.495 -44.4616 283.297C-52.1805 291.832 -60.6012 302.275 -75.0663 308.489C-86.5125 313.406 -98.9512 314.788 -113.345 313.026C-124.876 311.613 -140.959 306.045 -150.524 301.098C-165.671 293.268 -186.803 277.283 -205 278.638C-216.091 279.464 -228.546 292.994 -235.141 299.278C-254.248 317.48 -270.745 336.974 -278.755 356.746C-285.55 373.51 -277.201 393.511 -271.58 410.08C-267.449 422.221 -264.605 437.232 -250.973 446.947Z" fill="url(#paint11_linear_3803_1355)"/>
<path d="M-248.101 448.283C-249.416 447.721 -250.053 447.436 -251.328 446.835C-263.792 437.437 -266.095 422.327 -269.59 410.997C-274.529 394.989 -281.636 376.454 -274.944 360.056C-268.981 345.449 -261.083 329.478 -248.516 315.338C-239.952 305.699 -218.206 283.352 -200.079 283.411C-179.763 283.479 -158.613 298.399 -141.573 305.63C-129.796 310.628 -117.915 313.679 -108.324 314.519C-96.5608 315.552 -84.2081 314.386 -74.2066 311.527C-63.5454 308.477 -53.1495 301.487 -43.2317 292.189C-29.6838 279.488 -20.6637 275.779 -14.2971 276.089C3.09924 276.934 11.6247 255.212 15.8892 247.923C23.2535 235.328 30.5559 222.307 42.7086 211.045C58.4594 196.448 100.837 166.801 133.694 182.088C160.461 194.536 183.696 203.168 218.554 208.813C240.985 212.444 255.887 218.253 260.818 230.907C267.743 248.676 293.848 259.686 332.038 263.075C346.421 264.35 359.839 262.184 371.387 263.056C414.12 266.281 435.197 312.503 442.262 332.928C445.022 340.899 448.602 350.765 441.758 356.734C439.491 358.709 423.159 358.277 420.258 358.708C417.774 357.824 416.514 357.353 413.979 356.368C416.53 356.262 433.647 358.375 435.813 357.07C443.813 352.261 439.322 341.255 436.65 333.452C430.304 314.944 409.317 266.003 368.931 265.063C357.552 264.797 343.94 267.401 329.211 266.206C289.639 263.001 267.288 252.756 256.322 233.207C249.456 220.968 241.196 216.711 218.143 214.162C182.351 210.204 160.241 202.703 134.161 187.921C101.685 169.514 62.8387 194.689 46.7485 210.446C33.5904 223.334 26.9781 238.498 19.5742 252.782C15.7482 260.163 5.61733 288.658 -14.9881 285.588C-21.1069 284.679 -28.7158 286.912 -40.7024 296.957C-50.3419 305.034 -60.4439 311.06 -70.7352 313.514C-82.6229 316.348 -94.575 316.537 -108.666 315.461C-120.055 314.59 -132.997 310.921 -145.812 305.548C-161.356 299.031 -180.525 285.705 -201.885 286.06C-211.884 286.225 -225.228 296.182 -233.508 302.538C-257.255 320.759 -263.794 342.589 -270.599 363.01C-276.248 379.972 -270.06 398.322 -265.165 414.783C-261.974 425.469 -260.087 439.527 -248.101 448.283Z" fill="url(#paint12_linear_3803_1355)"/>
<path d="M-245.119 449.484C-246.517 448.936 -247.191 448.659 -248.511 448.083C-271.356 428.944 -275.53 389.214 -267.329 366.298C-261.63 350.375 -257.695 333.01 -246.766 317.435C-239.032 306.423 -218.017 289.64 -198.852 289.319C-178.307 288.973 -154.955 302.977 -136.299 309.662C-123.876 314.112 -112.208 316.491 -103.757 316.911C-92.5375 317.469 -79.9798 318.121 -69.5993 317.207C-59.3399 316.302 -49.042 312.867 -39.3352 307.177C-26.2015 299.482 -17.3384 298.88 -10.5127 301.019C6.50367 306.356 16.5963 277.023 18.7394 271.889C25.7129 255.19 30.2866 236.601 41.9367 220.83C62.781 192.606 94.7524 180.934 134.558 202.046C159.84 215.453 174.199 226.832 213.935 225.54C241.515 224.644 252.201 227.763 257.418 242.251C263.736 259.81 291.872 266.99 322.662 270.347C337.679 271.985 353.566 268.809 364.569 268.529C401.867 267.583 425.156 316.475 432.014 333.862C434.777 340.869 440.684 352.83 433.305 357.023C431.753 357.905 414.625 355.771 413.19 355.815C410.651 354.831 409.368 354.318 406.796 353.275C410.413 353.303 425.857 357.496 427.613 356.707C435.005 353.393 428.122 340.176 425.58 333.709C418.853 316.605 395.38 270.01 362.066 271.6C351.825 272.089 334.722 275.126 319.32 273.418C288.402 269.989 258.045 262.58 253.069 244.692C249.031 230.172 238.674 230.962 213.748 232.284C174.627 234.359 158.896 221.407 135.162 208.134C96.9339 186.753 66.2994 191.813 46.4377 222.086C34.6565 240.047 29.906 260.724 22.6478 279.568C20.4974 285.143 7.88578 319.657 -11.008 311.627C-17.8475 308.722 -24.9083 308.17 -36.6606 313.363C-47.9465 318.35 -57.3957 320.193 -66.0778 320.358C-77.6756 320.579 -91.458 318.847 -103.963 318.147C-113.804 317.598 -126.668 314.669 -140.325 309.789C-158.207 303.405 -179.336 291.251 -201.525 291.139C-210.646 291.095 -225.929 298.756 -233.887 304.983C-257.421 323.4 -257.766 348.679 -263.648 369.341C-269.905 391.348 -269.652 431.925 -245.119 449.484Z" fill="url(#paint13_linear_3803_1355)"/>
<path d="M-241.971 450.574C-243.481 450.027 -244.202 449.753 -245.601 449.188C-266.752 431.008 -267.66 394.471 -260.802 372.764C-255.399 355.652 -252.865 337.936 -245.011 320.94C-239.553 309.124 -220.596 292.751 -198.918 293.74C-175.792 294.792 -151.95 306.941 -130.523 313.628C-117.772 317.604 -107.086 319.668 -99.2067 319.955C-87.9807 320.364 -75.3446 323.721 -64.6071 325.123C-55.8686 326.261 -46.31 326.628 -35.1691 324.721C-22.2615 322.513 -13.6156 325.144 -6.434 329.291C10.4156 339.03 21.1074 306.433 22.1915 303.492C29.7333 283.021 34.3244 260.866 43.0645 240.374C47.4482 230.095 54.6839 206.471 77.998 201.96C100.675 197.57 123.903 214.923 135.487 221.985C157.415 235.362 181.17 256.996 220.107 247.038C233.462 243.622 256.994 239.495 250.646 251.896C243.831 265.206 297.311 275.337 311.852 277.362C324.796 279.165 345.43 277.918 357.651 276.744C388.912 273.735 413.209 317.358 420.437 332.911C422.917 338.249 431.83 353.359 424.767 356.324C423.501 356.856 409.226 352.692 405.988 352.757C403.416 351.718 402.122 351.184 399.54 350.13C400.566 350.236 416.318 354.64 417.584 354.348C424.916 352.651 416.03 336.99 413.935 332.079C408.075 318.349 389.164 277.625 355.064 280.828C340.398 282.204 321.62 282.258 308.091 280.292C296.293 278.582 234.211 267.324 245.891 254.125C251.579 247.695 235.197 247.233 225.094 253.359C193.03 272.801 151.898 237.551 136.188 227.813C126.166 221.599 101.258 201.791 79.7159 205.716C57.5505 209.756 51.067 235.892 47.6395 244.457C38.8954 266.318 34.0248 290.034 26.1462 311.991C24.6222 316.244 11.3056 351.267 -6.84743 339.631C-13.9238 335.097 -21.0148 331.68 -32.3657 332.178C-43.0581 332.646 -52.4107 331.744 -61.0246 329.694C-73.5183 326.714 -86.1773 322.3 -99.2673 321.733C-108.373 321.339 -120.191 318.615 -134.239 314.123C-155.058 307.471 -177.09 296.809 -201.718 295.256C-212.62 294.568 -227.231 301.069 -234.306 308.028C-254.279 327.671 -252.314 354.767 -257.619 376.085C-262.919 397.333 -264.015 433.009 -241.971 450.574Z" fill="url(#paint14_linear_3803_1355)"/>
<path d="M-238.641 451.558C-240.278 451.008 -241.059 450.73 -242.566 450.165C-260.732 432.215 -260.942 400.408 -255.108 379.74C-250.157 362.189 -245.792 344.153 -241.305 326.722C-238.535 315.951 -225.448 294.413 -197.495 298.282C-170.793 301.98 -148.18 311.167 -124.395 317.916C-111.319 321.626 -101.9 323.237 -94.5897 324.754C-83.6045 327.035 -70.3266 331.866 -59.1756 335.824C-50.5949 338.875 -41.225 342.007 -30.8067 344.054C-18.3555 346.497 -9.41361 353.337 -2.43427 356.41C13.2534 363.317 22.7621 343.178 25.6916 335.959C34.1227 315.178 38.0958 292.44 44.7484 271.158C48.1361 260.317 52.8691 225.873 77.4035 218.721C99.6239 212.24 125.954 234.373 136.167 240.75C151.39 250.256 183.677 276.515 214.263 268.717C226.099 265.701 229.32 256.781 241.297 254.834C242.862 256.309 242.155 257.795 239.581 259.271C219.052 271.066 291.397 282.823 300.024 283.974C315.35 286.02 333.133 286.838 350.042 286.679C385.073 286.348 400.6 315.948 408.353 331.041C409.616 333.495 421.078 365.857 398.702 349.622C396.121 348.571 394.828 348.046 392.252 347.017C412.835 363.521 402.562 332.014 401.338 329.526C394.375 315.36 380.162 291.161 346.881 290.856C329.713 290.7 311.845 289.061 296.208 286.87C288.302 285.762 212.787 271.327 234.948 261.548C237.371 260.48 238.577 259.495 237.151 258.527C228.316 263.511 222.929 271.016 210.325 273.558C182.712 279.132 151.193 256.042 136.267 246.861C126.131 240.626 101.486 220.295 80.1659 226.608C57.2753 233.386 52.7295 265.401 49.2544 276.559C42.4769 298.334 39.5611 321.637 29.5021 342.936C27.788 346.562 16.1199 376.836 -2.87924 364.992C-9.57535 360.82 -17.076 355.308 -27.9289 352.154C-37.9133 349.254 -47.1865 345.626 -55.5521 341.8C-67.026 336.547 -80.3043 330.587 -94.5186 327.368C-102.9 325.469 -113.375 323.296 -127.707 318.954C-150.515 312.04 -173.683 302.423 -199.843 299.95C-212.566 298.748 -226.149 304.493 -232.159 312.53C-248.133 333.896 -246.813 361.079 -252.275 383.434C-257.113 403.233 -258.665 434.997 -238.641 451.558Z" fill="url(#paint15_linear_3803_1355)"/>
<path d="M-235.116 452.437C-236.889 451.884 -237.737 451.599 -239.367 451.026C-256.107 434.737 -255.621 405.908 -249.931 387.335C-244.575 369.857 -241.34 351.475 -236.012 334.064C-232.706 323.251 -224.985 298.835 -193.324 303.887C-166.99 308.089 -141.911 315.912 -117.939 323.191C-105.005 327.122 -96.6891 329.252 -89.603 331.898C-76.4786 336.803 -64.3889 343.201 -53.2574 349.279C-45.2073 353.68 -35.8912 359.091 -26.3598 363.374C-14.5243 368.694 -5.77997 374.757 1.12193 377.326C18.283 383.719 25.5078 367.352 28.6823 361.806C38.3015 345.014 41.434 325.629 46.5418 307.686C50.7698 292.838 52.8924 256.981 77.7713 245.303C98.5333 235.561 121.632 252.584 134.187 259.124C149.818 267.265 182.077 285.898 208.112 279.882C220.371 277.05 226.821 269.666 232.161 263.459C230.016 264.082 228.518 265.164 227.465 266.429C214.709 281.73 273.386 288.769 288.431 290.702C305.437 292.889 323.209 295.168 340.96 295.984C372.791 297.454 387.407 313.846 395.494 328.058C397.76 332.041 416.681 357.449 391.41 346.555C388.836 345.539 387.554 345.039 385.004 344.086C389.768 346.184 393.26 345.881 398.547 348.605C390.527 326.303 383.51 303.237 337.32 299.384C320.182 297.957 302.464 295.661 285.211 293.725C267.972 291.791 206.646 283.027 223.488 269.067C224.438 268.277 226.116 267.394 227.428 266.558C221.458 298.524 152.457 272.826 133.802 263.426C121.113 257.036 100.581 242.528 80.2347 252.256C56.8308 263.441 54.8592 298.956 50.8206 312.586C45.6102 330.179 42.4846 349.712 32.2051 365.506C28.7077 370.882 16.6339 386.866 0.518308 382.603C-5.92129 380.9 -13.3212 375.772 -23.5119 370.919C-32.6065 366.588 -41.4216 361.111 -49.6418 356.162C-62.0408 348.698 -74.3491 340.665 -89.4646 334.768C-97.5956 331.594 -106.615 329.807 -120.74 325.113C-143.608 317.511 -167.951 309.329 -194.927 306.019C-246.087 299.735 -243.28 377.216 -247.291 391.371C-252.372 409.355 -253.595 437.218 -235.116 452.437Z" fill="url(#paint16_linear_3803_1355)"/>
<path d="M-231.423 453.187C-233.323 452.64 -234.241 452.351 -235.998 451.767C-250.606 436.833 -251.296 412.159 -244.975 395.446C-238.542 378.44 -235.862 360.023 -229.563 342.863C-225.839 332.714 -217.025 305.931 -186.217 310.99C-160.315 315.244 -134.713 322.629 -111.16 330.124C-98.7294 334.082 -90.8033 336.74 -84.3158 340.348C-71.1497 347.673 -58.8876 355.893 -46.9012 364.065C-38.9431 369.492 -30.4866 375.294 -22.0484 379.563C-11.0223 385.14 -2.88531 388.034 3.91954 388.018C12.6176 387.995 19.4046 388.699 30.7504 375.715C40.1323 364.978 43.679 353.008 47.7028 341.676C54.9806 321.186 66.5776 244.055 131.398 272.011C151.219 280.56 213.16 301.339 221.74 271.428C218.387 271.114 217.917 272.934 217.854 275.75C217.496 291.817 254.603 296.978 278.644 297.797C295.884 298.384 313.33 300.98 330.221 302.897C378.268 308.356 383.183 323.887 395.432 347.68C390.048 344.328 389.718 346.084 384.169 343.669C381.625 342.733 380.356 342.28 377.858 341.45C382.689 343.499 383.26 342.137 388.075 345.277C374.696 321.905 372.169 310.539 325.46 304.761C309.863 302.833 292.447 300.739 276.296 301.056C249.905 301.578 207.611 295.969 214.695 278.777C215.218 277.511 216.356 276.008 217.184 274.627C222.28 302.203 143.408 280.006 130.921 275.391C71.1147 253.279 58.5505 326.901 51.6256 344.507C47.564 354.831 43.5281 366.247 33.9783 376.048C25.3998 384.855 13.7407 389.096 3.14573 389.787C-3.26648 390.204 -9.94782 388.288 -19.3324 384.024C-27.3798 380.369 -35.8004 375.079 -43.6107 369.801C-56.76 360.915 -69.786 351.81 -84.3314 343.583C-91.864 339.325 -99.7975 337.047 -113.356 332.643C-136.142 325.244 -160.129 316.885 -186.956 313.851C-234.538 308.469 -237.122 385.288 -242.361 399.688C-248.281 416.022 -247.572 439.273 -231.423 453.187Z" fill="url(#paint17_linear_3803_1355)"/>
<path d="M-227.6 453.768C-229.615 453.24 -230.594 452.955 -232.483 452.364C-245.855 438.95 -246.704 418.944 -239.952 403.77C-232.627 387.308 -229.186 369.389 -221.576 352.971C-217.398 343.949 -205.107 315.083 -176.429 320.062C-150.74 324.521 -127.408 330.769 -104.265 337.817C-92.7657 341.321 -85.9707 345.677 -79.9444 349.618C-67.0461 358.058 -54.1572 366.616 -41.0971 374.968C-33.6311 379.746 -25.6258 384.35 -18.3183 387.305C-8.11502 391.43 -0.503911 391.651 6.06211 390.159C14.6171 388.213 21.059 386.987 32.0982 380.011C36.8612 377.001 42.1662 372.314 47.3779 364.083C57.0626 348.768 75.1075 270.133 128.493 282.738C147.548 287.238 205.161 303.391 212.163 280.126C212.255 283 212.782 285.926 213.193 288.687C215.634 305.006 244.633 309.947 271.53 306.164C285.762 304.165 304.026 304.897 317.333 306.727C333.024 308.888 364.327 311.376 369.233 321.342C372.875 328.745 379.793 336.717 385.613 344.327C382.656 342.208 379.791 341.124 377.032 341.094C374.55 340.301 373.318 339.889 370.932 339.472C373.294 339.59 375.781 340.565 378.339 342.328C372.582 334.927 367.393 327.293 362.122 319.983C355.708 311.091 327.48 309.728 312.519 308.207C298.097 306.744 281.706 307.524 270.305 310.11C237.211 317.613 213.117 305.237 210.628 291.871C210.205 289.608 210.413 286.497 209.043 283.999C200.748 303.423 145.065 288.328 127.978 285.821C77.2748 278.377 62.0247 348.035 50.8978 364.196C45.6808 371.77 39.9558 376.185 35.2023 378.959C26.2863 384.159 15.3629 387.508 5.2463 390.097C-0.951431 391.682 -7.34198 391.84 -15.9731 388.98C-22.9723 386.663 -30.9409 382.64 -38.3393 378.302C-52.8757 369.774 -66.6706 360.726 -80.6338 351.861C-87.4501 347.533 -93.9358 344.242 -106.015 340.697C-128.23 334.177 -151.195 325.812 -176.168 323.886C-220.732 320.444 -229.988 392.573 -237.19 407.992C-244.166 422.931 -241.711 441.028 -227.6 453.768Z" fill="url(#paint18_linear_3803_1355)"/>
<path d="M-223.871 453.86C-225.929 453.439 -226.936 453.218 -228.876 452.749C-239.082 441.25 -243.392 424.368 -234.575 411.71C-224.133 396.718 -220.235 379.19 -211.838 363.825C-206.488 354.035 -192.745 327.171 -164.67 330.922C-141.669 333.998 -120.247 339.5 -98.6942 344.944C-89.128 347.359 -82.4758 353.343 -76.9282 356.982C-64.0972 365.401 -50.2796 373.611 -35.5764 381.049C-28.4663 384.648 -21.4795 387.52 -15.3113 389.171C-5.8336 391.71 1.19702 390.225 7.91407 388.154C16.4245 385.527 22.9683 383.932 33.1594 380.096C36.746 378.744 41.0422 376.764 45.1466 373.606C66.7054 357.002 81.4317 295.225 125.535 293.622C149.84 292.737 185.898 303.948 205.71 290.921C209.159 295.097 211.044 300.016 213.025 304.143C218.556 315.669 240.119 327.156 267.496 316.663C277.618 312.784 290.93 310.055 305.034 310.398C353.421 311.575 352.055 319.886 376.105 341.466C374.002 340.186 372.009 339.464 370.157 339.34C367.778 338.949 366.608 338.802 364.331 338.63C365.834 338.558 367.498 339.089 369.282 340.19C347.822 319.942 346.408 310.379 300.972 312.376C288.205 312.934 276.48 316.879 267.311 321.367C238.396 335.521 215.326 318.683 210.398 307.185C203.721 291.606 205.994 298.46 190.696 298.194C169.705 297.827 144.944 294.664 125.006 297.124C83.1911 302.286 72.8144 355.184 48.409 372.542C44.238 375.509 39.9085 377.364 36.2226 378.646C24.3167 382.788 16.0225 384.535 7.1704 387.228C0.881604 389.143 -5.12511 390.595 -13.0569 389.049C-18.989 387.893 -25.9383 385.554 -32.9935 382.47C-49.2797 375.345 -64.1496 366.987 -77.967 358.424C-84.3064 354.495 -90.6099 349.481 -100.75 347.16C-121.661 342.366 -142.695 336.903 -164.454 334.888C-164.799 334.854 -165.241 334.837 -165.605 334.853C-208.158 336.865 -215.637 388.357 -225.214 404.967C-228.379 410.456 -234.341 415.195 -235.61 420.652C-238.426 432.669 -233.664 443.723 -223.871 453.86Z" fill="url(#paint19_linear_3803_1355)"/>
<path d="M-220.182 453.62C-222.344 453.185 -223.398 452.96 -225.447 452.477C-233.129 443.022 -240.489 426.504 -228.619 418.006C-206.848 402.422 -205.511 339.143 -153.602 341.105C-133.804 341.855 -111.765 345.979 -95.4648 350.379C-87.6575 352.484 -79.7004 359.555 -74.4356 362.642C-61.0846 370.466 -45.9512 377.831 -29.235 383.462C-23.1426 385.515 -17.3245 386.889 -12.4445 387.544C-3.71729 388.718 3.12851 386.498 9.71885 384.602C17.8855 382.251 24.9177 380.726 34.1445 378.561C36.16 378.088 38.5274 377.499 40.8333 376.667C83.1734 361.388 81.1894 319.61 122.624 307.039C139.395 301.954 166.482 302.701 185.587 303.397C207.706 304.207 205.277 306.57 213.84 320.164C220.709 331.06 243.341 343.03 265.962 329.183C274.358 324.046 284.533 317.221 295.044 315.883C309.48 314.041 334.81 313.198 343.863 317.179C352.046 320.775 360.815 330.88 363.547 338.608C361.281 338.47 360.174 338.462 358.046 338.587C352.805 331.122 345.464 320.769 337.332 317.4C328.855 313.887 305.125 315.929 292.185 318.907C282.817 321.061 274.225 329.408 266.383 334.379C242.84 349.302 218.14 335.317 210.882 323.118C203.869 311.327 203.892 307.194 182.269 305.887C163.98 304.782 136.621 305.682 122.132 311.537C87.7537 325.431 85.3419 361.543 43.9162 375.408C41.5191 376.212 39.2176 376.804 37.1931 377.283C26.325 379.852 17.5245 381.421 9.08615 383.598C2.8941 385.196 -2.97525 387.02 -10.1498 386.512C-14.8449 386.178 -20.5796 385.208 -26.6256 383.56C-44.8738 378.591 -61.2383 371.306 -75.5956 363.501C-81.665 360.199 -89.6145 353.638 -97.6861 351.924C-114.745 348.303 -135.072 345.551 -153.781 344.641C-154.087 344.626 -154.49 344.627 -154.816 344.657C-199.829 348.795 -200.211 396.213 -217.266 413.572C-220.602 416.966 -228.792 419.846 -230.079 423.073C-234.357 433.802 -228.691 444.492 -220.182 453.62Z" fill="url(#paint20_linear_3803_1355)"/>
<path d="M-216.475 453.194C-218.732 452.746 -219.839 452.507 -221.983 452.005C-226.792 445.091 -237.339 427.282 -221.751 422.582C-182.342 410.708 -198.618 350.059 -143.851 349.516C-128.128 349.359 -106.401 350.666 -93.3534 355.198C-85.4437 357.944 -76.8804 364.444 -71.7588 366.906C-57.1205 373.939 -39.8906 380.314 -20.9259 383.5C-16.6691 384.218 -12.6302 384.551 -9.33306 384.634C-1.46643 384.826 5.19945 382.938 11.6869 381.696C19.8967 380.126 27.3038 378.955 35.2545 377.31C73.185 369.44 98.9126 339.487 120.276 324.384C151.729 302.149 207.854 314.533 214.526 336.689C219.113 351.915 249.388 351.969 265.553 342.713C273.458 338.186 279.908 327.951 288.29 324.293C300.45 318.984 322.957 314.869 332.18 317.512C340.938 320.021 349.04 331.582 357.322 338.674C355.212 338.842 354.193 338.992 352.252 339.46C342.924 333.256 336.178 322.834 327.215 319.692C317.139 316.163 296.639 322.59 286.692 328.564C279.122 333.113 273.72 343.556 265.862 347.857C242.492 360.648 218.714 353.742 211.091 339.41C198.953 316.607 150.91 308.49 120.113 329.474C98.4986 344.201 73.2753 368.095 38.3339 376.656C28.8663 378.975 19.6961 380.138 11.2411 381.335C5.12214 382.199 -0.62017 383.438 -6.91218 383.597C-10.0698 383.677 -14.0127 383.55 -18.1961 383.049C-38.4502 380.627 -57.0734 374.415 -72.7948 367.436C-78.7365 364.8 -87.6351 358.506 -95.6982 356.19C-108.917 352.396 -129.345 351.508 -144.377 352.464C-184.58 355.022 -189.929 402.153 -207.622 419.04C-212.115 423.331 -221.887 422.458 -223.794 425.668C-229.284 434.877 -223.371 444.964 -216.475 453.194Z" fill="url(#paint21_linear_3803_1355)"/>
<path d="M-212.749 452.595C-215.097 452.123 -216.247 451.874 -218.491 451.35C-222.172 445.122 -230.568 428.664 -213.17 426.1C-194.276 423.317 -188.947 399.823 -183.178 390.815C-175.057 378.129 -162.107 358.232 -135.622 355.824C-122.926 354.67 -101.72 354.672 -91.4612 359.555C-83.7164 363.238 -73.3446 368.365 -68.2939 370.288C-51.333 376.758 -31.0036 382.26 -9.01766 382.758C-7.71978 382.751 -7.08354 382.735 -5.83672 382.676C0.995012 382.348 7.54707 381.685 13.9446 381.379C22.2194 380.984 29.6286 380.253 36.5972 378.045C67.5999 368.227 95.3604 355.232 119.243 339.916C160.139 313.691 196.58 330.267 214.246 353.024C225.308 367.275 240.355 365.743 263.786 355.558C272.967 351.566 277.902 341.853 284.571 335.807C292.897 328.256 310.972 318.374 322.765 321.209C332.556 323.562 339.456 334.857 351.566 339.68C349.647 340.194 348.732 340.533 347.018 341.379C339.329 341.361 323.106 326.516 319.309 325.27C306.763 321.156 290.39 334.121 283.887 341.134C279.068 346.332 273.002 355.028 263.235 360.312C243.805 370.826 214.643 372.295 210.316 355.432C207.462 344.309 189.817 336.786 174.056 330.84C155.385 323.795 132.413 334.75 119.202 343.066C96.4896 357.357 67.4972 367.168 39.7505 378.384C31.2979 381.799 22.236 382.495 13.7492 382.344C7.69381 382.236 1.96534 382.171 -3.30702 382.597C-4.49451 382.696 -5.10611 382.727 -6.34931 382.773C-29.4065 382.835 -51.008 377.251 -69.0135 370.79C-74.8753 368.687 -84.9214 363.765 -93.7322 360.236C-104.877 355.767 -118.595 356.205 -136.469 358.149C-136.701 358.176 -136.98 358.202 -137.22 358.247C-180.205 366.461 -180.56 402.435 -198.58 421.052C-212.73 435.679 -227.815 433.179 -212.749 452.595Z" fill="url(#paint22_linear_3803_1355)"/>
<path d="M-208.998 451.848C-211.428 451.348 -212.626 451.081 -214.952 450.529C-218.135 444.61 -219.147 430.421 -203.441 428.043C-187.058 425.564 -180.609 402.356 -174.341 392.733C-166.258 380.334 -154.549 364.292 -128.979 360.104C-112.01 357.325 -101.238 358.873 -89.0514 363.591C-79.699 367.212 -68.4491 372.004 -63.4947 373.598C-45.6164 379.342 -23.3855 385.12 -1.93914 384.014C3.45271 383.734 10.3629 384.634 16.6737 385.363C24.6356 386.283 32.4283 385.897 38.3529 382.285C60.8302 368.576 94.3727 362.414 118.181 350.181C157.771 329.837 200.86 344.117 212.661 368.642C219.479 382.811 245.501 376.687 259.955 367.78C269.563 361.858 278.426 355.042 282.658 349.585C289.058 341.334 302.774 326.492 315.625 327.941C319.063 328.326 339.053 341.674 346.418 341.744C344.727 342.645 343.935 343.178 342.464 344.437C333.233 346.541 317.542 334.631 313.058 333.766C301.943 331.618 288.15 347.62 282.053 355.321C277.988 360.454 268.171 366.235 258.568 372.165C241.045 382.981 215.307 386.123 208.328 370.69C197.389 346.51 158.4 336.059 118.098 352.567C92.0069 363.259 61.6191 370.426 41.5991 383.854C34.2729 388.766 25.2991 389.865 16.7768 388.261C10.8049 387.135 4.86779 385.976 0.62621 386.042C-22.2343 386.398 -42.8116 380.606 -61.2889 375.289C-62.1474 375.043 -62.9614 374.768 -63.7075 374.522C-69.4883 372.613 -81.188 368.001 -91.007 364.229C-102.677 359.75 -115.955 358.889 -130.051 361.889C-168.838 370.135 -174.775 401.749 -188.245 419.339C-199.949 434.605 -221.704 432.99 -208.998 451.848Z" fill="url(#paint23_linear_3803_1355)"/>
<path d="M-205.194 450.985C-207.707 450.443 -208.944 450.162 -211.348 449.573C-215.124 441.02 -207.333 432.218 -193.861 427.668C-160.433 416.39 -175.744 373.538 -123.817 362.834C-109.072 359.796 -98.0252 363.266 -85.4365 367.798C-74.768 371.642 -61.6341 376.904 -56.8486 378.438C-39.2751 384.062 -18.6741 390.684 2.32765 391.124C6.82587 391.221 13.4869 393.117 19.9255 394.393C27.8783 395.968 35.6494 395.191 40.5864 390.947C61.5286 372.949 84.4628 368.377 117.011 358.067C158.759 344.839 199.137 361.408 209.715 383.098C216.145 396.281 243.044 387.138 254.293 379.613C264.166 373.012 276.018 367.423 280.014 363.367C285.646 357.656 299.468 337.232 310.874 338.255C316.128 338.728 333.499 346.935 341.918 344.938C340.48 346.247 339.817 346.992 338.614 348.665C329.623 354.049 316.395 347.776 310.36 346.794C299.419 345.011 283.483 364.134 278.216 368.068C274.207 371.062 262.015 376.975 252.767 383.665C239.338 393.38 211.787 398.361 205.114 384.778C194.903 363.997 157.027 349.723 116.912 360.01C82.8467 368.745 63.4259 374.651 43.8707 393.293C37.6691 399.206 28.6709 400.115 20.2393 398.295C14.4258 397.039 8.54176 395.247 5.05157 395.153C-17.736 394.536 -38.0872 386.748 -56.2889 380.769C-61.7466 378.974 -75.7107 373.351 -86.9671 369.009C-99.3257 364.245 -110.648 361.259 -124.99 364.295C-125.133 364.324 -125.303 364.364 -125.46 364.402C-161.119 373.896 -164.532 401.462 -178.672 418.285C-188.476 429.957 -215.866 436.686 -205.194 450.985Z" fill="url(#paint24_linear_3803_1355)"/>
<path d="M-201.303 450.046C-203.894 449.458 -205.165 449.154 -207.639 448.526C-209.696 439.297 -197.797 430.754 -184.473 425.584C-150.953 412.573 -162.313 373.674 -120.116 365.406C-107.658 362.963 -89.3196 370.313 -79.9098 374.126C-67.9813 378.964 -52.0562 385.791 -47.7952 387.332C-31.6338 393.177 -14.0034 399.755 6.87848 400.872C10.7716 401.082 17.1097 403.042 23.3557 404.256C30.8916 405.716 39.0588 404.672 43.0077 401.09C62.8713 383.086 77.6095 369.907 115.901 364.698C154.864 359.397 193.475 378.267 205.634 396.074C212.777 406.535 239.732 396.092 248.544 390.12C258.532 383.354 269.141 376.342 274.243 374.116C276.322 373.206 280.198 370.829 283.726 368.322C295.76 359.768 296.748 353.122 306.99 352.123C312.111 351.621 319.04 355.653 326.715 353.785C329.838 353.027 337.056 349.819 338.164 349.317C336.993 351.04 336.387 351.907 335.568 354.116C335.828 353.259 338.36 365.801 316.36 363.357C301.402 361.696 297.759 363.632 281.875 373.241C277.943 375.618 274.029 377.153 271.779 377.92C266.763 379.629 256.591 386.672 247.099 393.237C236.474 400.586 207.802 409.526 200.975 397.433C190.74 379.303 151.532 363.832 115.854 366.532C80.8798 369.177 63.2532 387.61 46.1747 403.08C41.0622 407.712 32.0872 408.972 23.7402 407.333C18.0834 406.221 12.3869 404.489 9.56122 404.381C-11.6228 403.593 -29.9994 397.654 -46.4404 391.77C-51.1391 390.09 -66.4315 382.433 -80.2754 376.966C-91.2159 372.647 -106.77 365.595 -121.457 367.53C-121.545 367.541 -121.683 367.57 -121.793 367.6C-152.099 376.696 -154.501 401.989 -168.542 416.446C-179.373 427.594 -207.182 435.716 -201.303 450.046Z" fill="url(#paint25_linear_3803_1355)"/>
<path d="M-197.286 448.973C-199.891 448.456 -201.237 448.101 -203.775 447.426C-202.582 435.978 -184.61 428.997 -171.884 421.425C-153.066 410.224 -147.816 376.271 -116.129 371.538C-115.98 371.517 -115.783 371.519 -115.652 371.526C-98.782 372.229 -83.4267 380.147 -70.5986 385.572C-55.6268 391.904 -40.8333 398.942 -37.46 399.987C-23.202 404.409 -6.20002 408.854 11.4337 409.204C14.5088 409.266 20.4332 410.797 26.7551 411.725C33.8547 412.766 42.4051 411.413 45.3149 409.269C62.6064 396.546 82.8407 372.219 115.006 371.278C132.838 370.759 148.894 375.331 160.646 381.015C174.816 387.872 189.183 398.523 200.983 406.766C210.987 413.757 234.062 403.687 242.902 398.367C253.188 392.174 262.87 384.987 267.47 383.293C270.412 382.21 279.143 379.766 286.232 375.705C298.603 368.61 306.238 370.075 318.98 366.734C336.421 362.166 335.802 352.758 335.229 354.93C334.432 357.172 334.086 358.368 333.472 360.848C333.507 360.353 335.926 369.989 319.246 376.65C306.973 381.549 297.699 376.788 284.785 381.272C276.838 384.033 268.062 385.792 265.029 386.856C260.901 388.303 251.009 395.145 241.551 400.601C231.291 406.522 207.709 416.471 196.437 408.138C185.831 400.296 172.384 392.092 160.027 385.51C148.497 379.367 132.484 373.916 114.922 373.704C87.3945 373.37 62.57 400.938 48.399 410.864C44.4867 413.606 35.8608 415.013 27.2283 413.91C21.9955 413.24 16.2106 411.99 14.0995 412.026C-3.56264 412.323 -20.8855 409.094 -35.6407 405.081C-39.1523 404.126 -53.0426 397.896 -68.9327 391.097C-82.3243 385.364 -98.0984 376.834 -115.423 375.657C-115.507 375.651 -115.639 375.644 -115.727 375.659C-140.326 379.81 -143.668 405.125 -157.338 415.287C-171.915 426.117 -198.81 433.596 -197.286 448.973Z" fill="url(#paint26_linear_3803_1355)"/>
<path d="M-193.344 447.498C-195.865 447.092 -197.132 446.848 -199.682 446.244C-194.803 434.587 -177.316 426.289 -161.342 419.593C-144.706 412.622 -131.136 385.942 -105.522 385.137C-105.386 385.13 -105.21 385.164 -105.086 385.189C-87.9498 388.965 -72.8151 396.051 -57.943 401.894C-43.1288 407.715 -29.5052 412.353 -27.0132 412.923C-11.2356 416.528 3.59122 416.416 16.0166 415.872C18.3755 415.768 23.1228 416.463 30.161 416.908C36.8132 417.331 45.5257 416.545 47.6376 415.571C64.6022 407.772 89.4175 381.57 113.977 381.833C132.48 382.032 146.631 390.303 157.839 396.636C169.67 403.321 189.171 408.849 196.637 415.924C196.89 416.165 198.549 418.348 210.489 415.34C218.665 413.285 228.885 408.927 237.394 404.57C247.732 399.275 257.134 392.938 260.881 391.713C263.673 390.799 276.346 388.54 286.626 386.108C298.451 383.315 309.635 386.865 320.072 378.494C334.823 366.66 333.389 359.744 333.172 361.744C332.569 364.246 332.312 365.552 331.834 368.218C331.827 368.375 331.839 368.4 331.839 368.4C331.752 368.137 333.039 376.804 320.02 388.487C310.152 397.345 297.24 391.216 285.331 391.724C273.858 392.215 261.516 393.929 258.537 394.784C255.278 395.718 245.317 401.397 236.157 406.176C225.831 411.562 205.989 422.378 192.241 417.418C180.192 413.069 167.635 407.575 157.464 401.852C146.416 395.637 130.963 385.953 114.06 386.307C91.3962 386.782 69.6337 409.867 50.6576 417.184C47.61 418.358 39.216 418.727 30.7238 418.45C25.9066 418.291 20.2365 417.838 18.6397 417.978C5.72291 419.124 -9.08355 420.794 -25.1329 418.078C-27.6415 417.653 -40.2886 414.158 -55.1089 408.673C-69.939 403.184 -84.9421 396.28 -101.585 392.465C-101.647 392.452 -101.737 392.433 -101.793 392.438C-121.992 393.672 -130.429 410.296 -144.546 416.235C-166.691 425.551 -184.711 430.684 -193.344 447.498Z" fill="url(#paint27_linear_3803_1355)"/>
<path d="M-189.487 445.647C-191.913 445.321 -193.128 445.13 -195.557 444.655C-186.8 432.473 -167.614 422.48 -145.977 418.988C-126.192 415.794 -108.821 409.693 -86.2171 407.218C-83.9528 407.932 -82.8145 408.278 -80.5029 408.997C-60.7177 415.143 -40.283 422.92 -17.323 424.648C-4.19936 425.639 9.1613 422.937 20.6646 421.049C22.4277 420.762 26.6854 420.72 33.6628 420.516C39.4852 420.347 48.7056 421.059 50.0855 420.845C74.1878 417.113 91.4113 402.29 113.883 400.579C129.096 399.422 144.569 407.648 155.533 412.676C166.935 417.905 184.077 420.334 192.628 424.071C192.889 424.229 194.883 425.553 206.569 421.593C214.402 418.937 224.01 414.071 232.131 409.553C244.101 402.899 251.905 399.587 254.58 398.848C265.073 395.933 276.957 396.417 285.807 396.539C297.848 396.705 311.454 400.53 320.24 389.431C333.756 372.356 331.605 367.397 331.584 369.147C331.112 371.821 330.906 373.192 330.502 375.953C330.514 376.34 330.554 376.315 330.554 376.315C323.974 391.772 318.177 406.465 284.553 401.768C275.376 400.486 263.196 398.919 252.355 401.413C250.021 401.951 240.072 405.533 231.07 411.001C221.325 416.925 204.923 428.919 188.444 425.754C178.148 424.417 164.883 421.589 154.257 416.979C144.539 412.763 127.583 405.83 114.233 406.888C93.0474 408.563 76.2587 421.36 53.0887 422.838C51.0181 422.972 44.6341 421.142 34.371 421.763C30.1958 422.016 24.3369 422.375 23.2954 422.602C11.2777 425.214 -2.18198 429.388 -15.555 429.45C-37.2217 429.55 -56.937 422.984 -75.5001 417.826C-77.7307 417.184 -78.8233 416.883 -81.0621 416.136C-97.5012 417.552 -115.277 420.848 -130.418 420.845C-160.906 420.829 -178.238 429.672 -189.487 445.647Z" fill="url(#paint28_linear_3803_1355)"/>
<path d="M-185.688 443.491C-188.011 443.213 -189.167 443.061 -191.47 442.69C-178.343 430.827 -163.597 417.329 -135.888 416.053C-112.153 414.961 -85.5198 428.733 -65.1011 431.517C-62.7698 431.833 -42.3265 435.282 -27.4078 435.324C-16.0053 435.358 -9.56083 434.52 -8.69455 434.391C3.0011 432.623 14.1269 427.923 25.4451 425.296C26.6162 424.872 29.7009 424.344 37.3305 423.557C42.8631 422.983 51.3301 425.781 52.7815 425.998C74.0614 432.313 93.0861 425.314 114.462 422.731C126.056 421.329 140.529 425.752 153.694 428.152C164.219 430.068 179.063 430.282 188.934 431.396C203.554 429.209 218.08 420.457 227.169 414.541C238.51 407.166 246.696 405.24 248.572 404.843C260.011 402.433 273.309 403.855 283.88 405.584C315.87 410.82 323.996 388.968 330.243 376.884C329.838 379.64 329.649 381.037 329.253 383.797C329.295 384.382 329.376 384.34 329.408 384.277C324.351 397.823 316.504 420.424 282.661 410.244C271.828 406.984 258.238 405.145 246.493 407.117C245.027 407.364 234.39 410.717 226.324 416.064C216.375 422.658 202.81 433.722 185.178 433.454C160.872 433.724 137.47 426.901 114.966 429.142C91.27 431.499 78.6262 434.907 55.6608 428.615C53.9621 428.415 49.3708 423.535 38.2207 424.911C34.108 425.42 28.9432 426.318 28.0115 426.627C16.232 430.058 4.70822 435.769 -7.08261 438.643C-7.87817 438.837 -15.7933 440.34 -24.6518 441.06C-38.6196 442.193 -56.9081 440.382 -60.1889 439.735C-60.1936 439.736 -60.1983 439.736 -60.2029 439.736C-108.952 444.711 -151.656 397.066 -185.688 443.491ZM-60.2699 439.72C-60.2652 439.719 -60.2602 439.723 -60.2555 439.723C-60.2602 439.723 -60.2652 439.719 -60.2699 439.72ZM52.7719 425.994C52.7529 425.991 52.7389 425.992 52.7296 425.993C52.7436 425.992 52.7576 425.991 52.7719 425.994Z" fill="url(#paint29_linear_3803_1355)"/>
<path d="M-181.904 441.076C-184.113 440.82 -185.207 440.684 -187.373 440.385C-140.255 393.71 -96.4065 453.604 -46.7416 451.495C-45.6625 451.448 -28.9891 450.21 -17.3079 447.136C-5.5349 444.037 -1.46143 442.145 -0.999192 442.004C9.48109 437.321 19.7364 432.638 30.5426 429.406C31.3036 429.071 33.0635 428.269 41.2994 427.207C46.6028 426.521 54.4152 431.175 55.9319 431.918C56.7902 432.221 60.9651 441.073 83.7042 446.876C94.0188 449.506 105.143 444.789 115.467 443.932C127.515 442.934 140.471 444.831 152.449 443.486C163.255 442.272 174.437 439.874 185.505 438.29C199.665 434.671 213.226 426.279 222.607 419.97C236.519 410.613 241.632 410.491 242.827 410.309C255.592 407.123 269.095 409.47 281.038 412.777C294.141 416.407 309.454 420.122 318.277 408.366C332.166 389.859 328.805 382.633 328.971 384.677C328.571 387.428 328.37 388.8 327.936 391.484C328.018 392.401 328.189 392.083 328.254 391.89C323.15 405.688 313.623 428.849 279.913 416.854C267.83 412.556 253.97 410.141 241.125 412.602C239.934 412.831 230.465 416.144 221.999 421.705C211.168 428.822 199.165 437.596 182.548 440.957C161.275 446.382 137.123 447.298 116.045 449.395C90.1034 451.974 74.3644 444.892 58.4124 435.182C57.3797 434.75 55.709 427.508 42.397 429.169C38.4656 429.659 33.598 430.816 32.8376 431.098C32.8466 431.093 32.956 431.054 33.0906 430.978C21.8153 434.857 11.1198 440.137 0.484276 445.7C-0.0742657 445.927 -7.05521 449.104 -14.7916 451.739C-29.9587 456.903 -41.2569 457.593 -43.0025 457.57C-93.2501 468.238 -138.746 390.866 -181.904 441.076ZM241.037 412.622C241.06 412.62 241.093 412.617 241.13 412.61C241.093 412.613 241.06 412.62 241.037 412.622ZM242.851 410.312C242.883 410.305 242.911 410.303 242.939 410.3C242.916 410.307 242.888 410.309 242.851 410.312ZM30.5021 429.427C30.4432 429.453 30.4027 429.474 30.3711 429.49C30.412 429.473 30.4572 429.452 30.5021 429.427Z" fill="url(#paint30_linear_3803_1355)"/>
<path d="M-178.102 438.488C-180.195 438.222 -181.227 438.099 -183.254 437.837C-156.596 416.544 -129.891 423.946 -105.577 437.561C-88.5855 447.08 -57.3605 471.949 -25.8841 463.022C-4.68584 457.01 9.24096 444.771 29.2032 436.944C54.6616 426.96 73.16 456.028 86.7245 460.039C123.568 470.931 177.376 449.526 209.562 431.695C226.918 422.083 249.573 408.072 273.411 416.921C306.551 429.227 320.593 407.077 326.944 392.522C327.051 395.063 327.081 396.268 327.073 398.527C319.892 414.206 303.351 429.833 272.507 420.366C249.87 413.417 231.06 421.005 209.292 433.547C177.729 451.734 123.394 474.762 87.3635 463.784C74.183 459.769 55.9456 429.617 30.7411 439.729C10.9927 447.653 -1.97627 460.326 -22.9207 466.701C-79.0031 483.771 -122.774 395.106 -178.102 438.488Z" fill="url(#paint31_linear_3803_1355)"/>
<defs>
<linearGradient id="paint0_linear_3803_1355" x1="-379.998" y1="248.909" x2="531.141" y2="176.708" gradientUnits="userSpaceOnUse">
<stop stop-color="#50F9F0"/>
<stop offset="0.00377255" stop-color="#5DF8E9"/>
<stop offset="0.0145" stop-color="#7CF4DA"/>
<stop offset="0.0267" stop-color="#98F1CC"/>
<stop offset="0.0405" stop-color="#AEEEC1"/>
<stop offset="0.0566" stop-color="#BFECB8"/>
<stop offset="0.0765" stop-color="#CAEBB2"/>
<stop offset="0.1044" stop-color="#D1EAAF"/>
<stop offset="0.1818" stop-color="#D3EAAE"/>
<stop offset="0.3708" stop-color="#F1C5B1"/>
<stop offset="0.4822" stop-color="#FFB4B3"/>
<stop offset="0.5265" stop-color="#F3B0B8"/>
<stop offset="0.6061" stop-color="#D4A4C7"/>
<stop offset="0.7113" stop-color="#A190DE"/>
<stop offset="0.7826" stop-color="#7B82EF"/>
<stop offset="0.8674" stop-color="#7A84EF"/>
<stop offset="0.9023" stop-color="#778BEF"/>
<stop offset="0.928" stop-color="#7297F0"/>
<stop offset="0.9493" stop-color="#6BA9F0"/>
<stop offset="0.9678" stop-color="#61C0F1"/>
<stop offset="0.984" stop-color="#56DBF2"/>
<stop offset="0.9988" stop-color="#48FCF3"/>
<stop offset="1" stop-color="#47FFF3"/>
</linearGradient>
<linearGradient id="paint1_linear_3803_1355" x1="-371.827" y1="255.952" x2="522.916" y2="185.051" gradientUnits="userSpaceOnUse">
<stop stop-color="#50F9F0"/>
<stop offset="0.00377255" stop-color="#5DF8E9"/>
<stop offset="0.0145" stop-color="#7CF4DA"/>
<stop offset="0.0267" stop-color="#98F1CC"/>
<stop offset="0.0405" stop-color="#AEEEC1"/>
<stop offset="0.0566" stop-color="#BFECB8"/>
<stop offset="0.0765" stop-color="#CAEBB2"/>
<stop offset="0.1044" stop-color="#D1EAAF"/>
<stop offset="0.1818" stop-color="#D3EAAE"/>
<stop offset="0.3708" stop-color="#F1C5B1"/>
<stop offset="0.4822" stop-color="#FFB4B3"/>
<stop offset="0.5265" stop-color="#F3B0B8"/>
<stop offset="0.6061" stop-color="#D4A4C7"/>
<stop offset="0.7113" stop-color="#A190DE"/>
<stop offset="0.7826" stop-color="#7B82EF"/>
<stop offset="0.8674" stop-color="#7A84EF"/>
<stop offset="0.9023" stop-color="#778BEF"/>
<stop offset="0.928" stop-color="#7297F0"/>
<stop offset="0.9493" stop-color="#6BA9F0"/>
<stop offset="0.9678" stop-color="#61C0F1"/>
<stop offset="0.984" stop-color="#56DBF2"/>
<stop offset="0.9988" stop-color="#48FCF3"/>
<stop offset="1" stop-color="#47FFF3"/>
</linearGradient>
<linearGradient id="paint2_linear_3803_1355" x1="-362.898" y1="263.859" x2="515.741" y2="194.234" gradientUnits="userSpaceOnUse">
<stop stop-color="#50F9F0"/>
<stop offset="0.00377255" stop-color="#5DF8E9"/>
<stop offset="0.0145" stop-color="#7CF4DA"/>
<stop offset="0.0267" stop-color="#98F1CC"/>
<stop offset="0.0405" stop-color="#AEEEC1"/>
<stop offset="0.0566" stop-color="#BFECB8"/>
<stop offset="0.0765" stop-color="#CAEBB2"/>
<stop offset="0.1044" stop-color="#D1EAAF"/>
<stop offset="0.1818" stop-color="#D3EAAE"/>
<stop offset="0.3708" stop-color="#F1C5B1"/>
<stop offset="0.4822" stop-color="#FFB4B3"/>
<stop offset="0.5265" stop-color="#F3B0B8"/>
<stop offset="0.6061" stop-color="#D4A4C7"/>
<stop offset="0.7113" stop-color="#A190DE"/>
<stop offset="0.7826" stop-color="#7B82EF"/>
<stop offset="0.8674" stop-color="#7A84EF"/>
<stop offset="0.9023" stop-color="#778BEF"/>
<stop offset="0.928" stop-color="#7297F0"/>
<stop offset="0.9493" stop-color="#6BA9F0"/>
<stop offset="0.9678" stop-color="#61C0F1"/>
<stop offset="0.984" stop-color="#56DBF2"/>
<stop offset="0.9988" stop-color="#48FCF3"/>
<stop offset="1" stop-color="#47FFF3"/>
</linearGradient>
<linearGradient id="paint3_linear_3803_1355" x1="-354.047" y1="271.724" x2="507.974" y2="203.416" gradientUnits="userSpaceOnUse">
<stop stop-color="#50F9F0"/>
<stop offset="0.00377255" stop-color="#5DF8E9"/>
<stop offset="0.0145" stop-color="#7CF4DA"/>
<stop offset="0.0267" stop-color="#98F1CC"/>
<stop offset="0.0405" stop-color="#AEEEC1"/>
<stop offset="0.0566" stop-color="#BFECB8"/>
<stop offset="0.0765" stop-color="#CAEBB2"/>
<stop offset="0.1044" stop-color="#D1EAAF"/>
<stop offset="0.1818" stop-color="#D3EAAE"/>
<stop offset="0.3708" stop-color="#F1C5B1"/>
<stop offset="0.4822" stop-color="#FFB4B3"/>
<stop offset="0.5265" stop-color="#F3B0B8"/>
<stop offset="0.6061" stop-color="#D4A4C7"/>
<stop offset="0.7113" stop-color="#A190DE"/>
<stop offset="0.7826" stop-color="#7B82EF"/>
<stop offset="0.8674" stop-color="#7A84EF"/>
<stop offset="0.9023" stop-color="#778BEF"/>
<stop offset="0.928" stop-color="#7297F0"/>
<stop offset="0.9493" stop-color="#6BA9F0"/>
<stop offset="0.9678" stop-color="#61C0F1"/>
<stop offset="0.984" stop-color="#56DBF2"/>
<stop offset="0.9988" stop-color="#48FCF3"/>
<stop offset="1" stop-color="#47FFF3"/>
</linearGradient>
<linearGradient id="paint4_linear_3803_1355" x1="-345.644" y1="277.855" x2="500.163" y2="210.831" gradientUnits="userSpaceOnUse">
<stop stop-color="#50F9F0"/>
<stop offset="0.00377255" stop-color="#5DF8E9"/>
<stop offset="0.0145" stop-color="#7CF4DA"/>
<stop offset="0.0267" stop-color="#98F1CC"/>
<stop offset="0.0405" stop-color="#AEEEC1"/>
<stop offset="0.0566" stop-color="#BFECB8"/>
<stop offset="0.0765" stop-color="#CAEBB2"/>
<stop offset="0.1044" stop-color="#D1EAAF"/>
<stop offset="0.1818" stop-color="#D3EAAE"/>
<stop offset="0.3708" stop-color="#F1C5B1"/>
<stop offset="0.4822" stop-color="#FFB4B3"/>
<stop offset="0.5265" stop-color="#F3B0B8"/>
<stop offset="0.6061" stop-color="#D4A4C7"/>
<stop offset="0.7113" stop-color="#A190DE"/>
<stop offset="0.7826" stop-color="#7B82EF"/>
<stop offset="0.8674" stop-color="#7A84EF"/>
<stop offset="0.9023" stop-color="#778BEF"/>
<stop offset="0.928" stop-color="#7297F0"/>
<stop offset="0.9493" stop-color="#6BA9F0"/>
<stop offset="0.9678" stop-color="#61C0F1"/>
<stop offset="0.984" stop-color="#56DBF2"/>
<stop offset="0.9988" stop-color="#48FCF3"/>
<stop offset="1" stop-color="#47FFF3"/>
</linearGradient>
<linearGradient id="paint5_linear_3803_1355" x1="-336.475" y1="284.707" x2="492.451" y2="219.021" gradientUnits="userSpaceOnUse">
<stop stop-color="#50F9F0"/>
<stop offset="0.00377255" stop-color="#5DF8E9"/>
<stop offset="0.0145" stop-color="#7CF4DA"/>
<stop offset="0.0267" stop-color="#98F1CC"/>
<stop offset="0.0405" stop-color="#AEEEC1"/>
<stop offset="0.0566" stop-color="#BFECB8"/>
<stop offset="0.0765" stop-color="#CAEBB2"/>
<stop offset="0.1044" stop-color="#D1EAAF"/>
<stop offset="0.1818" stop-color="#D3EAAE"/>
<stop offset="0.3708" stop-color="#F1C5B1"/>
<stop offset="0.4822" stop-color="#FFB4B3"/>
<stop offset="0.5265" stop-color="#F3B0B8"/>
<stop offset="0.6061" stop-color="#D4A4C7"/>
<stop offset="0.7113" stop-color="#A190DE"/>
<stop offset="0.7826" stop-color="#7B82EF"/>
<stop offset="0.8674" stop-color="#7A84EF"/>
<stop offset="0.9023" stop-color="#778BEF"/>
<stop offset="0.928" stop-color="#7297F0"/>
<stop offset="0.9493" stop-color="#6BA9F0"/>
<stop offset="0.9678" stop-color="#61C0F1"/>
<stop offset="0.984" stop-color="#56DBF2"/>
<stop offset="0.9988" stop-color="#48FCF3"/>
<stop offset="1" stop-color="#47FFF3"/>
</linearGradient>
<linearGradient id="paint6_linear_3803_1355" x1="-327.461" y1="294.347" x2="484.779" y2="229.984" gradientUnits="userSpaceOnUse">
<stop stop-color="#50F9F0"/>
<stop offset="0.00377255" stop-color="#5DF8E9"/>
<stop offset="0.0145" stop-color="#7CF4DA"/>
<stop offset="0.0267" stop-color="#98F1CC"/>
<stop offset="0.0405" stop-color="#AEEEC1"/>
<stop offset="0.0566" stop-color="#BFECB8"/>
<stop offset="0.0765" stop-color="#CAEBB2"/>
<stop offset="0.1044" stop-color="#D1EAAF"/>
<stop offset="0.1818" stop-color="#D3EAAE"/>
<stop offset="0.3708" stop-color="#F1C5B1"/>
<stop offset="0.4822" stop-color="#FFB4B3"/>
<stop offset="0.5265" stop-color="#F3B0B8"/>
<stop offset="0.6061" stop-color="#D4A4C7"/>
<stop offset="0.7113" stop-color="#A190DE"/>
<stop offset="0.7826" stop-color="#7B82EF"/>
<stop offset="0.8674" stop-color="#7A84EF"/>
<stop offset="0.9023" stop-color="#778BEF"/>
<stop offset="0.928" stop-color="#7297F0"/>
<stop offset="0.9493" stop-color="#6BA9F0"/>
<stop offset="0.9678" stop-color="#61C0F1"/>
<stop offset="0.984" stop-color="#56DBF2"/>
<stop offset="0.9988" stop-color="#48FCF3"/>
<stop offset="1" stop-color="#47FFF3"/>
</linearGradient>
<linearGradient id="paint7_linear_3803_1355" x1="-319.203" y1="302.801" x2="477.301" y2="239.685" gradientUnits="userSpaceOnUse">
<stop stop-color="#50F9F0"/>
<stop offset="0.00377255" stop-color="#5DF8E9"/>
<stop offset="0.0145" stop-color="#7CF4DA"/>
<stop offset="0.0267" stop-color="#98F1CC"/>
<stop offset="0.0405" stop-color="#AEEEC1"/>
<stop offset="0.0566" stop-color="#BFECB8"/>
<stop offset="0.0765" stop-color="#CAEBB2"/>
<stop offset="0.1044" stop-color="#D1EAAF"/>
<stop offset="0.1818" stop-color="#D3EAAE"/>
<stop offset="0.3708" stop-color="#F1C5B1"/>
<stop offset="0.4822" stop-color="#FFB4B3"/>
<stop offset="0.5265" stop-color="#F3B0B8"/>
<stop offset="0.6061" stop-color="#D4A4C7"/>
<stop offset="0.7113" stop-color="#A190DE"/>
<stop offset="0.7826" stop-color="#7B82EF"/>
<stop offset="0.8674" stop-color="#7A84EF"/>
<stop offset="0.9023" stop-color="#778BEF"/>
<stop offset="0.928" stop-color="#7297F0"/>
<stop offset="0.9493" stop-color="#6BA9F0"/>
<stop offset="0.9678" stop-color="#61C0F1"/>
<stop offset="0.984" stop-color="#56DBF2"/>
<stop offset="0.9988" stop-color="#48FCF3"/>
<stop offset="1" stop-color="#47FFF3"/>
</linearGradient>
<linearGradient id="paint8_linear_3803_1355" x1="-312.462" y1="306.698" x2="469.451" y2="244.737" gradientUnits="userSpaceOnUse">
<stop stop-color="#50F9F0"/>
<stop offset="0.00377255" stop-color="#5DF8E9"/>
<stop offset="0.0145" stop-color="#7CF4DA"/>
<stop offset="0.0267" stop-color="#98F1CC"/>
<stop offset="0.0405" stop-color="#AEEEC1"/>
<stop offset="0.0566" stop-color="#BFECB8"/>
<stop offset="0.0765" stop-color="#CAEBB2"/>
<stop offset="0.1044" stop-color="#D1EAAF"/>
<stop offset="0.1818" stop-color="#D3EAAE"/>
<stop offset="0.3708" stop-color="#F1C5B1"/>
<stop offset="0.4822" stop-color="#FFB4B3"/>
<stop offset="0.5265" stop-color="#F3B0B8"/>
<stop offset="0.6061" stop-color="#D4A4C7"/>
<stop offset="0.7113" stop-color="#A190DE"/>
<stop offset="0.7826" stop-color="#7B82EF"/>
<stop offset="0.8674" stop-color="#7A84EF"/>
<stop offset="0.9023" stop-color="#778BEF"/>
<stop offset="0.928" stop-color="#7297F0"/>
<stop offset="0.9493" stop-color="#6BA9F0"/>
<stop offset="0.9678" stop-color="#61C0F1"/>
<stop offset="0.984" stop-color="#56DBF2"/>
<stop offset="0.9988" stop-color="#48FCF3"/>
<stop offset="1" stop-color="#47FFF3"/>
</linearGradient>
<linearGradient id="paint9_linear_3803_1355" x1="-305.256" y1="310.932" x2="461.729" y2="250.155" gradientUnits="userSpaceOnUse">
<stop stop-color="#50F9F0"/>
<stop offset="0.00377255" stop-color="#5DF8E9"/>
<stop offset="0.0145" stop-color="#7CF4DA"/>
<stop offset="0.0267" stop-color="#98F1CC"/>
<stop offset="0.0405" stop-color="#AEEEC1"/>
<stop offset="0.0566" stop-color="#BFECB8"/>
<stop offset="0.0765" stop-color="#CAEBB2"/>
<stop offset="0.1044" stop-color="#D1EAAF"/>
<stop offset="0.1818" stop-color="#D3EAAE"/>
<stop offset="0.3708" stop-color="#F1C5B1"/>
<stop offset="0.4822" stop-color="#FFB4B3"/>
<stop offset="0.5265" stop-color="#F3B0B8"/>
<stop offset="0.6061" stop-color="#D4A4C7"/>
<stop offset="0.7113" stop-color="#A190DE"/>
<stop offset="0.7826" stop-color="#7B82EF"/>
<stop offset="0.8674" stop-color="#7A84EF"/>
<stop offset="0.9023" stop-color="#778BEF"/>
<stop offset="0.928" stop-color="#7297F0"/>
<stop offset="0.9493" stop-color="#6BA9F0"/>
<stop offset="0.9678" stop-color="#61C0F1"/>
<stop offset="0.984" stop-color="#56DBF2"/>
<stop offset="0.9988" stop-color="#48FCF3"/>
<stop offset="1" stop-color="#47FFF3"/>
</linearGradient>
<linearGradient id="paint10_linear_3803_1355" x1="-298.119" y1="316.116" x2="454.559" y2="256.472" gradientUnits="userSpaceOnUse">
<stop stop-color="#50F9F0"/>
<stop offset="0.00377255" stop-color="#5DF8E9"/>
<stop offset="0.0145" stop-color="#7CF4DA"/>
<stop offset="0.0267" stop-color="#98F1CC"/>
<stop offset="0.0405" stop-color="#AEEEC1"/>
<stop offset="0.0566" stop-color="#BFECB8"/>
<stop offset="0.0765" stop-color="#CAEBB2"/>
<stop offset="0.1044" stop-color="#D1EAAF"/>
<stop offset="0.1818" stop-color="#D3EAAE"/>
<stop offset="0.3708" stop-color="#F1C5B1"/>
<stop offset="0.4822" stop-color="#FFB4B3"/>
<stop offset="0.5265" stop-color="#F3B0B8"/>
<stop offset="0.6061" stop-color="#D4A4C7"/>
<stop offset="0.7113" stop-color="#A190DE"/>
<stop offset="0.7826" stop-color="#7B82EF"/>
<stop offset="0.8674" stop-color="#7A84EF"/>
<stop offset="0.9023" stop-color="#778BEF"/>
<stop offset="0.928" stop-color="#7297F0"/>
<stop offset="0.9493" stop-color="#6BA9F0"/>
<stop offset="0.9678" stop-color="#61C0F1"/>
<stop offset="0.984" stop-color="#56DBF2"/>
<stop offset="0.9988" stop-color="#48FCF3"/>
<stop offset="1" stop-color="#47FFF3"/>
</linearGradient>
<linearGradient id="paint11_linear_3803_1355" x1="-290.292" y1="323.127" x2="447.414" y2="264.67" gradientUnits="userSpaceOnUse">
<stop stop-color="#50F9F0"/>
<stop offset="0.00377255" stop-color="#5DF8E9"/>
<stop offset="0.0145" stop-color="#7CF4DA"/>
<stop offset="0.0267" stop-color="#98F1CC"/>
<stop offset="0.0405" stop-color="#AEEEC1"/>
<stop offset="0.0566" stop-color="#BFECB8"/>
<stop offset="0.0765" stop-color="#CAEBB2"/>
<stop offset="0.1044" stop-color="#D1EAAF"/>
<stop offset="0.1818" stop-color="#D3EAAE"/>
<stop offset="0.3708" stop-color="#F1C5B1"/>
<stop offset="0.4822" stop-color="#FFB4B3"/>
<stop offset="0.5265" stop-color="#F3B0B8"/>
<stop offset="0.6061" stop-color="#D4A4C7"/>
<stop offset="0.7113" stop-color="#A190DE"/>
<stop offset="0.7826" stop-color="#7B82EF"/>
<stop offset="0.8674" stop-color="#7A84EF"/>
<stop offset="0.9023" stop-color="#778BEF"/>
<stop offset="0.928" stop-color="#7297F0"/>
<stop offset="0.9493" stop-color="#6BA9F0"/>
<stop offset="0.9678" stop-color="#61C0F1"/>
<stop offset="0.984" stop-color="#56DBF2"/>
<stop offset="0.9988" stop-color="#48FCF3"/>
<stop offset="1" stop-color="#47FFF3"/>
</linearGradient>
<linearGradient id="paint12_linear_3803_1355" x1="-281.394" y1="329.934" x2="439.848" y2="272.782" gradientUnits="userSpaceOnUse">
<stop stop-color="#50F9F0"/>
<stop offset="0.00377255" stop-color="#5DF8E9"/>
<stop offset="0.0145" stop-color="#7CF4DA"/>
<stop offset="0.0267" stop-color="#98F1CC"/>
<stop offset="0.0405" stop-color="#AEEEC1"/>
<stop offset="0.0566" stop-color="#BFECB8"/>
<stop offset="0.0765" stop-color="#CAEBB2"/>
<stop offset="0.1044" stop-color="#D1EAAF"/>
<stop offset="0.1818" stop-color="#D3EAAE"/>
<stop offset="0.3708" stop-color="#F1C5B1"/>
<stop offset="0.4822" stop-color="#FFB4B3"/>
<stop offset="0.5265" stop-color="#F3B0B8"/>
<stop offset="0.6061" stop-color="#D4A4C7"/>
<stop offset="0.7113" stop-color="#A190DE"/>
<stop offset="0.7826" stop-color="#7B82EF"/>
<stop offset="0.8674" stop-color="#7A84EF"/>
<stop offset="0.9023" stop-color="#778BEF"/>
<stop offset="0.928" stop-color="#7297F0"/>
<stop offset="0.9493" stop-color="#6BA9F0"/>
<stop offset="0.9678" stop-color="#61C0F1"/>
<stop offset="0.984" stop-color="#56DBF2"/>
<stop offset="0.9988" stop-color="#48FCF3"/>
<stop offset="1" stop-color="#47FFF3"/>
</linearGradient>
<linearGradient id="paint13_linear_3803_1355" x1="-275.843" y1="336.189" x2="431.369" y2="280.148" gradientUnits="userSpaceOnUse">
<stop stop-color="#50F9F0"/>
<stop offset="0.00377255" stop-color="#5DF8E9"/>
<stop offset="0.0145" stop-color="#7CF4DA"/>
<stop offset="0.0267" stop-color="#98F1CC"/>
<stop offset="0.0405" stop-color="#AEEEC1"/>
<stop offset="0.0566" stop-color="#BFECB8"/>
<stop offset="0.0765" stop-color="#CAEBB2"/>
<stop offset="0.1044" stop-color="#D1EAAF"/>
<stop offset="0.1818" stop-color="#D3EAAE"/>
<stop offset="0.3708" stop-color="#F1C5B1"/>
<stop offset="0.4822" stop-color="#FFB4B3"/>
<stop offset="0.5265" stop-color="#F3B0B8"/>
<stop offset="0.6061" stop-color="#D4A4C7"/>
<stop offset="0.7113" stop-color="#A190DE"/>
<stop offset="0.7826" stop-color="#7B82EF"/>
<stop offset="0.8674" stop-color="#7A84EF"/>
<stop offset="0.9023" stop-color="#778BEF"/>
<stop offset="0.928" stop-color="#7297F0"/>
<stop offset="0.9493" stop-color="#6BA9F0"/>
<stop offset="0.9678" stop-color="#61C0F1"/>
<stop offset="0.984" stop-color="#56DBF2"/>
<stop offset="0.9988" stop-color="#48FCF3"/>
<stop offset="1" stop-color="#47FFF3"/>
</linearGradient>
<linearGradient id="paint14_linear_3803_1355" x1="-269.531" y1="341.006" x2="422.278" y2="286.185" gradientUnits="userSpaceOnUse">
<stop stop-color="#50F9F0"/>
<stop offset="0.00377255" stop-color="#5DF8E9"/>
<stop offset="0.0145" stop-color="#7CF4DA"/>
<stop offset="0.0267" stop-color="#98F1CC"/>
<stop offset="0.0405" stop-color="#AEEEC1"/>
<stop offset="0.0566" stop-color="#BFECB8"/>
<stop offset="0.0765" stop-color="#CAEBB2"/>
<stop offset="0.1044" stop-color="#D1EAAF"/>
<stop offset="0.1818" stop-color="#D3EAAE"/>
<stop offset="0.3708" stop-color="#F1C5B1"/>
<stop offset="0.4822" stop-color="#FFB4B3"/>
<stop offset="0.5265" stop-color="#F3B0B8"/>
<stop offset="0.6061" stop-color="#D4A4C7"/>
<stop offset="0.7113" stop-color="#A190DE"/>
<stop offset="0.7826" stop-color="#7B82EF"/>
<stop offset="0.8674" stop-color="#7A84EF"/>
<stop offset="0.9023" stop-color="#778BEF"/>
<stop offset="0.928" stop-color="#7297F0"/>
<stop offset="0.9493" stop-color="#6BA9F0"/>
<stop offset="0.9678" stop-color="#61C0F1"/>
<stop offset="0.984" stop-color="#56DBF2"/>
<stop offset="0.9988" stop-color="#48FCF3"/>
<stop offset="1" stop-color="#47FFF3"/>
</linearGradient>
<linearGradient id="paint15_linear_3803_1355" x1="-263.203" y1="349.308" x2="408.352" y2="296.093" gradientUnits="userSpaceOnUse">
<stop stop-color="#50F9F0"/>
<stop offset="0.00377255" stop-color="#5DF8E9"/>
<stop offset="0.0145" stop-color="#7CF4DA"/>
<stop offset="0.0267" stop-color="#98F1CC"/>
<stop offset="0.0405" stop-color="#AEEEC1"/>
<stop offset="0.0566" stop-color="#BFECB8"/>
<stop offset="0.0765" stop-color="#CAEBB2"/>
<stop offset="0.1044" stop-color="#D1EAAF"/>
<stop offset="0.1818" stop-color="#D3EAAE"/>
<stop offset="0.3708" stop-color="#F1C5B1"/>
<stop offset="0.4822" stop-color="#FFB4B3"/>
<stop offset="0.5265" stop-color="#F3B0B8"/>
<stop offset="0.6061" stop-color="#D4A4C7"/>
<stop offset="0.7113" stop-color="#A190DE"/>
<stop offset="0.7826" stop-color="#7B82EF"/>
<stop offset="0.8674" stop-color="#7A84EF"/>
<stop offset="0.9023" stop-color="#778BEF"/>
<stop offset="0.928" stop-color="#7297F0"/>
<stop offset="0.9493" stop-color="#6BA9F0"/>
<stop offset="0.9678" stop-color="#61C0F1"/>
<stop offset="0.984" stop-color="#56DBF2"/>
<stop offset="0.9988" stop-color="#48FCF3"/>
<stop offset="1" stop-color="#47FFF3"/>
</linearGradient>
<linearGradient id="paint16_linear_3803_1355" x1="-257.683" y1="362.065" x2="401.569" y2="309.825" gradientUnits="userSpaceOnUse">
<stop stop-color="#50F9F0"/>
<stop offset="0.00377255" stop-color="#5DF8E9"/>
<stop offset="0.0145" stop-color="#7CF4DA"/>
<stop offset="0.0267" stop-color="#98F1CC"/>
<stop offset="0.0405" stop-color="#AEEEC1"/>
<stop offset="0.0566" stop-color="#BFECB8"/>
<stop offset="0.0765" stop-color="#CAEBB2"/>
<stop offset="0.1044" stop-color="#D1EAAF"/>
<stop offset="0.1818" stop-color="#D3EAAE"/>
<stop offset="0.3708" stop-color="#F1C5B1"/>
<stop offset="0.4822" stop-color="#FFB4B3"/>
<stop offset="0.5265" stop-color="#F3B0B8"/>
<stop offset="0.6061" stop-color="#D4A4C7"/>
<stop offset="0.7113" stop-color="#A190DE"/>
<stop offset="0.7826" stop-color="#7B82EF"/>
<stop offset="0.8674" stop-color="#7A84EF"/>
<stop offset="0.9023" stop-color="#778BEF"/>
<stop offset="0.928" stop-color="#7297F0"/>
<stop offset="0.9493" stop-color="#6BA9F0"/>
<stop offset="0.9678" stop-color="#61C0F1"/>
<stop offset="0.984" stop-color="#56DBF2"/>
<stop offset="0.9988" stop-color="#48FCF3"/>
<stop offset="1" stop-color="#47FFF3"/>
</linearGradient>
<linearGradient id="paint17_linear_3803_1355" x1="-252.325" y1="374.519" x2="393.507" y2="323.342" gradientUnits="userSpaceOnUse">
<stop stop-color="#50F9F0"/>
<stop offset="0.00377255" stop-color="#5DF8E9"/>
<stop offset="0.0145" stop-color="#7CF4DA"/>
<stop offset="0.0267" stop-color="#98F1CC"/>
<stop offset="0.0405" stop-color="#AEEEC1"/>
<stop offset="0.0566" stop-color="#BFECB8"/>
<stop offset="0.0765" stop-color="#CAEBB2"/>
<stop offset="0.1044" stop-color="#D1EAAF"/>
<stop offset="0.1818" stop-color="#D3EAAE"/>
<stop offset="0.3708" stop-color="#F1C5B1"/>
<stop offset="0.4822" stop-color="#FFB4B3"/>
<stop offset="0.5265" stop-color="#F3B0B8"/>
<stop offset="0.6061" stop-color="#D4A4C7"/>
<stop offset="0.7113" stop-color="#A190DE"/>
<stop offset="0.7826" stop-color="#7B82EF"/>
<stop offset="0.8674" stop-color="#7A84EF"/>
<stop offset="0.9023" stop-color="#778BEF"/>
<stop offset="0.928" stop-color="#7297F0"/>
<stop offset="0.9493" stop-color="#6BA9F0"/>
<stop offset="0.9678" stop-color="#61C0F1"/>
<stop offset="0.984" stop-color="#56DBF2"/>
<stop offset="0.9988" stop-color="#48FCF3"/>
<stop offset="1" stop-color="#47FFF3"/>
</linearGradient>
<linearGradient id="paint18_linear_3803_1355" x1="-247.448" y1="382.742" x2="384.687" y2="332.651" gradientUnits="userSpaceOnUse">
<stop stop-color="#50F9F0"/>
<stop offset="0.00377255" stop-color="#5DF8E9"/>
<stop offset="0.0145" stop-color="#7CF4DA"/>
<stop offset="0.0267" stop-color="#98F1CC"/>
<stop offset="0.0405" stop-color="#AEEEC1"/>
<stop offset="0.0566" stop-color="#BFECB8"/>
<stop offset="0.0765" stop-color="#CAEBB2"/>
<stop offset="0.1044" stop-color="#D1EAAF"/>
<stop offset="0.1818" stop-color="#D3EAAE"/>
<stop offset="0.3708" stop-color="#F1C5B1"/>
<stop offset="0.4822" stop-color="#FFB4B3"/>
<stop offset="0.5265" stop-color="#F3B0B8"/>
<stop offset="0.6061" stop-color="#D4A4C7"/>
<stop offset="0.7113" stop-color="#A190DE"/>
<stop offset="0.7826" stop-color="#7B82EF"/>
<stop offset="0.8674" stop-color="#7A84EF"/>
<stop offset="0.9023" stop-color="#778BEF"/>
<stop offset="0.928" stop-color="#7297F0"/>
<stop offset="0.9493" stop-color="#6BA9F0"/>
<stop offset="0.9678" stop-color="#61C0F1"/>
<stop offset="0.984" stop-color="#56DBF2"/>
<stop offset="0.9988" stop-color="#48FCF3"/>
<stop offset="1" stop-color="#47FFF3"/>
</linearGradient>
<linearGradient id="paint19_linear_3803_1355" x1="-242.462" y1="389.036" x2="375.978" y2="340.03" gradientUnits="userSpaceOnUse">
<stop stop-color="#50F9F0"/>
<stop offset="0.00377255" stop-color="#5DF8E9"/>
<stop offset="0.0145" stop-color="#7CF4DA"/>
<stop offset="0.0267" stop-color="#98F1CC"/>
<stop offset="0.0405" stop-color="#AEEEC1"/>
<stop offset="0.0566" stop-color="#BFECB8"/>
<stop offset="0.0765" stop-color="#CAEBB2"/>
<stop offset="0.1044" stop-color="#D1EAAF"/>
<stop offset="0.1818" stop-color="#D3EAAE"/>
<stop offset="0.3708" stop-color="#F1C5B1"/>
<stop offset="0.4822" stop-color="#FFB4B3"/>
<stop offset="0.5265" stop-color="#F3B0B8"/>
<stop offset="0.6061" stop-color="#D4A4C7"/>
<stop offset="0.7113" stop-color="#A190DE"/>
<stop offset="0.7826" stop-color="#7B82EF"/>
<stop offset="0.8674" stop-color="#7A84EF"/>
<stop offset="0.9023" stop-color="#778BEF"/>
<stop offset="0.928" stop-color="#7297F0"/>
<stop offset="0.9493" stop-color="#6BA9F0"/>
<stop offset="0.9678" stop-color="#61C0F1"/>
<stop offset="0.984" stop-color="#56DBF2"/>
<stop offset="0.9988" stop-color="#48FCF3"/>
<stop offset="1" stop-color="#47FFF3"/>
</linearGradient>
<linearGradient id="paint20_linear_3803_1355" x1="-237.77" y1="394.398" x2="364.189" y2="346.697" gradientUnits="userSpaceOnUse">
<stop stop-color="#50F9F0"/>
<stop offset="0.00377255" stop-color="#5DF8E9"/>
<stop offset="0.0145" stop-color="#7CF4DA"/>
<stop offset="0.0267" stop-color="#98F1CC"/>
<stop offset="0.0405" stop-color="#AEEEC1"/>
<stop offset="0.0566" stop-color="#BFECB8"/>
<stop offset="0.0765" stop-color="#CAEBB2"/>
<stop offset="0.1044" stop-color="#D1EAAF"/>
<stop offset="0.1818" stop-color="#D3EAAE"/>
<stop offset="0.3708" stop-color="#F1C5B1"/>
<stop offset="0.4822" stop-color="#FFB4B3"/>
<stop offset="0.5265" stop-color="#F3B0B8"/>
<stop offset="0.6061" stop-color="#D4A4C7"/>
<stop offset="0.7113" stop-color="#A190DE"/>
<stop offset="0.7826" stop-color="#7B82EF"/>
<stop offset="0.8674" stop-color="#7A84EF"/>
<stop offset="0.9023" stop-color="#778BEF"/>
<stop offset="0.928" stop-color="#7297F0"/>
<stop offset="0.9493" stop-color="#6BA9F0"/>
<stop offset="0.9678" stop-color="#61C0F1"/>
<stop offset="0.984" stop-color="#56DBF2"/>
<stop offset="0.9988" stop-color="#48FCF3"/>
<stop offset="1" stop-color="#47FFF3"/>
</linearGradient>
<linearGradient id="paint21_linear_3803_1355" x1="-232.668" y1="399.047" x2="358.391" y2="352.21" gradientUnits="userSpaceOnUse">
<stop stop-color="#50F9F0"/>
<stop offset="0.00377255" stop-color="#5DF8E9"/>
<stop offset="0.0145" stop-color="#7CF4DA"/>
<stop offset="0.0267" stop-color="#98F1CC"/>
<stop offset="0.0405" stop-color="#AEEEC1"/>
<stop offset="0.0566" stop-color="#BFECB8"/>
<stop offset="0.0765" stop-color="#CAEBB2"/>
<stop offset="0.1044" stop-color="#D1EAAF"/>
<stop offset="0.1818" stop-color="#D3EAAE"/>
<stop offset="0.3708" stop-color="#F1C5B1"/>
<stop offset="0.4822" stop-color="#FFB4B3"/>
<stop offset="0.5265" stop-color="#F3B0B8"/>
<stop offset="0.6061" stop-color="#D4A4C7"/>
<stop offset="0.7113" stop-color="#A190DE"/>
<stop offset="0.7826" stop-color="#7B82EF"/>
<stop offset="0.8674" stop-color="#7A84EF"/>
<stop offset="0.9023" stop-color="#778BEF"/>
<stop offset="0.928" stop-color="#7297F0"/>
<stop offset="0.9493" stop-color="#6BA9F0"/>
<stop offset="0.9678" stop-color="#61C0F1"/>
<stop offset="0.984" stop-color="#56DBF2"/>
<stop offset="0.9988" stop-color="#48FCF3"/>
<stop offset="1" stop-color="#47FFF3"/>
</linearGradient>
<linearGradient id="paint22_linear_3803_1355" x1="-226.27" y1="405.352" x2="353.136" y2="359.438" gradientUnits="userSpaceOnUse">
<stop stop-color="#50F9F0"/>
<stop offset="0.00377255" stop-color="#5DF8E9"/>
<stop offset="0.0145" stop-color="#7CF4DA"/>
<stop offset="0.0267" stop-color="#98F1CC"/>
<stop offset="0.0405" stop-color="#AEEEC1"/>
<stop offset="0.0566" stop-color="#BFECB8"/>
<stop offset="0.0765" stop-color="#CAEBB2"/>
<stop offset="0.1044" stop-color="#D1EAAF"/>
<stop offset="0.1818" stop-color="#D3EAAE"/>
<stop offset="0.3708" stop-color="#F1C5B1"/>
<stop offset="0.4822" stop-color="#FFB4B3"/>
<stop offset="0.5265" stop-color="#F3B0B8"/>
<stop offset="0.6061" stop-color="#D4A4C7"/>
<stop offset="0.7113" stop-color="#A190DE"/>
<stop offset="0.7826" stop-color="#7B82EF"/>
<stop offset="0.8674" stop-color="#7A84EF"/>
<stop offset="0.9023" stop-color="#778BEF"/>
<stop offset="0.928" stop-color="#7297F0"/>
<stop offset="0.9493" stop-color="#6BA9F0"/>
<stop offset="0.9678" stop-color="#61C0F1"/>
<stop offset="0.984" stop-color="#56DBF2"/>
<stop offset="0.9988" stop-color="#48FCF3"/>
<stop offset="1" stop-color="#47FFF3"/>
</linearGradient>
<linearGradient id="paint23_linear_3803_1355" x1="-219.513" y1="409.776" x2="348.237" y2="364.786" gradientUnits="userSpaceOnUse">
<stop stop-color="#50F9F0"/>
<stop offset="0.00377255" stop-color="#5DF8E9"/>
<stop offset="0.0145" stop-color="#7CF4DA"/>
<stop offset="0.0267" stop-color="#98F1CC"/>
<stop offset="0.0405" stop-color="#AEEEC1"/>
<stop offset="0.0566" stop-color="#BFECB8"/>
<stop offset="0.0765" stop-color="#CAEBB2"/>
<stop offset="0.1044" stop-color="#D1EAAF"/>
<stop offset="0.1818" stop-color="#D3EAAE"/>
<stop offset="0.3708" stop-color="#F1C5B1"/>
<stop offset="0.4822" stop-color="#FFB4B3"/>
<stop offset="0.5265" stop-color="#F3B0B8"/>
<stop offset="0.6061" stop-color="#D4A4C7"/>
<stop offset="0.7113" stop-color="#A190DE"/>
<stop offset="0.7826" stop-color="#7B82EF"/>
<stop offset="0.8674" stop-color="#7A84EF"/>
<stop offset="0.9023" stop-color="#778BEF"/>
<stop offset="0.928" stop-color="#7297F0"/>
<stop offset="0.9493" stop-color="#6BA9F0"/>
<stop offset="0.9678" stop-color="#61C0F1"/>
<stop offset="0.984" stop-color="#56DBF2"/>
<stop offset="0.9988" stop-color="#48FCF3"/>
<stop offset="1" stop-color="#47FFF3"/>
</linearGradient>
<linearGradient id="paint24_linear_3803_1355" x1="-215.064" y1="410.697" x2="343.627" y2="366.425" gradientUnits="userSpaceOnUse">
<stop stop-color="#50F9F0"/>
<stop offset="0.00377255" stop-color="#5DF8E9"/>
<stop offset="0.0145" stop-color="#7CF4DA"/>
<stop offset="0.0267" stop-color="#98F1CC"/>
<stop offset="0.0405" stop-color="#AEEEC1"/>
<stop offset="0.0566" stop-color="#BFECB8"/>
<stop offset="0.0765" stop-color="#CAEBB2"/>
<stop offset="0.1044" stop-color="#D1EAAF"/>
<stop offset="0.1818" stop-color="#D3EAAE"/>
<stop offset="0.3708" stop-color="#F1C5B1"/>
<stop offset="0.4822" stop-color="#FFB4B3"/>
<stop offset="0.5265" stop-color="#F3B0B8"/>
<stop offset="0.6061" stop-color="#D4A4C7"/>
<stop offset="0.7113" stop-color="#A190DE"/>
<stop offset="0.7826" stop-color="#7B82EF"/>
<stop offset="0.8674" stop-color="#7A84EF"/>
<stop offset="0.9023" stop-color="#778BEF"/>
<stop offset="0.928" stop-color="#7297F0"/>
<stop offset="0.9493" stop-color="#6BA9F0"/>
<stop offset="0.9678" stop-color="#61C0F1"/>
<stop offset="0.984" stop-color="#56DBF2"/>
<stop offset="0.9988" stop-color="#48FCF3"/>
<stop offset="1" stop-color="#47FFF3"/>
</linearGradient>
<linearGradient id="paint25_linear_3803_1355" x1="-210.662" y1="411.602" x2="339.646" y2="367.994" gradientUnits="userSpaceOnUse">
<stop stop-color="#50F9F0"/>
<stop offset="0.00377255" stop-color="#5DF8E9"/>
<stop offset="0.0145" stop-color="#7CF4DA"/>
<stop offset="0.0267" stop-color="#98F1CC"/>
<stop offset="0.0405" stop-color="#AEEEC1"/>
<stop offset="0.0566" stop-color="#BFECB8"/>
<stop offset="0.0765" stop-color="#CAEBB2"/>
<stop offset="0.1044" stop-color="#D1EAAF"/>
<stop offset="0.1818" stop-color="#D3EAAE"/>
<stop offset="0.3708" stop-color="#F1C5B1"/>
<stop offset="0.4822" stop-color="#FFB4B3"/>
<stop offset="0.5265" stop-color="#F3B0B8"/>
<stop offset="0.6061" stop-color="#D4A4C7"/>
<stop offset="0.7113" stop-color="#A190DE"/>
<stop offset="0.7826" stop-color="#7B82EF"/>
<stop offset="0.8674" stop-color="#7A84EF"/>
<stop offset="0.9023" stop-color="#778BEF"/>
<stop offset="0.928" stop-color="#7297F0"/>
<stop offset="0.9493" stop-color="#6BA9F0"/>
<stop offset="0.9678" stop-color="#61C0F1"/>
<stop offset="0.984" stop-color="#56DBF2"/>
<stop offset="0.9988" stop-color="#48FCF3"/>
<stop offset="1" stop-color="#47FFF3"/>
</linearGradient>
<linearGradient id="paint26_linear_3803_1355" x1="-206.409" y1="414.189" x2="336.738" y2="371.149" gradientUnits="userSpaceOnUse">
<stop stop-color="#50F9F0"/>
<stop offset="0.00377255" stop-color="#5DF8E9"/>
<stop offset="0.0145" stop-color="#7CF4DA"/>
<stop offset="0.0267" stop-color="#98F1CC"/>
<stop offset="0.0405" stop-color="#AEEEC1"/>
<stop offset="0.0566" stop-color="#BFECB8"/>
<stop offset="0.0765" stop-color="#CAEBB2"/>
<stop offset="0.1044" stop-color="#D1EAAF"/>
<stop offset="0.1818" stop-color="#D3EAAE"/>
<stop offset="0.3708" stop-color="#F1C5B1"/>
<stop offset="0.4822" stop-color="#FFB4B3"/>
<stop offset="0.5265" stop-color="#F3B0B8"/>
<stop offset="0.6061" stop-color="#D4A4C7"/>
<stop offset="0.7113" stop-color="#A190DE"/>
<stop offset="0.7826" stop-color="#7B82EF"/>
<stop offset="0.8674" stop-color="#7A84EF"/>
<stop offset="0.9023" stop-color="#778BEF"/>
<stop offset="0.928" stop-color="#7297F0"/>
<stop offset="0.9493" stop-color="#6BA9F0"/>
<stop offset="0.9678" stop-color="#61C0F1"/>
<stop offset="0.984" stop-color="#56DBF2"/>
<stop offset="0.9988" stop-color="#48FCF3"/>
<stop offset="1" stop-color="#47FFF3"/>
</linearGradient>
<linearGradient id="paint27_linear_3803_1355" x1="-201.628" y1="421.665" x2="334.72" y2="379.164" gradientUnits="userSpaceOnUse">
<stop stop-color="#50F9F0"/>
<stop offset="0.00377255" stop-color="#5DF8E9"/>
<stop offset="0.0145" stop-color="#7CF4DA"/>
<stop offset="0.0267" stop-color="#98F1CC"/>
<stop offset="0.0405" stop-color="#AEEEC1"/>
<stop offset="0.0566" stop-color="#BFECB8"/>
<stop offset="0.0765" stop-color="#CAEBB2"/>
<stop offset="0.1044" stop-color="#D1EAAF"/>
<stop offset="0.1818" stop-color="#D3EAAE"/>
<stop offset="0.3708" stop-color="#F1C5B1"/>
<stop offset="0.4822" stop-color="#FFB4B3"/>
<stop offset="0.5265" stop-color="#F3B0B8"/>
<stop offset="0.6061" stop-color="#D4A4C7"/>
<stop offset="0.7113" stop-color="#A190DE"/>
<stop offset="0.7826" stop-color="#7B82EF"/>
<stop offset="0.8674" stop-color="#7A84EF"/>
<stop offset="0.9023" stop-color="#778BEF"/>
<stop offset="0.928" stop-color="#7297F0"/>
<stop offset="0.9493" stop-color="#6BA9F0"/>
<stop offset="0.9678" stop-color="#61C0F1"/>
<stop offset="0.984" stop-color="#56DBF2"/>
<stop offset="0.9988" stop-color="#48FCF3"/>
<stop offset="1" stop-color="#47FFF3"/>
</linearGradient>
<linearGradient id="paint28_linear_3803_1355" x1="-196.403" y1="433.989" x2="333.542" y2="391.995" gradientUnits="userSpaceOnUse">
<stop stop-color="#50F9F0"/>
<stop offset="0.00377255" stop-color="#5DF8E9"/>
<stop offset="0.0145" stop-color="#7CF4DA"/>
<stop offset="0.0267" stop-color="#98F1CC"/>
<stop offset="0.0405" stop-color="#AEEEC1"/>
<stop offset="0.0566" stop-color="#BFECB8"/>
<stop offset="0.0765" stop-color="#CAEBB2"/>
<stop offset="0.1044" stop-color="#D1EAAF"/>
<stop offset="0.1818" stop-color="#D3EAAE"/>
<stop offset="0.3708" stop-color="#F1C5B1"/>
<stop offset="0.4822" stop-color="#FFB4B3"/>
<stop offset="0.5265" stop-color="#F3B0B8"/>
<stop offset="0.6061" stop-color="#D4A4C7"/>
<stop offset="0.7113" stop-color="#A190DE"/>
<stop offset="0.7826" stop-color="#7B82EF"/>
<stop offset="0.8674" stop-color="#7A84EF"/>
<stop offset="0.9023" stop-color="#778BEF"/>
<stop offset="0.928" stop-color="#7297F0"/>
<stop offset="0.9493" stop-color="#6BA9F0"/>
<stop offset="0.9678" stop-color="#61C0F1"/>
<stop offset="0.984" stop-color="#56DBF2"/>
<stop offset="0.9988" stop-color="#48FCF3"/>
<stop offset="1" stop-color="#47FFF3"/>
</linearGradient>
<linearGradient id="paint29_linear_3803_1355" x1="-191.611" y1="440.864" x2="332.025" y2="399.37" gradientUnits="userSpaceOnUse">
<stop stop-color="#50F9F0"/>
<stop offset="0.00377255" stop-color="#5DF8E9"/>
<stop offset="0.0145" stop-color="#7CF4DA"/>
<stop offset="0.0267" stop-color="#98F1CC"/>
<stop offset="0.0405" stop-color="#AEEEC1"/>
<stop offset="0.0566" stop-color="#BFECB8"/>
<stop offset="0.0765" stop-color="#CAEBB2"/>
<stop offset="0.1044" stop-color="#D1EAAF"/>
<stop offset="0.1818" stop-color="#D3EAAE"/>
<stop offset="0.3708" stop-color="#F1C5B1"/>
<stop offset="0.4822" stop-color="#FFB4B3"/>
<stop offset="0.5265" stop-color="#F3B0B8"/>
<stop offset="0.6061" stop-color="#D4A4C7"/>
<stop offset="0.7113" stop-color="#A190DE"/>
<stop offset="0.7826" stop-color="#7B82EF"/>
<stop offset="0.8674" stop-color="#7A84EF"/>
<stop offset="0.9023" stop-color="#778BEF"/>
<stop offset="0.928" stop-color="#7297F0"/>
<stop offset="0.9493" stop-color="#6BA9F0"/>
<stop offset="0.9678" stop-color="#61C0F1"/>
<stop offset="0.984" stop-color="#56DBF2"/>
<stop offset="0.9988" stop-color="#48FCF3"/>
<stop offset="1" stop-color="#47FFF3"/>
</linearGradient>
<linearGradient id="paint30_linear_3803_1355" x1="-186.668" y1="449.313" x2="331.038" y2="408.289" gradientUnits="userSpaceOnUse">
<stop stop-color="#50F9F0"/>
<stop offset="0.00377255" stop-color="#5DF8E9"/>
<stop offset="0.0145" stop-color="#7CF4DA"/>
<stop offset="0.0267" stop-color="#98F1CC"/>
<stop offset="0.0405" stop-color="#AEEEC1"/>
<stop offset="0.0566" stop-color="#BFECB8"/>
<stop offset="0.0765" stop-color="#CAEBB2"/>
<stop offset="0.1044" stop-color="#D1EAAF"/>
<stop offset="0.1818" stop-color="#D3EAAE"/>
<stop offset="0.3708" stop-color="#F1C5B1"/>
<stop offset="0.4822" stop-color="#FFB4B3"/>
<stop offset="0.5265" stop-color="#F3B0B8"/>
<stop offset="0.6061" stop-color="#D4A4C7"/>
<stop offset="0.7113" stop-color="#A190DE"/>
<stop offset="0.7826" stop-color="#7B82EF"/>
<stop offset="0.8674" stop-color="#7A84EF"/>
<stop offset="0.9023" stop-color="#778BEF"/>
<stop offset="0.928" stop-color="#7297F0"/>
<stop offset="0.9493" stop-color="#6BA9F0"/>
<stop offset="0.9678" stop-color="#61C0F1"/>
<stop offset="0.984" stop-color="#56DBF2"/>
<stop offset="0.9988" stop-color="#48FCF3"/>
<stop offset="1" stop-color="#47FFF3"/>
</linearGradient>
<linearGradient id="paint31_linear_3803_1355" x1="-181.619" y1="458.469" x2="328.957" y2="418.01" gradientUnits="userSpaceOnUse">
<stop stop-color="#50F9F0"/>
<stop offset="0.00377255" stop-color="#5DF8E9"/>
<stop offset="0.0145" stop-color="#7CF4DA"/>
<stop offset="0.0267" stop-color="#98F1CC"/>
<stop offset="0.0405" stop-color="#AEEEC1"/>
<stop offset="0.0566" stop-color="#BFECB8"/>
<stop offset="0.0765" stop-color="#CAEBB2"/>
<stop offset="0.1044" stop-color="#D1EAAF"/>
<stop offset="0.1818" stop-color="#D3EAAE"/>
<stop offset="0.3708" stop-color="#F1C5B1"/>
<stop offset="0.4822" stop-color="#FFB4B3"/>
<stop offset="0.5265" stop-color="#F3B0B8"/>
<stop offset="0.6061" stop-color="#D4A4C7"/>
<stop offset="0.7113" stop-color="#A190DE"/>
<stop offset="0.7826" stop-color="#7B82EF"/>
<stop offset="0.8674" stop-color="#7A84EF"/>
<stop offset="0.9023" stop-color="#778BEF"/>
<stop offset="0.928" stop-color="#7297F0"/>
<stop offset="0.9493" stop-color="#6BA9F0"/>
<stop offset="0.9678" stop-color="#61C0F1"/>
<stop offset="0.984" stop-color="#56DBF2"/>
<stop offset="0.9988" stop-color="#48FCF3"/>
<stop offset="1" stop-color="#47FFF3"/>
</linearGradient>
</defs>
</svg>
