<svg width="434" height="434" viewBox="0 0 434 434" fill="none" xmlns="http://www.w3.org/2000/svg">
<g opacity="0.32">
<path d="M72.8245 354.518C71.1844 353.475 70.3713 352.971 68.7405 351.993C50.3204 350.277 35.8442 344.59 27.3023 335.662C3.01791 310.276 -6.06597 275.633 4.11134 248.522C8.99439 235.519 22.1483 222.945 29.8537 210.224C41.6477 190.752 44.7458 166.374 64.8481 148.661C80.6421 134.75 103.768 119.213 125.599 109.816C152.047 98.4287 179.915 162.864 192.564 169.628C203.485 175.467 225.881 162.064 233.003 157.094C258.278 139.472 272.315 114.877 290.412 96.9645C303.216 84.2913 310.809 87.7279 321.528 100.631C330.486 111.419 341.018 124.318 347.42 135.219C358.364 153.849 381.246 129.306 385.868 122.667C400.073 102.243 405.068 78.5955 421.292 59.4879C428.339 51.194 437.941 43.4606 450.665 36.9436C469.566 27.2638 479.132 11.7753 496.295 2.35616C515.986 -8.45324 561.153 20.9902 575.858 28.8714C600.633 42.1528 625.801 53.3533 639.31 70.5623C653.239 88.3057 677.369 115.664 706.448 123.945C724.994 129.228 751.765 127.268 768.596 135.188C782.96 141.949 794.301 153.319 805.988 163.407C824.908 179.738 847.36 194.275 873.149 207.318C900.303 221.055 907.125 244.703 913.078 263.481C917.055 276.037 907.578 288.358 895.882 298.963C877.551 315.581 866.93 334.706 851.729 352.411C850.108 353.201 849.29 353.579 847.645 354.314C861.86 336.54 874.397 318.253 891.747 301.318C897.686 295.518 904.2 291.23 907.195 283.488C912.789 269.024 904.027 253.14 897.336 239.568C884.644 213.822 831.506 191.312 805.455 168.538C793.792 158.341 782.427 146.597 768.376 139.442C751.634 130.918 724.574 131.874 705.845 126.108C676.426 117.054 649.23 88.6142 635.473 70.0844C622.876 53.1187 599.203 42.2788 574.648 29.6447C561.401 22.8323 515.271 -5.88557 495.94 5.47994C479.608 15.0815 470.408 29.0408 453.31 38.3774C441.637 44.7509 432.39 52.0325 425.666 59.9788C408.75 79.9684 403.909 104.698 389.335 125.96C379.345 140.537 360.831 156.812 346.004 136.852C338.243 126.408 328.29 113.843 323.724 103.655C321.038 97.6553 315.893 91.9378 305.122 89.1225C301.837 91.638 297.777 94.2578 295.267 96.6691C275.226 115.92 259.31 143.743 230.769 162.881C222.97 168.112 198.396 180.651 187.574 174.06C171.191 164.089 152.659 112.531 126.206 117.732C112.903 120.347 98.7584 132.343 85.8896 139.346C60.1379 153.371 51.9606 175.715 43.4141 194.162C38.3347 205.132 33.1246 216.05 26.0594 226.512C21.0875 233.881 11.2654 240.337 8.66729 249.169C0.270317 277.714 8.53179 310.763 31.648 336.47C39.8674 345.611 54.0026 352.437 72.8245 354.518Z" fill="url(#paint0_linear_3803_1421)"/>
<path d="M76.9272 357.564C75.259 356.456 74.4226 355.913 72.7638 354.861C53.1755 353.619 41.83 345.525 33.4143 337.783C8.42434 314.791 2.69084 279.083 11.4102 251.338C14.8073 240.533 28.4518 231.67 35.1106 221.703C48.0214 202.387 52.2596 180.204 68.0957 160.949C77.6562 149.322 108.515 125.818 133.024 129.485C163.57 134.051 163.925 171.397 195.405 175.633C209.84 177.575 226.115 170.068 235.456 165.102C264.665 149.579 285.52 121.569 295.379 102.353C304.711 84.1619 321.098 99.9546 325.51 106.45C334.201 119.253 343.874 134.029 349.21 146.768C357.686 167.005 381.307 146.355 387.685 137.948C404.082 116.347 407.694 91.6043 420.04 69.0601C425.231 59.5802 435.039 51.2559 448.221 44.4566C465.581 35.498 477.048 22.7379 494.65 14.7916C516.187 5.06838 560.335 26.2353 576.283 33.4256C607.11 47.324 624.343 62.6084 642.464 81.5378C658.435 98.2211 682.341 121.009 706.939 130.549C723.251 136.875 750.424 136.432 765.834 144.808C779.867 152.437 791.413 164.733 803.362 175.025C821.917 191.009 847.328 202.826 871.299 215.86C893.668 228.025 899.686 250.86 904.149 267.357C907.237 278.774 903.008 290.14 892.747 300.163C875.397 317.107 862.435 336.093 847.304 354.045C845.655 354.77 844.828 355.122 843.16 355.787C858.809 338.078 871.939 319.383 888.906 302.37C898.621 292.629 901.845 281.568 899.284 270.611C895.569 254.718 890.981 233.256 870.5 220.548C848.043 206.615 820.8 197.426 802.656 180.895C791.124 170.385 779.502 158.107 765.503 150.17C749.312 140.985 721.102 141.489 705.971 134.459C682.112 123.372 655.688 99.7678 638.735 81.7246C621.306 63.1731 606.483 47.2024 574.839 34.1425C558.218 27.2824 515.037 8.63096 494.482 18.9494C478.865 26.7914 467.076 38.0657 450.875 46.2379C437.74 52.8634 429.974 61.079 424.376 69.7074C410.091 91.7476 410.246 119.453 391.671 141.25C378.471 156.739 360.957 170.924 347.864 148.371C340.79 136.184 335.196 122.421 327.668 110.208C325.64 106.915 308.29 84.7789 299.734 103.235C290.267 123.667 267.759 156.76 232.97 171.523C222.152 176.111 203.989 182.476 190.303 179.526C162.878 173.617 158.533 143.47 133.239 136.519C120.365 132.978 98.2771 141.867 88.9456 148.123C66.6798 163.06 59.3436 184.031 50.8064 202.131C45.8953 212.536 41.8627 223.698 33.4517 233.477C28.2369 239.542 18.2886 243.874 15.9662 251.903C7.84491 279.991 16.9007 312.206 37.8955 337.839C45.3252 346.898 58.2735 355.126 76.9272 357.564Z" fill="url(#paint1_linear_3803_1421)"/>
<path d="M81.0671 360.77C79.3663 359.61 78.5158 359.036 76.8243 357.92C14.9053 347.232 11.0409 280.59 18.8164 253.862C21.2136 245.621 34.2459 238.752 40.6803 231.857C55.937 215.504 60.278 193.711 71.9506 175.794C78.9457 165.059 110.389 131.571 139.075 148.606C152.327 156.478 175.724 178.953 198.658 179.665C207.732 179.948 223.162 181.412 236.993 175.964C270.88 162.621 283.459 133.065 297.608 113.523C307.944 99.2512 321.08 94.2723 329.313 113.966C335.374 128.469 342.434 145.382 350.467 159.298C361.415 178.271 377.84 166.128 389.606 153.394C409.545 131.818 409.652 105.951 419.432 82.2334C423.899 71.4067 430.609 60.6278 446.259 52.7467C461.3 45.1741 476.795 36.5544 493.584 30.0245C517.542 20.7053 555.718 30.7239 576.816 38.0533C615.768 51.591 624.801 74.865 650.412 94.1029C669.856 108.709 686.771 132.453 706.593 140.594C720.77 146.42 747.573 148.119 762.928 156.821C777.507 165.085 788.38 177.971 800.347 188.259C817.043 202.609 839.463 212.332 862.771 223.176C887.682 234.768 891.663 259.741 896.485 276.089C900.008 288.041 890.966 298.885 880.5 309.108C865.584 323.68 855.654 340.146 842.804 355.495C841.131 356.156 840.295 356.469 838.613 357.064C851.659 342.409 861.407 326.686 875.579 312.549C885.934 302.226 894.681 291.278 891.499 279.3C887.28 263.429 884.28 238.469 859.715 227.23C837.178 216.92 815.74 208.248 799.469 194.532C787.352 184.323 776.6 171.571 762.484 162.991C746.769 153.441 720.34 151.065 704.873 144.948C696.13 141.489 692.518 131.479 685.79 124.81C675.056 114.171 660.131 104.652 647.057 94.8501C621.586 75.7513 613.081 51.8908 574.68 38.9787C551.438 31.1627 517.64 27.157 493.575 34.6906C459.683 45.3001 431.539 61.0231 423.946 82.8287C415.203 107.94 414.516 133.739 393.713 156.591C379.069 172.679 359.705 183.797 348.985 160.975C342.677 147.541 338.238 132.175 331.163 118.68C322.028 101.258 314.028 99.4467 300.655 117.507C286.702 136.35 272.254 173.865 234.358 182.911C219.395 186.482 204.466 184.922 193.503 183.367C169.714 179.987 153.378 162.917 137.883 153.585C123.697 145.039 101.623 152.286 92.1977 160.449C71.1048 178.723 63.876 201.262 52.7548 221.599C47.7876 230.684 43.4466 237.661 35.6992 243.383C31.0311 246.828 24.8677 248.41 23.3817 254.388C16.5408 281.846 20.2837 349.005 81.0671 360.77Z" fill="url(#paint2_linear_3803_1421)"/>
<path d="M85.2448 364.074C83.5159 362.879 82.6514 362.284 80.9272 361.12C21.882 349.733 20.5316 282.835 26.3071 256.285C28.1155 247.965 40.6712 245.497 46.4047 240.275C62.1333 225.942 66.792 207.16 76.3666 191.524C82.8103 180.997 110.127 144.594 141.524 163.471C156.472 172.46 180.822 181.814 202.074 183.947C210.858 184.829 225.274 191.203 237.68 189.769C271.562 185.859 285.426 149.955 295.767 134.371C305.977 118.982 320.024 98.9843 332.14 123.905C339.504 139.059 346.565 157.067 351.257 171.409C357.476 190.429 383.223 175.193 390.601 168.633C414.404 147.474 417.647 121.959 421.544 96.547C423.339 84.8687 428.647 69.3063 444.698 61.9857C458.16 55.8468 476.015 50.5681 493.005 46.6666C522.976 39.7805 548.069 37.2432 577.652 44.0077C617.142 53.0402 635.843 88.8874 661.795 107.591C673.169 115.789 683.351 124.092 690.841 133.776C695.458 139.745 696 147.692 704.654 151.319C721.457 158.358 744.634 160.456 759.844 170.379C773.54 179.316 784.497 191.959 796.927 202.16C813.277 215.58 834.379 223.066 856.725 232.502C880.63 242.595 883.743 267.372 888.065 282.717C890.822 292.514 885.28 301.773 877.546 310.431C864.131 325.442 851.309 341.309 838.225 356.754C836.538 357.34 835.688 357.618 833.992 358.139C846.912 343.437 859.64 328.422 872.481 313.964C880.303 305.153 885.607 295.734 883.116 285.828C879.336 270.813 876.92 246.031 853.542 236.573C832.328 227.993 811.744 220.898 795.862 208.264C783.292 198.267 772.442 185.933 759.255 176.826C743.541 165.969 720.602 163.241 702.523 155.729C693.182 151.849 693.327 143.695 688.893 137.356C681.393 126.638 671.384 118.022 658.973 109.046C634.02 90.9946 614.502 53.7831 576.662 45.9368C547.56 39.9021 523.668 45.1373 493.131 51.6064C451.445 60.4347 431.507 72.4431 427.283 96.321C422.759 121.88 419.432 149.994 394.741 170.922C379.312 183.999 360.887 189.274 349.78 172.06C341.691 159.526 335.776 142.739 333.248 130.079C332.355 125.617 327.771 117.219 318.757 118.856C307.127 120.968 301.052 136.196 297.309 141.783C288.272 155.273 270.319 198.615 235.105 196.946C220.811 196.268 208.055 189.165 196.938 187.384C176.369 184.091 154.818 175.601 139.912 167.39C111.062 151.497 85.4878 186.749 80.0674 195.591C70.8574 210.614 66.1659 228.801 50.3579 242.352C44.9048 247.039 32.4518 249.312 30.8397 256.919C25.1156 283.908 27.466 351.683 85.2448 364.074Z" fill="url(#paint3_linear_3803_1421)"/>
<path d="M89.4552 367.407C87.6935 366.208 86.815 365.604 85.0627 364.409C29.0502 351.905 29.139 285.316 33.8491 258.879C35.2369 251.093 46.6619 249.29 52.6243 245.411C68.6707 234.962 73.2453 218.957 81.2965 206.457C88.4271 195.383 110.272 161.473 143.893 176.002C160.939 183.366 187.906 184.873 205.494 189.261C215.083 191.651 225.554 202.721 238.054 205.74C265.039 212.249 284.899 171.731 290.497 163.202C295.127 156.151 302.492 135.862 315.379 132.716C321.743 131.161 330.706 127.898 332.561 138.53C334.622 150.351 345.107 166.539 351.972 179.086C359.509 192.867 383.676 182.288 391.494 177.939C420.138 161.999 426.946 132.951 427.876 109.712C428.367 97.4731 428.558 81.8848 443.493 72.1572C454.553 64.9539 478.267 66.5875 492.847 63.9068C517.444 59.3841 549.317 44.9905 578.704 52.2981C601.904 58.0677 611.096 72.5352 623.497 83.6356C638.417 96.9952 659.193 108.991 672.664 122.024C684.145 133.129 684.832 154.735 701.486 162.194C718.771 169.937 741.153 173.173 756.368 183.996C769.386 193.258 780.437 205.332 793.105 215.259C803.109 223.101 812.586 229.575 827.511 235.118C837.38 238.785 849.29 240.284 856.748 245.302C873.5 256.585 875.491 274.637 879.678 289.104C882.603 299.214 876.486 308.72 868.253 317.474C856.122 330.374 845.206 344.394 833.604 357.84C831.903 358.357 831.053 358.596 829.342 359.044C849.314 338.95 876.005 317.974 875.023 294.444C874.379 279.038 870.552 258.019 850.632 247.123C832.562 237.239 808.651 232.977 791.848 220.473C778.989 210.906 768.031 199.115 755.527 189.848C739.835 178.222 718.808 174.603 698.879 166.448C681.225 159.223 680.837 134.95 669.875 124.184C656.847 111.385 636.787 99.4021 621.937 86.3858C609.717 75.6763 600.306 60.6397 577.76 55.1699C547.971 47.9448 518.444 64.7975 493.15 68.7902C452.081 75.2723 434.815 82.5364 434.605 108.513C434.413 132.656 425.834 160.843 395.218 177.718C384.134 183.826 359.5 194.384 350.28 179.312C343.841 168.79 336.654 156.447 332.57 146.272C324.659 126.56 293.431 169.281 291.081 172.847C286.329 180.059 263.011 224.713 235.914 212.535C223.363 206.896 213.438 196.508 200.499 192.311C184.668 187.18 159.051 185.195 142.477 178.791C111.698 166.891 91.5579 200.105 85.1188 209.885C77.1564 221.98 72.6005 237.095 56.6897 246.997C50.8347 250.642 39.5733 252.301 38.335 259.731C35.2323 278.369 38.3023 297.55 44.5685 316.006C49.9655 331.881 58.1803 359.882 89.4552 367.407Z" fill="url(#paint4_linear_3803_1421)"/>
<path d="M93.6743 370.667C91.936 369.52 91.0108 368.912 89.2258 367.712C58.8948 360.079 52.0398 332.4 47.2596 316.881C41.6943 298.812 39.0729 280.165 41.4093 261.935C42.456 253.78 52.5538 253.111 59.0817 249.64C74.0907 241.663 79.6186 229.676 86.6931 219.284C94.2864 208.127 113.253 175.564 146.766 184.605C165.098 189.549 195.083 188.29 208.783 196.244C220.311 202.935 226.989 214.422 239.124 221.943C261.315 235.693 280.048 200.802 284.207 194.728C287.604 189.762 317.519 143.757 330.514 156.331C338.523 164.081 342.883 176.029 352.499 184.193C360.494 190.979 377.144 188.437 391.751 181.038C421.6 165.924 432.194 143.87 435.521 122.499C439.562 96.5361 442.96 80.3482 494.916 78.9232C521.028 78.2063 550.158 54.8845 579.222 64.3862C601.909 71.8024 616.035 87.6254 631.478 98.652C648.571 110.856 671.014 123.186 677.949 137.727C683.206 148.741 683.103 163.273 698.892 172.158C715.7 181.616 737.723 184.805 752.316 195.788C764.708 205.112 775.886 216.621 788.848 225.857C798.179 232.504 808.343 238.635 821.81 243.496C831.277 246.911 842.309 248.649 849.346 253.519C865.477 264.676 867.575 281.272 871.299 295.245C877.327 317.837 847.005 339.716 828.922 358.719C827.211 359.162 826.356 359.371 824.646 359.744C843.515 340.628 870.981 320.647 866.481 298.108C863.715 284.253 861.617 267.691 845.552 256.5C830.8 246.216 803.38 240.26 787.39 229.541C774.241 220.726 763.246 209.708 751.241 200.672C736.013 189.202 714.06 186.096 695.827 176.494C678.739 167.496 679.014 151.704 674.014 140.151C667.87 125.962 646.637 113.754 630.184 102.045C615.24 91.4095 600.713 76.3468 578.965 69.213C550.597 59.9069 521.934 81.2997 496.397 82.2946C450.693 84.0759 446.104 97.2226 442.773 120.497C439.548 143.041 425.913 165.841 395.279 179.965C385.386 184.527 363.705 194.272 350.663 184.558C343.565 179.27 337.294 167.396 330.093 163.99C313.496 156.14 289.496 196.953 285.23 203.326C280.8 209.943 262.432 243.857 237.853 227.508C224.47 218.61 216.863 206.689 204.041 198.773C190.831 190.614 164.257 190.614 145.519 186.921C114.122 180.73 97.8985 211.081 90.6136 221.778C83.7119 231.914 78.0205 243.366 63.2638 251.004C56.778 254.358 46.6755 255.361 45.8484 263.143C43.8999 281.433 47.054 300.124 52.5024 318.21C57.2547 333.985 63.3106 362.512 93.6743 370.667Z" fill="url(#paint5_linear_3803_1421)"/>
<path d="M97.6275 373.712C96.0247 372.635 95.1837 372.079 93.4127 370.927C64.2359 362.49 59.6238 334.32 55.4324 318.853C50.6895 301.353 48.0447 283.453 48.9606 265.779C49.3764 257.763 58.6659 256.568 65.7966 253.488C79.6373 247.51 86.3101 237.686 92.5155 229.319C101.59 217.084 116.136 188.032 150.089 191.147C170.336 193.002 201.643 193.124 211.984 205.258C220.573 215.333 229.059 226.677 242.161 235.397C261.562 248.309 276.085 227.177 280.492 221.042C288.786 209.494 305.561 174.194 327.449 174.329C334.897 174.376 344.018 184.4 353.144 187.688C362.578 191.086 378.214 188.627 391.919 182.162C417.638 170.028 434.268 154.487 440.819 136.318C448.249 115.702 445.156 83.5043 499.355 88.5919C531.691 91.6244 552.854 73.9331 581.61 81.6926C618.623 91.6809 671.313 127.198 674.809 153.34C676.416 165.392 677.58 175.858 695.299 184.504C712.331 192.815 733.802 195.491 747.727 205.306C759.858 213.856 770.82 224.913 784.142 233.437C800.118 243.66 827.272 249.812 841.902 259.848C857.953 270.858 859.991 287.393 863.005 301.092C867.715 322.476 842.141 341.323 824.221 359.405C822.506 359.779 821.651 359.957 819.824 360.079C841.239 341.553 859.43 324.188 858.126 303.134C857.281 289.47 854.098 273.877 834.753 262.963C818.258 253.657 797.913 246.354 782.474 236.509C769.362 228.15 757.031 218.865 746.424 209.729C733.503 198.598 710.041 196.386 692.276 188.357C673.323 179.794 672.159 168.029 670.117 155.569C665.93 130 619.936 97.2594 582.003 87.1147C552.891 79.3291 532.593 93.119 500.869 90.825C453.212 87.3754 455.062 115.168 448.114 133.78C441.109 152.536 420.876 169.367 395.325 180.885C383.961 186.007 367.326 192.65 351.252 188.344C345.911 186.915 339.733 178.178 327.22 180.902C302.398 186.298 291.954 214.351 282.777 226.781C276.927 234.71 261.978 252.015 241.348 238.951C227.026 229.879 218.694 216.046 207.615 207.131C194.195 196.334 175.551 194.214 149.005 193.097C118.178 191.798 104.688 219.23 96.5107 230.635C90.5342 238.972 83.6092 248.6 70.0768 254.761C62.9789 257.993 53.7034 259.562 53.3249 267.382C52.4558 285.243 55.6753 303.403 60.5163 321.086C64.7078 336.409 68.8479 365.175 97.6275 373.712Z" fill="url(#paint6_linear_3803_1421)"/>
<path d="M101.24 376.51C99.7585 375.515 98.9875 374.994 97.3474 373.916C69.8621 365.366 66.75 337.187 62.9978 322.363C58.6428 305.141 55.6989 287.48 56.4652 270.111C56.8251 261.921 65.3949 260.222 72.9321 256.959C84.1141 252.115 93.7213 243.461 98.7165 236.488C108.095 223.393 121.118 197.021 153.813 196.074C185.724 195.149 202.513 201.765 215.419 216.016C223.802 225.274 232.255 236.939 245.484 244.76C257.881 252.089 277.277 245.424 281.352 237.887C289.3 223.171 302.398 202.148 324.809 190.487C334.313 185.543 343.85 189.566 354.084 190.352C364.7 191.169 379.176 188.966 392.134 182.806C411.11 173.777 430.885 162.199 440.89 149.76C453.048 134.645 455.469 89.3659 503.65 95.6699C534.42 99.693 558.134 92.4245 585.872 100.736C627.605 113.24 663.463 138.338 668.968 165.701C674.533 193.337 713.308 195.235 742.602 214.404C754.125 221.946 765.25 231.609 778.937 238.942C795.525 247.827 815.371 256.56 830.417 266.24C848.108 277.618 851.655 292.598 854.8 306.627C859.061 325.643 837.38 343.926 819.333 359.705C817.483 359.796 816.525 359.77 814.544 359.579C835.632 346.48 852.991 326.282 850.197 309.108C845.057 277.54 820.623 261.248 777.063 240.728C763.475 234.324 752.293 225.7 741.069 218.601C726.574 209.434 705.925 205.81 688.986 197.86C670.72 189.283 666.87 179.682 664.136 167.439C658.122 140.498 626.614 118.21 585.451 105.702C559.242 97.7379 533.808 101.978 505.024 97.5685C463.763 91.2427 458.544 134.072 447.642 146.702C436.432 159.688 414.932 172.5 395.419 181.585C382.653 187.528 370.317 191.569 352.177 191.473C346.21 191.443 339.855 186.498 325.192 195.509C305.309 207.726 294.8 225.895 284.852 240.276C278.165 249.939 259.731 254.492 244.591 246.58C229.503 238.695 220.582 226.934 211.499 217.25C198.943 203.864 182.046 195.731 152.879 197.842C128.29 199.624 117.87 217.771 109.043 228.706C98.2772 242.049 81.5113 251.524 67.0818 262.729C50.2598 275.789 59.9605 300.827 63.9791 316.407C68.3341 333.255 72.0817 366.022 101.24 376.51Z" fill="url(#paint7_linear_3803_1421)"/>
<path d="M104.543 379.03C103.174 378.131 102.459 377.653 100.95 376.658C76.2589 366.813 74.0019 341.432 70.1749 326.63C65.7638 309.56 60.3247 290.731 63.9367 274.447C66.8152 261.483 95.3658 253.506 105.394 241.567C116.141 228.768 127.248 202.561 157.911 200.154C191.48 197.517 206.396 213.097 219.423 227.352C227.068 235.719 234.587 244.678 249.002 250.504C262.95 256.139 275.856 255.266 284.842 246.368C298.772 232.569 307.622 216.942 323.659 203.747C333.846 195.367 344.322 193.959 355.35 192.973C366.929 191.939 380.27 189.584 392.381 183.575C408.951 175.36 425.404 165.802 438.086 156.126C455.922 142.519 462.076 125.475 477.706 110.912C484.678 104.417 491.692 99.5376 507.631 102.053C536.976 106.685 565.882 111.498 591.993 119.684C633.146 132.583 655.463 150.452 663.071 175.62C670.402 199.881 706.294 206.602 736.985 222.307C748.573 228.238 760.138 236.506 773.334 242.336C817.45 261.826 841.141 281.138 846.748 311.737C849.678 327.716 834.744 347.176 813.992 359.119C811.992 358.906 810.959 358.728 808.843 358.259C833.305 348.301 843.73 329.506 842.281 313.961C839.388 282.962 816.282 262.63 771.302 243.626C758.521 238.226 746.797 230.719 735.279 225.214C701.523 209.078 665.977 203.465 658.206 177.019C650.823 151.903 628.436 136.276 589.395 123.542C565.531 115.756 536.653 108.831 508.944 104.021C494.337 101.488 490.43 106.519 482.921 111.655C466.51 122.877 460.207 141.176 444.394 152.968C430.558 163.282 412.722 173.978 395.564 182.533C383.022 188.784 370.419 192.564 353.518 194.702C347.261 195.493 339.958 193.855 324.865 207.223C310.388 220.048 299.323 235.224 288.328 247.828C281.468 255.691 259.712 257.208 248.166 251.755C235.012 245.542 223.774 236.892 215.461 227.973C202.592 214.166 190.022 200.05 157.093 201.975C156.659 202.001 156.159 202.018 155.752 202.083C133.51 205.659 123.907 223.672 115.337 234.199C105.221 246.629 87.2586 256.404 73.9972 267.409C57.7547 280.886 67.6516 306.058 71.5627 321.851C75.7215 338.595 78.6233 367.278 104.543 379.03Z" fill="url(#paint8_linear_3803_1421)"/>
<path d="M107.501 381.225C106.268 380.425 105.642 380.012 104.244 379.113C83.1047 368.291 80.8992 346.19 77.1002 331.696C72.6097 314.578 66.3108 295.232 71.6611 278.926C75.8619 266.123 101.1 257.634 112.057 245.651C122.707 234.008 133.702 206.597 162.505 204.486C194.504 202.14 210.181 223.672 222.419 236.232C229.143 243.136 240.76 250.587 252.834 254.94C264.208 259.041 280.17 257.551 288.431 251.768C304.108 240.789 312.725 225.683 324.533 214.17C331.435 207.44 341.173 199.068 356.948 196.527C369.083 194.572 380.999 191.53 392.667 185.031C407.129 176.972 421.003 168.317 434.61 159.893C454.642 147.489 468.94 134.412 485.09 120.379C491.417 114.883 497.426 106.78 511.58 109.213C537.99 113.749 563.083 127.148 587.769 135.25C627.306 148.228 647.375 160.08 657.473 184.092C667.225 207.28 697.818 215.087 731.008 228.347C743.228 233.226 754.639 239.695 767.428 244.713C812.1 262.243 835.88 287.164 838.837 316.377C840.272 330.532 831.922 349.205 808.249 357.755C806.114 357.264 805.021 356.956 802.792 356.243C830.487 349.552 834.482 332.113 834.258 318.306C833.81 290.505 809.436 262.126 765.269 245.625C753.522 241.237 740.237 234.894 729.167 231.257C690.781 218.658 660.739 208.917 652.623 185.131C645.156 163.247 619.507 149.648 583.994 138.031C559.962 130.171 537.35 116.582 512.874 111.685C500.725 109.252 494.678 116.412 488.786 121.326C473.553 134.025 458.857 145.882 440.25 157.125C425.451 166.067 410.844 175.768 395.821 184.353C384.667 190.727 370.681 196.713 355.257 199.125C349.046 200.094 340.626 201.219 326.538 216.538C315.711 228.307 307.188 242.167 291.87 252.507C280.758 260.01 267.063 260.814 252.119 255.891C238.615 251.442 226.073 243.348 218.283 236.015C206.116 224.554 191.733 205.133 161.794 206.593C161.364 206.615 160.892 206.641 160.472 206.697C137.529 209.878 129.015 231.635 120.085 241.228C109.894 252.181 93.025 262.161 82.058 272.514C66.8622 286.855 75.661 311.581 79.231 327.899C82.6795 343.635 84.6047 369.359 107.501 381.225Z" fill="url(#paint9_linear_3803_1421)"/>
<path d="M110.263 383.153C109.062 382.418 108.459 382.04 107.198 381.237C89.4599 370.453 87.2029 350.62 83.5815 337.126C78.9975 320.043 72.1753 300.049 79.6143 283.8C85.2917 271.401 106.244 260.648 118.085 249.078C128.646 238.751 143.496 210.49 167.523 209.786C193.303 209.034 211.831 232.056 225.41 242.618C234.746 249.882 246.255 255.322 256.956 258.489C268.577 261.93 283.109 260.435 292.109 255.565C308.239 246.841 317.108 234.494 327.024 223.693C333.729 216.39 342.855 204.729 358.799 202.274C370.224 200.514 382.742 194.771 393.013 188.002C405.559 179.734 417.727 171.062 430.914 163.134C444.114 155.196 498.477 114.24 515.407 118.628C538.56 124.623 559.149 137.8 586.293 145.707C623.409 156.512 644.202 170.524 651.983 191.864C659.711 213.057 688.281 224.427 724.584 234.685C736.429 238.034 749.429 242.262 761.27 246.363C805.535 261.699 825.562 293.489 830.702 320.139C833.333 333.772 828.824 350.047 802.147 355.673C799.899 354.943 798.755 354.526 796.427 353.614C803.516 352.406 815.516 352.045 820.137 348.031C827.973 341.227 827.333 329.831 825.931 322.033C821.193 295.639 802.231 261.96 758.999 247.106C747.737 243.235 734.574 240.563 722.411 237.53C683.692 227.872 654.445 214.734 646.922 192.981C639.974 172.896 617.072 158.976 582.863 148.714C556.48 140.798 537.102 127.456 516.491 122.082C501.201 118.098 447.82 153.845 435.829 160.918C421.587 169.325 408.718 178.913 396.186 188.141C386.798 195.049 372.083 204.329 357.224 206.658C343.757 208.769 336.019 219.405 329.155 226.686C319.786 236.631 310.847 248.622 295.515 256.456C284.086 262.295 270.539 263.146 256.357 259.28C243.068 255.656 229.643 248.726 221.148 242.157C207.938 231.948 192.051 213.47 166.911 212.393C166.523 212.375 166.009 212.397 165.617 212.453C144.655 215.508 134.3 236.957 123.674 246.967C112.707 257.298 99.7072 267.786 90.0953 278C75.5583 293.45 82.9881 317.132 86.5861 334.406C89.5486 348.622 90.7822 371.935 110.263 383.153Z" fill="url(#paint10_linear_3803_1421)"/>
<path d="M112.977 384.874C111.767 384.187 111.169 383.831 109.945 383.092C95.945 372.292 94.0759 355.339 90.6461 342.609C86.1929 326.074 78.8567 304.968 87.7677 289.51C95.0665 276.854 109.8 263.729 122.813 251.777C131.972 243.366 155.341 215.916 172.91 217.172C194.143 218.688 213.306 238.174 228.932 247.932C239.315 254.414 250.95 259.141 261.258 261.465C273.025 264.12 286.263 262.981 295.916 259.341C311.57 253.441 320.687 243.114 329.635 234.385C336.429 227.76 345.91 215.621 360.606 214.135C375.788 212.597 386.76 200.801 393.704 194.345C403.834 184.926 414.703 175.281 427.348 167.061C442.188 157.416 497.757 125.709 517.738 132.83C540.775 141.037 566.825 155.861 597.843 166.483C622.539 174.938 642.805 183.753 646.057 200.219C650.029 220.309 683.177 233.82 717.209 241.08C730.228 243.861 743.662 244.656 754.792 247.949C798.067 260.77 816.52 298.82 822.221 323.854C823.893 331.196 825.178 341.619 818.665 348.388C815.445 351.729 800.562 352.228 795.726 353.032C793.39 352.107 792.203 351.598 789.805 350.53C794.534 350.152 810.006 351.876 813.141 349.43C820.95 343.335 818.931 332.095 817.197 324.979C811.506 301.575 794.838 259.932 752.344 249.001C741.461 246.203 727.994 246.515 714.639 243.965C675.346 236.458 646.491 221.825 641.029 201.714C637.286 187.92 619.011 178.236 596.563 170.906C565.596 160.796 542.55 147.71 517.836 138.009C495.21 129.129 446.067 156.291 431.665 165.632C418.067 174.451 406.806 185.343 397.054 195.988C389.395 204.342 379.746 221.13 359.088 221.434C352.864 221.525 345.303 225.275 331.771 238.048C323.402 245.946 314.182 255.691 299.272 260.744C287.473 264.741 274.964 265.136 260.754 262.243C249.371 259.923 233.778 253.102 224.633 247.415C210.152 238.413 190.349 220.808 172.102 220.722C160.981 220.669 147.495 233.173 140.425 238.917C119.94 255.552 101.954 273.682 92.4077 292.759C84.3098 308.934 91.0526 329.532 95.3469 346.494C98.5057 358.923 100.155 374.112 112.977 384.874Z" fill="url(#paint11_linear_3803_1421)"/>
<path d="M115.735 386.432C114.468 385.768 113.856 385.433 112.632 384.734C100.95 374.381 99.8471 359.135 97.2584 347.566C93.5996 331.217 87.9782 312.179 95.9453 296.36C103.043 282.27 112.179 266.973 125.823 253.87C135.122 244.937 158.565 224.378 176.63 225.869C196.877 227.541 216.783 244.086 233.199 252.64C244.544 258.553 256.147 262.533 265.642 264.127C277.286 266.087 289.693 265.9 299.889 263.841C310.757 261.642 321.673 255.495 332.294 247.01C346.803 235.418 356.088 232.433 362.41 233.246C379.686 235.462 389.9 214.481 394.727 207.552C403.063 195.578 411.372 183.174 424.376 172.908C441.231 159.6 485.818 133.394 517.364 151.228C543.064 165.752 565.545 176.192 599.848 184.573C621.922 189.965 636.319 196.934 640.235 209.937C645.735 228.197 670.888 241.236 708.691 247.631C722.929 250.038 736.475 248.939 747.919 250.72C790.264 257.311 807.623 305.054 813.053 325.973C815.174 334.136 817.964 344.255 810.67 349.664C808.254 351.454 792.007 349.734 789.081 349.933C786.675 348.856 785.455 348.287 783.007 347.105C785.558 347.201 802.455 350.659 804.716 349.529C813.071 345.367 809.464 334.041 807.417 326.051C802.553 307.1 785.497 256.655 745.311 252.527C733.989 251.363 720.214 252.883 705.626 250.529C666.43 244.207 644.959 232.229 635.571 211.875C629.693 199.132 621.796 194.235 599.016 189.873C563.648 183.1 542.2 173.877 517.369 157.08C486.449 136.165 445.735 158.193 428.451 172.63C414.315 184.438 406.526 199.032 398.017 212.687C393.62 219.743 381.27 247.348 360.971 242.661C354.943 241.27 347.182 242.895 334.439 251.962C324.192 259.253 313.645 264.462 303.192 266.095C291.118 267.981 279.188 267.225 265.226 265.04C253.941 263.271 241.329 258.592 228.979 252.223C213.998 244.498 195.943 229.701 174.621 228.367C164.64 227.741 150.551 236.613 141.795 242.296C116.683 258.584 108.44 279.829 100.043 299.649C93.0716 316.111 97.7911 334.892 101.37 351.689C103.707 362.594 104.478 376.757 115.735 386.432Z" fill="url(#paint12_linear_3803_1421)"/>
<path d="M118.613 387.865C117.262 387.209 116.613 386.878 115.342 386.201C94.0805 365.316 93.0571 325.381 103.043 303.185C109.982 287.761 115.276 270.761 127.402 256.098C135.981 245.732 158.256 230.661 177.387 231.855C197.896 233.133 220.068 248.938 238.137 257.076C250.17 262.493 261.613 265.787 270.006 266.873C281.146 268.315 293.613 269.957 304.033 269.866C314.332 269.775 324.869 267.164 334.995 262.259C348.695 255.625 357.578 255.725 364.214 258.396C380.755 265.061 393.133 236.617 395.675 231.669C403.946 215.572 409.974 197.403 422.834 182.601C445.842 156.112 478.636 147.002 516.649 171.192C540.793 186.555 554.209 199.032 593.923 200.883C621.487 202.169 631.893 206.123 635.949 220.977C640.861 238.981 668.341 248.36 698.77 254.139C713.611 256.958 729.699 255.047 740.69 255.638C777.946 257.641 797.3 308.22 802.763 326.094C804.964 333.297 809.908 345.688 802.221 349.285C800.604 350.041 783.698 346.561 782.263 346.491C779.81 345.31 778.572 344.697 776.091 343.454C779.693 343.767 794.758 349.168 796.571 348.52C804.202 345.8 798.384 332.08 796.361 325.433C791.006 307.851 771.287 259.548 737.951 258.501C727.704 258.179 710.415 259.856 695.196 256.937C664.645 251.076 634.968 241.292 631.422 223.066C628.543 208.273 618.156 208.243 593.203 207.591C554.04 206.57 539.382 192.415 516.77 177.309C480.351 152.975 449.412 155.6 427.221 184.209C414.058 201.183 407.689 221.42 398.965 239.632C396.381 245.02 381.082 278.429 362.882 268.932C356.293 265.495 349.298 264.388 337.172 268.637C325.528 272.716 315.963 273.807 307.295 273.285C295.715 272.59 282.113 269.775 269.702 268.089C259.936 266.764 247.343 262.828 234.114 256.885C216.792 249.108 196.69 235.322 174.578 233.459C165.49 232.694 149.649 239.124 141.224 244.702C116.309 261.203 113.968 286.375 106.473 306.508C98.4962 327.953 95.543 368.423 118.613 387.865Z" fill="url(#paint13_linear_3803_1421)"/>
<path d="M121.665 389.2C120.202 388.535 119.506 388.205 118.156 387.532C98.5065 367.738 100.488 331.243 109.039 310.146C115.777 293.515 119.702 276.054 128.875 259.731C135.249 248.383 155.44 233.559 176.972 236.257C199.943 239.133 222.751 253.127 243.582 261.486C255.979 266.456 266.469 269.359 274.301 270.267C285.46 271.561 297.791 275.906 308.384 278.152C317.005 279.977 326.505 281.098 337.762 280.077C350.804 278.895 359.215 282.201 366.046 286.902C382.074 297.942 395.307 266.291 396.62 263.446C405.756 243.634 412.082 221.911 422.414 202.174C427.596 192.272 436.675 169.294 460.273 166.639C483.225 164.054 505.01 183.188 516 191.143C536.804 206.21 558.775 229.653 598.377 222.802C611.96 220.451 635.745 218.197 628.437 230.057C620.591 242.787 673.104 257.111 687.44 260.278C700.201 263.098 720.869 263.485 733.144 263.28C764.545 262.75 785.32 308.156 791.297 324.231C793.348 329.749 801.04 345.515 793.764 347.913C792.46 348.343 778.559 343.065 775.325 342.874C772.844 341.635 771.596 341.001 769.106 339.745C770.12 339.932 785.475 345.567 786.76 345.376C794.203 344.264 786.582 327.95 784.881 322.888C780.124 308.738 764.489 266.648 730.242 267.147C715.514 267.36 696.79 265.931 683.459 262.902C671.833 260.265 610.834 244.138 623.521 231.904C629.698 225.943 613.404 224.188 602.849 229.497C569.349 246.345 531.131 207.956 516.239 197.008C506.739 190.022 483.473 168.308 461.689 170.519C439.273 172.795 430.746 198.337 426.652 206.605C416.209 227.707 409.48 250.964 399.891 272.23C398.036 276.349 381.994 310.211 364.817 297.177C358.121 292.098 351.322 288.132 339.967 287.732C329.272 287.354 320.019 285.716 311.594 282.992C299.375 279.034 287.104 273.634 274.1 272.035C265.054 270.923 253.488 267.273 239.839 261.686C219.611 253.41 198.49 241.04 174.061 237.547C163.248 236.001 148.169 241.327 140.566 247.705C119.104 265.709 118.922 292.876 111.95 313.708C104.988 334.471 101.077 369.949 121.665 389.2Z" fill="url(#paint14_linear_3803_1421)"/>
<path d="M124.907 390.445C123.318 389.767 122.561 389.428 121.103 388.746C104.412 369.416 106.716 337.692 114.164 317.55C120.486 300.445 126.262 282.81 132.112 265.788C135.724 255.27 150.472 234.832 178.032 240.897C204.358 246.693 226.175 257.637 249.352 266.244C262.095 270.975 271.356 273.326 278.524 275.416C289.295 278.557 302.15 284.422 312.953 289.249C321.266 292.968 330.359 296.83 340.584 299.694C352.803 303.113 361.176 310.638 367.891 314.252C382.984 322.377 394.054 303.052 397.545 296.087C407.591 276.037 413.348 253.684 421.661 232.994C425.894 222.454 433.333 188.492 458.356 183.3C481.019 178.595 505.518 202.738 515.196 209.903C529.621 220.582 559.732 249.309 590.839 243.952C602.876 241.879 606.792 233.242 618.885 232.247C620.329 233.842 619.506 235.267 616.824 236.535C595.427 246.671 666.617 264.107 675.126 265.936C690.243 269.185 707.906 271.406 724.774 272.583C759.722 275.02 772.862 305.754 779.399 321.412C780.465 323.958 789.333 357.125 768.311 339.173C765.82 337.922 764.572 337.296 762.087 336.067C781.301 354.145 773.549 321.925 772.526 319.349C766.703 304.677 754.447 279.43 721.293 276.497C704.191 274.986 686.509 271.94 671.094 268.521C663.299 266.791 589.161 246.437 612.025 238.438C614.525 237.565 615.805 236.679 614.46 235.601C605.259 239.872 599.296 246.928 586.53 248.466C558.564 251.842 528.966 226.334 514.813 216.003C505.201 208.986 482.239 186.772 460.487 191.381C437.132 196.33 430.072 227.885 425.726 238.734C417.25 259.905 412.502 282.906 400.792 303.343C398.797 306.823 384.774 336.08 366.77 322.772C360.424 318.084 353.382 311.998 342.812 307.996C333.088 304.316 324.131 299.967 316.094 295.492C305.07 289.349 292.304 282.358 278.389 278.027C270.184 275.472 259.913 272.479 245.969 267.017C223.778 258.324 201.442 246.906 175.56 242.375C162.971 240.172 148.976 244.825 142.35 252.363C124.739 272.4 123.907 299.602 116.697 321.456C110.309 340.811 106.253 372.353 124.907 390.445Z" fill="url(#paint15_linear_3803_1421)"/>
<path d="M128.351 391.599C126.627 390.908 125.804 390.556 124.225 389.856C108.824 372.296 111.585 343.595 118.725 325.53C125.445 308.53 130.122 290.46 136.809 273.525C140.958 263.007 150.584 239.277 181.747 246.815C207.667 253.084 232.049 262.864 255.371 272.013C267.955 276.953 276.076 279.734 282.931 282.931C295.627 288.857 307.174 296.191 317.79 303.129C325.467 308.152 334.327 314.282 343.49 319.304C354.869 325.543 363.107 332.277 369.784 335.384C386.386 343.113 394.882 327.368 398.484 322.089C409.4 306.11 414.054 287.033 420.563 269.55C425.951 255.082 430.899 219.504 456.623 209.829C478.09 201.757 499.771 220.551 511.771 228.063C526.71 237.413 557.396 258.536 583.825 254.596C596.269 252.741 603.283 245.889 609.096 240.124C606.909 240.576 605.329 241.536 604.18 242.713C590.255 256.959 648.193 268.611 663.038 271.727C679.818 275.25 697.355 278.926 714.985 281.141C746.601 285.121 759.877 302.617 766.816 317.423C768.76 321.572 785.614 348.396 761.283 335.54C758.797 334.324 757.559 333.724 755.092 332.573C759.676 335.041 763.18 335.014 768.236 338.147C762.003 315.281 756.83 291.733 711.088 284.243C694.117 281.467 676.636 277.779 659.59 274.485C642.557 271.197 582.115 257.615 600.007 245.029C601.016 244.316 602.759 243.569 604.133 242.839C595.657 274.233 528.901 243.165 511.047 232.321C498.902 224.948 479.58 208.864 458.529 216.954C434.315 226.256 429.544 261.504 424.441 274.772C417.858 291.899 413.199 311.123 401.704 326.056C397.793 331.139 384.494 346.119 368.765 340.597C362.48 338.39 355.509 332.694 345.733 327.051C337.009 322.015 328.654 315.859 320.851 310.276C309.08 301.856 297.445 292.876 282.842 285.803C274.987 281.997 266.137 279.503 252.427 273.708C230.232 264.323 206.611 254.244 179.981 248.813C129.477 238.508 126.155 315.968 121.038 329.762C114.552 347.288 111.132 374.967 128.351 391.599Z" fill="url(#paint16_linear_3803_1421)"/>
<path d="M131.973 392.638C130.122 391.943 129.23 391.582 127.524 390.861C114.142 374.82 115.403 350.169 123.024 334.007C130.781 317.563 134.907 299.415 142.543 282.806C147.057 272.982 157.958 246.98 188.27 254.457C213.756 260.744 238.694 270.128 261.582 279.46C273.661 284.387 281.352 287.663 287.534 291.773C300.081 300.115 311.655 309.277 322.959 318.371C330.463 324.41 338.435 330.861 346.509 335.784C357.06 342.214 364.943 345.742 371.728 346.263C380.401 346.928 387.111 348.166 399.447 336.118C409.648 326.156 414.129 314.504 419.035 303.525C427.909 283.674 445.563 207.7 507.972 240.689C527.056 250.777 587.162 276.384 598.077 247.245C594.76 246.667 594.148 248.444 593.863 251.246C592.237 267.234 628.82 275.311 652.721 278.026C669.861 279.973 687.047 283.94 703.734 287.185C751.2 296.422 754.872 312.293 765.204 336.979C760.101 333.212 759.634 334.937 754.293 332.091C751.83 330.957 750.602 330.405 748.176 329.38C752.83 331.804 753.508 330.492 758.059 334.003C746.569 309.647 744.948 298.116 698.841 288.666C683.444 285.512 666.249 282.05 650.123 281.089C623.773 279.525 582.055 270.593 590.475 254.014C591.096 252.793 592.349 251.385 593.283 250.073C596.185 277.966 519.313 249.608 507.229 244.021C449.357 217.254 431.016 289.653 422.722 306.658C417.858 316.628 412.933 327.69 402.639 336.705C393.391 344.808 381.434 348.114 370.817 347.966C364.392 347.875 357.883 345.438 348.864 340.446C341.131 336.166 333.155 330.227 325.786 324.349C313.379 314.452 301.113 304.346 287.263 294.997C280.09 290.157 272.362 287.259 259.194 281.798C237.064 272.622 213.812 262.394 187.308 257.25C140.3 248.127 131.655 324.501 125.295 338.443C118.104 354.257 116.973 377.492 131.973 392.638Z" fill="url(#paint17_linear_3803_1421)"/>
<path d="M135.739 393.52C133.771 392.833 132.818 392.473 130.982 391.734C118.711 377.306 119.445 357.295 127.374 342.702C135.977 326.87 140.823 309.279 149.706 293.513C154.584 284.85 169.116 257.045 197.312 264.274C222.568 270.747 245.334 278.819 267.847 287.674C279.034 292.075 285.464 296.954 291.16 301.359C303.351 310.791 315.524 320.34 327.883 329.698C334.948 335.051 342.565 340.273 349.616 343.796C359.462 348.715 367.032 349.536 373.695 348.567C382.377 347.303 388.896 346.59 400.451 340.508C405.437 337.884 411.096 333.63 416.942 325.836C427.806 311.334 452.006 234.37 504.229 251.153C522.869 257.145 579.026 277.799 587.844 255.159C587.708 258.031 588.003 260.989 588.194 263.774C589.339 280.236 617.857 287.452 644.968 285.805C659.314 284.937 677.463 287.109 690.584 289.985C706.056 293.378 737.064 298.331 741.167 308.653C744.213 316.322 750.48 324.815 755.68 332.861C752.9 330.515 750.129 329.208 747.382 328.96C744.97 327.974 743.774 327.465 741.428 326.861C743.774 327.166 746.176 328.334 748.587 330.294C743.433 322.46 738.863 314.44 734.186 306.738C728.494 297.366 700.462 293.778 685.668 291.08C671.407 288.482 655.005 287.965 643.436 289.642C609.852 294.508 586.811 280.266 585.386 266.746C585.143 264.456 585.596 261.372 584.428 258.774C574.624 277.481 520.308 258.035 503.472 254.186C453.515 242.76 432.81 310.995 420.442 326.227C414.643 333.365 408.587 337.314 403.629 339.704C394.33 344.183 383.176 346.66 372.887 348.441C366.583 349.531 360.2 349.184 351.822 345.652C345.028 342.789 337.402 338.149 330.369 333.239C316.552 323.59 303.515 313.48 290.295 303.54C283.842 298.687 277.637 294.894 265.875 290.406C244.245 282.152 222.012 271.999 197.27 268.106C153.117 261.155 138.192 332.327 129.795 347.129C121.66 361.47 122.678 379.704 135.739 393.52Z" fill="url(#paint18_linear_3803_1421)"/>
<path d="M139.449 393.906C137.43 393.323 136.444 393.024 134.547 392.402C125.281 380.133 122.318 362.963 132.108 351.042C143.701 336.922 148.972 319.756 158.556 305.102C164.663 295.766 180.485 270.072 208.176 276.028C230.862 280.912 251.782 288.089 272.838 295.218C282.183 298.381 288.342 304.872 293.585 308.938C305.711 318.345 318.837 327.62 332.906 336.196C339.71 340.345 346.448 343.76 352.466 345.894C361.714 349.174 368.84 348.248 375.7 346.715C384.391 344.768 391.04 343.695 401.503 340.676C405.185 339.611 409.624 337.978 413.965 335.154C436.768 320.304 456.328 259.884 500.421 261.769C524.719 262.808 559.779 276.832 580.559 265.41C583.666 269.846 585.157 274.899 586.806 279.169C591.409 291.095 611.997 304.251 640.118 295.953C650.515 292.885 664 291.217 678.033 292.672C726.176 297.669 724.158 305.845 746.428 329.258C744.433 327.816 742.503 326.938 740.667 326.669C738.326 326.091 737.172 325.852 734.915 325.5C736.419 325.548 738.036 326.208 739.728 327.446C719.934 305.567 719.279 295.922 673.827 294.323C661.057 293.871 649.057 296.878 639.562 300.627C609.619 312.453 587.951 293.845 583.947 281.993C578.521 265.936 580.246 272.948 565.017 271.475C544.12 269.451 519.686 264.341 499.617 265.219C457.525 267.061 443.002 318.974 417.301 334.35C412.909 336.978 408.446 338.486 404.671 339.472C392.475 342.661 384.069 343.747 375.031 345.733C368.611 347.145 362.508 348.118 354.723 345.95C348.901 344.329 342.158 341.449 335.369 337.817C319.696 329.428 305.533 319.922 292.435 310.294C286.426 305.876 280.538 300.38 270.613 297.265C250.147 290.835 229.61 283.727 208.078 279.999C207.737 279.938 207.297 279.886 206.933 279.873C164.355 278.518 152.832 329.258 141.972 345.059C138.383 350.282 132.066 354.535 130.369 359.874C126.613 371.631 130.486 383.027 139.449 393.906Z" fill="url(#paint19_linear_3803_1421)"/>
<path d="M143.145 393.958C141.024 393.354 139.991 393.045 137.987 392.402C131.075 382.371 125.043 365.322 137.547 357.789C160.481 343.973 166.813 280.998 218.405 287.054C238.082 289.365 259.726 295.218 275.628 300.892C283.244 303.607 290.618 311.284 295.623 314.777C308.314 323.631 322.818 332.169 339.037 339.103C344.948 341.631 350.64 343.46 355.453 344.499C364.06 346.358 371.06 344.685 377.779 343.317C386.106 341.618 393.237 340.654 402.606 339.224C404.652 338.911 407.059 338.512 409.423 337.864C452.838 325.977 454.161 284.173 496.458 274.915C513.58 271.17 540.523 274.055 559.513 276.258C581.498 278.812 578.891 280.976 586.353 295.204C592.339 306.609 613.955 320.329 637.6 308.312C646.375 303.855 657.057 297.855 667.641 297.351C682.178 296.656 707.495 297.816 716.205 302.499C724.079 306.731 732.022 317.497 734.135 325.417C731.887 325.1 730.784 325.004 728.653 324.961C724.018 317.106 717.518 306.205 709.677 302.204C701.505 298.033 677.688 298.194 664.552 300.14C655.043 301.548 645.819 309.19 637.609 313.526C612.96 326.542 589.442 310.65 583.171 297.916C577.111 285.607 577.461 281.489 556.008 278.478C537.864 275.932 510.519 274.667 495.613 279.36C460.245 290.495 454.988 326.303 412.596 336.852C410.143 337.465 407.802 337.873 405.746 338.19C394.709 339.893 385.812 340.762 377.228 342.265C370.929 343.369 364.934 344.724 357.822 343.651C353.168 342.948 347.528 341.527 341.631 339.407C323.832 333.011 308.094 324.457 294.398 315.542C288.609 311.771 281.202 304.602 273.291 302.256C256.572 297.299 236.526 292.95 217.947 290.564C217.643 290.525 217.241 290.495 216.914 290.499C171.715 291.068 167.589 338.307 149.215 354.265C145.622 357.385 137.23 359.609 135.692 362.724C130.58 373.082 135.384 384.187 143.145 393.958Z" fill="url(#paint20_linear_3803_1421)"/>
<path d="M146.874 393.826C144.659 393.201 143.575 392.875 141.477 392.206C137.229 384.933 128.122 366.347 144.033 362.893C184.256 354.169 172.822 292.424 227.461 296.208C243.147 297.295 264.703 300.314 277.352 305.862C285.02 309.225 293.043 316.38 297.954 319.239C311.991 327.407 328.664 335.123 347.317 339.797C351.504 340.849 355.504 341.5 358.784 341.844C366.611 342.656 373.406 341.301 379.971 340.575C388.279 339.658 395.755 339.076 403.811 338.064C442.245 333.215 470.258 305.388 492.748 292.02C525.86 272.339 580.83 289.118 585.732 311.731C589.101 327.272 619.278 329.718 636.123 321.767C644.361 317.879 651.599 308.186 660.244 305.202C672.786 300.87 695.547 298.546 704.533 301.908C713.065 305.102 720.228 317.266 727.924 324.991C725.808 324.991 724.78 325.061 722.808 325.373C714 318.453 708.098 307.53 699.411 303.69C689.645 299.376 668.702 304.163 658.314 309.333C650.408 313.269 644.198 323.253 636.025 326.92C611.717 337.825 588.559 329.062 582.092 314.173C571.793 290.482 524.542 278.595 492.183 297.082C469.473 310.055 442.441 331.882 406.933 337.656C397.311 339.22 388.078 339.654 379.555 340.18C373.387 340.558 367.565 341.34 361.28 341.001C358.126 340.831 354.205 340.393 350.074 339.563C330.075 335.548 312.001 327.885 296.88 319.686C291.165 316.589 282.791 309.611 274.936 306.666C262.058 301.839 241.764 299.341 226.704 299.106C186.424 298.481 177.369 345.041 158.397 360.478C153.579 364.401 143.907 362.758 141.753 365.808C135.552 374.554 140.65 385.076 146.874 393.826Z" fill="url(#paint21_linear_3803_1421)"/>
<path d="M150.636 393.523C148.332 392.867 147.206 392.528 145.01 391.829C141.832 385.329 134.762 368.26 152.309 367.078C171.364 365.796 178.532 342.796 184.995 334.272C194.092 322.268 208.573 303.456 235.166 303.147C247.914 303 269.053 304.677 278.894 310.355C286.324 314.639 296.258 320.569 301.141 322.885C317.538 330.675 337.369 337.765 359.247 339.998C360.541 340.094 361.177 340.128 362.425 340.167C369.261 340.38 375.845 340.237 382.246 340.437C390.527 340.698 397.97 340.554 405.092 338.903C436.773 331.565 465.473 320.804 490.491 307.422C533.331 284.509 568.349 303.912 584.162 327.994C594.063 343.074 609.184 342.735 633.347 334.433C642.814 331.179 648.501 321.885 655.627 316.385C664.524 309.516 683.323 301.092 694.855 304.85C704.43 307.97 710.415 319.774 722.107 325.539C720.153 325.9 719.214 326.165 717.439 326.873C709.775 326.247 694.776 310.168 691.089 308.626C678.907 303.534 661.562 315.164 654.524 321.642C649.31 326.443 642.576 334.632 632.422 339.129C612.222 348.075 583.036 347.236 580.054 330.084C578.087 318.77 561.092 309.877 545.85 302.704C527.794 294.206 504.028 303.312 490.202 310.559C466.431 323.011 436.754 330.501 408.208 339.49C399.512 342.227 390.424 342.205 381.975 341.384C375.948 340.797 370.242 340.28 364.953 340.289C363.761 340.293 363.149 340.276 361.906 340.224C338.916 338.464 317.823 331.192 300.384 323.328C294.707 320.769 285.081 315.069 276.576 310.855C265.82 305.519 252.11 304.872 234.138 305.398C233.905 305.406 233.624 305.411 233.381 305.437C189.882 310.229 186.686 346.063 167.252 363.198C151.991 376.662 137.15 372.978 150.636 393.523Z" fill="url(#paint22_linear_3803_1421)"/>
<path d="M154.434 393.075C152.051 392.384 150.878 392.023 148.602 391.289C145.897 385.137 146.009 370.913 161.854 369.784C178.382 368.606 186.644 345.98 193.653 336.882C202.69 325.16 215.629 310.093 241.451 307.939C258.586 306.509 269.202 308.903 280.978 314.568C290.015 318.917 300.851 324.583 305.664 326.564C323.033 333.702 344.738 341.218 366.204 341.809C371.601 341.957 378.419 343.399 384.652 344.624C392.517 346.171 400.316 346.401 406.507 343.269C429.997 331.378 463.921 327.884 488.622 317.57C529.695 300.418 571.521 318.057 581.348 343.438C587.026 358.101 613.45 354.052 628.562 346.314C638.608 341.17 647.982 335.075 652.631 329.97C659.664 322.25 674.509 308.538 687.205 310.997C690.602 311.653 709.476 326.538 716.812 327.189C715.055 327.954 714.223 328.423 712.658 329.561C703.289 330.93 688.588 317.818 684.187 316.602C673.276 313.582 658.262 328.445 651.575 335.64C647.118 340.436 636.875 345.423 626.833 350.576C608.511 359.973 582.605 361.073 576.867 345.137C567.872 320.169 529.831 306.67 488.351 319.943C461.496 328.541 430.637 333.285 409.619 345.089C401.928 349.407 392.895 349.794 384.526 347.522C378.662 345.927 372.835 344.303 368.601 344.033C345.784 342.582 325.729 335.183 307.729 328.423C306.893 328.11 306.103 327.771 305.379 327.467C299.767 325.108 288.468 319.586 278.978 315.051C267.698 309.663 254.53 307.756 240.24 309.633C200.924 314.79 192.508 345.836 177.691 362.306C164.817 376.6 143.257 373.272 154.434 393.075Z" fill="url(#paint23_linear_3803_1421)"/>
<path d="M158.294 392.515C155.831 391.776 154.621 391.399 152.271 390.621C149.182 381.797 157.644 373.638 171.434 370.167C205.648 361.564 193.77 317.637 246.38 311.068C261.319 309.204 272.057 313.535 284.249 319.049C294.58 323.723 307.257 330.006 311.907 331.913C328.981 338.908 348.995 347.136 369.896 349.235C374.372 349.686 380.863 352.102 387.181 353.883C394.984 356.082 402.792 355.921 408.049 352.08C430.348 335.793 453.571 333.047 486.832 325.34C529.495 315.451 568.438 335.158 577.269 357.615C582.638 371.266 610.175 364.275 621.983 357.663C632.347 351.863 644.604 347.227 648.907 343.5C654.973 338.252 670.365 318.983 681.654 320.904C686.855 321.79 703.523 331.344 712.074 330.019C710.537 331.209 709.817 331.9 708.485 333.473C699.098 338.13 686.406 330.831 680.467 329.376C669.701 326.734 652.304 344.538 646.744 348.044C642.51 350.712 629.889 355.643 620.142 361.582C605.988 370.206 578.129 372.995 572.55 358.927C564.012 337.404 527.383 320.183 486.58 327.269C451.931 333.286 432.105 337.639 411.138 354.678C404.489 360.083 395.447 360.278 387.185 357.798C381.489 356.086 375.765 353.835 372.293 353.466C349.625 351.051 329.953 341.679 312.281 334.281C306.982 332.061 293.505 325.353 282.627 320.135C270.684 314.409 259.632 310.538 245.095 312.432C244.951 312.449 244.778 312.475 244.619 312.501C208.321 319.149 202.741 346.358 187.317 362.012C176.621 372.873 148.785 377.418 158.294 392.515Z" fill="url(#paint24_linear_3803_1421)"/>
<path d="M162.247 391.887C159.71 391.096 158.467 390.692 156.051 389.871C154.729 380.508 167.266 372.931 180.957 368.83C215.4 358.508 207.148 318.833 249.867 313.924C262.479 312.473 280.179 321.249 289.258 325.793C300.767 331.558 316.103 339.622 320.229 341.494C335.878 348.598 352.934 356.548 373.663 359.311C377.527 359.828 383.69 362.283 389.821 363.986C397.218 366.037 405.442 365.641 409.662 362.383C430.885 346.004 446.619 334.031 485.202 331.863C524.462 329.656 561.461 351.517 572.176 370.229C578.47 381.221 606.166 372.94 615.423 367.683C625.913 361.727 637.044 355.575 642.305 353.759C644.45 353.016 648.501 350.952 652.216 348.732C664.889 341.156 666.398 334.608 676.687 334.421C681.832 334.326 688.421 338.892 696.22 337.636C699.392 337.128 706.841 334.5 707.986 334.087C706.682 335.712 706.009 336.529 705.018 338.666C705.346 337.832 706.878 350.535 685.14 346.36C670.36 343.523 666.576 345.166 649.982 353.49C645.875 355.549 641.852 356.77 639.548 357.356C634.413 358.664 623.717 364.881 613.736 370.677C602.563 377.163 573.274 383.81 567.424 371.215C558.653 352.334 520.79 333.813 485.01 333.687C449.936 333.561 430.909 350.544 412.662 364.616C407.199 368.83 398.153 369.378 389.961 367.084C384.41 365.528 378.868 363.352 376.06 363.022C355.004 360.563 337.154 353.19 321.229 346.026C316.678 343.979 302.038 335.138 288.669 328.595C278.104 323.425 263.156 315.167 248.362 315.936C248.273 315.94 248.133 315.957 248.021 315.979C217.092 322.652 212.699 347.677 197.56 360.98C185.882 371.237 157.519 377.137 162.247 391.887Z" fill="url(#paint25_linear_3803_1421)"/>
<path d="M166.336 391.134C163.78 390.413 162.467 389.952 159.99 389.079C162.084 377.761 180.55 372.222 193.835 365.679C213.479 355.999 221.395 322.568 253.357 320.352C253.507 320.343 253.703 320.361 253.834 320.378C270.595 322.411 285.277 331.517 297.636 337.939C312.061 345.433 326.252 353.618 329.533 354.926C343.397 360.461 359.994 366.235 377.545 367.977C380.606 368.281 386.391 370.276 392.62 371.701C399.615 373.299 408.245 372.626 411.315 370.719C429.558 359.401 451.651 336.748 483.79 338.351C501.608 339.242 517.252 345.068 528.518 351.663C542.102 359.618 555.583 371.37 566.695 380.52C576.115 388.28 599.913 380.064 609.147 375.459C619.889 370.097 630.109 363.698 634.828 362.373C637.847 361.526 646.744 359.779 654.132 356.29C667.024 350.195 674.519 352.259 687.486 349.934C705.233 346.758 705.359 337.33 704.616 339.451C703.644 341.623 703.205 342.787 702.397 345.212C702.471 344.721 704.121 354.518 686.967 359.84C674.346 363.754 665.477 358.276 652.248 361.725C644.108 363.85 635.221 364.91 632.113 365.731C627.885 366.848 617.483 372.887 607.623 377.579C596.927 382.671 572.634 390.726 562.055 381.528C552.102 372.874 539.345 363.633 527.546 356.095C516.537 349.061 501.005 342.362 483.515 340.763C456.099 338.256 429.175 363.776 414.264 372.552C410.147 374.976 401.437 375.698 392.919 373.916C387.755 372.835 382.087 371.131 379.98 371.001C362.349 369.902 345.336 365.314 330.944 360.148C327.519 358.919 314.164 351.611 298.86 343.578C285.964 336.805 270.913 327.056 253.735 324.514C253.651 324.501 253.521 324.484 253.432 324.492C228.582 326.686 223.25 351.659 208.821 360.709C193.433 370.354 166.032 375.685 166.336 391.134Z" fill="url(#paint26_linear_3803_1421)"/>
<path d="M170.382 389.975C167.901 389.371 166.658 389.028 164.163 388.224C169.948 376.989 188.036 370.098 204.489 364.685C221.624 359.05 237.259 333.525 262.857 334.746C262.992 334.75 263.165 334.798 263.287 334.833C280.071 339.951 294.599 348.21 308.963 355.209C323.271 362.182 336.486 367.882 338.925 368.647C354.368 373.487 369.158 374.547 381.587 374.986C383.947 375.068 388.624 376.137 395.606 377.136C402.204 378.084 410.951 377.988 413.133 377.184C430.661 370.75 457.468 346.589 481.93 348.792C500.36 350.452 513.813 359.814 524.485 367.013C535.751 374.612 554.756 381.664 561.639 389.306C561.872 389.566 563.354 391.873 575.493 389.818C583.806 388.415 594.339 384.879 603.166 381.207C613.89 376.745 623.763 371.171 627.595 370.246C630.45 369.555 643.263 368.304 653.702 366.692C665.711 364.841 676.58 369.264 687.645 361.743C703.285 351.112 702.401 344.104 702.028 346.081C701.229 348.527 700.869 349.809 700.182 352.429C700.163 352.585 700.172 352.611 700.172 352.611C700.107 352.342 700.705 361.083 686.804 371.701C676.267 379.752 663.879 372.622 651.968 372.188C640.492 371.771 628.053 372.505 625.015 373.122C621.693 373.795 611.315 378.67 601.806 382.711C591.086 387.264 570.452 396.479 557.139 390.448C545.471 385.161 533.387 378.692 523.7 372.184C513.177 365.115 498.537 354.24 481.659 353.258C459.029 351.942 435.511 373.235 416.016 379.031C412.885 379.96 404.489 379.665 396.045 378.718C391.255 378.179 385.639 377.28 384.036 377.293C371.069 377.415 356.177 377.91 340.392 373.934C337.925 373.313 325.593 368.83 311.253 362.191C296.902 355.548 282.492 347.48 266.202 342.362C266.142 342.345 266.053 342.319 265.997 342.319C245.764 341.954 236.04 357.859 221.498 362.665C198.685 370.202 180.317 373.895 170.382 389.975Z" fill="url(#paint27_linear_3803_1421)"/>
<path d="M174.373 388.435C171.981 387.918 170.785 387.631 168.402 386.966C178.093 375.514 198.008 367.068 219.854 365.295C239.83 363.675 257.628 358.965 280.357 358.283C282.558 359.174 283.665 359.608 285.913 360.508C305.15 368.198 324.907 377.565 347.659 381.101C360.663 383.126 374.195 381.488 385.812 380.515C387.592 380.367 391.84 380.662 398.811 381.01C404.629 381.301 413.764 382.739 415.157 382.635C439.479 380.819 457.819 367.403 480.356 367.472C495.613 367.52 510.388 376.943 520.921 382.822C531.873 388.934 548.77 392.71 556.999 397.111C557.247 397.289 559.13 398.766 571.092 395.742C579.111 393.713 589.073 389.621 597.526 385.758C609.984 380.071 618.025 377.386 620.75 376.861C631.441 374.784 643.249 376.205 652.062 377.026C664.052 378.142 677.314 383.03 686.949 372.66C701.771 356.706 700.019 351.593 699.86 353.335C699.177 355.963 698.864 357.314 698.243 360.034C698.224 360.421 698.266 360.399 698.266 360.399C690.486 375.288 683.547 389.477 650.398 382.139C641.352 380.137 629.334 377.612 618.329 379.242C615.96 379.594 605.759 382.378 596.353 387.118C586.171 392.254 568.872 402.915 552.695 398.458C542.537 396.311 529.537 392.445 519.308 387.01C509.953 382.04 493.599 373.789 480.207 373.789C458.955 373.785 441.208 385.215 417.993 384.859C415.919 384.829 409.699 382.5 399.419 382.309C395.237 382.231 389.368 382.126 388.312 382.27C376.125 383.925 362.378 387.023 349.042 386.028C327.435 384.416 308.3 376.313 290.202 369.705C288.029 368.888 286.964 368.502 284.791 367.581C268.292 367.694 250.311 369.575 235.218 368.376C204.826 365.952 186.85 373.398 174.373 388.435Z" fill="url(#paint28_linear_3803_1421)"/>
<path d="M178.331 386.585C176.037 386.125 174.897 385.881 172.631 385.33C186.654 374.541 202.42 362.25 230.143 363.167C253.89 363.953 279.352 379.786 299.487 384.174C301.786 384.674 321.893 389.727 336.762 390.947C348.126 391.882 354.617 391.556 355.49 391.495C367.289 390.656 378.751 386.85 390.242 385.125C391.443 384.795 394.559 384.513 402.227 384.33C407.788 384.196 416.007 387.654 417.437 387.984C438.152 395.961 457.67 390.487 479.183 389.601C490.851 389.118 504.93 394.671 517.865 398.103C528.206 400.845 542.986 402.231 552.738 404.121C567.485 403.096 582.657 395.518 592.185 390.339C604.073 383.883 612.386 382.61 614.287 382.362C625.881 380.863 639.025 383.331 649.427 385.89C680.902 393.637 690.729 372.495 697.911 360.942C697.29 363.658 696.991 365.035 696.379 367.755C696.374 368.341 696.458 368.307 696.496 368.246C690.384 381.35 680.776 403.261 647.843 390.439C637.301 386.333 623.899 383.427 612.035 384.465C610.554 384.595 599.685 387.098 591.223 391.79C580.784 397.578 566.387 407.536 548.831 405.876C524.579 404.225 501.79 395.575 479.179 396.031C455.371 396.509 442.497 398.907 420.101 390.821C418.423 390.487 414.232 385.26 403.008 385.751C398.868 385.934 393.648 386.42 392.695 386.655C380.681 389.144 368.742 393.928 356.761 395.861C355.953 395.992 347.944 396.865 339.056 396.883C325.043 396.909 306.954 393.659 303.735 392.755C303.73 392.755 303.725 392.755 303.721 392.755C254.731 393.863 215.924 342.994 178.331 386.585ZM303.655 392.733C303.66 392.733 303.665 392.738 303.669 392.738C303.665 392.738 303.66 392.733 303.655 392.733ZM417.428 387.98C417.409 387.976 417.395 387.976 417.386 387.976C417.4 387.976 417.414 387.976 417.428 387.98Z" fill="url(#paint29_linear_3803_1421)"/>
<path d="M182.294 384.477C180.112 384.047 179.032 383.825 176.897 383.356C227.555 340.548 266.535 403.72 316.211 405.54C317.29 405.579 334.01 405.662 345.897 403.52C357.878 401.36 362.088 399.796 362.56 399.692C373.378 395.851 383.971 391.993 394.999 389.626C395.784 389.352 397.601 388.691 405.896 388.283C411.237 388.018 418.657 393.275 420.11 394.135C420.942 394.505 424.405 403.659 446.614 411.24C456.689 414.677 468.151 410.854 478.511 410.814C490.599 410.771 503.365 413.686 515.411 413.291C526.28 412.935 537.616 411.427 548.775 410.723C563.177 408.234 577.358 400.939 587.209 395.391C601.816 387.162 606.923 387.445 608.129 387.358C621.105 385.19 634.38 388.596 646.025 392.836C658.8 397.489 673.772 402.403 683.496 391.381C698.804 374.028 696.024 366.56 696.028 368.61C695.411 371.322 695.103 372.673 694.458 375.314C694.468 376.235 694.664 375.931 694.743 375.744C688.566 389.096 677.239 411.431 644.581 396.812C632.876 391.572 619.25 388.07 606.25 389.508C605.045 389.643 595.344 392.198 586.466 397.072C575.106 403.311 562.448 411.11 545.616 413.148C523.981 416.875 499.832 415.88 478.655 416.306C452.591 416.827 437.46 408.525 422.325 397.585C421.33 397.072 420.236 389.721 406.835 390.325C402.877 390.503 397.933 391.272 397.153 391.494C397.162 391.489 397.274 391.459 397.415 391.394C385.868 394.37 374.789 398.788 363.747 403.494C363.172 403.676 355.962 406.292 348.042 408.308C332.514 412.257 321.197 412.053 319.459 411.892C268.525 418.557 229.283 337.833 182.294 384.477ZM606.161 389.521C606.185 389.521 606.217 389.521 606.255 389.517C606.217 389.517 606.185 389.521 606.161 389.521ZM608.152 387.362C608.185 387.358 608.213 387.358 608.241 387.358C608.217 387.362 608.189 387.362 608.152 387.362ZM394.957 389.643C394.896 389.665 394.854 389.682 394.821 389.695C394.863 389.682 394.91 389.665 394.957 389.643Z" fill="url(#paint30_linear_3803_1421)"/>
<path d="M186.288 382.197C184.223 381.767 183.204 381.563 181.204 381.141C209.461 362.021 235.497 371.509 258.66 387.002C274.847 397.833 304.01 425.092 336.093 418.679C357.7 414.36 372.55 403.26 393.068 397.034C419.236 389.092 435.38 419.53 448.585 424.601C484.453 438.369 539.784 421.281 573.278 406.049C591.339 397.838 615.03 385.66 638.094 396.365C670.159 411.25 685.906 390.278 693.387 376.271C693.294 378.813 693.228 380.016 693.041 382.267C684.645 397.329 666.921 411.601 636.921 399.728C614.903 391.012 595.553 397.09 572.862 407.874C539.961 423.51 483.977 442.175 448.926 428.385C436.104 423.341 420.306 391.842 394.381 399.932C374.068 406.271 360.139 417.879 338.756 422.58C281.501 435.167 244.871 343.322 186.288 382.197Z" fill="url(#paint31_linear_3803_1421)"/>
</g>
<defs>
<linearGradient id="paint0_linear_3803_1421" x1="-0.000704153" y1="177.262" x2="913.994" y2="177.262" gradientUnits="userSpaceOnUse">
<stop stop-color="#50F9F0"/>
<stop offset="0.00377255" stop-color="#5DF8E9"/>
<stop offset="0.0145" stop-color="#7CF4DA"/>
<stop offset="0.0267" stop-color="#98F1CC"/>
<stop offset="0.0405" stop-color="#AEEEC1"/>
<stop offset="0.0566" stop-color="#BFECB8"/>
<stop offset="0.0765" stop-color="#CAEBB2"/>
<stop offset="0.1044" stop-color="#D1EAAF"/>
<stop offset="0.1818" stop-color="#D3EAAE"/>
<stop offset="0.3708" stop-color="#F1C5B1"/>
<stop offset="0.4822" stop-color="#FFB4B3"/>
<stop offset="0.5265" stop-color="#F3B0B8"/>
<stop offset="0.6061" stop-color="#D4A4C7"/>
<stop offset="0.7113" stop-color="#A190DE"/>
<stop offset="0.7826" stop-color="#7B82EF"/>
<stop offset="0.8674" stop-color="#7A84EF"/>
<stop offset="0.9023" stop-color="#778BEF"/>
<stop offset="0.928" stop-color="#7297F0"/>
<stop offset="0.9493" stop-color="#6BA9F0"/>
<stop offset="0.9678" stop-color="#61C0F1"/>
<stop offset="0.984" stop-color="#56DBF2"/>
<stop offset="0.9988" stop-color="#48FCF3"/>
<stop offset="1" stop-color="#47FFF3"/>
</linearGradient>
<linearGradient id="paint1_linear_3803_1421" x1="7.5881" y1="184.929" x2="905.137" y2="184.929" gradientUnits="userSpaceOnUse">
<stop stop-color="#50F9F0"/>
<stop offset="0.00377255" stop-color="#5DF8E9"/>
<stop offset="0.0145" stop-color="#7CF4DA"/>
<stop offset="0.0267" stop-color="#98F1CC"/>
<stop offset="0.0405" stop-color="#AEEEC1"/>
<stop offset="0.0566" stop-color="#BFECB8"/>
<stop offset="0.0765" stop-color="#CAEBB2"/>
<stop offset="0.1044" stop-color="#D1EAAF"/>
<stop offset="0.1818" stop-color="#D3EAAE"/>
<stop offset="0.3708" stop-color="#F1C5B1"/>
<stop offset="0.4822" stop-color="#FFB4B3"/>
<stop offset="0.5265" stop-color="#F3B0B8"/>
<stop offset="0.6061" stop-color="#D4A4C7"/>
<stop offset="0.7113" stop-color="#A190DE"/>
<stop offset="0.7826" stop-color="#7B82EF"/>
<stop offset="0.8674" stop-color="#7A84EF"/>
<stop offset="0.9023" stop-color="#778BEF"/>
<stop offset="0.928" stop-color="#7297F0"/>
<stop offset="0.9493" stop-color="#6BA9F0"/>
<stop offset="0.9678" stop-color="#61C0F1"/>
<stop offset="0.984" stop-color="#56DBF2"/>
<stop offset="0.9988" stop-color="#48FCF3"/>
<stop offset="1" stop-color="#47FFF3"/>
</linearGradient>
<linearGradient id="paint2_linear_3803_1421" x1="15.8647" y1="193.516" x2="897.259" y2="193.516" gradientUnits="userSpaceOnUse">
<stop stop-color="#50F9F0"/>
<stop offset="0.00377255" stop-color="#5DF8E9"/>
<stop offset="0.0145" stop-color="#7CF4DA"/>
<stop offset="0.0267" stop-color="#98F1CC"/>
<stop offset="0.0405" stop-color="#AEEEC1"/>
<stop offset="0.0566" stop-color="#BFECB8"/>
<stop offset="0.0765" stop-color="#CAEBB2"/>
<stop offset="0.1044" stop-color="#D1EAAF"/>
<stop offset="0.1818" stop-color="#D3EAAE"/>
<stop offset="0.3708" stop-color="#F1C5B1"/>
<stop offset="0.4822" stop-color="#FFB4B3"/>
<stop offset="0.5265" stop-color="#F3B0B8"/>
<stop offset="0.6061" stop-color="#D4A4C7"/>
<stop offset="0.7113" stop-color="#A190DE"/>
<stop offset="0.7826" stop-color="#7B82EF"/>
<stop offset="0.8674" stop-color="#7A84EF"/>
<stop offset="0.9023" stop-color="#778BEF"/>
<stop offset="0.928" stop-color="#7297F0"/>
<stop offset="0.9493" stop-color="#6BA9F0"/>
<stop offset="0.9678" stop-color="#61C0F1"/>
<stop offset="0.984" stop-color="#56DBF2"/>
<stop offset="0.9988" stop-color="#48FCF3"/>
<stop offset="1" stop-color="#47FFF3"/>
</linearGradient>
<linearGradient id="paint3_linear_3803_1421" x1="24.0671" y1="202.056" x2="888.79" y2="202.056" gradientUnits="userSpaceOnUse">
<stop stop-color="#50F9F0"/>
<stop offset="0.00377255" stop-color="#5DF8E9"/>
<stop offset="0.0145" stop-color="#7CF4DA"/>
<stop offset="0.0267" stop-color="#98F1CC"/>
<stop offset="0.0405" stop-color="#AEEEC1"/>
<stop offset="0.0566" stop-color="#BFECB8"/>
<stop offset="0.0765" stop-color="#CAEBB2"/>
<stop offset="0.1044" stop-color="#D1EAAF"/>
<stop offset="0.1818" stop-color="#D3EAAE"/>
<stop offset="0.3708" stop-color="#F1C5B1"/>
<stop offset="0.4822" stop-color="#FFB4B3"/>
<stop offset="0.5265" stop-color="#F3B0B8"/>
<stop offset="0.6061" stop-color="#D4A4C7"/>
<stop offset="0.7113" stop-color="#A190DE"/>
<stop offset="0.7826" stop-color="#7B82EF"/>
<stop offset="0.8674" stop-color="#7A84EF"/>
<stop offset="0.9023" stop-color="#778BEF"/>
<stop offset="0.928" stop-color="#7297F0"/>
<stop offset="0.9493" stop-color="#6BA9F0"/>
<stop offset="0.9678" stop-color="#61C0F1"/>
<stop offset="0.984" stop-color="#56DBF2"/>
<stop offset="0.9988" stop-color="#48FCF3"/>
<stop offset="1" stop-color="#47FFF3"/>
</linearGradient>
<linearGradient id="paint4_linear_3803_1421" x1="31.9591" y1="208.831" x2="880.418" y2="208.831" gradientUnits="userSpaceOnUse">
<stop stop-color="#50F9F0"/>
<stop offset="0.00377255" stop-color="#5DF8E9"/>
<stop offset="0.0145" stop-color="#7CF4DA"/>
<stop offset="0.0267" stop-color="#98F1CC"/>
<stop offset="0.0405" stop-color="#AEEEC1"/>
<stop offset="0.0566" stop-color="#BFECB8"/>
<stop offset="0.0765" stop-color="#CAEBB2"/>
<stop offset="0.1044" stop-color="#D1EAAF"/>
<stop offset="0.1818" stop-color="#D3EAAE"/>
<stop offset="0.3708" stop-color="#F1C5B1"/>
<stop offset="0.4822" stop-color="#FFB4B3"/>
<stop offset="0.5265" stop-color="#F3B0B8"/>
<stop offset="0.6061" stop-color="#D4A4C7"/>
<stop offset="0.7113" stop-color="#A190DE"/>
<stop offset="0.7826" stop-color="#7B82EF"/>
<stop offset="0.8674" stop-color="#7A84EF"/>
<stop offset="0.9023" stop-color="#778BEF"/>
<stop offset="0.928" stop-color="#7297F0"/>
<stop offset="0.9493" stop-color="#6BA9F0"/>
<stop offset="0.9678" stop-color="#61C0F1"/>
<stop offset="0.984" stop-color="#56DBF2"/>
<stop offset="0.9988" stop-color="#48FCF3"/>
<stop offset="1" stop-color="#47FFF3"/>
</linearGradient>
<linearGradient id="paint5_linear_3803_1421" x1="40.5586" y1="216.386" x2="872.083" y2="216.386" gradientUnits="userSpaceOnUse">
<stop stop-color="#50F9F0"/>
<stop offset="0.00377255" stop-color="#5DF8E9"/>
<stop offset="0.0145" stop-color="#7CF4DA"/>
<stop offset="0.0267" stop-color="#98F1CC"/>
<stop offset="0.0405" stop-color="#AEEEC1"/>
<stop offset="0.0566" stop-color="#BFECB8"/>
<stop offset="0.0765" stop-color="#CAEBB2"/>
<stop offset="0.1044" stop-color="#D1EAAF"/>
<stop offset="0.1818" stop-color="#D3EAAE"/>
<stop offset="0.3708" stop-color="#F1C5B1"/>
<stop offset="0.4822" stop-color="#FFB4B3"/>
<stop offset="0.5265" stop-color="#F3B0B8"/>
<stop offset="0.6061" stop-color="#D4A4C7"/>
<stop offset="0.7113" stop-color="#A190DE"/>
<stop offset="0.7826" stop-color="#7B82EF"/>
<stop offset="0.8674" stop-color="#7A84EF"/>
<stop offset="0.9023" stop-color="#778BEF"/>
<stop offset="0.928" stop-color="#7297F0"/>
<stop offset="0.9493" stop-color="#6BA9F0"/>
<stop offset="0.9678" stop-color="#61C0F1"/>
<stop offset="0.984" stop-color="#56DBF2"/>
<stop offset="0.9988" stop-color="#48FCF3"/>
<stop offset="1" stop-color="#47FFF3"/>
</linearGradient>
<linearGradient id="paint6_linear_3803_1421" x1="48.783" y1="226.709" x2="863.569" y2="226.709" gradientUnits="userSpaceOnUse">
<stop stop-color="#50F9F0"/>
<stop offset="0.00377255" stop-color="#5DF8E9"/>
<stop offset="0.0145" stop-color="#7CF4DA"/>
<stop offset="0.0267" stop-color="#98F1CC"/>
<stop offset="0.0405" stop-color="#AEEEC1"/>
<stop offset="0.0566" stop-color="#BFECB8"/>
<stop offset="0.0765" stop-color="#CAEBB2"/>
<stop offset="0.1044" stop-color="#D1EAAF"/>
<stop offset="0.1818" stop-color="#D3EAAE"/>
<stop offset="0.3708" stop-color="#F1C5B1"/>
<stop offset="0.4822" stop-color="#FFB4B3"/>
<stop offset="0.5265" stop-color="#F3B0B8"/>
<stop offset="0.6061" stop-color="#D4A4C7"/>
<stop offset="0.7113" stop-color="#A190DE"/>
<stop offset="0.7826" stop-color="#7B82EF"/>
<stop offset="0.8674" stop-color="#7A84EF"/>
<stop offset="0.9023" stop-color="#778BEF"/>
<stop offset="0.928" stop-color="#7297F0"/>
<stop offset="0.9493" stop-color="#6BA9F0"/>
<stop offset="0.9678" stop-color="#61C0F1"/>
<stop offset="0.984" stop-color="#56DBF2"/>
<stop offset="0.9988" stop-color="#48FCF3"/>
<stop offset="1" stop-color="#47FFF3"/>
</linearGradient>
<linearGradient id="paint7_linear_3803_1421" x1="56.347" y1="235.788" x2="855.348" y2="235.788" gradientUnits="userSpaceOnUse">
<stop stop-color="#50F9F0"/>
<stop offset="0.00377255" stop-color="#5DF8E9"/>
<stop offset="0.0145" stop-color="#7CF4DA"/>
<stop offset="0.0267" stop-color="#98F1CC"/>
<stop offset="0.0405" stop-color="#AEEEC1"/>
<stop offset="0.0566" stop-color="#BFECB8"/>
<stop offset="0.0765" stop-color="#CAEBB2"/>
<stop offset="0.1044" stop-color="#D1EAAF"/>
<stop offset="0.1818" stop-color="#D3EAAE"/>
<stop offset="0.3708" stop-color="#F1C5B1"/>
<stop offset="0.4822" stop-color="#FFB4B3"/>
<stop offset="0.5265" stop-color="#F3B0B8"/>
<stop offset="0.6061" stop-color="#D4A4C7"/>
<stop offset="0.7113" stop-color="#A190DE"/>
<stop offset="0.7826" stop-color="#7B82EF"/>
<stop offset="0.8674" stop-color="#7A84EF"/>
<stop offset="0.9023" stop-color="#778BEF"/>
<stop offset="0.928" stop-color="#7297F0"/>
<stop offset="0.9493" stop-color="#6BA9F0"/>
<stop offset="0.9678" stop-color="#61C0F1"/>
<stop offset="0.984" stop-color="#56DBF2"/>
<stop offset="0.9988" stop-color="#48FCF3"/>
<stop offset="1" stop-color="#47FFF3"/>
</linearGradient>
<linearGradient id="paint8_linear_3803_1421" x1="62.7589" y1="240.205" x2="847.123" y2="240.205" gradientUnits="userSpaceOnUse">
<stop stop-color="#50F9F0"/>
<stop offset="0.00377255" stop-color="#5DF8E9"/>
<stop offset="0.0145" stop-color="#7CF4DA"/>
<stop offset="0.0267" stop-color="#98F1CC"/>
<stop offset="0.0405" stop-color="#AEEEC1"/>
<stop offset="0.0566" stop-color="#BFECB8"/>
<stop offset="0.0765" stop-color="#CAEBB2"/>
<stop offset="0.1044" stop-color="#D1EAAF"/>
<stop offset="0.1818" stop-color="#D3EAAE"/>
<stop offset="0.3708" stop-color="#F1C5B1"/>
<stop offset="0.4822" stop-color="#FFB4B3"/>
<stop offset="0.5265" stop-color="#F3B0B8"/>
<stop offset="0.6061" stop-color="#D4A4C7"/>
<stop offset="0.7113" stop-color="#A190DE"/>
<stop offset="0.7826" stop-color="#7B82EF"/>
<stop offset="0.8674" stop-color="#7A84EF"/>
<stop offset="0.9023" stop-color="#778BEF"/>
<stop offset="0.928" stop-color="#7297F0"/>
<stop offset="0.9493" stop-color="#6BA9F0"/>
<stop offset="0.9678" stop-color="#61C0F1"/>
<stop offset="0.984" stop-color="#56DBF2"/>
<stop offset="0.9988" stop-color="#48FCF3"/>
<stop offset="1" stop-color="#47FFF3"/>
</linearGradient>
<linearGradient id="paint9_linear_3803_1421" x1="69.608" y1="244.995" x2="838.997" y2="244.995" gradientUnits="userSpaceOnUse">
<stop stop-color="#50F9F0"/>
<stop offset="0.00377255" stop-color="#5DF8E9"/>
<stop offset="0.0145" stop-color="#7CF4DA"/>
<stop offset="0.0267" stop-color="#98F1CC"/>
<stop offset="0.0405" stop-color="#AEEEC1"/>
<stop offset="0.0566" stop-color="#BFECB8"/>
<stop offset="0.0765" stop-color="#CAEBB2"/>
<stop offset="0.1044" stop-color="#D1EAAF"/>
<stop offset="0.1818" stop-color="#D3EAAE"/>
<stop offset="0.3708" stop-color="#F1C5B1"/>
<stop offset="0.4822" stop-color="#FFB4B3"/>
<stop offset="0.5265" stop-color="#F3B0B8"/>
<stop offset="0.6061" stop-color="#D4A4C7"/>
<stop offset="0.7113" stop-color="#A190DE"/>
<stop offset="0.7826" stop-color="#7B82EF"/>
<stop offset="0.8674" stop-color="#7A84EF"/>
<stop offset="0.9023" stop-color="#778BEF"/>
<stop offset="0.928" stop-color="#7297F0"/>
<stop offset="0.9493" stop-color="#6BA9F0"/>
<stop offset="0.9678" stop-color="#61C0F1"/>
<stop offset="0.984" stop-color="#56DBF2"/>
<stop offset="0.9988" stop-color="#48FCF3"/>
<stop offset="1" stop-color="#47FFF3"/>
</linearGradient>
<linearGradient id="paint10_linear_3803_1421" x1="76.3133" y1="250.727" x2="831.351" y2="250.727" gradientUnits="userSpaceOnUse">
<stop stop-color="#50F9F0"/>
<stop offset="0.00377255" stop-color="#5DF8E9"/>
<stop offset="0.0145" stop-color="#7CF4DA"/>
<stop offset="0.0267" stop-color="#98F1CC"/>
<stop offset="0.0405" stop-color="#AEEEC1"/>
<stop offset="0.0566" stop-color="#BFECB8"/>
<stop offset="0.0765" stop-color="#CAEBB2"/>
<stop offset="0.1044" stop-color="#D1EAAF"/>
<stop offset="0.1818" stop-color="#D3EAAE"/>
<stop offset="0.3708" stop-color="#F1C5B1"/>
<stop offset="0.4822" stop-color="#FFB4B3"/>
<stop offset="0.5265" stop-color="#F3B0B8"/>
<stop offset="0.6061" stop-color="#D4A4C7"/>
<stop offset="0.7113" stop-color="#A190DE"/>
<stop offset="0.7826" stop-color="#7B82EF"/>
<stop offset="0.8674" stop-color="#7A84EF"/>
<stop offset="0.9023" stop-color="#778BEF"/>
<stop offset="0.928" stop-color="#7297F0"/>
<stop offset="0.9493" stop-color="#6BA9F0"/>
<stop offset="0.9678" stop-color="#61C0F1"/>
<stop offset="0.984" stop-color="#56DBF2"/>
<stop offset="0.9988" stop-color="#48FCF3"/>
<stop offset="1" stop-color="#47FFF3"/>
</linearGradient>
<linearGradient id="paint11_linear_3803_1421" x1="83.5619" y1="258.334" x2="823.581" y2="258.334" gradientUnits="userSpaceOnUse">
<stop stop-color="#50F9F0"/>
<stop offset="0.00377255" stop-color="#5DF8E9"/>
<stop offset="0.0145" stop-color="#7CF4DA"/>
<stop offset="0.0267" stop-color="#98F1CC"/>
<stop offset="0.0405" stop-color="#AEEEC1"/>
<stop offset="0.0566" stop-color="#BFECB8"/>
<stop offset="0.0765" stop-color="#CAEBB2"/>
<stop offset="0.1044" stop-color="#D1EAAF"/>
<stop offset="0.1818" stop-color="#D3EAAE"/>
<stop offset="0.3708" stop-color="#F1C5B1"/>
<stop offset="0.4822" stop-color="#FFB4B3"/>
<stop offset="0.5265" stop-color="#F3B0B8"/>
<stop offset="0.6061" stop-color="#D4A4C7"/>
<stop offset="0.7113" stop-color="#A190DE"/>
<stop offset="0.7826" stop-color="#7B82EF"/>
<stop offset="0.8674" stop-color="#7A84EF"/>
<stop offset="0.9023" stop-color="#778BEF"/>
<stop offset="0.928" stop-color="#7297F0"/>
<stop offset="0.9493" stop-color="#6BA9F0"/>
<stop offset="0.9678" stop-color="#61C0F1"/>
<stop offset="0.984" stop-color="#56DBF2"/>
<stop offset="0.9988" stop-color="#48FCF3"/>
<stop offset="1" stop-color="#47FFF3"/>
</linearGradient>
<linearGradient id="paint12_linear_3803_1421" x1="91.8949" y1="265.823" x2="815.398" y2="265.823" gradientUnits="userSpaceOnUse">
<stop stop-color="#50F9F0"/>
<stop offset="0.00377255" stop-color="#5DF8E9"/>
<stop offset="0.0145" stop-color="#7CF4DA"/>
<stop offset="0.0267" stop-color="#98F1CC"/>
<stop offset="0.0405" stop-color="#AEEEC1"/>
<stop offset="0.0566" stop-color="#BFECB8"/>
<stop offset="0.0765" stop-color="#CAEBB2"/>
<stop offset="0.1044" stop-color="#D1EAAF"/>
<stop offset="0.1818" stop-color="#D3EAAE"/>
<stop offset="0.3708" stop-color="#F1C5B1"/>
<stop offset="0.4822" stop-color="#FFB4B3"/>
<stop offset="0.5265" stop-color="#F3B0B8"/>
<stop offset="0.6061" stop-color="#D4A4C7"/>
<stop offset="0.7113" stop-color="#A190DE"/>
<stop offset="0.7826" stop-color="#7B82EF"/>
<stop offset="0.8674" stop-color="#7A84EF"/>
<stop offset="0.9023" stop-color="#778BEF"/>
<stop offset="0.928" stop-color="#7297F0"/>
<stop offset="0.9493" stop-color="#6BA9F0"/>
<stop offset="0.9678" stop-color="#61C0F1"/>
<stop offset="0.984" stop-color="#56DBF2"/>
<stop offset="0.9988" stop-color="#48FCF3"/>
<stop offset="1" stop-color="#47FFF3"/>
</linearGradient>
<linearGradient id="paint13_linear_3803_1421" x1="96.9342" y1="272.497" x2="806.363" y2="272.497" gradientUnits="userSpaceOnUse">
<stop stop-color="#50F9F0"/>
<stop offset="0.00377255" stop-color="#5DF8E9"/>
<stop offset="0.0145" stop-color="#7CF4DA"/>
<stop offset="0.0267" stop-color="#98F1CC"/>
<stop offset="0.0405" stop-color="#AEEEC1"/>
<stop offset="0.0566" stop-color="#BFECB8"/>
<stop offset="0.0765" stop-color="#CAEBB2"/>
<stop offset="0.1044" stop-color="#D1EAAF"/>
<stop offset="0.1818" stop-color="#D3EAAE"/>
<stop offset="0.3708" stop-color="#F1C5B1"/>
<stop offset="0.4822" stop-color="#FFB4B3"/>
<stop offset="0.5265" stop-color="#F3B0B8"/>
<stop offset="0.6061" stop-color="#D4A4C7"/>
<stop offset="0.7113" stop-color="#A190DE"/>
<stop offset="0.7826" stop-color="#7B82EF"/>
<stop offset="0.8674" stop-color="#7A84EF"/>
<stop offset="0.9023" stop-color="#778BEF"/>
<stop offset="0.928" stop-color="#7297F0"/>
<stop offset="0.9493" stop-color="#6BA9F0"/>
<stop offset="0.9678" stop-color="#61C0F1"/>
<stop offset="0.984" stop-color="#56DBF2"/>
<stop offset="0.9988" stop-color="#48FCF3"/>
<stop offset="1" stop-color="#47FFF3"/>
</linearGradient>
<linearGradient id="paint14_linear_3803_1421" x1="102.846" y1="277.797" x2="796.824" y2="277.797" gradientUnits="userSpaceOnUse">
<stop stop-color="#50F9F0"/>
<stop offset="0.00377255" stop-color="#5DF8E9"/>
<stop offset="0.0145" stop-color="#7CF4DA"/>
<stop offset="0.0267" stop-color="#98F1CC"/>
<stop offset="0.0405" stop-color="#AEEEC1"/>
<stop offset="0.0566" stop-color="#BFECB8"/>
<stop offset="0.0765" stop-color="#CAEBB2"/>
<stop offset="0.1044" stop-color="#D1EAAF"/>
<stop offset="0.1818" stop-color="#D3EAAE"/>
<stop offset="0.3708" stop-color="#F1C5B1"/>
<stop offset="0.4822" stop-color="#FFB4B3"/>
<stop offset="0.5265" stop-color="#F3B0B8"/>
<stop offset="0.6061" stop-color="#D4A4C7"/>
<stop offset="0.7113" stop-color="#A190DE"/>
<stop offset="0.7826" stop-color="#7B82EF"/>
<stop offset="0.8674" stop-color="#7A84EF"/>
<stop offset="0.9023" stop-color="#778BEF"/>
<stop offset="0.928" stop-color="#7297F0"/>
<stop offset="0.9493" stop-color="#6BA9F0"/>
<stop offset="0.9678" stop-color="#61C0F1"/>
<stop offset="0.984" stop-color="#56DBF2"/>
<stop offset="0.9988" stop-color="#48FCF3"/>
<stop offset="1" stop-color="#47FFF3"/>
</linearGradient>
<linearGradient id="paint15_linear_3803_1421" x1="108.498" y1="286.574" x2="782.159" y2="286.574" gradientUnits="userSpaceOnUse">
<stop stop-color="#50F9F0"/>
<stop offset="0.00377255" stop-color="#5DF8E9"/>
<stop offset="0.0145" stop-color="#7CF4DA"/>
<stop offset="0.0267" stop-color="#98F1CC"/>
<stop offset="0.0405" stop-color="#AEEEC1"/>
<stop offset="0.0566" stop-color="#BFECB8"/>
<stop offset="0.0765" stop-color="#CAEBB2"/>
<stop offset="0.1044" stop-color="#D1EAAF"/>
<stop offset="0.1818" stop-color="#D3EAAE"/>
<stop offset="0.3708" stop-color="#F1C5B1"/>
<stop offset="0.4822" stop-color="#FFB4B3"/>
<stop offset="0.5265" stop-color="#F3B0B8"/>
<stop offset="0.6061" stop-color="#D4A4C7"/>
<stop offset="0.7113" stop-color="#A190DE"/>
<stop offset="0.7826" stop-color="#7B82EF"/>
<stop offset="0.8674" stop-color="#7A84EF"/>
<stop offset="0.9023" stop-color="#778BEF"/>
<stop offset="0.928" stop-color="#7297F0"/>
<stop offset="0.9493" stop-color="#6BA9F0"/>
<stop offset="0.9678" stop-color="#61C0F1"/>
<stop offset="0.984" stop-color="#56DBF2"/>
<stop offset="0.9988" stop-color="#48FCF3"/>
<stop offset="1" stop-color="#47FFF3"/>
</linearGradient>
<linearGradient id="paint16_linear_3803_1421" x1="112.994" y1="299.727" x2="774.312" y2="299.727" gradientUnits="userSpaceOnUse">
<stop stop-color="#50F9F0"/>
<stop offset="0.00377255" stop-color="#5DF8E9"/>
<stop offset="0.0145" stop-color="#7CF4DA"/>
<stop offset="0.0267" stop-color="#98F1CC"/>
<stop offset="0.0405" stop-color="#AEEEC1"/>
<stop offset="0.0566" stop-color="#BFECB8"/>
<stop offset="0.0765" stop-color="#CAEBB2"/>
<stop offset="0.1044" stop-color="#D1EAAF"/>
<stop offset="0.1818" stop-color="#D3EAAE"/>
<stop offset="0.3708" stop-color="#F1C5B1"/>
<stop offset="0.4822" stop-color="#FFB4B3"/>
<stop offset="0.5265" stop-color="#F3B0B8"/>
<stop offset="0.6061" stop-color="#D4A4C7"/>
<stop offset="0.7113" stop-color="#A190DE"/>
<stop offset="0.7826" stop-color="#7B82EF"/>
<stop offset="0.8674" stop-color="#7A84EF"/>
<stop offset="0.9023" stop-color="#778BEF"/>
<stop offset="0.928" stop-color="#7297F0"/>
<stop offset="0.9493" stop-color="#6BA9F0"/>
<stop offset="0.9678" stop-color="#61C0F1"/>
<stop offset="0.984" stop-color="#56DBF2"/>
<stop offset="0.9988" stop-color="#48FCF3"/>
<stop offset="1" stop-color="#47FFF3"/>
</linearGradient>
<linearGradient id="paint17_linear_3803_1421" x1="117.351" y1="312.565" x2="765.207" y2="312.565" gradientUnits="userSpaceOnUse">
<stop stop-color="#50F9F0"/>
<stop offset="0.00377255" stop-color="#5DF8E9"/>
<stop offset="0.0145" stop-color="#7CF4DA"/>
<stop offset="0.0267" stop-color="#98F1CC"/>
<stop offset="0.0405" stop-color="#AEEEC1"/>
<stop offset="0.0566" stop-color="#BFECB8"/>
<stop offset="0.0765" stop-color="#CAEBB2"/>
<stop offset="0.1044" stop-color="#D1EAAF"/>
<stop offset="0.1818" stop-color="#D3EAAE"/>
<stop offset="0.3708" stop-color="#F1C5B1"/>
<stop offset="0.4822" stop-color="#FFB4B3"/>
<stop offset="0.5265" stop-color="#F3B0B8"/>
<stop offset="0.6061" stop-color="#D4A4C7"/>
<stop offset="0.7113" stop-color="#A190DE"/>
<stop offset="0.7826" stop-color="#7B82EF"/>
<stop offset="0.8674" stop-color="#7A84EF"/>
<stop offset="0.9023" stop-color="#778BEF"/>
<stop offset="0.928" stop-color="#7297F0"/>
<stop offset="0.9493" stop-color="#6BA9F0"/>
<stop offset="0.9678" stop-color="#61C0F1"/>
<stop offset="0.984" stop-color="#56DBF2"/>
<stop offset="0.9988" stop-color="#48FCF3"/>
<stop offset="1" stop-color="#47FFF3"/>
</linearGradient>
<linearGradient id="paint18_linear_3803_1421" x1="121.563" y1="321.148" x2="755.68" y2="321.148" gradientUnits="userSpaceOnUse">
<stop stop-color="#50F9F0"/>
<stop offset="0.00377255" stop-color="#5DF8E9"/>
<stop offset="0.0145" stop-color="#7CF4DA"/>
<stop offset="0.0267" stop-color="#98F1CC"/>
<stop offset="0.0405" stop-color="#AEEEC1"/>
<stop offset="0.0566" stop-color="#BFECB8"/>
<stop offset="0.0765" stop-color="#CAEBB2"/>
<stop offset="0.1044" stop-color="#D1EAAF"/>
<stop offset="0.1818" stop-color="#D3EAAE"/>
<stop offset="0.3708" stop-color="#F1C5B1"/>
<stop offset="0.4822" stop-color="#FFB4B3"/>
<stop offset="0.5265" stop-color="#F3B0B8"/>
<stop offset="0.6061" stop-color="#D4A4C7"/>
<stop offset="0.7113" stop-color="#A190DE"/>
<stop offset="0.7826" stop-color="#7B82EF"/>
<stop offset="0.8674" stop-color="#7A84EF"/>
<stop offset="0.9023" stop-color="#778BEF"/>
<stop offset="0.928" stop-color="#7297F0"/>
<stop offset="0.9493" stop-color="#6BA9F0"/>
<stop offset="0.9678" stop-color="#61C0F1"/>
<stop offset="0.984" stop-color="#56DBF2"/>
<stop offset="0.9988" stop-color="#48FCF3"/>
<stop offset="1" stop-color="#47FFF3"/>
</linearGradient>
<linearGradient id="paint19_linear_3803_1421" x1="126.036" y1="327.816" x2="746.414" y2="327.816" gradientUnits="userSpaceOnUse">
<stop stop-color="#50F9F0"/>
<stop offset="0.00377255" stop-color="#5DF8E9"/>
<stop offset="0.0145" stop-color="#7CF4DA"/>
<stop offset="0.0267" stop-color="#98F1CC"/>
<stop offset="0.0405" stop-color="#AEEEC1"/>
<stop offset="0.0566" stop-color="#BFECB8"/>
<stop offset="0.0765" stop-color="#CAEBB2"/>
<stop offset="0.1044" stop-color="#D1EAAF"/>
<stop offset="0.1818" stop-color="#D3EAAE"/>
<stop offset="0.3708" stop-color="#F1C5B1"/>
<stop offset="0.4822" stop-color="#FFB4B3"/>
<stop offset="0.5265" stop-color="#F3B0B8"/>
<stop offset="0.6061" stop-color="#D4A4C7"/>
<stop offset="0.7113" stop-color="#A190DE"/>
<stop offset="0.7826" stop-color="#7B82EF"/>
<stop offset="0.8674" stop-color="#7A84EF"/>
<stop offset="0.9023" stop-color="#778BEF"/>
<stop offset="0.928" stop-color="#7297F0"/>
<stop offset="0.9493" stop-color="#6BA9F0"/>
<stop offset="0.9678" stop-color="#61C0F1"/>
<stop offset="0.984" stop-color="#56DBF2"/>
<stop offset="0.9988" stop-color="#48FCF3"/>
<stop offset="1" stop-color="#47FFF3"/>
</linearGradient>
<linearGradient id="paint20_linear_3803_1421" x1="130.291" y1="333.531" x2="734.136" y2="333.531" gradientUnits="userSpaceOnUse">
<stop stop-color="#50F9F0"/>
<stop offset="0.00377255" stop-color="#5DF8E9"/>
<stop offset="0.0145" stop-color="#7CF4DA"/>
<stop offset="0.0267" stop-color="#98F1CC"/>
<stop offset="0.0405" stop-color="#AEEEC1"/>
<stop offset="0.0566" stop-color="#BFECB8"/>
<stop offset="0.0765" stop-color="#CAEBB2"/>
<stop offset="0.1044" stop-color="#D1EAAF"/>
<stop offset="0.1818" stop-color="#D3EAAE"/>
<stop offset="0.3708" stop-color="#F1C5B1"/>
<stop offset="0.4822" stop-color="#FFB4B3"/>
<stop offset="0.5265" stop-color="#F3B0B8"/>
<stop offset="0.6061" stop-color="#D4A4C7"/>
<stop offset="0.7113" stop-color="#A190DE"/>
<stop offset="0.7826" stop-color="#7B82EF"/>
<stop offset="0.8674" stop-color="#7A84EF"/>
<stop offset="0.9023" stop-color="#778BEF"/>
<stop offset="0.928" stop-color="#7297F0"/>
<stop offset="0.9493" stop-color="#6BA9F0"/>
<stop offset="0.9678" stop-color="#61C0F1"/>
<stop offset="0.984" stop-color="#56DBF2"/>
<stop offset="0.9988" stop-color="#48FCF3"/>
<stop offset="1" stop-color="#47FFF3"/>
</linearGradient>
<linearGradient id="paint21_linear_3803_1421" x1="135.009" y1="338.569" x2="727.92" y2="338.569" gradientUnits="userSpaceOnUse">
<stop stop-color="#50F9F0"/>
<stop offset="0.00377255" stop-color="#5DF8E9"/>
<stop offset="0.0145" stop-color="#7CF4DA"/>
<stop offset="0.0267" stop-color="#98F1CC"/>
<stop offset="0.0405" stop-color="#AEEEC1"/>
<stop offset="0.0566" stop-color="#BFECB8"/>
<stop offset="0.0765" stop-color="#CAEBB2"/>
<stop offset="0.1044" stop-color="#D1EAAF"/>
<stop offset="0.1818" stop-color="#D3EAAE"/>
<stop offset="0.3708" stop-color="#F1C5B1"/>
<stop offset="0.4822" stop-color="#FFB4B3"/>
<stop offset="0.5265" stop-color="#F3B0B8"/>
<stop offset="0.6061" stop-color="#D4A4C7"/>
<stop offset="0.7113" stop-color="#A190DE"/>
<stop offset="0.7826" stop-color="#7B82EF"/>
<stop offset="0.8674" stop-color="#7A84EF"/>
<stop offset="0.9023" stop-color="#778BEF"/>
<stop offset="0.928" stop-color="#7297F0"/>
<stop offset="0.9493" stop-color="#6BA9F0"/>
<stop offset="0.9678" stop-color="#61C0F1"/>
<stop offset="0.984" stop-color="#56DBF2"/>
<stop offset="0.9988" stop-color="#48FCF3"/>
<stop offset="1" stop-color="#47FFF3"/>
</linearGradient>
<linearGradient id="paint22_linear_3803_1421" x1="140.889" y1="345.36" x2="722.111" y2="345.36" gradientUnits="userSpaceOnUse">
<stop stop-color="#50F9F0"/>
<stop offset="0.00377255" stop-color="#5DF8E9"/>
<stop offset="0.0145" stop-color="#7CF4DA"/>
<stop offset="0.0267" stop-color="#98F1CC"/>
<stop offset="0.0405" stop-color="#AEEEC1"/>
<stop offset="0.0566" stop-color="#BFECB8"/>
<stop offset="0.0765" stop-color="#CAEBB2"/>
<stop offset="0.1044" stop-color="#D1EAAF"/>
<stop offset="0.1818" stop-color="#D3EAAE"/>
<stop offset="0.3708" stop-color="#F1C5B1"/>
<stop offset="0.4822" stop-color="#FFB4B3"/>
<stop offset="0.5265" stop-color="#F3B0B8"/>
<stop offset="0.6061" stop-color="#D4A4C7"/>
<stop offset="0.7113" stop-color="#A190DE"/>
<stop offset="0.7826" stop-color="#7B82EF"/>
<stop offset="0.8674" stop-color="#7A84EF"/>
<stop offset="0.9023" stop-color="#778BEF"/>
<stop offset="0.928" stop-color="#7297F0"/>
<stop offset="0.9493" stop-color="#6BA9F0"/>
<stop offset="0.9678" stop-color="#61C0F1"/>
<stop offset="0.984" stop-color="#56DBF2"/>
<stop offset="0.9988" stop-color="#48FCF3"/>
<stop offset="1" stop-color="#47FFF3"/>
</linearGradient>
<linearGradient id="paint23_linear_3803_1421" x1="147.275" y1="350.304" x2="716.805" y2="350.304" gradientUnits="userSpaceOnUse">
<stop stop-color="#50F9F0"/>
<stop offset="0.00377255" stop-color="#5DF8E9"/>
<stop offset="0.0145" stop-color="#7CF4DA"/>
<stop offset="0.0267" stop-color="#98F1CC"/>
<stop offset="0.0405" stop-color="#AEEEC1"/>
<stop offset="0.0566" stop-color="#BFECB8"/>
<stop offset="0.0765" stop-color="#CAEBB2"/>
<stop offset="0.1044" stop-color="#D1EAAF"/>
<stop offset="0.1818" stop-color="#D3EAAE"/>
<stop offset="0.3708" stop-color="#F1C5B1"/>
<stop offset="0.4822" stop-color="#FFB4B3"/>
<stop offset="0.5265" stop-color="#F3B0B8"/>
<stop offset="0.6061" stop-color="#D4A4C7"/>
<stop offset="0.7113" stop-color="#A190DE"/>
<stop offset="0.7826" stop-color="#7B82EF"/>
<stop offset="0.8674" stop-color="#7A84EF"/>
<stop offset="0.9023" stop-color="#778BEF"/>
<stop offset="0.928" stop-color="#7297F0"/>
<stop offset="0.9493" stop-color="#6BA9F0"/>
<stop offset="0.9678" stop-color="#61C0F1"/>
<stop offset="0.984" stop-color="#56DBF2"/>
<stop offset="0.9988" stop-color="#48FCF3"/>
<stop offset="1" stop-color="#47FFF3"/>
</linearGradient>
<linearGradient id="paint24_linear_3803_1421" x1="151.637" y1="351.573" x2="712.08" y2="351.573" gradientUnits="userSpaceOnUse">
<stop stop-color="#50F9F0"/>
<stop offset="0.00377255" stop-color="#5DF8E9"/>
<stop offset="0.0145" stop-color="#7CF4DA"/>
<stop offset="0.0267" stop-color="#98F1CC"/>
<stop offset="0.0405" stop-color="#AEEEC1"/>
<stop offset="0.0566" stop-color="#BFECB8"/>
<stop offset="0.0765" stop-color="#CAEBB2"/>
<stop offset="0.1044" stop-color="#D1EAAF"/>
<stop offset="0.1818" stop-color="#D3EAAE"/>
<stop offset="0.3708" stop-color="#F1C5B1"/>
<stop offset="0.4822" stop-color="#FFB4B3"/>
<stop offset="0.5265" stop-color="#F3B0B8"/>
<stop offset="0.6061" stop-color="#D4A4C7"/>
<stop offset="0.7113" stop-color="#A190DE"/>
<stop offset="0.7826" stop-color="#7B82EF"/>
<stop offset="0.8674" stop-color="#7A84EF"/>
<stop offset="0.9023" stop-color="#778BEF"/>
<stop offset="0.928" stop-color="#7297F0"/>
<stop offset="0.9493" stop-color="#6BA9F0"/>
<stop offset="0.9678" stop-color="#61C0F1"/>
<stop offset="0.984" stop-color="#56DBF2"/>
<stop offset="0.9988" stop-color="#48FCF3"/>
<stop offset="1" stop-color="#47FFF3"/>
</linearGradient>
<linearGradient id="paint25_linear_3803_1421" x1="155.955" y1="352.823" x2="707.987" y2="352.823" gradientUnits="userSpaceOnUse">
<stop stop-color="#50F9F0"/>
<stop offset="0.00377255" stop-color="#5DF8E9"/>
<stop offset="0.0145" stop-color="#7CF4DA"/>
<stop offset="0.0267" stop-color="#98F1CC"/>
<stop offset="0.0405" stop-color="#AEEEC1"/>
<stop offset="0.0566" stop-color="#BFECB8"/>
<stop offset="0.0765" stop-color="#CAEBB2"/>
<stop offset="0.1044" stop-color="#D1EAAF"/>
<stop offset="0.1818" stop-color="#D3EAAE"/>
<stop offset="0.3708" stop-color="#F1C5B1"/>
<stop offset="0.4822" stop-color="#FFB4B3"/>
<stop offset="0.5265" stop-color="#F3B0B8"/>
<stop offset="0.6061" stop-color="#D4A4C7"/>
<stop offset="0.7113" stop-color="#A190DE"/>
<stop offset="0.7826" stop-color="#7B82EF"/>
<stop offset="0.8674" stop-color="#7A84EF"/>
<stop offset="0.9023" stop-color="#778BEF"/>
<stop offset="0.928" stop-color="#7297F0"/>
<stop offset="0.9493" stop-color="#6BA9F0"/>
<stop offset="0.9678" stop-color="#61C0F1"/>
<stop offset="0.984" stop-color="#56DBF2"/>
<stop offset="0.9988" stop-color="#48FCF3"/>
<stop offset="1" stop-color="#47FFF3"/>
</linearGradient>
<linearGradient id="paint26_linear_3803_1421" x1="159.99" y1="355.738" x2="704.839" y2="355.738" gradientUnits="userSpaceOnUse">
<stop stop-color="#50F9F0"/>
<stop offset="0.00377255" stop-color="#5DF8E9"/>
<stop offset="0.0145" stop-color="#7CF4DA"/>
<stop offset="0.0267" stop-color="#98F1CC"/>
<stop offset="0.0405" stop-color="#AEEEC1"/>
<stop offset="0.0566" stop-color="#BFECB8"/>
<stop offset="0.0765" stop-color="#CAEBB2"/>
<stop offset="0.1044" stop-color="#D1EAAF"/>
<stop offset="0.1818" stop-color="#D3EAAE"/>
<stop offset="0.3708" stop-color="#F1C5B1"/>
<stop offset="0.4822" stop-color="#FFB4B3"/>
<stop offset="0.5265" stop-color="#F3B0B8"/>
<stop offset="0.6061" stop-color="#D4A4C7"/>
<stop offset="0.7113" stop-color="#A190DE"/>
<stop offset="0.7826" stop-color="#7B82EF"/>
<stop offset="0.8674" stop-color="#7A84EF"/>
<stop offset="0.9023" stop-color="#778BEF"/>
<stop offset="0.928" stop-color="#7297F0"/>
<stop offset="0.9493" stop-color="#6BA9F0"/>
<stop offset="0.9678" stop-color="#61C0F1"/>
<stop offset="0.984" stop-color="#56DBF2"/>
<stop offset="0.9988" stop-color="#48FCF3"/>
<stop offset="1" stop-color="#47FFF3"/>
</linearGradient>
<linearGradient id="paint27_linear_3803_1421" x1="164.165" y1="363.569" x2="702.194" y2="363.569" gradientUnits="userSpaceOnUse">
<stop stop-color="#50F9F0"/>
<stop offset="0.00377255" stop-color="#5DF8E9"/>
<stop offset="0.0145" stop-color="#7CF4DA"/>
<stop offset="0.0267" stop-color="#98F1CC"/>
<stop offset="0.0405" stop-color="#AEEEC1"/>
<stop offset="0.0566" stop-color="#BFECB8"/>
<stop offset="0.0765" stop-color="#CAEBB2"/>
<stop offset="0.1044" stop-color="#D1EAAF"/>
<stop offset="0.1818" stop-color="#D3EAAE"/>
<stop offset="0.3708" stop-color="#F1C5B1"/>
<stop offset="0.4822" stop-color="#FFB4B3"/>
<stop offset="0.5265" stop-color="#F3B0B8"/>
<stop offset="0.6061" stop-color="#D4A4C7"/>
<stop offset="0.7113" stop-color="#A190DE"/>
<stop offset="0.7826" stop-color="#7B82EF"/>
<stop offset="0.8674" stop-color="#7A84EF"/>
<stop offset="0.9023" stop-color="#778BEF"/>
<stop offset="0.928" stop-color="#7297F0"/>
<stop offset="0.9493" stop-color="#6BA9F0"/>
<stop offset="0.9678" stop-color="#61C0F1"/>
<stop offset="0.984" stop-color="#56DBF2"/>
<stop offset="0.9988" stop-color="#48FCF3"/>
<stop offset="1" stop-color="#47FFF3"/>
</linearGradient>
<linearGradient id="paint28_linear_3803_1421" x1="168.401" y1="376.267" x2="700.007" y2="376.267" gradientUnits="userSpaceOnUse">
<stop stop-color="#50F9F0"/>
<stop offset="0.00377255" stop-color="#5DF8E9"/>
<stop offset="0.0145" stop-color="#7CF4DA"/>
<stop offset="0.0267" stop-color="#98F1CC"/>
<stop offset="0.0405" stop-color="#AEEEC1"/>
<stop offset="0.0566" stop-color="#BFECB8"/>
<stop offset="0.0765" stop-color="#CAEBB2"/>
<stop offset="0.1044" stop-color="#D1EAAF"/>
<stop offset="0.1818" stop-color="#D3EAAE"/>
<stop offset="0.3708" stop-color="#F1C5B1"/>
<stop offset="0.4822" stop-color="#FFB4B3"/>
<stop offset="0.5265" stop-color="#F3B0B8"/>
<stop offset="0.6061" stop-color="#D4A4C7"/>
<stop offset="0.7113" stop-color="#A190DE"/>
<stop offset="0.7826" stop-color="#7B82EF"/>
<stop offset="0.8674" stop-color="#7A84EF"/>
<stop offset="0.9023" stop-color="#778BEF"/>
<stop offset="0.928" stop-color="#7297F0"/>
<stop offset="0.9493" stop-color="#6BA9F0"/>
<stop offset="0.9678" stop-color="#61C0F1"/>
<stop offset="0.984" stop-color="#56DBF2"/>
<stop offset="0.9988" stop-color="#48FCF3"/>
<stop offset="1" stop-color="#47FFF3"/>
</linearGradient>
<linearGradient id="paint29_linear_3803_1421" x1="172.634" y1="383.499" x2="697.912" y2="383.499" gradientUnits="userSpaceOnUse">
<stop stop-color="#50F9F0"/>
<stop offset="0.00377255" stop-color="#5DF8E9"/>
<stop offset="0.0145" stop-color="#7CF4DA"/>
<stop offset="0.0267" stop-color="#98F1CC"/>
<stop offset="0.0405" stop-color="#AEEEC1"/>
<stop offset="0.0566" stop-color="#BFECB8"/>
<stop offset="0.0765" stop-color="#CAEBB2"/>
<stop offset="0.1044" stop-color="#D1EAAF"/>
<stop offset="0.1818" stop-color="#D3EAAE"/>
<stop offset="0.3708" stop-color="#F1C5B1"/>
<stop offset="0.4822" stop-color="#FFB4B3"/>
<stop offset="0.5265" stop-color="#F3B0B8"/>
<stop offset="0.6061" stop-color="#D4A4C7"/>
<stop offset="0.7113" stop-color="#A190DE"/>
<stop offset="0.7826" stop-color="#7B82EF"/>
<stop offset="0.8674" stop-color="#7A84EF"/>
<stop offset="0.9023" stop-color="#778BEF"/>
<stop offset="0.928" stop-color="#7297F0"/>
<stop offset="0.9493" stop-color="#6BA9F0"/>
<stop offset="0.9678" stop-color="#61C0F1"/>
<stop offset="0.984" stop-color="#56DBF2"/>
<stop offset="0.9988" stop-color="#48FCF3"/>
<stop offset="1" stop-color="#47FFF3"/>
</linearGradient>
<linearGradient id="paint30_linear_3803_1421" x1="176.895" y1="392.312" x2="696.223" y2="392.312" gradientUnits="userSpaceOnUse">
<stop stop-color="#50F9F0"/>
<stop offset="0.00377255" stop-color="#5DF8E9"/>
<stop offset="0.0145" stop-color="#7CF4DA"/>
<stop offset="0.0267" stop-color="#98F1CC"/>
<stop offset="0.0405" stop-color="#AEEEC1"/>
<stop offset="0.0566" stop-color="#BFECB8"/>
<stop offset="0.0765" stop-color="#CAEBB2"/>
<stop offset="0.1044" stop-color="#D1EAAF"/>
<stop offset="0.1818" stop-color="#D3EAAE"/>
<stop offset="0.3708" stop-color="#F1C5B1"/>
<stop offset="0.4822" stop-color="#FFB4B3"/>
<stop offset="0.5265" stop-color="#F3B0B8"/>
<stop offset="0.6061" stop-color="#D4A4C7"/>
<stop offset="0.7113" stop-color="#A190DE"/>
<stop offset="0.7826" stop-color="#7B82EF"/>
<stop offset="0.8674" stop-color="#7A84EF"/>
<stop offset="0.9023" stop-color="#778BEF"/>
<stop offset="0.928" stop-color="#7297F0"/>
<stop offset="0.9493" stop-color="#6BA9F0"/>
<stop offset="0.9678" stop-color="#61C0F1"/>
<stop offset="0.984" stop-color="#56DBF2"/>
<stop offset="0.9988" stop-color="#48FCF3"/>
<stop offset="1" stop-color="#47FFF3"/>
</linearGradient>
<linearGradient id="paint31_linear_3803_1421" x1="181.205" y1="401.838" x2="693.381" y2="401.838" gradientUnits="userSpaceOnUse">
<stop stop-color="#50F9F0"/>
<stop offset="0.00377255" stop-color="#5DF8E9"/>
<stop offset="0.0145" stop-color="#7CF4DA"/>
<stop offset="0.0267" stop-color="#98F1CC"/>
<stop offset="0.0405" stop-color="#AEEEC1"/>
<stop offset="0.0566" stop-color="#BFECB8"/>
<stop offset="0.0765" stop-color="#CAEBB2"/>
<stop offset="0.1044" stop-color="#D1EAAF"/>
<stop offset="0.1818" stop-color="#D3EAAE"/>
<stop offset="0.3708" stop-color="#F1C5B1"/>
<stop offset="0.4822" stop-color="#FFB4B3"/>
<stop offset="0.5265" stop-color="#F3B0B8"/>
<stop offset="0.6061" stop-color="#D4A4C7"/>
<stop offset="0.7113" stop-color="#A190DE"/>
<stop offset="0.7826" stop-color="#7B82EF"/>
<stop offset="0.8674" stop-color="#7A84EF"/>
<stop offset="0.9023" stop-color="#778BEF"/>
<stop offset="0.928" stop-color="#7297F0"/>
<stop offset="0.9493" stop-color="#6BA9F0"/>
<stop offset="0.9678" stop-color="#61C0F1"/>
<stop offset="0.984" stop-color="#56DBF2"/>
<stop offset="0.9988" stop-color="#48FCF3"/>
<stop offset="1" stop-color="#47FFF3"/>
</linearGradient>
</defs>
</svg>
