<svg width="237" height="480" viewBox="0 0 237 480" fill="none" xmlns="http://www.w3.org/2000/svg">
<path d="M113.76 404.985L111.013 404.71C111.837 397.291 113.486 389.597 115.134 382.453C118.981 365.142 122.553 348.93 115.134 333.268C106.891 315.407 87.6563 316.506 67.3226 317.605C58.2549 318.155 48.9123 318.704 40.6689 317.33L41.2185 314.583C48.9123 315.956 58.2549 315.407 67.3226 314.857C87.6563 313.758 109.089 312.659 117.882 332.168C125.851 348.655 122.004 366.241 118.157 383.278C116.233 390.422 114.585 397.841 113.76 404.985Z" fill="url(#paint0_linear_0_3837)"/>
<path d="M129.972 455.27C118.431 419.274 127.774 382.728 136.841 347.281C137.666 343.984 138.49 340.686 139.314 337.664C141.513 328.047 141.787 314.857 135.193 306.889C131.621 302.217 126.125 300.019 119.255 300.294C111.836 300.569 104.417 301.118 97.2731 301.668C86.2819 302.492 75.0159 303.316 64.0247 303.316C43.1414 303.316 22.8077 300.294 4.39746 287.929L6.04614 285.456C33.2493 303.591 65.6734 301.118 96.9983 298.645C104.143 298.096 111.836 297.546 118.981 297.271C126.949 296.996 133.269 299.469 137.391 304.69C144.535 313.483 144.535 327.497 142.062 337.939C141.238 341.236 140.414 344.533 139.589 347.831C130.521 382.728 121.454 418.999 132.72 454.171L129.972 455.27Z" fill="url(#paint1_linear_0_3837)"/>
<path d="M161.296 469.284C161.296 469.284 156.625 463.239 149.48 453.346C140.962 438.783 137.39 421.747 138.764 401.413C140.138 383.552 144.809 365.692 149.48 348.106C151.129 341.511 152.778 335.191 154.426 329.146C154.701 328.322 154.976 327.497 154.976 326.673C157.724 315.957 160.471 304.965 154.976 294.798C151.129 287.929 143.16 285.181 130.246 286.006C121.453 286.28 112.11 287.379 102.768 288.204C91.5017 289.303 79.961 290.677 68.695 290.677C47.8117 290.677 28.3023 286.555 12.6399 269.793C4.67126 260.176 0 254.131 0 254.131L2.19824 252.482C2.19824 252.482 6.8695 258.528 14.5633 267.87C37.6448 292.325 70.3437 288.753 102.218 285.181C111.286 284.082 120.903 283.258 129.696 282.983C138.764 282.433 151.404 282.708 157.174 293.15C163.219 304.416 160.197 315.957 157.449 326.948C157.449 328.047 157.174 328.871 156.899 329.696C155.525 336.015 153.877 342.061 151.953 348.93C142.611 384.102 132.993 420.373 151.679 451.973C159.098 461.865 163.494 467.91 163.494 467.91L161.296 469.284Z" fill="url(#paint2_linear_0_3837)"/>
<path d="M189.047 476.153L175.033 457.468C170.637 451.698 165.416 444.553 159.92 436.585C148.105 415.702 151.677 390.147 154.425 369.813C155.799 359.921 159.371 350.029 162.668 340.412C169.813 320.353 176.407 301.393 166.79 281.884C161.02 269.793 146.181 271.717 132.992 273.64C131.069 273.64 129.145 273.915 127.222 274.19C122.001 274.739 117.055 275.289 111.834 275.839C83.8064 279.136 54.9545 282.433 32.1478 263.748C25.0035 257.154 19.5079 250.284 15.1114 244.239L1.09766 225.554L3.2959 223.905L17.3097 242.59C21.7061 248.361 26.927 255.23 33.7965 261.825C55.5041 279.686 84.0812 276.388 111.559 273.366C116.505 272.816 121.726 272.266 126.672 271.717C128.596 271.442 130.519 271.167 132.717 270.893C139.587 270.068 147.006 268.969 153.326 269.793C161.02 270.893 166.24 274.465 169.263 280.785C179.43 301.118 172.286 321.727 165.141 341.511C161.844 351.128 158.272 361.02 156.898 370.363C154.15 390.422 150.578 415.427 161.844 435.211C167.339 443.18 172.56 450.324 176.957 456.094L190.971 474.779L189.047 476.153Z" fill="url(#paint3_linear_0_3837)"/>
<path d="M213.778 479.451L189.048 446.477C184.102 439.882 178.606 432.188 173.111 423.395C165.692 410.756 162.944 395.093 164.867 374.21C166.241 361.295 170.088 348.381 174.21 335.741C181.354 313.209 187.949 292.051 179.98 270.343C176.683 260.726 164.592 261.001 154.151 261.001H153.052C143.434 261.001 133.268 262.374 123.375 263.474C97.8209 266.771 71.1673 270.068 48.9101 254.131C40.6667 247.536 34.6215 239.842 29.6755 233.523L4.94531 200.549L7.14355 198.9L31.8737 231.874C36.545 238.194 42.5902 245.613 50.5588 251.933C71.9916 267.32 97.8209 264.023 123.101 261.001C132.993 259.901 143.434 258.528 153.326 258.253H154.426C165.417 258.253 178.881 257.978 183.003 269.519C191.246 292.325 184.102 314.857 177.232 336.84C173.385 349.205 169.264 361.845 168.165 374.485C166.241 394.818 168.714 409.931 175.858 421.747C181.079 430.54 186.85 437.959 191.796 444.554L216.526 477.527L213.778 479.451Z" fill="url(#paint4_linear_0_3837)"/>
<path d="M236.86 480L192.071 420.373C169.264 391.521 178.057 357.173 186.576 323.925C189.323 313.483 191.796 303.866 193.17 294.249C193.445 292.325 193.72 290.402 193.995 288.478C195.918 277.487 197.842 266.221 191.247 257.154C186.85 249.734 177.783 249.734 168.99 249.46C168.44 249.46 167.616 249.46 167.066 249.46C157.449 249.46 147.007 250.559 137.115 251.658C108.538 254.955 79.1366 258.253 56.6047 238.194C52.483 233.797 49.1856 229.401 46.4378 225.829L10.9912 178.566L13.1894 176.918L48.3613 223.905C51.1091 227.477 54.4064 231.874 58.2534 235.995C79.961 255.23 108.813 251.933 136.566 248.91C146.732 247.811 157.174 246.712 167.066 246.712C167.616 246.712 168.44 246.712 168.99 246.712C178.057 246.712 188.499 246.987 193.995 255.505C200.864 265.672 198.941 278.037 197.017 289.028C196.742 290.951 196.468 292.875 196.193 294.798C194.544 304.416 192.071 314.308 189.323 324.749C181.08 357.173 172.562 390.971 194.269 418.724L239.059 478.351L236.86 480Z" fill="url(#paint5_linear_0_3837)"/>
<path d="M258.018 478.351L202.513 404.161C183.003 373.935 191.522 340.412 199.765 307.988C203.612 292.875 207.734 276.938 208.558 262.1C209.107 254.955 206.909 248.635 202.238 243.964C196.742 238.469 188.499 235.996 179.431 236.82C172.562 237.369 165.417 238.469 157.998 239.293C141.237 241.491 123.926 243.689 107.714 242.041C89.3034 239.843 75.2896 232.698 64.848 220.333C61.8254 216.211 58.8028 212.365 56.055 208.518L18.4102 158.508L20.6084 156.859L57.9785 206.869C60.7263 210.716 63.7488 214.563 66.7714 218.41C89.0286 245.338 123.651 240.667 157.449 236.545C164.868 235.721 172.012 234.622 178.882 234.072C189.048 232.973 198.116 235.996 204.161 241.766C209.657 246.987 212.13 254.131 211.58 262.1C210.481 277.213 206.634 293.15 202.787 308.537C194.819 340.412 186.301 373.386 204.986 402.512L260.491 476.703L258.018 478.351Z" fill="url(#paint6_linear_0_3837)"/>
<path d="M278.079 475.054L219.826 397.291C194.821 365.966 203.889 327.772 212.956 290.677C215.979 278.586 218.727 267.046 220.375 256.054C221.749 246.712 219.276 238.469 213.231 232.698C206.636 226.378 196.744 223.356 186.303 225.004L183.555 225.554C146.734 231.324 100.571 238.743 75.5663 204.945L27.2051 140.372L29.4033 138.723L77.7646 203.297C101.67 235.721 146.734 228.576 183.005 222.806L186.028 222.256C197.294 220.608 208.285 223.63 215.429 230.775C222.024 237.369 224.772 246.437 223.398 256.604C221.749 267.87 219.001 279.411 215.979 291.501C207.186 327.772 198.118 365.417 222.299 395.643L280.552 473.405L278.079 475.054Z" fill="url(#paint7_linear_0_3837)"/>
<path d="M297.037 470.383L236.86 389.872C233.563 385.476 229.991 380.53 226.419 375.034C211.855 346.732 218.175 315.407 224.495 285.181C225.869 278.037 227.243 271.442 228.342 264.573C228.617 262.924 228.892 261.275 229.167 259.352C231.914 244.514 235.486 226.104 222.572 217.036C217.351 213.189 211.031 213.464 204.436 213.738C197.567 214.013 190.423 214.838 183.003 215.387C165.418 217.036 147.282 218.959 130.521 216.211C111.561 213.189 97.2721 204.671 87.3801 190.382L37.3701 123.611L39.5684 121.962L89.5783 188.733C111.011 219.509 147.557 215.937 182.729 212.639C190.148 211.815 197.292 211.265 204.162 210.991C211.031 210.716 217.901 210.441 223.946 214.838C238.509 225.004 234.937 244.514 231.914 260.176C231.914 261.825 231.365 263.474 231.09 265.122C229.991 271.992 228.617 278.861 227.243 285.731C221.198 315.407 214.878 346.182 228.892 373.66C232.189 378.881 235.761 383.827 239.059 388.224L299.235 468.734L297.037 470.383Z" fill="url(#paint8_linear_0_3837)"/>
<path d="M314.898 464.063L245.654 371.737C222.572 339.862 230.541 302.492 238.235 265.946C240.433 254.955 242.631 244.788 244.005 234.622C245.379 222.806 242.631 211.54 236.586 205.495C232.464 201.098 226.419 199.175 219.275 199.724C212.405 200.274 205.261 201.373 198.392 202.198C186.026 203.846 173.387 205.495 161.021 205.495C141.787 205.495 123.651 201.648 108.264 187.359C104.417 183.238 101.394 178.841 98.6464 175.269L48.0869 108.223L50.2852 106.574L100.57 173.62C103.318 177.193 106.34 181.314 109.912 185.436C134.643 207.418 166.792 203.297 198.117 199.45C204.986 198.625 212.131 197.526 219 196.977C227.243 196.152 233.838 198.625 238.784 203.846C245.379 210.716 248.401 222.531 247.028 235.446C245.654 245.338 243.455 255.78 241.257 266.771C233.838 302.492 225.87 339.313 248.127 370.088L317.371 462.414L314.898 464.063Z" fill="url(#paint9_linear_0_3837)"/>
<path d="M331.933 456.644L261.589 362.669C258.842 358.822 254.995 353.601 252.247 347.831C239.332 317.33 245.377 284.906 251.148 253.581C253.621 239.842 256.369 225.829 257.193 212.09C257.743 204.671 255.27 198.076 250.049 193.405C244.004 187.909 234.661 185.161 225.319 186.535C219.823 187.085 214.877 187.909 209.381 188.733C193.994 190.932 178.056 193.405 162.943 192.306C145.632 190.932 131.893 185.161 121.452 174.445C117.605 170.598 114.582 166.476 111.285 162.355L60.1758 93.9343L62.374 92.2856L113.758 160.706C116.78 164.828 119.803 168.949 123.375 172.521C146.182 195.053 178.056 190.382 208.832 185.986C214.327 185.161 219.273 184.337 224.494 183.787C234.936 182.413 245.103 185.161 251.697 191.481C257.468 196.702 260.216 204.121 259.666 212.364C258.567 226.103 256.094 240.392 253.621 254.131C247.85 284.906 242.08 316.781 254.72 346.732C257.468 352.502 260.765 357.173 263.788 361.02L334.131 454.995L331.933 456.644Z" fill="url(#paint10_linear_0_3837)"/>
<path d="M347.873 447.851L276.705 352.777C273.408 348.381 269.836 343.434 266.813 338.214C254.448 317.056 257.196 292.325 259.669 268.694C259.943 265.947 260.218 263.199 260.493 260.451C261.043 252.482 262.966 244.239 264.615 236.545C268.462 218.684 272.583 200.549 264.615 182.963C260.768 174.17 249.502 173.346 241.533 173.62C232.191 173.895 222.573 175.269 212.956 176.643C184.929 180.49 156.077 184.612 134.644 162.629C131.072 158.508 127.774 154.386 124.752 150.264L72.8184 81.0196L75.0166 79.371L126.95 148.616C129.973 152.737 132.995 156.859 136.567 160.706C156.901 181.589 185.203 177.467 212.407 173.895C222.024 172.521 231.916 171.147 241.258 170.873C250.051 170.598 262.691 171.422 267.088 181.864C275.331 199.999 271.209 218.959 267.088 237.095C265.714 244.788 263.79 252.757 263.241 260.451C262.966 263.199 262.691 265.947 262.417 268.694C259.943 292.051 257.47 316.231 269.286 336.565C272.309 341.786 275.606 346.457 278.903 350.854L350.071 445.927L347.873 447.851Z" fill="url(#paint11_linear_0_3837)"/>
<path d="M362.985 438.234L291.267 342.61C287.97 337.939 284.398 333.268 281.1 328.322C262.69 295.898 269.285 259.077 276.154 223.356C278.078 213.738 279.727 204.396 280.826 195.328C282.2 184.887 279.177 174.994 272.857 168.4C267.087 162.629 259.393 160.156 250.6 160.981C244.005 161.805 237.41 162.904 230.266 164.003C215.978 166.201 201.414 168.674 187.401 167.85C171.463 166.751 158.823 161.255 148.931 151.363C145.359 147.516 142.062 143.12 139.039 138.998L86.8311 69.4789L89.0293 67.8303L141.237 137.35C144.26 141.471 147.557 145.593 151.13 149.44C172.562 170.873 201.689 165.927 230.266 161.255C236.861 160.156 244.005 159.057 250.325 158.233C259.942 157.134 268.735 160.156 275.055 166.476C281.925 173.621 285.222 184.337 283.848 195.603C282.749 204.945 280.826 214.563 279.177 223.63C272.582 258.802 265.988 295.073 283.848 326.673C287.146 331.619 290.718 336.29 294.015 340.687L365.733 436.31L362.985 438.234Z" fill="url(#paint12_linear_0_3837)"/>
<path d="M377.548 427.242L305.83 331.619C302.533 326.948 298.961 322.276 295.389 317.605C275.33 286.83 281.1 251.658 286.596 217.585C289.069 203.022 291.542 187.909 291.816 173.346C291.816 166.201 289.343 159.881 284.672 155.21C280.001 150.814 273.406 148.616 266.262 148.89C258.843 149.715 251.149 150.539 243.455 151.638C226.419 153.836 209.108 156.035 193.445 153.562C175.585 150.814 162.395 142.57 153.327 128.007L101.119 58.4877L103.317 56.839L155.526 126.358C175.035 157.134 209.382 153.012 242.906 148.616C250.599 147.791 258.293 146.692 265.712 146.142C273.681 145.593 281.1 148.066 286.321 153.012C291.542 157.958 294.564 165.102 294.289 173.071C294.015 187.634 291.542 203.022 289.069 217.585C283.573 251.108 278.077 285.731 297.312 315.407C300.884 320.078 304.181 324.749 307.754 329.421L379.471 425.044L377.548 427.242Z" fill="url(#paint13_linear_0_3837)"/>
<path d="M391.013 415.152L319.845 320.078C316.548 315.682 312.975 311.01 309.403 306.064C287.146 273.915 292.917 236.27 298.687 199.45C300.336 188.459 302.259 176.918 303.083 166.201C303.908 156.859 301.435 148.066 296.489 142.845C292.642 138.723 287.696 136.8 281.376 136.8C272.308 136.8 262.691 137.899 253.348 138.723C222.023 142.296 189.599 145.593 168.166 118.115C162.121 109.872 156.351 102.178 151.13 95.3083L116.508 48.8704L118.706 47.2218L153.328 93.3848C158.549 100.254 164.32 107.948 170.365 116.192C190.698 142.296 222.298 139.273 252.799 135.976C262.141 135.151 272.033 134.052 281.101 134.052C287.97 133.777 293.741 136.25 298.137 140.922C303.633 146.967 306.381 156.584 305.556 166.476C304.732 177.467 302.809 189.008 301.16 199.999C295.664 235.996 289.894 273.366 311.602 304.416C314.899 309.087 318.471 313.758 321.768 318.43L392.936 413.503L391.013 415.152Z" fill="url(#paint14_linear_0_3837)"/>
<path d="M403.652 401.963L333.308 308.263C330.011 303.866 326.439 299.195 323.141 294.524C312.15 279.96 306.654 262.374 305.83 240.667C305.281 221.707 308.303 202.198 311.326 183.238C312.7 174.994 314.074 167.026 314.898 159.332C316.272 147.242 313.524 136.25 307.204 129.656C302.533 124.71 296.213 122.511 288.519 122.786C282.474 123.336 276.154 123.885 269.834 124.71C239.333 128.007 207.734 131.579 184.103 108.498C177.783 100.529 172.012 92.8352 166.791 86.2405L132.719 40.3522L134.917 38.7036L168.99 84.317C174.211 91.1865 179.981 98.8804 186.026 106.574C208.558 128.557 239.608 125.259 269.559 121.687C275.879 120.863 282.199 120.313 288.244 119.764C296.762 119.214 304.181 121.962 309.402 127.457C316.272 134.602 319.294 146.692 317.646 159.607C316.547 167.575 315.447 175.269 314.074 183.787C308.028 221.707 301.434 261.001 325.065 292.875C328.362 297.546 331.934 302.217 335.232 306.614L405.575 400.314L403.652 401.963Z" fill="url(#paint15_linear_0_3837)"/>
<path d="M415.192 387.674L342.65 290.952C338.803 286.006 334.957 280.785 331.659 275.014C323.141 260.176 318.745 242.865 318.745 221.982C318.745 203.572 321.767 184.886 324.79 167.026C325.614 162.08 326.438 157.134 327.263 152.188C328.362 144.494 330.011 125.259 320.668 115.092C316.546 110.421 310.226 108.223 302.533 108.498C294.839 108.772 287.145 109.597 278.901 110.421C262.964 112.07 246.477 113.993 231.09 111.795C213.779 109.047 200.589 101.628 191.247 88.7135L149.755 33.2079L151.953 31.5593L193.445 87.0648C213.504 114.818 246.477 111.245 278.627 107.673C286.87 106.849 294.839 106.025 302.533 105.75C311.326 105.475 317.92 107.948 322.866 113.169C332.484 123.885 331.384 142.57 330.011 152.737C329.186 157.683 328.362 162.629 327.538 167.575C321.492 203.846 315.172 241.491 333.857 273.64C337.155 279.411 341.002 284.357 344.849 289.303L417.391 386.025L415.192 387.674Z" fill="url(#paint16_linear_0_3837)"/>
<path d="M426.185 372.012L355.566 277.762C351.994 272.816 348.147 267.87 344.575 262.649C326.44 230.775 331.935 195.603 337.156 161.255C339.354 146.417 341.827 131.03 342.102 116.466C342.377 110.146 340.179 104.651 336.057 100.254C331.111 95.5831 323.967 92.8353 316.273 93.3848C308.304 93.9344 299.786 95.0335 291.543 96.1326C261.866 99.9796 231.091 104.101 208.834 81.0197C202.239 73.0511 196.469 65.6321 191.797 59.0373L167.892 27.4377L170.09 25.789L193.996 57.6634C198.942 63.9834 204.437 71.4024 210.757 79.0963C232.19 101.079 262.141 97.2318 290.993 93.3848C299.236 92.2857 307.755 91.1866 315.723 90.637C324.241 90.0875 332.21 93.1101 337.706 98.3309C342.652 103.002 344.85 109.322 344.575 116.466C344.3 131.304 341.827 146.692 339.629 161.805C334.408 195.603 329.187 230.225 346.773 261.275C350.345 266.496 354.192 271.442 357.765 276.114L428.383 370.363L426.185 372.012Z" fill="url(#paint17_linear_0_3837)"/>
<path d="M435.801 354.975L367.656 264.298C364.358 259.352 360.786 254.681 357.214 249.46C347.872 235.996 343.75 219.234 344.025 196.977C344.299 181.04 346.772 165.927 349.246 151.089C351.993 134.327 355.016 117.016 354.466 98.8804C353.917 87.8892 344.849 80.1954 332.759 80.4701C324.515 80.7449 315.997 81.5693 306.929 82.6684C288.244 84.5918 269.285 86.5153 252.523 83.4927C233.288 79.9206 219.275 70.0285 209.932 53.5417L186.851 22.7664L189.049 21.1177L212.13 51.893C232.189 87.6144 269.834 83.4927 306.105 79.9206C314.898 79.0962 323.691 77.9971 332.209 77.7223C346.223 77.1728 356.39 86.2405 357.214 98.8804C357.764 117.291 355.016 134.877 351.993 151.638C349.52 166.201 347.047 181.314 346.772 196.977C346.498 218.684 350.619 234.896 359.412 247.811C362.984 252.757 366.557 257.703 369.854 262.1L437.725 352.777L435.801 354.975Z" fill="url(#paint18_linear_0_3837)"/>
<path d="M444.321 336.29L379.473 249.735C376.175 245.338 372.603 240.667 369.306 235.996C355.841 216.761 355.292 192.031 356.116 175.269C356.391 162.629 358.864 150.264 361.337 138.174C364.909 119.489 368.756 99.9795 364.36 81.0197C361.887 71.1276 351.72 66.7312 332.76 68.3798C327.539 68.6546 321.769 69.479 316.273 70.0285C300.611 71.4024 284.399 73.0511 269.286 71.1276C251.975 68.6546 239.06 61.5103 229.168 49.1453C224.771 43.1001 220.65 37.8793 217.352 33.4828L207.186 19.7438L209.384 18.0951L219.825 31.8341C223.123 35.9558 226.97 41.1766 231.366 47.2218C251.975 73.6007 284.399 70.0285 315.998 66.7312C321.494 66.1816 326.99 65.632 332.485 65.0825C341.003 64.5329 347.873 64.8077 353.094 66.4564C360.788 68.6546 365.459 73.3259 367.107 79.9206C371.504 99.7048 367.657 119.489 364.085 138.449C361.887 150.539 359.414 162.904 359.139 175.269C358.04 201.648 361.887 220.058 371.779 234.347C375.076 239.018 378.648 243.689 381.946 248.086L446.794 334.642L444.321 336.29Z" fill="url(#paint19_linear_0_3837)"/>
<path d="M451.462 315.682L386.614 229.126C374.524 214.563 368.479 196.977 367.654 175.269C367.105 156.035 370.402 136.25 373.974 117.016C375.898 106.849 377.547 96.9569 378.646 87.6144C379.745 77.7223 377.272 68.3798 371.501 62.3347C366.83 57.3886 360.51 54.6408 353.091 54.9156C345.672 54.9156 337.703 55.7399 330.01 56.5643C297.311 59.5869 263.788 62.8842 241.531 35.1314C233.562 24.6898 228.891 18.6447 228.891 18.6447L231.089 16.996C231.089 16.996 235.76 23.0411 243.454 33.4828C264.887 59.8616 297.86 56.5643 329.735 53.5417C337.429 52.7174 345.672 51.893 353.366 51.6182C361.609 51.3435 368.754 54.366 373.974 59.8616C380.02 66.4564 383.042 76.898 381.668 87.3396C380.569 96.9569 378.92 106.574 376.997 117.016C370.128 155.76 363.258 195.603 389.087 226.928L453.935 313.483L451.462 315.682Z" fill="url(#paint20_linear_0_3837)"/>
<defs>
<linearGradient id="paint0_linear_0_3837" x1="40.4793" y1="359.624" x2="122.251" y2="359.624" gradientUnits="userSpaceOnUse">
<stop stop-color="#FFDC54"/>
<stop offset="0.0596" stop-color="#FFCF52"/>
<stop offset="0.2702" stop-color="#FFA44A"/>
<stop offset="0.4749" stop-color="#FF8245"/>
<stop offset="0.6692" stop-color="#FF6A40"/>
<stop offset="0.8489" stop-color="#FF5C3E"/>
<stop offset="1" stop-color="#FF573D"/>
</linearGradient>
<linearGradient id="paint1_linear_0_3837" x1="4.33151" y1="370.475" x2="143.634" y2="370.475" gradientUnits="userSpaceOnUse">
<stop stop-color="#FFDC54"/>
<stop offset="0.0596" stop-color="#FFCF52"/>
<stop offset="0.2702" stop-color="#FFA44A"/>
<stop offset="0.4749" stop-color="#FF8245"/>
<stop offset="0.6692" stop-color="#FF6A40"/>
<stop offset="0.8489" stop-color="#FF5C3E"/>
<stop offset="1" stop-color="#FF573D"/>
</linearGradient>
<linearGradient id="paint2_linear_0_3837" x1="0" y1="360.883" x2="163.587" y2="360.883" gradientUnits="userSpaceOnUse">
<stop stop-color="#FFDC54"/>
<stop offset="0.0596" stop-color="#FFCF52"/>
<stop offset="0.2702" stop-color="#FFA44A"/>
<stop offset="0.4749" stop-color="#FF8245"/>
<stop offset="0.6692" stop-color="#FF6A40"/>
<stop offset="0.8489" stop-color="#FF5C3E"/>
<stop offset="1" stop-color="#FF573D"/>
</linearGradient>
<linearGradient id="paint3_linear_0_3837" x1="1.18833" y1="350.076" x2="191.24" y2="350.076" gradientUnits="userSpaceOnUse">
<stop stop-color="#FFDC54"/>
<stop offset="0.0596" stop-color="#FFCF52"/>
<stop offset="0.2702" stop-color="#FFA44A"/>
<stop offset="0.4749" stop-color="#FF8245"/>
<stop offset="0.6692" stop-color="#FF6A40"/>
<stop offset="0.8489" stop-color="#FF5C3E"/>
<stop offset="1" stop-color="#FF573D"/>
</linearGradient>
<linearGradient id="paint4_linear_0_3837" x1="5.12117" y1="339.269" x2="216.149" y2="339.269" gradientUnits="userSpaceOnUse">
<stop stop-color="#FFDC54"/>
<stop offset="0.0596" stop-color="#FFCF52"/>
<stop offset="0.2702" stop-color="#FFA44A"/>
<stop offset="0.4749" stop-color="#FF8245"/>
<stop offset="0.6692" stop-color="#FF6A40"/>
<stop offset="0.8489" stop-color="#FF5C3E"/>
<stop offset="1" stop-color="#FF573D"/>
</linearGradient>
<linearGradient id="paint5_linear_0_3837" x1="11.0407" y1="328.462" x2="239.075" y2="328.462" gradientUnits="userSpaceOnUse">
<stop stop-color="#FFDC54"/>
<stop offset="0.0596" stop-color="#FFCF52"/>
<stop offset="0.2702" stop-color="#FFA44A"/>
<stop offset="0.4749" stop-color="#FF8245"/>
<stop offset="0.6692" stop-color="#FF6A40"/>
<stop offset="0.8489" stop-color="#FF5C3E"/>
<stop offset="1" stop-color="#FF573D"/>
</linearGradient>
<linearGradient id="paint6_linear_0_3837" x1="18.5228" y1="317.657" x2="260.436" y2="317.657" gradientUnits="userSpaceOnUse">
<stop stop-color="#FFDC54"/>
<stop offset="0.0596" stop-color="#FFCF52"/>
<stop offset="0.2702" stop-color="#FFA44A"/>
<stop offset="0.4749" stop-color="#FF8245"/>
<stop offset="0.6692" stop-color="#FF6A40"/>
<stop offset="0.8489" stop-color="#FF5C3E"/>
<stop offset="1" stop-color="#FF573D"/>
</linearGradient>
<linearGradient id="paint7_linear_0_3837" x1="27.315" y1="306.85" x2="280.489" y2="306.85" gradientUnits="userSpaceOnUse">
<stop stop-color="#FFDC54"/>
<stop offset="0.0596" stop-color="#FFCF52"/>
<stop offset="0.2702" stop-color="#FFA44A"/>
<stop offset="0.4749" stop-color="#FF8245"/>
<stop offset="0.6692" stop-color="#FF6A40"/>
<stop offset="0.8489" stop-color="#FF5C3E"/>
<stop offset="1" stop-color="#FF573D"/>
</linearGradient>
<linearGradient id="paint8_linear_0_3837" x1="37.2492" y1="296.043" x2="299.395" y2="296.043" gradientUnits="userSpaceOnUse">
<stop stop-color="#FFDC54"/>
<stop offset="0.0596" stop-color="#FFCF52"/>
<stop offset="0.2702" stop-color="#FFA44A"/>
<stop offset="0.4749" stop-color="#FF8245"/>
<stop offset="0.6692" stop-color="#FF6A40"/>
<stop offset="0.8489" stop-color="#FF5C3E"/>
<stop offset="1" stop-color="#FF573D"/>
</linearGradient>
<linearGradient id="paint9_linear_0_3837" x1="48.2133" y1="285.239" x2="317.272" y2="285.239" gradientUnits="userSpaceOnUse">
<stop stop-color="#FFDC54"/>
<stop offset="0.0596" stop-color="#FFCF52"/>
<stop offset="0.2702" stop-color="#FFA44A"/>
<stop offset="0.4749" stop-color="#FF8245"/>
<stop offset="0.6692" stop-color="#FF6A40"/>
<stop offset="0.8489" stop-color="#FF5C3E"/>
<stop offset="1" stop-color="#FF573D"/>
</linearGradient>
<linearGradient id="paint10_linear_0_3837" x1="60.1263" y1="274.429" x2="334.197" y2="274.429" gradientUnits="userSpaceOnUse">
<stop stop-color="#FFDC54"/>
<stop offset="0.0596" stop-color="#FFCF52"/>
<stop offset="0.2702" stop-color="#FFA44A"/>
<stop offset="0.4749" stop-color="#FF8245"/>
<stop offset="0.6692" stop-color="#FF6A40"/>
<stop offset="0.8489" stop-color="#FF5C3E"/>
<stop offset="1" stop-color="#FF573D"/>
</linearGradient>
<linearGradient id="paint11_linear_0_3837" x1="72.942" y1="263.625" x2="350.231" y2="263.625" gradientUnits="userSpaceOnUse">
<stop stop-color="#FFDC54"/>
<stop offset="0.0596" stop-color="#FFCF52"/>
<stop offset="0.2702" stop-color="#FFA44A"/>
<stop offset="0.4749" stop-color="#FF8245"/>
<stop offset="0.6692" stop-color="#FF6A40"/>
<stop offset="0.8489" stop-color="#FF5C3E"/>
<stop offset="1" stop-color="#FF573D"/>
</linearGradient>
<linearGradient id="paint12_linear_0_3837" x1="86.6112" y1="252.818" x2="365.403" y2="252.818" gradientUnits="userSpaceOnUse">
<stop stop-color="#FFDC54"/>
<stop offset="0.0596" stop-color="#FFCF52"/>
<stop offset="0.2702" stop-color="#FFA44A"/>
<stop offset="0.4749" stop-color="#FF8245"/>
<stop offset="0.6692" stop-color="#FF6A40"/>
<stop offset="0.8489" stop-color="#FF5C3E"/>
<stop offset="1" stop-color="#FF573D"/>
</linearGradient>
<linearGradient id="paint13_linear_0_3837" x1="101.114" y1="242.013" x2="379.741" y2="242.013" gradientUnits="userSpaceOnUse">
<stop stop-color="#FFDC54"/>
<stop offset="0.0596" stop-color="#FFCF52"/>
<stop offset="0.2702" stop-color="#FFA44A"/>
<stop offset="0.4749" stop-color="#FF8245"/>
<stop offset="0.6692" stop-color="#FF6A40"/>
<stop offset="0.8489" stop-color="#FF5C3E"/>
<stop offset="1" stop-color="#FF573D"/>
</linearGradient>
<linearGradient id="paint14_linear_0_3837" x1="116.456" y1="231.206" x2="393.239" y2="231.206" gradientUnits="userSpaceOnUse">
<stop stop-color="#FFDC54"/>
<stop offset="0.0596" stop-color="#FFCF52"/>
<stop offset="0.2702" stop-color="#FFA44A"/>
<stop offset="0.4749" stop-color="#FF8245"/>
<stop offset="0.6692" stop-color="#FF6A40"/>
<stop offset="0.8489" stop-color="#FF5C3E"/>
<stop offset="1" stop-color="#FF573D"/>
</linearGradient>
<linearGradient id="paint15_linear_0_3837" x1="132.664" y1="220.399" x2="405.875" y2="220.399" gradientUnits="userSpaceOnUse">
<stop stop-color="#FFDC54"/>
<stop offset="0.0596" stop-color="#FFCF52"/>
<stop offset="0.2702" stop-color="#FFA44A"/>
<stop offset="0.4749" stop-color="#FF8245"/>
<stop offset="0.6692" stop-color="#FF6A40"/>
<stop offset="0.8489" stop-color="#FF5C3E"/>
<stop offset="1" stop-color="#FF573D"/>
</linearGradient>
<linearGradient id="paint16_linear_0_3837" x1="149.774" y1="209.592" x2="417.605" y2="209.592" gradientUnits="userSpaceOnUse">
<stop stop-color="#FFDC54"/>
<stop offset="0.0596" stop-color="#FFCF52"/>
<stop offset="0.2702" stop-color="#FFA44A"/>
<stop offset="0.4749" stop-color="#FF8245"/>
<stop offset="0.6692" stop-color="#FF6A40"/>
<stop offset="0.8489" stop-color="#FF5C3E"/>
<stop offset="1" stop-color="#FF573D"/>
</linearGradient>
<linearGradient id="paint17_linear_0_3837" x1="167.85" y1="198.788" x2="428.375" y2="198.788" gradientUnits="userSpaceOnUse">
<stop stop-color="#FFDC54"/>
<stop offset="0.0596" stop-color="#FFCF52"/>
<stop offset="0.2702" stop-color="#FFA44A"/>
<stop offset="0.4749" stop-color="#FF8245"/>
<stop offset="0.6692" stop-color="#FF6A40"/>
<stop offset="0.8489" stop-color="#FF5C3E"/>
<stop offset="1" stop-color="#FF573D"/>
</linearGradient>
<linearGradient id="paint18_linear_0_3837" x1="186.974" y1="187.981" x2="438.09" y2="187.981" gradientUnits="userSpaceOnUse">
<stop stop-color="#FFDC54"/>
<stop offset="0.0596" stop-color="#FFCF52"/>
<stop offset="0.2702" stop-color="#FFA44A"/>
<stop offset="0.4749" stop-color="#FF8245"/>
<stop offset="0.6692" stop-color="#FF6A40"/>
<stop offset="0.8489" stop-color="#FF5C3E"/>
<stop offset="1" stop-color="#FF573D"/>
</linearGradient>
<linearGradient id="paint19_linear_0_3837" x1="207.273" y1="177.173" x2="446.637" y2="177.173" gradientUnits="userSpaceOnUse">
<stop stop-color="#FFDC54"/>
<stop offset="0.0596" stop-color="#FFCF52"/>
<stop offset="0.2702" stop-color="#FFA44A"/>
<stop offset="0.4749" stop-color="#FF8245"/>
<stop offset="0.6692" stop-color="#FF6A40"/>
<stop offset="0.8489" stop-color="#FF5C3E"/>
<stop offset="1" stop-color="#FF573D"/>
</linearGradient>
<linearGradient id="paint20_linear_0_3837" x1="228.921" y1="166.369" x2="453.828" y2="166.369" gradientUnits="userSpaceOnUse">
<stop stop-color="#FFDC54"/>
<stop offset="0.0596" stop-color="#FFCF52"/>
<stop offset="0.2702" stop-color="#FFA44A"/>
<stop offset="0.4749" stop-color="#FF8245"/>
<stop offset="0.6692" stop-color="#FF6A40"/>
<stop offset="0.8489" stop-color="#FF5C3E"/>
<stop offset="1" stop-color="#FF573D"/>
</linearGradient>
</defs>
</svg>
