<svg width="300" height="579" viewBox="0 0 300 579" fill="none" xmlns="http://www.w3.org/2000/svg">
<path d="M-0.360443 577.821L-30.1646 538.082C-36.1254 530.134 -42.7486 520.862 -49.3717 510.265C-58.313 495.031 -61.6246 476.156 -59.3065 450.988C-57.6507 435.423 -53.0145 419.859 -48.0471 404.626C-39.437 377.471 -31.4892 351.972 -41.0928 325.81C-45.0667 314.22 -59.6376 314.551 -72.2216 314.551H-73.5462C-85.1367 314.551 -97.3896 316.207 -109.311 317.531C-140.109 321.505 -172.231 325.479 -199.055 306.272C-208.99 298.324 -216.275 289.052 -222.236 281.435L-252.04 241.696L-249.391 239.709L-219.587 279.448C-213.957 287.065 -206.671 296.006 -197.068 303.623C-171.238 322.167 -140.109 318.193 -109.642 314.551C-97.7207 313.226 -85.1367 311.57 -73.2151 311.239H-71.8904C-58.6441 311.239 -42.4174 310.908 -37.4501 324.817C-27.5154 352.303 -36.1255 379.458 -44.4044 405.95C-49.0406 420.852 -54.0079 436.085 -55.3326 451.319C-57.6507 475.824 -54.6703 494.038 -46.0602 508.278C-39.7682 518.875 -32.8139 527.816 -26.853 535.764L2.95113 575.503L-0.360443 577.821Z" fill="url(#paint0_linear_0_3784)"/>
<path d="M27.4584 578.483L-26.5202 506.622C-54.0063 471.85 -43.4093 430.456 -33.1434 390.386C-29.8318 377.802 -26.8514 366.211 -25.1956 354.621C-24.8645 352.303 -24.5333 349.985 -24.2021 347.666C-21.884 334.42 -19.5659 320.843 -27.5137 309.914C-32.8122 300.973 -43.7404 300.973 -54.3375 300.642C-54.9998 300.642 -55.9933 300.642 -56.6556 300.642C-68.2461 300.642 -80.8301 301.967 -92.7517 303.291C-127.192 307.265 -162.626 311.239 -189.781 287.065C-194.748 281.766 -198.722 276.468 -202.034 272.163L-244.753 215.203L-242.104 213.217L-199.716 269.844C-196.404 274.149 -192.43 279.448 -187.794 284.415C-161.632 307.596 -126.861 303.623 -93.414 299.98C-81.1612 298.655 -68.5772 297.33 -56.6556 297.33C-55.9933 297.33 -54.9998 297.33 -54.3375 297.33C-43.4093 297.33 -30.8253 297.662 -24.2021 307.928C-15.9232 320.18 -18.2413 335.082 -20.5594 348.329C-20.8906 350.647 -21.2217 352.965 -21.5529 355.283C-23.5398 366.874 -26.5202 378.795 -29.8318 391.379C-39.7665 430.456 -50.0324 471.188 -23.871 504.635L30.1077 576.496L27.4584 578.483Z" fill="url(#paint1_linear_0_3784)"/>
<path d="M52.9577 576.496L-13.9361 487.084C-37.4483 450.656 -27.1824 410.255 -17.2477 371.179C-12.6115 352.965 -7.64412 333.758 -6.65063 315.875C-5.98833 307.265 -8.63759 299.649 -14.2673 294.019C-20.8904 287.396 -30.8251 284.415 -41.7533 285.409C-50.0323 286.071 -58.6423 287.396 -67.5836 288.389C-87.7842 291.039 -108.647 293.688 -128.185 291.701C-150.373 289.052 -167.262 280.442 -179.846 265.54C-183.489 260.572 -187.131 255.936 -190.443 251.3L-235.812 191.029L-233.162 189.042L-188.125 249.313C-184.813 253.949 -181.171 258.585 -177.528 263.221C-150.704 295.675 -108.978 290.045 -68.2459 285.078C-59.3047 284.084 -50.6946 282.76 -42.4156 282.097C-30.1628 280.773 -19.2346 284.415 -11.9492 291.37C-5.32602 297.662 -2.34561 306.272 -3.00792 315.875C-4.33255 334.089 -8.96875 353.296 -13.6049 371.841C-23.2085 410.255 -33.4744 449.994 -10.9557 485.097L55.9381 574.509L52.9577 576.496Z" fill="url(#paint2_linear_0_3784)"/>
<path d="M77.1338 572.522L6.92841 478.805C-23.2069 441.053 -12.2787 395.022 -1.35052 350.316C2.29221 335.745 5.60381 321.836 7.59074 308.59C9.24654 297.33 6.26611 287.396 -1.01935 280.441C-8.96713 272.825 -20.8888 269.182 -33.4728 271.169L-36.7844 271.831C-81.1595 278.786 -136.794 287.727 -166.929 246.995L-225.213 169.173L-222.564 167.186L-164.28 245.008C-135.469 284.084 -81.1594 275.474 -37.4467 268.52L-33.804 267.857C-20.2265 265.871 -6.98019 269.513 1.6299 278.123C9.57768 286.071 12.8893 296.999 11.2335 309.252C9.24652 322.83 5.93494 336.738 2.29221 351.309C-8.30484 395.022 -19.233 440.39 9.90883 476.818L80.1142 570.535L77.1338 572.522Z" fill="url(#paint3_linear_0_3784)"/>
<path d="M99.9809 566.893L27.4574 469.864C23.4835 464.565 19.1784 458.604 14.8734 451.981C-2.67796 417.872 4.93866 380.12 12.5553 343.693C14.2111 335.083 15.8669 327.135 17.1915 318.856C17.5227 316.869 17.8538 314.882 18.185 312.564C21.4965 294.681 25.8016 272.494 10.2372 261.566C3.94521 256.929 -3.67143 257.261 -11.6192 257.592C-19.8981 257.923 -28.5082 258.916 -37.4495 259.579C-58.6436 261.566 -80.4999 263.884 -100.701 260.572C-123.55 256.929 -140.771 246.664 -152.692 229.443L-212.963 148.972L-210.314 146.985L-150.043 227.456C-124.213 264.546 -80.1688 260.241 -37.7806 256.267C-28.8394 255.274 -20.2293 254.611 -11.9504 254.28C-3.67143 253.949 4.60748 253.618 11.893 258.916C29.4443 271.169 25.1393 294.681 21.4965 313.557C21.4965 315.544 20.8342 317.531 20.5031 319.518C19.1784 327.797 17.5227 336.076 15.8669 344.355C8.58141 380.12 0.964767 417.21 17.8538 450.325C21.8277 456.617 26.1327 462.578 30.1066 467.877L102.63 564.906L99.9809 566.893Z" fill="url(#paint4_linear_0_3784)"/>
<path d="M121.507 559.276L38.0553 448.007C10.2381 409.593 19.8416 364.555 29.114 320.511C31.7633 307.265 34.4126 295.012 36.0683 282.76C37.7241 268.52 34.4125 254.942 27.1271 247.657C22.1597 242.358 14.8743 240.04 6.26418 240.703C-2.01476 241.365 -10.6249 242.689 -18.9038 243.683C-33.8059 245.67 -49.0391 247.657 -63.9412 247.657C-87.1222 247.657 -108.979 243.021 -127.523 225.8C-132.16 220.833 -135.802 215.535 -139.114 211.23L-200.047 130.427L-197.398 128.44L-136.796 209.243C-133.484 213.548 -129.842 218.515 -125.536 223.482C-95.7323 249.975 -56.9869 245.008 -19.2349 240.371C-10.956 239.378 -2.34593 238.053 5.93301 237.391C15.8677 236.397 23.8155 239.378 29.7763 245.67C37.7241 253.949 41.3669 268.189 39.7111 283.753C38.0553 295.675 35.406 308.259 32.7568 321.505C23.8155 364.555 14.2119 408.93 41.0357 446.02L124.487 557.289L121.507 559.276Z" fill="url(#paint5_linear_0_3784)"/>
<path d="M142.037 550.335L57.2608 437.079C53.9492 432.443 49.313 426.151 46.0014 419.196C30.4371 382.438 37.7225 343.361 44.6768 305.61C47.6572 289.052 50.9688 272.163 51.9623 255.605C52.6246 246.664 49.6442 238.716 43.3522 233.086C36.0667 226.463 24.8074 223.151 13.548 224.807C6.92487 225.469 0.964035 226.463 -5.6591 227.456C-24.2039 230.106 -43.411 233.086 -61.6247 231.761C-82.4876 230.106 -99.0455 223.151 -111.629 210.236C-116.266 205.6 -119.908 200.633 -123.882 195.665L-185.478 113.207L-182.828 111.22L-120.902 193.678C-117.259 198.646 -113.616 203.613 -109.311 207.918C-81.8253 235.073 -43.411 229.443 -6.32143 224.145C0.301727 223.151 6.26256 222.158 12.5546 221.496C25.1385 219.84 37.3913 223.151 45.3391 230.768C52.2934 237.06 55.605 246.001 54.9427 255.936C53.6181 272.494 50.6376 289.714 47.6572 306.272C40.7029 343.361 33.7486 381.776 48.9819 417.872C52.2934 424.826 56.2673 430.456 59.9101 435.092L144.686 548.348L142.037 550.335Z" fill="url(#paint6_linear_0_3784)"/>
<path d="M161.246 539.738L75.4766 425.157C71.5027 419.859 67.1976 413.898 63.5549 407.606C48.6528 382.107 51.9644 352.303 54.9448 323.823C55.276 320.512 55.6071 317.2 55.9383 313.888C56.6006 304.285 58.9187 294.35 60.9057 285.078C65.5419 263.553 70.5092 241.696 60.9057 220.502C56.2695 209.905 42.692 208.912 33.0884 209.243C21.8291 209.574 10.2386 211.23 -1.35193 212.885C-35.13 217.522 -69.9015 222.489 -95.7318 195.996C-100.037 191.029 -104.011 186.062 -107.653 181.094L-170.242 97.6427L-167.593 95.6558L-105.004 179.107C-101.361 184.075 -97.7187 189.042 -93.4137 193.678C-68.908 218.846 -34.7988 213.879 -2.01424 209.574C9.57626 207.918 21.4979 206.262 32.7573 205.931C43.3543 205.6 58.5876 206.593 63.8861 219.177C73.8208 241.034 68.8534 263.884 63.8861 285.74C62.2303 295.012 59.9122 304.616 59.2499 313.888C58.9187 317.2 58.5876 320.512 58.2564 323.823C55.276 351.972 52.2956 381.113 66.5353 405.619C70.1781 411.911 74.1519 417.541 78.1258 422.839L163.896 537.42L161.246 539.738Z" fill="url(#paint7_linear_0_3784)"/>
<path d="M179.459 528.147L93.0266 412.905C89.0527 407.275 84.7476 401.645 80.7737 395.684C58.5862 356.608 66.534 312.233 74.8129 269.182C77.131 257.592 79.118 246.332 80.4426 235.404C82.0984 222.82 78.4557 210.899 70.8391 202.951C63.8847 195.996 54.6123 193.016 44.0153 194.01C36.0675 195.003 28.1197 196.328 19.5096 197.652C2.28947 200.302 -15.2619 203.282 -32.1509 202.288C-51.358 200.964 -66.5913 194.341 -78.5129 182.419C-82.818 177.783 -86.7919 172.484 -90.4346 167.517L-153.354 83.7341L-150.705 81.7472L-87.7853 165.53C-84.1426 170.497 -80.1687 175.465 -75.8637 180.101C-50.0334 205.931 -14.9307 199.97 19.5096 194.341C27.4574 193.016 36.0675 191.691 43.6841 190.698C55.2746 189.373 65.8717 193.016 73.4883 200.633C81.7672 209.243 85.7411 222.158 84.0853 235.735C82.7607 246.995 80.4426 258.585 78.4556 269.513C70.5079 311.902 62.5601 355.614 84.0853 393.697C88.0592 399.658 92.3643 405.288 96.3381 410.586L182.77 525.829L179.459 528.147Z" fill="url(#paint8_linear_0_3784)"/>
<path d="M197.01 514.901L110.578 399.658C106.605 394.028 102.299 388.399 97.9944 382.769C73.82 345.68 80.7743 303.291 87.3974 262.228C90.3778 244.677 93.3582 226.463 93.6894 208.912C93.6894 200.301 90.709 192.685 85.0793 187.055C79.4496 181.757 71.5018 179.107 62.8918 179.439C53.9505 180.432 44.6781 181.425 35.4057 182.75C14.8739 185.399 -5.98895 188.049 -24.8649 185.068C-46.3902 181.757 -62.2857 171.822 -73.2139 154.271L-136.134 70.4878L-133.485 68.5009L-70.5646 152.284C-47.0525 189.373 -5.65781 184.406 34.7434 179.107C44.0158 178.114 53.2882 176.789 62.2294 176.127C71.833 175.465 80.7743 178.445 87.0663 184.406C93.3582 190.367 97.001 198.977 96.6698 208.58C96.3387 226.132 93.3582 244.677 90.3778 262.228C83.7547 302.629 77.1315 344.355 100.313 380.12C104.618 385.75 108.591 391.379 112.897 397.009L199.329 512.252L197.01 514.901Z" fill="url(#paint9_linear_0_3784)"/>
<path d="M213.238 500.33L127.469 385.75C123.495 380.451 119.19 374.821 114.885 368.861C88.0608 330.115 95.0151 284.747 101.969 240.372C103.956 227.125 106.274 213.217 107.268 200.302C108.261 189.042 105.281 178.445 99.3202 172.153C94.684 167.186 88.7231 164.868 81.1065 164.868C70.1783 164.868 58.5878 166.192 47.3285 167.186C9.57655 171.491 -29.5 175.465 -55.3303 142.349C-62.6158 132.414 -69.5701 123.142 -75.8621 114.863L-117.588 58.8973L-114.939 56.9104L-73.2128 112.545C-66.9208 120.824 -59.9665 130.096 -52.6811 140.031C-28.1754 171.491 9.90768 167.848 46.6662 163.874C57.9255 162.881 69.8472 161.556 80.7753 161.556C89.0543 161.225 96.0086 164.205 101.307 169.835C107.93 177.121 111.242 188.711 110.248 200.633C109.255 213.879 106.937 227.788 104.95 241.034C98.3267 284.415 91.3724 329.453 117.534 366.874C121.508 372.503 125.813 378.133 129.787 383.763L215.556 498.343L213.238 500.33Z" fill="url(#paint10_linear_0_3784)"/>
<path d="M228.47 484.435L143.694 371.51C139.72 366.211 135.415 360.582 131.441 354.952C118.195 337.401 111.572 316.207 110.578 290.045C109.916 267.195 113.559 243.683 117.201 220.833C118.857 210.899 120.513 201.295 121.507 192.023C123.162 177.452 119.851 164.205 112.234 156.258C106.604 150.297 98.9878 147.648 89.7154 147.979C82.43 148.641 74.8133 149.303 67.1967 150.297C30.4383 154.271 -7.64483 158.576 -36.1244 130.758C-43.741 121.155 -50.6953 111.883 -56.9873 103.935L-98.0508 48.6315L-95.4015 46.6445L-54.338 101.617C-48.046 109.896 -41.0917 119.168 -33.8063 128.44C-6.65135 154.933 30.7694 150.959 66.8656 146.654C74.4822 145.661 82.0988 144.998 89.3843 144.336C99.6501 143.674 108.591 146.985 114.883 153.608C123.162 162.218 126.805 176.789 124.818 192.354C123.493 201.957 122.169 211.23 120.513 221.496C113.228 267.195 105.28 314.551 133.759 352.965C137.733 358.595 142.038 364.224 146.012 369.523L230.788 482.448L228.47 484.435Z" fill="url(#paint11_linear_0_3784)"/>
<path d="M242.378 467.214L154.953 350.647C150.317 344.686 145.681 338.394 141.707 331.44C131.441 313.557 126.142 292.694 126.142 267.526C126.142 245.339 129.785 222.82 133.428 201.295C134.421 195.334 135.415 189.373 136.408 183.412C137.733 174.14 139.72 150.959 128.46 138.706C123.493 133.077 115.876 130.427 106.604 130.758C97.3316 131.09 88.0592 132.083 78.1244 133.077C58.9173 135.064 39.0479 137.382 20.5031 134.732C-0.359863 131.421 -16.2554 122.48 -27.5148 106.915L-77.5195 40.0214L-74.8703 38.0344L-24.8655 104.928C-0.691017 138.375 39.0479 134.07 77.7933 129.765C87.728 128.772 97.3316 127.778 106.604 127.447C117.201 127.116 125.149 130.096 131.11 136.388C142.7 149.303 141.376 171.822 139.72 184.075C138.726 190.036 137.733 195.996 136.739 201.957C129.454 245.67 121.837 291.039 144.356 329.784C148.33 336.738 152.966 342.699 157.602 348.66L245.028 465.227L242.378 467.214Z" fill="url(#paint12_linear_0_3784)"/>
<path d="M255.627 448.338L170.519 334.751C166.214 328.791 161.578 322.83 157.273 316.538C135.417 278.123 142.04 235.735 148.332 194.341C150.981 176.458 153.961 157.913 154.293 140.362C154.624 132.745 151.975 126.122 147.007 120.824C141.046 115.194 132.436 111.882 123.164 112.545C113.56 113.207 103.294 114.532 93.3596 115.856C57.5947 120.493 20.5051 125.46 -6.3187 97.6427C-14.2665 88.0391 -21.2208 79.0979 -26.8504 71.1501L-55.6611 33.067L-53.0119 31.0801L-24.2012 69.4943C-18.2404 77.1109 -11.6172 86.0522 -4.00059 95.3246C21.8297 121.817 57.9258 117.181 92.6974 112.545C102.632 111.22 112.898 109.896 122.502 109.233C132.767 108.571 142.371 112.214 148.994 118.506C154.955 124.135 157.604 131.752 157.273 140.362C156.942 158.244 153.961 176.789 151.312 195.003C145.02 235.735 138.728 277.461 159.922 314.882C164.227 321.174 168.864 327.135 173.169 332.764L258.276 446.351L255.627 448.338Z" fill="url(#paint13_linear_0_3784)"/>
<path d="M267.216 427.807L185.089 318.525C181.115 312.564 176.81 306.934 172.505 300.642C161.246 284.415 156.278 264.215 156.61 237.391C156.941 218.184 159.921 199.97 162.901 182.088C166.213 161.887 169.856 141.024 169.193 119.168C168.531 105.922 157.603 96.6493 143.032 96.9804C133.097 97.3116 122.831 98.3051 111.903 99.6297C89.3846 101.948 66.5347 104.266 46.3341 100.623C23.1531 96.3181 6.26406 84.3965 -4.99529 64.527L-32.8125 27.4374L-30.1632 25.4504L-2.34604 62.5401C21.8284 105.591 67.197 100.623 110.91 96.3181C121.507 95.3246 132.104 94 142.37 93.6688C159.259 93.0065 171.512 103.935 172.505 119.168C173.167 141.356 169.856 162.55 166.213 182.75C163.233 200.302 160.252 218.515 159.921 237.391C159.59 263.553 164.557 283.091 175.154 298.655C179.459 304.616 183.764 310.577 187.738 315.875L269.534 425.157L267.216 427.807Z" fill="url(#paint14_linear_0_3784)"/>
<path d="M277.483 405.288L199.33 300.973C195.356 295.675 191.051 290.045 187.077 284.416C170.85 261.235 170.188 231.43 171.182 211.23C171.513 195.997 174.493 181.094 177.474 166.524C181.779 144.005 186.415 120.493 181.116 97.6428C178.136 85.7211 165.883 80.4226 143.033 82.4095C136.741 82.7407 129.787 83.7342 123.164 84.3965C104.288 86.0523 84.7496 88.0392 66.5359 85.7211C45.673 82.7407 30.1086 74.1306 18.1869 59.2285C12.8884 51.9431 7.92104 45.6511 3.94715 40.3526L-8.30566 23.7947L-5.65641 21.8077L6.92758 38.3656C10.9015 43.333 15.5377 49.625 20.8362 56.9104C45.673 88.7015 84.7495 84.3965 122.833 80.4226C129.456 79.7603 136.079 79.098 142.702 78.4356C152.968 77.7733 161.247 78.1045 167.539 80.0914C176.811 82.7407 182.441 88.3704 184.428 96.3181C189.726 120.161 185.09 144.005 180.785 166.855C178.136 181.426 175.155 196.328 174.824 211.23C173.5 243.021 178.136 265.208 190.058 282.429C194.031 288.058 198.337 293.688 202.31 298.986L280.464 403.301L277.483 405.288Z" fill="url(#paint15_linear_0_3784)"/>
<path d="M286.09 380.451L207.937 276.136C193.366 258.585 186.08 237.391 185.087 211.23C184.425 188.049 188.399 164.205 192.704 141.024C195.022 128.771 197.009 116.85 198.333 105.59C199.658 93.6688 196.678 82.4094 189.723 75.124C184.094 69.1632 176.477 65.8516 167.536 66.1827C158.594 66.1827 148.991 67.1762 139.718 68.1697C100.311 71.8124 59.9095 75.7863 33.0858 42.3394C23.4822 29.7554 17.8525 22.47 17.8525 22.47L20.5018 20.483C20.5018 20.483 26.1315 27.7685 35.4039 40.3525C61.2341 72.1436 100.973 68.1697 139.387 64.527C148.66 63.5335 158.594 62.54 167.867 62.2089C177.802 61.8777 186.412 65.5204 192.704 72.1436C199.989 80.0913 203.632 92.6753 201.976 105.259C200.651 116.85 198.664 128.44 196.346 141.024C188.067 187.717 179.788 235.735 210.917 273.487L289.07 377.802L286.09 380.451Z" fill="url(#paint16_linear_0_3784)"/>
<path d="M293.046 353.296L221.185 257.261C192.374 219.509 199.991 174.14 207.276 130.096C209.926 113.869 212.575 97.3116 213.568 81.4161C213.9 72.806 211.25 64.8582 206.283 59.2285C201.647 53.93 195.024 51.2807 187.738 50.9496C175.816 50.6184 163.564 51.2807 150.649 52.2742C111.903 54.9235 71.8331 57.9039 46.334 23.7947L48.9833 21.8077C73.1578 54.2612 112.234 51.6119 150.317 48.9626C162.901 47.9692 175.816 47.3069 187.738 47.638C196.017 47.9692 203.303 51.2807 208.601 56.9104C214.562 63.2024 217.542 72.1437 216.88 81.7472C216.218 97.6428 213.237 114.532 210.588 130.759C203.303 174.14 196.017 218.515 223.834 255.274L295.695 351.309L293.046 353.296Z" fill="url(#paint17_linear_0_3784)"/>
<path d="M297.02 322.499L239.729 246.332C235.424 240.703 231.45 235.073 227.477 229.112V228.781C207.276 189.042 215.555 145.329 223.834 102.941C225.821 93.0065 227.808 82.7406 229.132 73.137C230.788 61.2154 227.808 50.9495 220.191 43.3329C212.243 35.3851 199.991 31.7424 186.744 33.3982H186.413C150.317 38.3655 112.896 43.3329 79.4492 25.4504L81.105 22.47C113.227 39.6902 150.317 34.7228 185.751 30.0866H186.082C200.322 28.0996 213.568 32.0735 222.509 41.0148C230.788 49.2937 234.1 60.8842 232.444 73.7994C230.788 83.7341 229.132 94 227.145 103.604C219.198 145.329 210.919 188.38 230.457 227.125C234.431 233.086 238.405 238.385 242.71 244.014L300 320.18L297.02 322.499Z" fill="url(#paint18_linear_0_3784)"/>
<path d="M297.683 287.065L257.281 233.086C253.307 227.787 249.334 222.489 245.36 216.197C227.146 190.036 229.133 157.913 232.776 124.466C233.769 115.525 235.756 106.253 237.412 97.6427C241.386 77.4421 245.691 56.248 241.386 35.3851C239.399 24.4569 228.802 19.1584 210.257 19.1584C200.653 19.1584 191.05 20.1518 181.777 20.8142C164.226 22.1388 146.012 23.4634 127.799 21.1453L128.13 17.8337C145.681 20.1518 162.902 18.8272 181.446 17.5026C190.719 16.8403 200.653 16.178 210.257 15.8468H210.588C230.458 15.8468 242.048 22.4699 244.697 34.7228C249.002 56.248 244.697 77.4421 240.392 98.305C238.737 106.915 236.75 116.187 235.756 124.798C232.113 157.582 230.458 189.373 247.678 214.21C251.652 220.171 255.626 225.801 259.599 230.768L300.001 284.747L297.683 287.065Z" fill="url(#paint19_linear_0_3784)"/>
<path d="M292.054 243.683L269.867 214.21C266.555 209.905 262.912 204.938 259.601 199.308C238.407 163.212 245.361 123.142 252.315 84.0652C254.965 69.8255 257.283 54.9234 258.607 41.0148C259.27 28.762 259.27 15.5157 249.335 9.886C234.764 1.93823 217.544 2.60054 202.642 4.58749L202.311 1.27591C217.875 -0.711031 235.757 -1.37335 250.991 6.90559C263.575 13.8599 262.581 31.7424 261.919 41.3459C260.925 55.5857 258.276 70.4878 255.627 84.7276C249.004 123.142 241.718 162.881 262.581 197.652C265.893 202.951 269.536 207.918 272.847 212.223L295.035 241.696L292.054 243.683Z" fill="url(#paint20_linear_0_3784)"/>
<path d="M269.202 174.14C254.962 138.044 261.585 100.292 268.209 63.5335C270.196 52.2742 272.182 40.6837 273.507 29.4243L276.819 29.7555C275.494 41.0148 273.507 52.6053 271.52 63.8647C265.228 99.9608 258.605 137.382 272.514 172.484L269.202 174.14Z" fill="url(#paint21_linear_0_3784)"/>
<defs>
<linearGradient id="paint0_linear_0_3784" x1="-251.828" y1="408.878" x2="2.49744" y2="408.878" gradientUnits="userSpaceOnUse">
<stop stop-color="#FFDC54"/>
<stop offset="0.0596" stop-color="#FFCF52"/>
<stop offset="0.2702" stop-color="#FFA44A"/>
<stop offset="0.4749" stop-color="#FF8245"/>
<stop offset="0.6692" stop-color="#FF6A40"/>
<stop offset="0.8489" stop-color="#FF5C3E"/>
<stop offset="1" stop-color="#FF573D"/>
</linearGradient>
<linearGradient id="paint1_linear_0_3784" x1="-244.693" y1="395.853" x2="30.1275" y2="395.853" gradientUnits="userSpaceOnUse">
<stop stop-color="#FFDC54"/>
<stop offset="0.0596" stop-color="#FFCF52"/>
<stop offset="0.2702" stop-color="#FFA44A"/>
<stop offset="0.4749" stop-color="#FF8245"/>
<stop offset="0.6692" stop-color="#FF6A40"/>
<stop offset="0.8489" stop-color="#FF5C3E"/>
<stop offset="1" stop-color="#FF573D"/>
</linearGradient>
<linearGradient id="paint2_linear_0_3784" x1="-235.676" y1="382.832" x2="55.8719" y2="382.832" gradientUnits="userSpaceOnUse">
<stop stop-color="#FFDC54"/>
<stop offset="0.0596" stop-color="#FFCF52"/>
<stop offset="0.2702" stop-color="#FFA44A"/>
<stop offset="0.4749" stop-color="#FF8245"/>
<stop offset="0.6692" stop-color="#FF6A40"/>
<stop offset="0.8489" stop-color="#FF5C3E"/>
<stop offset="1" stop-color="#FF573D"/>
</linearGradient>
<linearGradient id="paint3_linear_0_3784" x1="-225.08" y1="369.808" x2="80.038" y2="369.808" gradientUnits="userSpaceOnUse">
<stop stop-color="#FFDC54"/>
<stop offset="0.0596" stop-color="#FFCF52"/>
<stop offset="0.2702" stop-color="#FFA44A"/>
<stop offset="0.4749" stop-color="#FF8245"/>
<stop offset="0.6692" stop-color="#FF6A40"/>
<stop offset="0.8489" stop-color="#FF5C3E"/>
<stop offset="1" stop-color="#FF573D"/>
</linearGradient>
<linearGradient id="paint4_linear_0_3784" x1="-213.109" y1="356.783" x2="102.822" y2="356.783" gradientUnits="userSpaceOnUse">
<stop stop-color="#FFDC54"/>
<stop offset="0.0596" stop-color="#FFCF52"/>
<stop offset="0.2702" stop-color="#FFA44A"/>
<stop offset="0.4749" stop-color="#FF8245"/>
<stop offset="0.6692" stop-color="#FF6A40"/>
<stop offset="0.8489" stop-color="#FF5C3E"/>
<stop offset="1" stop-color="#FF573D"/>
</linearGradient>
<linearGradient id="paint5_linear_0_3784" x1="-199.895" y1="343.762" x2="124.368" y2="343.762" gradientUnits="userSpaceOnUse">
<stop stop-color="#FFDC54"/>
<stop offset="0.0596" stop-color="#FFCF52"/>
<stop offset="0.2702" stop-color="#FFA44A"/>
<stop offset="0.4749" stop-color="#FF8245"/>
<stop offset="0.6692" stop-color="#FF6A40"/>
<stop offset="0.8489" stop-color="#FF5C3E"/>
<stop offset="1" stop-color="#FF573D"/>
</linearGradient>
<linearGradient id="paint6_linear_0_3784" x1="-185.537" y1="330.734" x2="144.766" y2="330.734" gradientUnits="userSpaceOnUse">
<stop stop-color="#FFDC54"/>
<stop offset="0.0596" stop-color="#FFCF52"/>
<stop offset="0.2702" stop-color="#FFA44A"/>
<stop offset="0.4749" stop-color="#FF8245"/>
<stop offset="0.6692" stop-color="#FF6A40"/>
<stop offset="0.8489" stop-color="#FF5C3E"/>
<stop offset="1" stop-color="#FF573D"/>
</linearGradient>
<linearGradient id="paint7_linear_0_3784" x1="-170.093" y1="317.713" x2="164.088" y2="317.713" gradientUnits="userSpaceOnUse">
<stop stop-color="#FFDC54"/>
<stop offset="0.0596" stop-color="#FFCF52"/>
<stop offset="0.2702" stop-color="#FFA44A"/>
<stop offset="0.4749" stop-color="#FF8245"/>
<stop offset="0.6692" stop-color="#FF6A40"/>
<stop offset="0.8489" stop-color="#FF5C3E"/>
<stop offset="1" stop-color="#FF573D"/>
</linearGradient>
<linearGradient id="paint8_linear_0_3784" x1="-153.619" y1="304.689" x2="182.373" y2="304.689" gradientUnits="userSpaceOnUse">
<stop stop-color="#FFDC54"/>
<stop offset="0.0596" stop-color="#FFCF52"/>
<stop offset="0.2702" stop-color="#FFA44A"/>
<stop offset="0.4749" stop-color="#FF8245"/>
<stop offset="0.6692" stop-color="#FF6A40"/>
<stop offset="0.8489" stop-color="#FF5C3E"/>
<stop offset="1" stop-color="#FF573D"/>
</linearGradient>
<linearGradient id="paint9_linear_0_3784" x1="-136.14" y1="291.668" x2="199.653" y2="291.668" gradientUnits="userSpaceOnUse">
<stop stop-color="#FFDC54"/>
<stop offset="0.0596" stop-color="#FFCF52"/>
<stop offset="0.2702" stop-color="#FFA44A"/>
<stop offset="0.4749" stop-color="#FF8245"/>
<stop offset="0.6692" stop-color="#FF6A40"/>
<stop offset="0.8489" stop-color="#FF5C3E"/>
<stop offset="1" stop-color="#FF573D"/>
</linearGradient>
<linearGradient id="paint10_linear_0_3784" x1="-117.651" y1="278.643" x2="215.921" y2="278.643" gradientUnits="userSpaceOnUse">
<stop stop-color="#FFDC54"/>
<stop offset="0.0596" stop-color="#FFCF52"/>
<stop offset="0.2702" stop-color="#FFA44A"/>
<stop offset="0.4749" stop-color="#FF8245"/>
<stop offset="0.6692" stop-color="#FF6A40"/>
<stop offset="0.8489" stop-color="#FF5C3E"/>
<stop offset="1" stop-color="#FF573D"/>
</linearGradient>
<linearGradient id="paint11_linear_0_3784" x1="-98.117" y1="265.619" x2="231.149" y2="265.619" gradientUnits="userSpaceOnUse">
<stop stop-color="#FFDC54"/>
<stop offset="0.0596" stop-color="#FFCF52"/>
<stop offset="0.2702" stop-color="#FFA44A"/>
<stop offset="0.4749" stop-color="#FF8245"/>
<stop offset="0.6692" stop-color="#FF6A40"/>
<stop offset="0.8489" stop-color="#FF5C3E"/>
<stop offset="1" stop-color="#FF573D"/>
</linearGradient>
<linearGradient id="paint12_linear_0_3784" x1="-77.4964" y1="252.595" x2="245.286" y2="252.595" gradientUnits="userSpaceOnUse">
<stop stop-color="#FFDC54"/>
<stop offset="0.0596" stop-color="#FFCF52"/>
<stop offset="0.2702" stop-color="#FFA44A"/>
<stop offset="0.4749" stop-color="#FF8245"/>
<stop offset="0.6692" stop-color="#FF6A40"/>
<stop offset="0.8489" stop-color="#FF5C3E"/>
<stop offset="1" stop-color="#FF573D"/>
</linearGradient>
<linearGradient id="paint13_linear_0_3784" x1="-55.7108" y1="239.573" x2="258.266" y2="239.573" gradientUnits="userSpaceOnUse">
<stop stop-color="#FFDC54"/>
<stop offset="0.0596" stop-color="#FFCF52"/>
<stop offset="0.2702" stop-color="#FFA44A"/>
<stop offset="0.4749" stop-color="#FF8245"/>
<stop offset="0.6692" stop-color="#FF6A40"/>
<stop offset="0.8489" stop-color="#FF5C3E"/>
<stop offset="1" stop-color="#FF573D"/>
</linearGradient>
<linearGradient id="paint14_linear_0_3784" x1="-32.6635" y1="226.549" x2="269.975" y2="226.549" gradientUnits="userSpaceOnUse">
<stop stop-color="#FFDC54"/>
<stop offset="0.0596" stop-color="#FFCF52"/>
<stop offset="0.2702" stop-color="#FFA44A"/>
<stop offset="0.4749" stop-color="#FF8245"/>
<stop offset="0.6692" stop-color="#FF6A40"/>
<stop offset="0.8489" stop-color="#FF5C3E"/>
<stop offset="1" stop-color="#FF573D"/>
</linearGradient>
<linearGradient id="paint15_linear_0_3784" x1="-8.19969" y1="213.525" x2="280.275" y2="213.525" gradientUnits="userSpaceOnUse">
<stop stop-color="#FFDC54"/>
<stop offset="0.0596" stop-color="#FFCF52"/>
<stop offset="0.2702" stop-color="#FFA44A"/>
<stop offset="0.4749" stop-color="#FF8245"/>
<stop offset="0.6692" stop-color="#FF6A40"/>
<stop offset="0.8489" stop-color="#FF5C3E"/>
<stop offset="1" stop-color="#FF573D"/>
</linearGradient>
<linearGradient id="paint16_linear_0_3784" x1="17.889" y1="200.503" x2="288.941" y2="200.503" gradientUnits="userSpaceOnUse">
<stop stop-color="#FFDC54"/>
<stop offset="0.0596" stop-color="#FFCF52"/>
<stop offset="0.2702" stop-color="#FFA44A"/>
<stop offset="0.4749" stop-color="#FF8245"/>
<stop offset="0.6692" stop-color="#FF6A40"/>
<stop offset="0.8489" stop-color="#FF5C3E"/>
<stop offset="1" stop-color="#FF573D"/>
</linearGradient>
<linearGradient id="paint17_linear_0_3784" x1="45.9465" y1="187.482" x2="295.642" y2="187.482" gradientUnits="userSpaceOnUse">
<stop stop-color="#FFDC54"/>
<stop offset="0.0596" stop-color="#FFCF52"/>
<stop offset="0.2702" stop-color="#FFA44A"/>
<stop offset="0.4749" stop-color="#FF8245"/>
<stop offset="0.6692" stop-color="#FF6A40"/>
<stop offset="0.8489" stop-color="#FF5C3E"/>
<stop offset="1" stop-color="#FF573D"/>
</linearGradient>
<linearGradient id="paint18_linear_0_3784" x1="79.6976" y1="172.789" x2="299.815" y2="172.789" gradientUnits="userSpaceOnUse">
<stop stop-color="#FFDC54"/>
<stop offset="0.0596" stop-color="#FFCF52"/>
<stop offset="0.2702" stop-color="#FFA44A"/>
<stop offset="0.4749" stop-color="#FF8245"/>
<stop offset="0.6692" stop-color="#FF6A40"/>
<stop offset="0.8489" stop-color="#FF5C3E"/>
<stop offset="1" stop-color="#FF573D"/>
</linearGradient>
<linearGradient id="paint19_linear_0_3784" x1="128.137" y1="151.582" x2="300.405" y2="151.582" gradientUnits="userSpaceOnUse">
<stop stop-color="#FFDC54"/>
<stop offset="0.0596" stop-color="#FFCF52"/>
<stop offset="0.2702" stop-color="#FFA44A"/>
<stop offset="0.4749" stop-color="#FF8245"/>
<stop offset="0.6692" stop-color="#FF6A40"/>
<stop offset="0.8489" stop-color="#FF5C3E"/>
<stop offset="1" stop-color="#FF573D"/>
</linearGradient>
<linearGradient id="paint20_linear_0_3784" x1="202.241" y1="121.781" x2="294.879" y2="121.781" gradientUnits="userSpaceOnUse">
<stop stop-color="#FFDC54"/>
<stop offset="0.0596" stop-color="#FFCF52"/>
<stop offset="0.2702" stop-color="#FFA44A"/>
<stop offset="0.4749" stop-color="#FF8245"/>
<stop offset="0.6692" stop-color="#FF6A40"/>
<stop offset="0.8489" stop-color="#FF5C3E"/>
<stop offset="1" stop-color="#FF573D"/>
</linearGradient>
<linearGradient id="paint21_linear_0_3784" x1="260.86" y1="101.954" x2="277.011" y2="101.954" gradientUnits="userSpaceOnUse">
<stop stop-color="#FFDC54"/>
<stop offset="0.0596" stop-color="#FFCF52"/>
<stop offset="0.2702" stop-color="#FFA44A"/>
<stop offset="0.4749" stop-color="#FF8245"/>
<stop offset="0.6692" stop-color="#FF6A40"/>
<stop offset="0.8489" stop-color="#FF5C3E"/>
<stop offset="1" stop-color="#FF573D"/>
</linearGradient>
</defs>
</svg>
