<svg width="56" height="56" viewBox="0 0 56 56" fill="none" xmlns="http://www.w3.org/2000/svg">
<path d="M45.5064 7.04371C44.921 7.07093 44.3697 7.24109 43.8797 7.43167H43.8728C43.376 7.62905 41.0142 8.62278 37.4272 10.127C33.8403 11.638 29.1848 13.5982 24.5632 15.5448C15.3338 19.4313 6.26099 23.2564 6.26099 23.2564L6.36989 23.2156C6.36989 23.2156 5.7437 23.4198 5.09029 23.869C4.75678 24.0868 4.38924 24.3863 4.06934 24.8559C3.74945 25.3255 3.4908 26.047 3.58609 26.7889C3.74264 28.0481 4.5594 28.8036 5.14475 29.2188C5.7369 29.6408 6.30183 29.8382 6.30183 29.8382H6.31544L14.8234 32.7036C15.2045 33.9288 17.4166 41.1979 17.9475 42.8723C18.2606 43.8728 18.5669 44.499 18.948 44.9755C19.1318 45.2205 19.3496 45.4247 19.6082 45.588C19.7103 45.6493 19.8192 45.6969 19.9281 45.7378C19.9622 45.7582 19.9962 45.765 20.037 45.7718L19.9485 45.7514C19.9758 45.7582 19.9962 45.7786 20.0166 45.7854C20.0847 45.8058 20.1323 45.8126 20.2208 45.8263C21.5685 46.2346 22.6507 45.3975 22.6507 45.3975L22.7119 45.3498L27.735 40.776L36.1545 47.2352L36.345 47.3168C38.1011 48.086 39.8775 47.6572 40.8168 46.9017C41.7629 46.1394 42.1304 45.166 42.1304 45.166L42.1917 45.0095L48.6985 11.6788C48.8823 10.8553 48.93 10.0861 48.7258 9.33744C48.5216 8.58875 47.9975 7.88769 47.3645 7.51334C46.7247 7.13219 46.0917 7.01648 45.5064 7.04371ZM45.3294 10.617C45.3226 10.7259 45.343 10.7123 45.2954 10.9233V10.9437L38.8498 43.9273C38.8225 43.9749 38.7749 44.077 38.6456 44.1791C38.5094 44.288 38.4005 44.3561 37.8356 44.1315L27.5376 36.2361L21.3166 41.9058L22.6234 33.5612C22.6234 33.5612 38.7545 18.526 39.4487 17.8794C40.143 17.2328 39.9116 17.0967 39.9116 17.0967C39.9592 16.3071 38.8634 16.8653 38.8634 16.8653L17.648 30.0083L17.6412 29.9743L7.47252 26.5507V26.5439C7.46571 26.5439 7.4521 26.5371 7.44529 26.5371C7.4521 26.5371 7.49974 26.5167 7.49974 26.5167L7.55419 26.4894L7.60864 26.469C7.60864 26.469 16.6883 22.6438 25.9177 18.7574C30.5392 16.8108 35.1948 14.8506 38.7749 13.3396C42.355 11.8354 45.0027 10.7327 45.1524 10.6715C45.2954 10.617 45.2273 10.617 45.3294 10.617Z" fill="#00AEEF"/>
</svg>
