<svg width="163" height="149" viewBox="0 0 163 149" fill="none" xmlns="http://www.w3.org/2000/svg">
<path d="M48.3304 71.1353C48.7058 72.1789 49.1125 73.2111 49.5497 74.2303C29.3293 79.1637 14.3252 97.3713 14.3252 119.074C14.3252 122.942 11.1894 126.078 7.32129 126.078C3.45322 126.078 0.317383 122.942 0.317383 119.074C0.317383 94.9469 14.5363 74.1384 35.0599 64.5467C39.024 67.4549 43.5012 69.705 48.3304 71.1352V71.1353ZM45.0899 54.4361C36.8408 49.2548 31.3574 40.0754 31.3574 29.6152C31.3574 13.4394 44.4706 0.326172 60.6465 0.326172C65.3463 0.326172 69.7874 1.43311 73.7236 3.40041C56.6157 12.9512 45.0469 31.2341 45.0469 52.2188C45.0469 52.9613 45.0614 53.7006 45.09 54.4361H45.0899ZM76.4467 86.6727C83.6145 91.932 92.4613 95.0381 102.033 95.0381C111.578 95.0381 120.4 91.95 127.558 86.7181C148.029 96.3301 162.203 117.111 162.203 141.2C162.203 145.068 159.067 148.204 155.199 148.204C151.331 148.204 148.195 145.068 148.195 141.2C148.195 115.708 127.494 95.0381 101.954 95.0381C76.4128 95.0381 55.7119 115.708 55.7119 141.2C55.7119 145.068 52.5761 148.204 48.708 148.204C44.8399 148.204 41.7041 145.068 41.7041 141.2C41.7041 117.073 55.923 96.2644 76.4467 86.6727ZM102.033 81.0303C85.8574 81.0303 72.7441 67.9171 72.7441 51.7412C72.7441 35.5654 85.8574 22.4521 102.033 22.4521C118.209 22.4521 131.322 35.5654 131.322 51.7412C131.322 67.9171 118.209 81.0303 102.033 81.0303Z" fill="#00FFEB"/>
</svg>
