<svg width="356" height="356" viewBox="0 0 356 356" fill="none" xmlns="http://www.w3.org/2000/svg">
<path d="M0.97168 312.548V269.73H86.6076V355.365H0.97168V312.548ZM74.3739 312.548V281.963H13.2054V343.132H74.3739V312.548ZM25.4391 312.548V294.197H62.1402V330.898H25.4391V312.548ZM111.075 349.249V343.132H98.8413V318.664H111.075V281.963H123.309V269.73H98.8413V257.496H49.9065V245.262H62.1402V233.028H37.6728V257.496H25.4391V245.262H0.97168V233.028H25.4391V208.561H13.2054V220.795H0.97168V196.327H25.4391V208.561H37.6728V220.795H49.9065V208.561H62.1402V220.795H86.6076V208.561H74.3739V196.327H37.6728V184.094H74.3739V171.86H37.6728V159.626H25.4391V171.86H0.97168V135.159H13.2054V147.392H86.6076V135.159H74.3739V122.925H49.9065V135.159H37.6728V122.925H13.2054V98.4577H37.6728V122.925H49.9065V110.691H74.3739V98.4577H86.6076V110.691H74.3739V122.925H86.6076V135.159H98.8413V110.691H111.075V98.4577H98.8413V61.7565H123.309V73.9902H135.542V86.224H123.309V98.4577H135.542V171.86H111.075V159.626H98.8413V171.86H86.6076V184.094H74.3739V196.327H86.6076V208.561H98.8413V220.795H123.309V208.561H111.075V196.327H98.8413V184.094H123.309V208.561H135.542V184.094H147.776V208.561H160.01V171.86H172.244V159.626H184.477V171.86H172.244V184.094H184.477V196.327H221.178V184.094H208.945V171.86H196.711V147.392H184.477V135.159H196.711V122.925H208.945V110.691H196.711V98.4577H184.477V122.925H172.244V110.691H160.01V122.925H147.776V110.691H160.01V98.4577H147.776V61.7565H135.542V49.5228H147.776V61.7565H160.01V12.8217H172.244V37.2891H196.711V25.0554H184.477V0.588013H208.945V12.8217H196.711V25.0554H221.178V12.8217H233.412V0.588013H257.879V37.2891H233.412V25.0554H221.178V49.5228H233.412V86.224H245.646V73.9902H257.879V135.159H282.347V122.925H270.113V98.4577H294.581V135.159H319.048V122.925H306.814V98.4577H319.048V122.925H331.282V110.691H355.749V135.159H343.515V122.925H331.282V135.159H319.048V171.86H331.282V184.094H319.048V196.327H294.581V208.561H282.347V220.795H257.879V208.561H245.646V196.327H233.412V220.795H245.646V233.028H282.347V245.262H306.814V233.028H294.581V220.795H306.814V208.561H319.048V220.795H331.282V233.028H343.515V208.561H331.282V196.327H355.749V233.028H343.515V257.496H355.749V281.963H343.515V318.664H355.749V330.898H319.048V355.365H282.347V343.132H306.814V330.898H282.347V306.431H270.113V330.898H257.879V343.132H270.113V355.365H245.646V318.664H233.412V343.132H221.178V330.898H208.945V281.963H221.178V318.664H233.412V281.963H245.646V257.496H233.412V245.262H221.178V233.028H233.412V220.795H221.178V208.561H208.945V257.496H221.178V269.73H196.711V294.197H184.477V318.664H196.711V330.898H184.477V343.132H208.945V355.365H184.477V343.132H172.244V330.898H160.01V355.365H111.075V349.249ZM147.776 330.898V318.664H160.01V281.963H135.542V294.197H147.776V306.431H123.309V318.664H111.075V330.898H123.309V343.132H147.776V330.898ZM319.048 318.664V306.431H331.282V281.963H343.515V269.73H331.282V233.028H319.048V269.73H331.282V281.963H319.048V294.197H306.814V330.898H319.048V318.664ZM257.879 312.548V306.431H245.646V318.664H257.879V312.548ZM184.477 288.08V281.963H172.244V294.197H184.477V288.08ZM294.581 275.846V257.496H257.879V294.197H294.581V275.846ZM270.113 275.846V269.73H282.347V281.963H270.113V275.846ZM172.244 263.613V257.496H196.711V245.262H172.244V233.028H160.01V245.262H172.244V257.496H147.776V245.262H135.542V257.496H123.309V245.262H111.075V233.028H98.8413V220.795H86.6076V233.028H74.3739V245.262H86.6076V233.028H98.8413V245.262H111.075V257.496H123.309V269.73H172.244V263.613ZM135.542 226.912V220.795H123.309V233.028H135.542V226.912ZM196.711 220.795V208.561H172.244V220.795H184.477V233.028H196.711V220.795ZM270.113 202.444V196.327H257.879V208.561H270.113V202.444ZM294.581 190.21V184.094H306.814V147.392H294.581V159.626H282.347V171.86H270.113V159.626H245.646V147.392H233.412V135.159H245.646V98.4577H233.412V86.224H221.178V73.9902H208.945V86.224H196.711V49.5228H208.945V61.7565H221.178V49.5228H208.945V37.2891H196.711V49.5228H184.477V86.224H196.711V98.4577H208.945V86.224H221.178V122.925H208.945V135.159H196.711V147.392H208.945V171.86H221.178V159.626H245.646V171.86H257.879V184.094H282.347V196.327H294.581V190.21ZM282.347 177.977V171.86H294.581V184.094H282.347V177.977ZM86.6076 165.743V159.626H98.8413V147.392H86.6076V159.626H74.3739V171.86H86.6076V165.743ZM123.309 141.276V135.159H111.075V147.392H123.309V141.276ZM123.309 80.1071V73.9902H111.075V86.224H123.309V80.1071ZM172.244 73.9902V61.7565H160.01V86.224H172.244V73.9902ZM245.646 18.9386V12.8217H233.412V25.0554H245.646V18.9386ZM343.515 349.249V343.132H355.749V355.365H343.515V349.249ZM343.515 171.86V159.626H331.282V147.392H343.515V159.626H355.749V184.094H343.515V171.86ZM0.97168 43.406V0.588013H86.6076V86.224H0.97168V43.406ZM74.3739 43.406V12.8217H13.2054V73.9902H74.3739V43.406ZM25.4391 43.406V25.0554H62.1402V61.7565H25.4391V43.406ZM270.113 43.406V0.588013H355.749V86.224H270.113V43.406ZM343.515 43.406V12.8217H282.347V73.9902H343.515V43.406ZM294.581 43.406V25.0554H331.282V61.7565H294.581V43.406ZM98.8413 43.406V37.2891H111.075V49.5228H98.8413V43.406ZM123.309 31.1723V25.0554H111.075V0.588013H123.309V12.8217H135.542V0.588013H147.776V12.8217H135.542V37.2891H123.309V31.1723Z" fill="black"/>
</svg>
